%TF.GenerationSoftware,KiCad,Pcbnew,(6.0.10)*%
%TF.CreationDate,2022-12-31T20:59:51+01:00*%
%TF.ProjectId,ESPreen,45535072-6565-46e2-9e6b-696361645f70,0*%
%TF.SameCoordinates,Original*%
%TF.FileFunction,Legend,Top*%
%TF.FilePolarity,Positive*%
%FSLAX46Y46*%
G04 Gerber Fmt 4.6, Leading zero omitted, Abs format (unit mm)*
G04 Created by KiCad (PCBNEW (6.0.10)) date 2022-12-31 20:59:51*
%MOMM*%
%LPD*%
G01*
G04 APERTURE LIST*
G04 Aperture macros list*
%AMRoundRect*
0 Rectangle with rounded corners*
0 $1 Rounding radius*
0 $2 $3 $4 $5 $6 $7 $8 $9 X,Y pos of 4 corners*
0 Add a 4 corners polygon primitive as box body*
4,1,4,$2,$3,$4,$5,$6,$7,$8,$9,$2,$3,0*
0 Add four circle primitives for the rounded corners*
1,1,$1+$1,$2,$3*
1,1,$1+$1,$4,$5*
1,1,$1+$1,$6,$7*
1,1,$1+$1,$8,$9*
0 Add four rect primitives between the rounded corners*
20,1,$1+$1,$2,$3,$4,$5,0*
20,1,$1+$1,$4,$5,$6,$7,0*
20,1,$1+$1,$6,$7,$8,$9,0*
20,1,$1+$1,$8,$9,$2,$3,0*%
G04 Aperture macros list end*
%ADD10C,0.150000*%
%ADD11C,0.120000*%
%ADD12RoundRect,0.125000X0.550000X-0.075000X0.550000X0.075000X-0.550000X0.075000X-0.550000X-0.075000X0*%
%ADD13RoundRect,0.550000X1.250000X-0.750000X1.250000X0.750000X-1.250000X0.750000X-1.250000X-0.750000X0*%
%ADD14RoundRect,0.050000X-0.525000X0.525000X-0.525000X-0.525000X0.525000X-0.525000X0.525000X0.525000X0*%
%ADD15C,1.150000*%
%ADD16RoundRect,0.287500X0.300000X0.237500X-0.300000X0.237500X-0.300000X-0.237500X0.300000X-0.237500X0*%
%ADD17RoundRect,0.287500X-0.237500X0.300000X-0.237500X-0.300000X0.237500X-0.300000X0.237500X0.300000X0*%
%ADD18RoundRect,0.287500X-0.250000X-0.237500X0.250000X-0.237500X0.250000X0.237500X-0.250000X0.237500X0*%
%ADD19RoundRect,0.287500X0.250000X0.237500X-0.250000X0.237500X-0.250000X-0.237500X0.250000X-0.237500X0*%
%ADD20RoundRect,0.287500X-0.300000X-0.237500X0.300000X-0.237500X0.300000X0.237500X-0.300000X0.237500X0*%
%ADD21RoundRect,0.050000X0.180000X0.125000X-0.180000X0.125000X-0.180000X-0.125000X0.180000X-0.125000X0*%
%ADD22RoundRect,0.050000X1.000000X0.750000X-1.000000X0.750000X-1.000000X-0.750000X1.000000X-0.750000X0*%
%ADD23RoundRect,0.050000X1.000000X1.900000X-1.000000X1.900000X-1.000000X-1.900000X1.000000X-1.900000X0*%
%ADD24RoundRect,0.050000X-0.750000X-0.450000X0.750000X-0.450000X0.750000X0.450000X-0.750000X0.450000X0*%
%ADD25RoundRect,0.050000X0.750000X0.450000X-0.750000X0.450000X-0.750000X-0.450000X0.750000X-0.450000X0*%
%ADD26RoundRect,0.050000X-0.450000X0.750000X-0.450000X-0.750000X0.450000X-0.750000X0.450000X0.750000X0*%
%ADD27C,0.600000*%
%ADD28RoundRect,0.050000X-1.950000X1.950000X-1.950000X-1.950000X1.950000X-1.950000X1.950000X1.950000X0*%
%ADD29RoundRect,0.200000X-0.150000X0.587500X-0.150000X-0.587500X0.150000X-0.587500X0.150000X0.587500X0*%
%ADD30C,1.100000*%
%ADD31RoundRect,0.200000X-0.825000X-0.150000X0.825000X-0.150000X0.825000X0.150000X-0.825000X0.150000X0*%
%ADD32RoundRect,0.050000X0.850000X-0.850000X0.850000X0.850000X-0.850000X0.850000X-0.850000X-0.850000X0*%
%ADD33O,1.800000X1.800000*%
%ADD34RoundRect,0.287500X0.237500X-0.300000X0.237500X0.300000X-0.237500X0.300000X-0.237500X-0.300000X0*%
%ADD35RoundRect,0.300000X-0.620000X0.620000X-0.620000X-0.620000X0.620000X-0.620000X0.620000X0.620000X0*%
%ADD36C,1.840000*%
%ADD37RoundRect,0.287500X-0.287500X-0.237500X0.287500X-0.237500X0.287500X0.237500X-0.287500X0.237500X0*%
%ADD38RoundRect,0.050000X-0.750000X0.800000X-0.750000X-0.800000X0.750000X-0.800000X0.750000X0.800000X0*%
%ADD39C,1.700000*%
%ADD40C,3.100000*%
%ADD41RoundRect,0.287500X-0.237500X0.250000X-0.237500X-0.250000X0.237500X-0.250000X0.237500X0.250000X0*%
%ADD42RoundRect,0.287500X0.237500X-0.287500X0.237500X0.287500X-0.237500X0.287500X-0.237500X-0.287500X0*%
%ADD43C,1.600000*%
G04 APERTURE END LIST*
D10*
X132787976Y-113942857D02*
X133054642Y-113942857D01*
X133168928Y-114361904D02*
X132787976Y-114361904D01*
X132787976Y-113561904D01*
X133168928Y-113561904D01*
X133778452Y-113942857D02*
X133511785Y-113942857D01*
X133511785Y-114361904D02*
X133511785Y-113561904D01*
X133892738Y-113561904D01*
X134197500Y-114361904D02*
X134197500Y-113561904D01*
X134464166Y-114133333D01*
X134730833Y-113561904D01*
X134730833Y-114361904D01*
X135226071Y-113904761D02*
X135149880Y-113866666D01*
X135111785Y-113828571D01*
X135073690Y-113752380D01*
X135073690Y-113714285D01*
X135111785Y-113638095D01*
X135149880Y-113600000D01*
X135226071Y-113561904D01*
X135378452Y-113561904D01*
X135454642Y-113600000D01*
X135492738Y-113638095D01*
X135530833Y-113714285D01*
X135530833Y-113752380D01*
X135492738Y-113828571D01*
X135454642Y-113866666D01*
X135378452Y-113904761D01*
X135226071Y-113904761D01*
X135149880Y-113942857D01*
X135111785Y-113980952D01*
X135073690Y-114057142D01*
X135073690Y-114209523D01*
X135111785Y-114285714D01*
X135149880Y-114323809D01*
X135226071Y-114361904D01*
X135378452Y-114361904D01*
X135454642Y-114323809D01*
X135492738Y-114285714D01*
X135530833Y-114209523D01*
X135530833Y-114057142D01*
X135492738Y-113980952D01*
X135454642Y-113942857D01*
X135378452Y-113904761D01*
X136483214Y-114361904D02*
X136483214Y-113561904D01*
X136673690Y-113561904D01*
X136787976Y-113600000D01*
X136864166Y-113676190D01*
X136902261Y-113752380D01*
X136940357Y-113904761D01*
X136940357Y-114019047D01*
X136902261Y-114171428D01*
X136864166Y-114247619D01*
X136787976Y-114323809D01*
X136673690Y-114361904D01*
X136483214Y-114361904D01*
X137587976Y-114323809D02*
X137511785Y-114361904D01*
X137359404Y-114361904D01*
X137283214Y-114323809D01*
X137245119Y-114247619D01*
X137245119Y-113942857D01*
X137283214Y-113866666D01*
X137359404Y-113828571D01*
X137511785Y-113828571D01*
X137587976Y-113866666D01*
X137626071Y-113942857D01*
X137626071Y-114019047D01*
X137245119Y-114095238D01*
X137968928Y-114361904D02*
X137968928Y-113561904D01*
X137968928Y-113866666D02*
X138045119Y-113828571D01*
X138197500Y-113828571D01*
X138273690Y-113866666D01*
X138311785Y-113904761D01*
X138349880Y-113980952D01*
X138349880Y-114209523D01*
X138311785Y-114285714D01*
X138273690Y-114323809D01*
X138197500Y-114361904D01*
X138045119Y-114361904D01*
X137968928Y-114323809D01*
X139035595Y-113828571D02*
X139035595Y-114361904D01*
X138692738Y-113828571D02*
X138692738Y-114247619D01*
X138730833Y-114323809D01*
X138807023Y-114361904D01*
X138921309Y-114361904D01*
X138997500Y-114323809D01*
X139035595Y-114285714D01*
X139759404Y-113828571D02*
X139759404Y-114476190D01*
X139721309Y-114552380D01*
X139683214Y-114590476D01*
X139607023Y-114628571D01*
X139492738Y-114628571D01*
X139416547Y-114590476D01*
X139759404Y-114323809D02*
X139683214Y-114361904D01*
X139530833Y-114361904D01*
X139454642Y-114323809D01*
X139416547Y-114285714D01*
X139378452Y-114209523D01*
X139378452Y-113980952D01*
X139416547Y-113904761D01*
X139454642Y-113866666D01*
X139530833Y-113828571D01*
X139683214Y-113828571D01*
X139759404Y-113866666D01*
X153537976Y-74192857D02*
X153804642Y-74192857D01*
X153918928Y-74611904D02*
X153537976Y-74611904D01*
X153537976Y-73811904D01*
X153918928Y-73811904D01*
X154223690Y-74573809D02*
X154337976Y-74611904D01*
X154528452Y-74611904D01*
X154604642Y-74573809D01*
X154642738Y-74535714D01*
X154680833Y-74459523D01*
X154680833Y-74383333D01*
X154642738Y-74307142D01*
X154604642Y-74269047D01*
X154528452Y-74230952D01*
X154376071Y-74192857D01*
X154299880Y-74154761D01*
X154261785Y-74116666D01*
X154223690Y-74040476D01*
X154223690Y-73964285D01*
X154261785Y-73888095D01*
X154299880Y-73850000D01*
X154376071Y-73811904D01*
X154566547Y-73811904D01*
X154680833Y-73850000D01*
X155023690Y-74611904D02*
X155023690Y-73811904D01*
X155328452Y-73811904D01*
X155404642Y-73850000D01*
X155442738Y-73888095D01*
X155480833Y-73964285D01*
X155480833Y-74078571D01*
X155442738Y-74154761D01*
X155404642Y-74192857D01*
X155328452Y-74230952D01*
X155023690Y-74230952D01*
X155747500Y-73811904D02*
X156242738Y-73811904D01*
X155976071Y-74116666D01*
X156090357Y-74116666D01*
X156166547Y-74154761D01*
X156204642Y-74192857D01*
X156242738Y-74269047D01*
X156242738Y-74459523D01*
X156204642Y-74535714D01*
X156166547Y-74573809D01*
X156090357Y-74611904D01*
X155861785Y-74611904D01*
X155785595Y-74573809D01*
X155747500Y-74535714D01*
X156547500Y-73888095D02*
X156585595Y-73850000D01*
X156661785Y-73811904D01*
X156852261Y-73811904D01*
X156928452Y-73850000D01*
X156966547Y-73888095D01*
X157004642Y-73964285D01*
X157004642Y-74040476D01*
X156966547Y-74154761D01*
X156509404Y-74611904D01*
X157004642Y-74611904D01*
X157347500Y-74307142D02*
X157957023Y-74307142D01*
X158299880Y-74573809D02*
X158414166Y-74611904D01*
X158604642Y-74611904D01*
X158680833Y-74573809D01*
X158718928Y-74535714D01*
X158757023Y-74459523D01*
X158757023Y-74383333D01*
X158718928Y-74307142D01*
X158680833Y-74269047D01*
X158604642Y-74230952D01*
X158452261Y-74192857D01*
X158376071Y-74154761D01*
X158337976Y-74116666D01*
X158299880Y-74040476D01*
X158299880Y-73964285D01*
X158337976Y-73888095D01*
X158376071Y-73850000D01*
X158452261Y-73811904D01*
X158642738Y-73811904D01*
X158757023Y-73850000D01*
X159023690Y-73811904D02*
X159518928Y-73811904D01*
X159252261Y-74116666D01*
X159366547Y-74116666D01*
X159442738Y-74154761D01*
X159480833Y-74192857D01*
X159518928Y-74269047D01*
X159518928Y-74459523D01*
X159480833Y-74535714D01*
X159442738Y-74573809D01*
X159366547Y-74611904D01*
X159137976Y-74611904D01*
X159061785Y-74573809D01*
X159023690Y-74535714D01*
X160471309Y-74611904D02*
X160471309Y-73811904D01*
X160661785Y-73811904D01*
X160776071Y-73850000D01*
X160852261Y-73926190D01*
X160890357Y-74002380D01*
X160928452Y-74154761D01*
X160928452Y-74269047D01*
X160890357Y-74421428D01*
X160852261Y-74497619D01*
X160776071Y-74573809D01*
X160661785Y-74611904D01*
X160471309Y-74611904D01*
X161576071Y-74573809D02*
X161499880Y-74611904D01*
X161347500Y-74611904D01*
X161271309Y-74573809D01*
X161233214Y-74497619D01*
X161233214Y-74192857D01*
X161271309Y-74116666D01*
X161347500Y-74078571D01*
X161499880Y-74078571D01*
X161576071Y-74116666D01*
X161614166Y-74192857D01*
X161614166Y-74269047D01*
X161233214Y-74345238D01*
X161957023Y-74611904D02*
X161957023Y-73811904D01*
X161957023Y-74116666D02*
X162033214Y-74078571D01*
X162185595Y-74078571D01*
X162261785Y-74116666D01*
X162299880Y-74154761D01*
X162337976Y-74230952D01*
X162337976Y-74459523D01*
X162299880Y-74535714D01*
X162261785Y-74573809D01*
X162185595Y-74611904D01*
X162033214Y-74611904D01*
X161957023Y-74573809D01*
X163023690Y-74078571D02*
X163023690Y-74611904D01*
X162680833Y-74078571D02*
X162680833Y-74497619D01*
X162718928Y-74573809D01*
X162795119Y-74611904D01*
X162909404Y-74611904D01*
X162985595Y-74573809D01*
X163023690Y-74535714D01*
X163747500Y-74078571D02*
X163747500Y-74726190D01*
X163709404Y-74802380D01*
X163671309Y-74840476D01*
X163595119Y-74878571D01*
X163480833Y-74878571D01*
X163404642Y-74840476D01*
X163747500Y-74573809D02*
X163671309Y-74611904D01*
X163518928Y-74611904D01*
X163442738Y-74573809D01*
X163404642Y-74535714D01*
X163366547Y-74459523D01*
X163366547Y-74230952D01*
X163404642Y-74154761D01*
X163442738Y-74116666D01*
X163518928Y-74078571D01*
X163671309Y-74078571D01*
X163747500Y-74116666D01*
X110745119Y-118361904D02*
X110478452Y-117980952D01*
X110287976Y-118361904D02*
X110287976Y-117561904D01*
X110592738Y-117561904D01*
X110668928Y-117600000D01*
X110707023Y-117638095D01*
X110745119Y-117714285D01*
X110745119Y-117828571D01*
X110707023Y-117904761D01*
X110668928Y-117942857D01*
X110592738Y-117980952D01*
X110287976Y-117980952D01*
X111087976Y-118285714D02*
X111126071Y-118323809D01*
X111087976Y-118361904D01*
X111049880Y-118323809D01*
X111087976Y-118285714D01*
X111087976Y-118361904D01*
X111735595Y-117942857D02*
X111849880Y-117980952D01*
X111887976Y-118019047D01*
X111926071Y-118095238D01*
X111926071Y-118209523D01*
X111887976Y-118285714D01*
X111849880Y-118323809D01*
X111773690Y-118361904D01*
X111468928Y-118361904D01*
X111468928Y-117561904D01*
X111735595Y-117561904D01*
X111811785Y-117600000D01*
X111849880Y-117638095D01*
X111887976Y-117714285D01*
X111887976Y-117790476D01*
X111849880Y-117866666D01*
X111811785Y-117904761D01*
X111735595Y-117942857D01*
X111468928Y-117942857D01*
X112268928Y-118285714D02*
X112307023Y-118323809D01*
X112268928Y-118361904D01*
X112230833Y-118323809D01*
X112268928Y-118285714D01*
X112268928Y-118361904D01*
X113107023Y-118361904D02*
X112840357Y-117980952D01*
X112649880Y-118361904D02*
X112649880Y-117561904D01*
X112954642Y-117561904D01*
X113030833Y-117600000D01*
X113068928Y-117638095D01*
X113107023Y-117714285D01*
X113107023Y-117828571D01*
X113068928Y-117904761D01*
X113030833Y-117942857D01*
X112954642Y-117980952D01*
X112649880Y-117980952D01*
X113449880Y-118285714D02*
X113487976Y-118323809D01*
X113449880Y-118361904D01*
X113411785Y-118323809D01*
X113449880Y-118285714D01*
X113449880Y-118361904D01*
X113830833Y-118057142D02*
X114440357Y-118057142D01*
X114783214Y-117638095D02*
X114821309Y-117600000D01*
X114897500Y-117561904D01*
X115087976Y-117561904D01*
X115164166Y-117600000D01*
X115202261Y-117638095D01*
X115240357Y-117714285D01*
X115240357Y-117790476D01*
X115202261Y-117904761D01*
X114745119Y-118361904D01*
X115240357Y-118361904D01*
X115545119Y-117638095D02*
X115583214Y-117600000D01*
X115659404Y-117561904D01*
X115849880Y-117561904D01*
X115926071Y-117600000D01*
X115964166Y-117638095D01*
X116002261Y-117714285D01*
X116002261Y-117790476D01*
X115964166Y-117904761D01*
X115507023Y-118361904D01*
X116002261Y-118361904D01*
X110211785Y-66561904D02*
X110707023Y-66561904D01*
X110440357Y-66866666D01*
X110554642Y-66866666D01*
X110630833Y-66904761D01*
X110668928Y-66942857D01*
X110707023Y-67019047D01*
X110707023Y-67209523D01*
X110668928Y-67285714D01*
X110630833Y-67323809D01*
X110554642Y-67361904D01*
X110326071Y-67361904D01*
X110249880Y-67323809D01*
X110211785Y-67285714D01*
X111049880Y-67361904D02*
X111049880Y-66561904D01*
X111240357Y-66561904D01*
X111354642Y-66600000D01*
X111430833Y-66676190D01*
X111468928Y-66752380D01*
X111507023Y-66904761D01*
X111507023Y-67019047D01*
X111468928Y-67171428D01*
X111430833Y-67247619D01*
X111354642Y-67323809D01*
X111240357Y-67361904D01*
X111049880Y-67361904D01*
X112459404Y-67361904D02*
X112459404Y-66561904D01*
X112764166Y-66561904D01*
X112840357Y-66600000D01*
X112878452Y-66638095D01*
X112916547Y-66714285D01*
X112916547Y-66828571D01*
X112878452Y-66904761D01*
X112840357Y-66942857D01*
X112764166Y-66980952D01*
X112459404Y-66980952D01*
X113259404Y-67361904D02*
X113259404Y-66828571D01*
X113259404Y-66980952D02*
X113297500Y-66904761D01*
X113335595Y-66866666D01*
X113411785Y-66828571D01*
X113487976Y-66828571D01*
X113754642Y-67361904D02*
X113754642Y-66828571D01*
X113754642Y-66561904D02*
X113716547Y-66600000D01*
X113754642Y-66638095D01*
X113792738Y-66600000D01*
X113754642Y-66561904D01*
X113754642Y-66638095D01*
X114135595Y-66828571D02*
X114135595Y-67361904D01*
X114135595Y-66904761D02*
X114173690Y-66866666D01*
X114249880Y-66828571D01*
X114364166Y-66828571D01*
X114440357Y-66866666D01*
X114478452Y-66942857D01*
X114478452Y-67361904D01*
X114745119Y-66828571D02*
X115049880Y-66828571D01*
X114859404Y-66561904D02*
X114859404Y-67247619D01*
X114897500Y-67323809D01*
X114973690Y-67361904D01*
X115049880Y-67361904D01*
X115621309Y-67323809D02*
X115545119Y-67361904D01*
X115392738Y-67361904D01*
X115316547Y-67323809D01*
X115278452Y-67247619D01*
X115278452Y-66942857D01*
X115316547Y-66866666D01*
X115392738Y-66828571D01*
X115545119Y-66828571D01*
X115621309Y-66866666D01*
X115659404Y-66942857D01*
X115659404Y-67019047D01*
X115278452Y-67095238D01*
X116002261Y-67361904D02*
X116002261Y-66828571D01*
X116002261Y-66980952D02*
X116040357Y-66904761D01*
X116078452Y-66866666D01*
X116154642Y-66828571D01*
X116230833Y-66828571D01*
X117107023Y-66942857D02*
X117373690Y-66942857D01*
X117487976Y-67361904D02*
X117107023Y-67361904D01*
X117107023Y-66561904D01*
X117487976Y-66561904D01*
X117792738Y-67323809D02*
X117907023Y-67361904D01*
X118097500Y-67361904D01*
X118173690Y-67323809D01*
X118211785Y-67285714D01*
X118249880Y-67209523D01*
X118249880Y-67133333D01*
X118211785Y-67057142D01*
X118173690Y-67019047D01*
X118097500Y-66980952D01*
X117945119Y-66942857D01*
X117868928Y-66904761D01*
X117830833Y-66866666D01*
X117792738Y-66790476D01*
X117792738Y-66714285D01*
X117830833Y-66638095D01*
X117868928Y-66600000D01*
X117945119Y-66561904D01*
X118135595Y-66561904D01*
X118249880Y-66600000D01*
X118592738Y-67361904D02*
X118592738Y-66561904D01*
X118897500Y-66561904D01*
X118973690Y-66600000D01*
X119011785Y-66638095D01*
X119049880Y-66714285D01*
X119049880Y-66828571D01*
X119011785Y-66904761D01*
X118973690Y-66942857D01*
X118897500Y-66980952D01*
X118592738Y-66980952D01*
X119392738Y-67361904D02*
X119392738Y-66828571D01*
X119392738Y-66980952D02*
X119430833Y-66904761D01*
X119468928Y-66866666D01*
X119545119Y-66828571D01*
X119621309Y-66828571D01*
X120192738Y-67323809D02*
X120116547Y-67361904D01*
X119964166Y-67361904D01*
X119887976Y-67323809D01*
X119849880Y-67247619D01*
X119849880Y-66942857D01*
X119887976Y-66866666D01*
X119964166Y-66828571D01*
X120116547Y-66828571D01*
X120192738Y-66866666D01*
X120230833Y-66942857D01*
X120230833Y-67019047D01*
X119849880Y-67095238D01*
X120878452Y-67323809D02*
X120802261Y-67361904D01*
X120649880Y-67361904D01*
X120573690Y-67323809D01*
X120535595Y-67247619D01*
X120535595Y-66942857D01*
X120573690Y-66866666D01*
X120649880Y-66828571D01*
X120802261Y-66828571D01*
X120878452Y-66866666D01*
X120916547Y-66942857D01*
X120916547Y-67019047D01*
X120535595Y-67095238D01*
X121259404Y-66828571D02*
X121259404Y-67361904D01*
X121259404Y-66904761D02*
X121297500Y-66866666D01*
X121373690Y-66828571D01*
X121487976Y-66828571D01*
X121564166Y-66866666D01*
X121602261Y-66942857D01*
X121602261Y-67361904D01*
X122478452Y-66561904D02*
X122745119Y-67361904D01*
X123011785Y-66561904D01*
X123202261Y-66561904D02*
X123697500Y-66561904D01*
X123430833Y-66866666D01*
X123545119Y-66866666D01*
X123621309Y-66904761D01*
X123659404Y-66942857D01*
X123697500Y-67019047D01*
X123697500Y-67209523D01*
X123659404Y-67285714D01*
X123621309Y-67323809D01*
X123545119Y-67361904D01*
X123316547Y-67361904D01*
X123240357Y-67323809D01*
X123202261Y-67285714D01*
X147811904Y-74473690D02*
X147811904Y-74854642D01*
X148192857Y-74892738D01*
X148154761Y-74854642D01*
X148116666Y-74778452D01*
X148116666Y-74587976D01*
X148154761Y-74511785D01*
X148192857Y-74473690D01*
X148269047Y-74435595D01*
X148459523Y-74435595D01*
X148535714Y-74473690D01*
X148573809Y-74511785D01*
X148611904Y-74587976D01*
X148611904Y-74778452D01*
X148573809Y-74854642D01*
X148535714Y-74892738D01*
X147811904Y-74207023D02*
X148611904Y-73940357D01*
X147811904Y-73673690D01*
X146111904Y-76149880D02*
X145311904Y-76149880D01*
X145311904Y-75616547D02*
X145311904Y-75464166D01*
X145350000Y-75387976D01*
X145426190Y-75311785D01*
X145578571Y-75273690D01*
X145845238Y-75273690D01*
X145997619Y-75311785D01*
X146073809Y-75387976D01*
X146111904Y-75464166D01*
X146111904Y-75616547D01*
X146073809Y-75692738D01*
X145997619Y-75768928D01*
X145845238Y-75807023D01*
X145578571Y-75807023D01*
X145426190Y-75768928D01*
X145350000Y-75692738D01*
X145311904Y-75616547D01*
X145578571Y-74587976D02*
X146111904Y-74587976D01*
X145273809Y-74778452D02*
X145845238Y-74968928D01*
X145845238Y-74473690D01*
X145388095Y-74207023D02*
X145350000Y-74168928D01*
X145311904Y-74092738D01*
X145311904Y-73902261D01*
X145350000Y-73826071D01*
X145388095Y-73787976D01*
X145464285Y-73749880D01*
X145540476Y-73749880D01*
X145654761Y-73787976D01*
X146111904Y-74245119D01*
X146111904Y-73749880D01*
X140061904Y-76073690D02*
X140061904Y-75578452D01*
X140366666Y-75845119D01*
X140366666Y-75730833D01*
X140404761Y-75654642D01*
X140442857Y-75616547D01*
X140519047Y-75578452D01*
X140709523Y-75578452D01*
X140785714Y-75616547D01*
X140823809Y-75654642D01*
X140861904Y-75730833D01*
X140861904Y-75959404D01*
X140823809Y-76035595D01*
X140785714Y-76073690D01*
X140785714Y-75235595D02*
X140823809Y-75197500D01*
X140861904Y-75235595D01*
X140823809Y-75273690D01*
X140785714Y-75235595D01*
X140861904Y-75235595D01*
X140061904Y-74930833D02*
X140061904Y-74435595D01*
X140366666Y-74702261D01*
X140366666Y-74587976D01*
X140404761Y-74511785D01*
X140442857Y-74473690D01*
X140519047Y-74435595D01*
X140709523Y-74435595D01*
X140785714Y-74473690D01*
X140823809Y-74511785D01*
X140861904Y-74587976D01*
X140861904Y-74816547D01*
X140823809Y-74892738D01*
X140785714Y-74930833D01*
X140061904Y-74207023D02*
X140861904Y-73940357D01*
X140061904Y-73673690D01*
X137600000Y-75426071D02*
X137561904Y-75502261D01*
X137561904Y-75616547D01*
X137600000Y-75730833D01*
X137676190Y-75807023D01*
X137752380Y-75845119D01*
X137904761Y-75883214D01*
X138019047Y-75883214D01*
X138171428Y-75845119D01*
X138247619Y-75807023D01*
X138323809Y-75730833D01*
X138361904Y-75616547D01*
X138361904Y-75540357D01*
X138323809Y-75426071D01*
X138285714Y-75387976D01*
X138019047Y-75387976D01*
X138019047Y-75540357D01*
X138361904Y-75045119D02*
X137561904Y-75045119D01*
X138361904Y-74587976D01*
X137561904Y-74587976D01*
X138361904Y-74207023D02*
X137561904Y-74207023D01*
X137561904Y-74016547D01*
X137600000Y-73902261D01*
X137676190Y-73826071D01*
X137752380Y-73787976D01*
X137904761Y-73749880D01*
X138019047Y-73749880D01*
X138171428Y-73787976D01*
X138247619Y-73826071D01*
X138323809Y-73902261D01*
X138361904Y-74016547D01*
X138361904Y-74207023D01*
X147811904Y-67331071D02*
X147811904Y-67712023D01*
X148192857Y-67750119D01*
X148154761Y-67712023D01*
X148116666Y-67635833D01*
X148116666Y-67445357D01*
X148154761Y-67369166D01*
X148192857Y-67331071D01*
X148269047Y-67292976D01*
X148459523Y-67292976D01*
X148535714Y-67331071D01*
X148573809Y-67369166D01*
X148611904Y-67445357D01*
X148611904Y-67635833D01*
X148573809Y-67712023D01*
X148535714Y-67750119D01*
X147811904Y-67064404D02*
X148611904Y-66797738D01*
X147811904Y-66531071D01*
X143361904Y-75387976D02*
X142561904Y-75387976D01*
X142561904Y-74854642D02*
X142561904Y-74702261D01*
X142600000Y-74626071D01*
X142676190Y-74549880D01*
X142828571Y-74511785D01*
X143095238Y-74511785D01*
X143247619Y-74549880D01*
X143323809Y-74626071D01*
X143361904Y-74702261D01*
X143361904Y-74854642D01*
X143323809Y-74930833D01*
X143247619Y-75007023D01*
X143095238Y-75045119D01*
X142828571Y-75045119D01*
X142676190Y-75007023D01*
X142600000Y-74930833D01*
X142561904Y-74854642D01*
X142638095Y-74207023D02*
X142600000Y-74168928D01*
X142561904Y-74092738D01*
X142561904Y-73902261D01*
X142600000Y-73826071D01*
X142638095Y-73787976D01*
X142714285Y-73749880D01*
X142790476Y-73749880D01*
X142904761Y-73787976D01*
X143361904Y-74245119D01*
X143361904Y-73749880D01*
X145350000Y-67359523D02*
X145311904Y-67435714D01*
X145311904Y-67550000D01*
X145350000Y-67664285D01*
X145426190Y-67740476D01*
X145502380Y-67778571D01*
X145654761Y-67816666D01*
X145769047Y-67816666D01*
X145921428Y-67778571D01*
X145997619Y-67740476D01*
X146073809Y-67664285D01*
X146111904Y-67550000D01*
X146111904Y-67473809D01*
X146073809Y-67359523D01*
X146035714Y-67321428D01*
X145769047Y-67321428D01*
X145769047Y-67473809D01*
X146111904Y-66978571D02*
X145311904Y-66978571D01*
X146111904Y-66521428D01*
X145311904Y-66521428D01*
X146111904Y-66140476D02*
X145311904Y-66140476D01*
X145311904Y-65950000D01*
X145350000Y-65835714D01*
X145426190Y-65759523D01*
X145502380Y-65721428D01*
X145654761Y-65683333D01*
X145769047Y-65683333D01*
X145921428Y-65721428D01*
X145997619Y-65759523D01*
X146073809Y-65835714D01*
X146111904Y-65950000D01*
X146111904Y-66140476D01*
X143361904Y-67712023D02*
X142561904Y-67712023D01*
X142561904Y-67178690D02*
X142561904Y-67026309D01*
X142600000Y-66950119D01*
X142676190Y-66873928D01*
X142828571Y-66835833D01*
X143095238Y-66835833D01*
X143247619Y-66873928D01*
X143323809Y-66950119D01*
X143361904Y-67026309D01*
X143361904Y-67178690D01*
X143323809Y-67254880D01*
X143247619Y-67331071D01*
X143095238Y-67369166D01*
X142828571Y-67369166D01*
X142676190Y-67331071D01*
X142600000Y-67254880D01*
X142561904Y-67178690D01*
X143361904Y-66073928D02*
X143361904Y-66531071D01*
X143361904Y-66302500D02*
X142561904Y-66302500D01*
X142676190Y-66378690D01*
X142752380Y-66454880D01*
X142790476Y-66531071D01*
X137600000Y-67292976D02*
X137561904Y-67369166D01*
X137561904Y-67483452D01*
X137600000Y-67597738D01*
X137676190Y-67673928D01*
X137752380Y-67712023D01*
X137904761Y-67750119D01*
X138019047Y-67750119D01*
X138171428Y-67712023D01*
X138247619Y-67673928D01*
X138323809Y-67597738D01*
X138361904Y-67483452D01*
X138361904Y-67407261D01*
X138323809Y-67292976D01*
X138285714Y-67254880D01*
X138019047Y-67254880D01*
X138019047Y-67407261D01*
X138361904Y-66912023D02*
X137561904Y-66912023D01*
X138361904Y-66454880D01*
X137561904Y-66454880D01*
X138361904Y-66073928D02*
X137561904Y-66073928D01*
X137561904Y-65883452D01*
X137600000Y-65769166D01*
X137676190Y-65692976D01*
X137752380Y-65654880D01*
X137904761Y-65616785D01*
X138019047Y-65616785D01*
X138171428Y-65654880D01*
X138247619Y-65692976D01*
X138323809Y-65769166D01*
X138361904Y-65883452D01*
X138361904Y-66073928D01*
X140061904Y-67788214D02*
X140061904Y-67292976D01*
X140366666Y-67559642D01*
X140366666Y-67445357D01*
X140404761Y-67369166D01*
X140442857Y-67331071D01*
X140519047Y-67292976D01*
X140709523Y-67292976D01*
X140785714Y-67331071D01*
X140823809Y-67369166D01*
X140861904Y-67445357D01*
X140861904Y-67673928D01*
X140823809Y-67750119D01*
X140785714Y-67788214D01*
X140785714Y-66950119D02*
X140823809Y-66912023D01*
X140861904Y-66950119D01*
X140823809Y-66988214D01*
X140785714Y-66950119D01*
X140861904Y-66950119D01*
X140061904Y-66645357D02*
X140061904Y-66150119D01*
X140366666Y-66416785D01*
X140366666Y-66302500D01*
X140404761Y-66226309D01*
X140442857Y-66188214D01*
X140519047Y-66150119D01*
X140709523Y-66150119D01*
X140785714Y-66188214D01*
X140823809Y-66226309D01*
X140861904Y-66302500D01*
X140861904Y-66531071D01*
X140823809Y-66607261D01*
X140785714Y-66645357D01*
X140061904Y-65921547D02*
X140861904Y-65654880D01*
X140061904Y-65388214D01*
X167640476Y-117061904D02*
X167716666Y-117061904D01*
X167792857Y-117100000D01*
X167830952Y-117138095D01*
X167869047Y-117214285D01*
X167907142Y-117366666D01*
X167907142Y-117557142D01*
X167869047Y-117709523D01*
X167830952Y-117785714D01*
X167792857Y-117823809D01*
X167716666Y-117861904D01*
X167640476Y-117861904D01*
X167564285Y-117823809D01*
X167526190Y-117785714D01*
X167488095Y-117709523D01*
X167450000Y-117557142D01*
X167450000Y-117366666D01*
X167488095Y-117214285D01*
X167526190Y-117138095D01*
X167564285Y-117100000D01*
X167640476Y-117061904D01*
X168250000Y-117785714D02*
X168288095Y-117823809D01*
X168250000Y-117861904D01*
X168211904Y-117823809D01*
X168250000Y-117785714D01*
X168250000Y-117861904D01*
X168973809Y-117061904D02*
X168821428Y-117061904D01*
X168745238Y-117100000D01*
X168707142Y-117138095D01*
X168630952Y-117252380D01*
X168592857Y-117404761D01*
X168592857Y-117709523D01*
X168630952Y-117785714D01*
X168669047Y-117823809D01*
X168745238Y-117861904D01*
X168897619Y-117861904D01*
X168973809Y-117823809D01*
X169011904Y-117785714D01*
X169050000Y-117709523D01*
X169050000Y-117519047D01*
X169011904Y-117442857D01*
X168973809Y-117404761D01*
X168897619Y-117366666D01*
X168745238Y-117366666D01*
X168669047Y-117404761D01*
X168630952Y-117442857D01*
X168592857Y-117519047D01*
X167640476Y-109561904D02*
X167716666Y-109561904D01*
X167792857Y-109600000D01*
X167830952Y-109638095D01*
X167869047Y-109714285D01*
X167907142Y-109866666D01*
X167907142Y-110057142D01*
X167869047Y-110209523D01*
X167830952Y-110285714D01*
X167792857Y-110323809D01*
X167716666Y-110361904D01*
X167640476Y-110361904D01*
X167564285Y-110323809D01*
X167526190Y-110285714D01*
X167488095Y-110209523D01*
X167450000Y-110057142D01*
X167450000Y-109866666D01*
X167488095Y-109714285D01*
X167526190Y-109638095D01*
X167564285Y-109600000D01*
X167640476Y-109561904D01*
X168250000Y-110285714D02*
X168288095Y-110323809D01*
X168250000Y-110361904D01*
X168211904Y-110323809D01*
X168250000Y-110285714D01*
X168250000Y-110361904D01*
X168554761Y-109561904D02*
X169088095Y-109561904D01*
X168745238Y-110361904D01*
X178061904Y-117723690D02*
X178061904Y-118104642D01*
X178442857Y-118142738D01*
X178404761Y-118104642D01*
X178366666Y-118028452D01*
X178366666Y-117837976D01*
X178404761Y-117761785D01*
X178442857Y-117723690D01*
X178519047Y-117685595D01*
X178709523Y-117685595D01*
X178785714Y-117723690D01*
X178823809Y-117761785D01*
X178861904Y-117837976D01*
X178861904Y-118028452D01*
X178823809Y-118104642D01*
X178785714Y-118142738D01*
X178061904Y-117457023D02*
X178861904Y-117190357D01*
X178061904Y-116923690D01*
X170407142Y-117861904D02*
X169950000Y-117861904D01*
X170178571Y-117861904D02*
X170178571Y-117061904D01*
X170102380Y-117176190D01*
X170026190Y-117252380D01*
X169950000Y-117290476D01*
X170750000Y-117785714D02*
X170788095Y-117823809D01*
X170750000Y-117861904D01*
X170711904Y-117823809D01*
X170750000Y-117785714D01*
X170750000Y-117861904D01*
X171283333Y-117061904D02*
X171359523Y-117061904D01*
X171435714Y-117100000D01*
X171473809Y-117138095D01*
X171511904Y-117214285D01*
X171550000Y-117366666D01*
X171550000Y-117557142D01*
X171511904Y-117709523D01*
X171473809Y-117785714D01*
X171435714Y-117823809D01*
X171359523Y-117861904D01*
X171283333Y-117861904D01*
X171207142Y-117823809D01*
X171169047Y-117785714D01*
X171130952Y-117709523D01*
X171092857Y-117557142D01*
X171092857Y-117366666D01*
X171130952Y-117214285D01*
X171169047Y-117138095D01*
X171207142Y-117100000D01*
X171283333Y-117061904D01*
X170402142Y-110361904D02*
X169945000Y-110361904D01*
X170173571Y-110361904D02*
X170173571Y-109561904D01*
X170097380Y-109676190D01*
X170021190Y-109752380D01*
X169945000Y-109790476D01*
X170745000Y-110285714D02*
X170783095Y-110323809D01*
X170745000Y-110361904D01*
X170706904Y-110323809D01*
X170745000Y-110285714D01*
X170745000Y-110361904D01*
X171545000Y-110361904D02*
X171087857Y-110361904D01*
X171316428Y-110361904D02*
X171316428Y-109561904D01*
X171240238Y-109676190D01*
X171164047Y-109752380D01*
X171087857Y-109790476D01*
X162600000Y-118676071D02*
X162561904Y-118752261D01*
X162561904Y-118866547D01*
X162600000Y-118980833D01*
X162676190Y-119057023D01*
X162752380Y-119095119D01*
X162904761Y-119133214D01*
X163019047Y-119133214D01*
X163171428Y-119095119D01*
X163247619Y-119057023D01*
X163323809Y-118980833D01*
X163361904Y-118866547D01*
X163361904Y-118790357D01*
X163323809Y-118676071D01*
X163285714Y-118637976D01*
X163019047Y-118637976D01*
X163019047Y-118790357D01*
X163361904Y-118295119D02*
X162561904Y-118295119D01*
X163361904Y-117837976D01*
X162561904Y-117837976D01*
X163361904Y-117457023D02*
X162561904Y-117457023D01*
X162561904Y-117266547D01*
X162600000Y-117152261D01*
X162676190Y-117076071D01*
X162752380Y-117037976D01*
X162904761Y-116999880D01*
X163019047Y-116999880D01*
X163171428Y-117037976D01*
X163247619Y-117076071D01*
X163323809Y-117152261D01*
X163361904Y-117266547D01*
X163361904Y-117457023D01*
X165311904Y-119323690D02*
X165311904Y-118828452D01*
X165616666Y-119095119D01*
X165616666Y-118980833D01*
X165654761Y-118904642D01*
X165692857Y-118866547D01*
X165769047Y-118828452D01*
X165959523Y-118828452D01*
X166035714Y-118866547D01*
X166073809Y-118904642D01*
X166111904Y-118980833D01*
X166111904Y-119209404D01*
X166073809Y-119285595D01*
X166035714Y-119323690D01*
X166035714Y-118485595D02*
X166073809Y-118447500D01*
X166111904Y-118485595D01*
X166073809Y-118523690D01*
X166035714Y-118485595D01*
X166111904Y-118485595D01*
X165311904Y-118180833D02*
X165311904Y-117685595D01*
X165616666Y-117952261D01*
X165616666Y-117837976D01*
X165654761Y-117761785D01*
X165692857Y-117723690D01*
X165769047Y-117685595D01*
X165959523Y-117685595D01*
X166035714Y-117723690D01*
X166073809Y-117761785D01*
X166111904Y-117837976D01*
X166111904Y-118066547D01*
X166073809Y-118142738D01*
X166035714Y-118180833D01*
X165311904Y-117457023D02*
X166111904Y-117190357D01*
X165311904Y-116923690D01*
X172907142Y-117861904D02*
X172450000Y-117861904D01*
X172678571Y-117861904D02*
X172678571Y-117061904D01*
X172602380Y-117176190D01*
X172526190Y-117252380D01*
X172450000Y-117290476D01*
X173250000Y-117785714D02*
X173288095Y-117823809D01*
X173250000Y-117861904D01*
X173211904Y-117823809D01*
X173250000Y-117785714D01*
X173250000Y-117861904D01*
X173592857Y-117138095D02*
X173630952Y-117100000D01*
X173707142Y-117061904D01*
X173897619Y-117061904D01*
X173973809Y-117100000D01*
X174011904Y-117138095D01*
X174050000Y-117214285D01*
X174050000Y-117290476D01*
X174011904Y-117404761D01*
X173554761Y-117861904D01*
X174050000Y-117861904D01*
X175350000Y-118676071D02*
X175311904Y-118752261D01*
X175311904Y-118866547D01*
X175350000Y-118980833D01*
X175426190Y-119057023D01*
X175502380Y-119095119D01*
X175654761Y-119133214D01*
X175769047Y-119133214D01*
X175921428Y-119095119D01*
X175997619Y-119057023D01*
X176073809Y-118980833D01*
X176111904Y-118866547D01*
X176111904Y-118790357D01*
X176073809Y-118676071D01*
X176035714Y-118637976D01*
X175769047Y-118637976D01*
X175769047Y-118790357D01*
X176111904Y-118295119D02*
X175311904Y-118295119D01*
X176111904Y-117837976D01*
X175311904Y-117837976D01*
X176111904Y-117457023D02*
X175311904Y-117457023D01*
X175311904Y-117266547D01*
X175350000Y-117152261D01*
X175426190Y-117076071D01*
X175502380Y-117037976D01*
X175654761Y-116999880D01*
X175769047Y-116999880D01*
X175921428Y-117037976D01*
X175997619Y-117076071D01*
X176073809Y-117152261D01*
X176111904Y-117266547D01*
X176111904Y-117457023D01*
X172902142Y-110361904D02*
X172445000Y-110361904D01*
X172673571Y-110361904D02*
X172673571Y-109561904D01*
X172597380Y-109676190D01*
X172521190Y-109752380D01*
X172445000Y-109790476D01*
X173245000Y-110285714D02*
X173283095Y-110323809D01*
X173245000Y-110361904D01*
X173206904Y-110323809D01*
X173245000Y-110285714D01*
X173245000Y-110361904D01*
X173549761Y-109561904D02*
X174045000Y-109561904D01*
X173778333Y-109866666D01*
X173892619Y-109866666D01*
X173968809Y-109904761D01*
X174006904Y-109942857D01*
X174045000Y-110019047D01*
X174045000Y-110209523D01*
X174006904Y-110285714D01*
X173968809Y-110323809D01*
X173892619Y-110361904D01*
X173664047Y-110361904D01*
X173587857Y-110323809D01*
X173549761Y-110285714D01*
%TO.C,U4*%
X152547619Y-91738095D02*
X151738095Y-91738095D01*
X151642857Y-91785714D01*
X151595238Y-91833333D01*
X151547619Y-91928571D01*
X151547619Y-92119047D01*
X151595238Y-92214285D01*
X151642857Y-92261904D01*
X151738095Y-92309523D01*
X152547619Y-92309523D01*
X152214285Y-93214285D02*
X151547619Y-93214285D01*
X152595238Y-92976190D02*
X151880952Y-92738095D01*
X151880952Y-93357142D01*
%TO.C,J6*%
X153916666Y-66452380D02*
X153916666Y-67166666D01*
X153869047Y-67309523D01*
X153773809Y-67404761D01*
X153630952Y-67452380D01*
X153535714Y-67452380D01*
X154821428Y-66452380D02*
X154630952Y-66452380D01*
X154535714Y-66500000D01*
X154488095Y-66547619D01*
X154392857Y-66690476D01*
X154345238Y-66880952D01*
X154345238Y-67261904D01*
X154392857Y-67357142D01*
X154440476Y-67404761D01*
X154535714Y-67452380D01*
X154726190Y-67452380D01*
X154821428Y-67404761D01*
X154869047Y-67357142D01*
X154916666Y-67261904D01*
X154916666Y-67023809D01*
X154869047Y-66928571D01*
X154821428Y-66880952D01*
X154726190Y-66833333D01*
X154535714Y-66833333D01*
X154440476Y-66880952D01*
X154392857Y-66928571D01*
X154345238Y-67023809D01*
%TO.C,C11*%
X165607142Y-67607142D02*
X165559523Y-67654761D01*
X165416666Y-67702380D01*
X165321428Y-67702380D01*
X165178571Y-67654761D01*
X165083333Y-67559523D01*
X165035714Y-67464285D01*
X164988095Y-67273809D01*
X164988095Y-67130952D01*
X165035714Y-66940476D01*
X165083333Y-66845238D01*
X165178571Y-66750000D01*
X165321428Y-66702380D01*
X165416666Y-66702380D01*
X165559523Y-66750000D01*
X165607142Y-66797619D01*
X166559523Y-67702380D02*
X165988095Y-67702380D01*
X166273809Y-67702380D02*
X166273809Y-66702380D01*
X166178571Y-66845238D01*
X166083333Y-66940476D01*
X165988095Y-66988095D01*
X167511904Y-67702380D02*
X166940476Y-67702380D01*
X167226190Y-67702380D02*
X167226190Y-66702380D01*
X167130952Y-66845238D01*
X167035714Y-66940476D01*
X166940476Y-66988095D01*
%TO.C,C7*%
X167857142Y-108166666D02*
X167904761Y-108214285D01*
X167952380Y-108357142D01*
X167952380Y-108452380D01*
X167904761Y-108595238D01*
X167809523Y-108690476D01*
X167714285Y-108738095D01*
X167523809Y-108785714D01*
X167380952Y-108785714D01*
X167190476Y-108738095D01*
X167095238Y-108690476D01*
X167000000Y-108595238D01*
X166952380Y-108452380D01*
X166952380Y-108357142D01*
X167000000Y-108214285D01*
X167047619Y-108166666D01*
X166952380Y-107833333D02*
X166952380Y-107166666D01*
X167952380Y-107595238D01*
%TO.C,R12*%
X158107142Y-78202380D02*
X157773809Y-77726190D01*
X157535714Y-78202380D02*
X157535714Y-77202380D01*
X157916666Y-77202380D01*
X158011904Y-77250000D01*
X158059523Y-77297619D01*
X158107142Y-77392857D01*
X158107142Y-77535714D01*
X158059523Y-77630952D01*
X158011904Y-77678571D01*
X157916666Y-77726190D01*
X157535714Y-77726190D01*
X159059523Y-78202380D02*
X158488095Y-78202380D01*
X158773809Y-78202380D02*
X158773809Y-77202380D01*
X158678571Y-77345238D01*
X158583333Y-77440476D01*
X158488095Y-77488095D01*
X159440476Y-77297619D02*
X159488095Y-77250000D01*
X159583333Y-77202380D01*
X159821428Y-77202380D01*
X159916666Y-77250000D01*
X159964285Y-77297619D01*
X160011904Y-77392857D01*
X160011904Y-77488095D01*
X159964285Y-77630952D01*
X159392857Y-78202380D01*
X160011904Y-78202380D01*
%TO.C,R2*%
X119833333Y-102952380D02*
X119500000Y-102476190D01*
X119261904Y-102952380D02*
X119261904Y-101952380D01*
X119642857Y-101952380D01*
X119738095Y-102000000D01*
X119785714Y-102047619D01*
X119833333Y-102142857D01*
X119833333Y-102285714D01*
X119785714Y-102380952D01*
X119738095Y-102428571D01*
X119642857Y-102476190D01*
X119261904Y-102476190D01*
X120214285Y-102047619D02*
X120261904Y-102000000D01*
X120357142Y-101952380D01*
X120595238Y-101952380D01*
X120690476Y-102000000D01*
X120738095Y-102047619D01*
X120785714Y-102142857D01*
X120785714Y-102238095D01*
X120738095Y-102380952D01*
X120166666Y-102952380D01*
X120785714Y-102952380D01*
%TO.C,C16*%
X158107142Y-86607142D02*
X158059523Y-86654761D01*
X157916666Y-86702380D01*
X157821428Y-86702380D01*
X157678571Y-86654761D01*
X157583333Y-86559523D01*
X157535714Y-86464285D01*
X157488095Y-86273809D01*
X157488095Y-86130952D01*
X157535714Y-85940476D01*
X157583333Y-85845238D01*
X157678571Y-85750000D01*
X157821428Y-85702380D01*
X157916666Y-85702380D01*
X158059523Y-85750000D01*
X158107142Y-85797619D01*
X159059523Y-86702380D02*
X158488095Y-86702380D01*
X158773809Y-86702380D02*
X158773809Y-85702380D01*
X158678571Y-85845238D01*
X158583333Y-85940476D01*
X158488095Y-85988095D01*
X159916666Y-85702380D02*
X159726190Y-85702380D01*
X159630952Y-85750000D01*
X159583333Y-85797619D01*
X159488095Y-85940476D01*
X159440476Y-86130952D01*
X159440476Y-86511904D01*
X159488095Y-86607142D01*
X159535714Y-86654761D01*
X159630952Y-86702380D01*
X159821428Y-86702380D01*
X159916666Y-86654761D01*
X159964285Y-86607142D01*
X160011904Y-86511904D01*
X160011904Y-86273809D01*
X159964285Y-86178571D01*
X159916666Y-86130952D01*
X159821428Y-86083333D01*
X159630952Y-86083333D01*
X159535714Y-86130952D01*
X159488095Y-86178571D01*
X159440476Y-86273809D01*
%TO.C,D7*%
X120261904Y-110452380D02*
X120261904Y-109452380D01*
X120500000Y-109452380D01*
X120642857Y-109500000D01*
X120738095Y-109595238D01*
X120785714Y-109690476D01*
X120833333Y-109880952D01*
X120833333Y-110023809D01*
X120785714Y-110214285D01*
X120738095Y-110309523D01*
X120642857Y-110404761D01*
X120500000Y-110452380D01*
X120261904Y-110452380D01*
X121166666Y-109452380D02*
X121833333Y-109452380D01*
X121404761Y-110452380D01*
%TO.C,U1*%
X167208095Y-94452380D02*
X167208095Y-95261904D01*
X167255714Y-95357142D01*
X167303333Y-95404761D01*
X167398571Y-95452380D01*
X167589047Y-95452380D01*
X167684285Y-95404761D01*
X167731904Y-95357142D01*
X167779523Y-95261904D01*
X167779523Y-94452380D01*
X168779523Y-95452380D02*
X168208095Y-95452380D01*
X168493809Y-95452380D02*
X168493809Y-94452380D01*
X168398571Y-94595238D01*
X168303333Y-94690476D01*
X168208095Y-94738095D01*
%TO.C,R10*%
X126857142Y-114882380D02*
X126523809Y-114406190D01*
X126285714Y-114882380D02*
X126285714Y-113882380D01*
X126666666Y-113882380D01*
X126761904Y-113930000D01*
X126809523Y-113977619D01*
X126857142Y-114072857D01*
X126857142Y-114215714D01*
X126809523Y-114310952D01*
X126761904Y-114358571D01*
X126666666Y-114406190D01*
X126285714Y-114406190D01*
X127809523Y-114882380D02*
X127238095Y-114882380D01*
X127523809Y-114882380D02*
X127523809Y-113882380D01*
X127428571Y-114025238D01*
X127333333Y-114120476D01*
X127238095Y-114168095D01*
X128428571Y-113882380D02*
X128523809Y-113882380D01*
X128619047Y-113930000D01*
X128666666Y-113977619D01*
X128714285Y-114072857D01*
X128761904Y-114263333D01*
X128761904Y-114501428D01*
X128714285Y-114691904D01*
X128666666Y-114787142D01*
X128619047Y-114834761D01*
X128523809Y-114882380D01*
X128428571Y-114882380D01*
X128333333Y-114834761D01*
X128285714Y-114787142D01*
X128238095Y-114691904D01*
X128190476Y-114501428D01*
X128190476Y-114263333D01*
X128238095Y-114072857D01*
X128285714Y-113977619D01*
X128333333Y-113930000D01*
X128428571Y-113882380D01*
%TO.C,D5*%
X120261904Y-107452380D02*
X120261904Y-106452380D01*
X120500000Y-106452380D01*
X120642857Y-106500000D01*
X120738095Y-106595238D01*
X120785714Y-106690476D01*
X120833333Y-106880952D01*
X120833333Y-107023809D01*
X120785714Y-107214285D01*
X120738095Y-107309523D01*
X120642857Y-107404761D01*
X120500000Y-107452380D01*
X120261904Y-107452380D01*
X121738095Y-106452380D02*
X121261904Y-106452380D01*
X121214285Y-106928571D01*
X121261904Y-106880952D01*
X121357142Y-106833333D01*
X121595238Y-106833333D01*
X121690476Y-106880952D01*
X121738095Y-106928571D01*
X121785714Y-107023809D01*
X121785714Y-107261904D01*
X121738095Y-107357142D01*
X121690476Y-107404761D01*
X121595238Y-107452380D01*
X121357142Y-107452380D01*
X121261904Y-107404761D01*
X121214285Y-107357142D01*
%TO.C,C8*%
X131083333Y-79107142D02*
X131035714Y-79154761D01*
X130892857Y-79202380D01*
X130797619Y-79202380D01*
X130654761Y-79154761D01*
X130559523Y-79059523D01*
X130511904Y-78964285D01*
X130464285Y-78773809D01*
X130464285Y-78630952D01*
X130511904Y-78440476D01*
X130559523Y-78345238D01*
X130654761Y-78250000D01*
X130797619Y-78202380D01*
X130892857Y-78202380D01*
X131035714Y-78250000D01*
X131083333Y-78297619D01*
X131654761Y-78630952D02*
X131559523Y-78583333D01*
X131511904Y-78535714D01*
X131464285Y-78440476D01*
X131464285Y-78392857D01*
X131511904Y-78297619D01*
X131559523Y-78250000D01*
X131654761Y-78202380D01*
X131845238Y-78202380D01*
X131940476Y-78250000D01*
X131988095Y-78297619D01*
X132035714Y-78392857D01*
X132035714Y-78440476D01*
X131988095Y-78535714D01*
X131940476Y-78583333D01*
X131845238Y-78630952D01*
X131654761Y-78630952D01*
X131559523Y-78678571D01*
X131511904Y-78726190D01*
X131464285Y-78821428D01*
X131464285Y-79011904D01*
X131511904Y-79107142D01*
X131559523Y-79154761D01*
X131654761Y-79202380D01*
X131845238Y-79202380D01*
X131940476Y-79154761D01*
X131988095Y-79107142D01*
X132035714Y-79011904D01*
X132035714Y-78821428D01*
X131988095Y-78726190D01*
X131940476Y-78678571D01*
X131845238Y-78630952D01*
%TO.C,C14*%
X158107142Y-99857142D02*
X158059523Y-99904761D01*
X157916666Y-99952380D01*
X157821428Y-99952380D01*
X157678571Y-99904761D01*
X157583333Y-99809523D01*
X157535714Y-99714285D01*
X157488095Y-99523809D01*
X157488095Y-99380952D01*
X157535714Y-99190476D01*
X157583333Y-99095238D01*
X157678571Y-99000000D01*
X157821428Y-98952380D01*
X157916666Y-98952380D01*
X158059523Y-99000000D01*
X158107142Y-99047619D01*
X159059523Y-99952380D02*
X158488095Y-99952380D01*
X158773809Y-99952380D02*
X158773809Y-98952380D01*
X158678571Y-99095238D01*
X158583333Y-99190476D01*
X158488095Y-99238095D01*
X159916666Y-99285714D02*
X159916666Y-99952380D01*
X159678571Y-98904761D02*
X159440476Y-99619047D01*
X160059523Y-99619047D01*
%TO.C,IC1*%
X172952380Y-84126190D02*
X171952380Y-84126190D01*
X172857142Y-83078571D02*
X172904761Y-83126190D01*
X172952380Y-83269047D01*
X172952380Y-83364285D01*
X172904761Y-83507142D01*
X172809523Y-83602380D01*
X172714285Y-83650000D01*
X172523809Y-83697619D01*
X172380952Y-83697619D01*
X172190476Y-83650000D01*
X172095238Y-83602380D01*
X172000000Y-83507142D01*
X171952380Y-83364285D01*
X171952380Y-83269047D01*
X172000000Y-83126190D01*
X172047619Y-83078571D01*
X172952380Y-82126190D02*
X172952380Y-82697619D01*
X172952380Y-82411904D02*
X171952380Y-82411904D01*
X172095238Y-82507142D01*
X172190476Y-82602380D01*
X172238095Y-82697619D01*
%TO.C,C13*%
X158107142Y-101357142D02*
X158059523Y-101404761D01*
X157916666Y-101452380D01*
X157821428Y-101452380D01*
X157678571Y-101404761D01*
X157583333Y-101309523D01*
X157535714Y-101214285D01*
X157488095Y-101023809D01*
X157488095Y-100880952D01*
X157535714Y-100690476D01*
X157583333Y-100595238D01*
X157678571Y-100500000D01*
X157821428Y-100452380D01*
X157916666Y-100452380D01*
X158059523Y-100500000D01*
X158107142Y-100547619D01*
X159059523Y-101452380D02*
X158488095Y-101452380D01*
X158773809Y-101452380D02*
X158773809Y-100452380D01*
X158678571Y-100595238D01*
X158583333Y-100690476D01*
X158488095Y-100738095D01*
X159392857Y-100452380D02*
X160011904Y-100452380D01*
X159678571Y-100833333D01*
X159821428Y-100833333D01*
X159916666Y-100880952D01*
X159964285Y-100928571D01*
X160011904Y-101023809D01*
X160011904Y-101261904D01*
X159964285Y-101357142D01*
X159916666Y-101404761D01*
X159821428Y-101452380D01*
X159535714Y-101452380D01*
X159440476Y-101404761D01*
X159392857Y-101357142D01*
%TO.C,C1*%
X175857142Y-95666666D02*
X175904761Y-95714285D01*
X175952380Y-95857142D01*
X175952380Y-95952380D01*
X175904761Y-96095238D01*
X175809523Y-96190476D01*
X175714285Y-96238095D01*
X175523809Y-96285714D01*
X175380952Y-96285714D01*
X175190476Y-96238095D01*
X175095238Y-96190476D01*
X175000000Y-96095238D01*
X174952380Y-95952380D01*
X174952380Y-95857142D01*
X175000000Y-95714285D01*
X175047619Y-95666666D01*
X175952380Y-94714285D02*
X175952380Y-95285714D01*
X175952380Y-95000000D02*
X174952380Y-95000000D01*
X175095238Y-95095238D01*
X175190476Y-95190476D01*
X175238095Y-95285714D01*
%TO.C,D6*%
X120261904Y-108952380D02*
X120261904Y-107952380D01*
X120500000Y-107952380D01*
X120642857Y-108000000D01*
X120738095Y-108095238D01*
X120785714Y-108190476D01*
X120833333Y-108380952D01*
X120833333Y-108523809D01*
X120785714Y-108714285D01*
X120738095Y-108809523D01*
X120642857Y-108904761D01*
X120500000Y-108952380D01*
X120261904Y-108952380D01*
X121690476Y-107952380D02*
X121500000Y-107952380D01*
X121404761Y-108000000D01*
X121357142Y-108047619D01*
X121261904Y-108190476D01*
X121214285Y-108380952D01*
X121214285Y-108761904D01*
X121261904Y-108857142D01*
X121309523Y-108904761D01*
X121404761Y-108952380D01*
X121595238Y-108952380D01*
X121690476Y-108904761D01*
X121738095Y-108857142D01*
X121785714Y-108761904D01*
X121785714Y-108523809D01*
X121738095Y-108428571D01*
X121690476Y-108380952D01*
X121595238Y-108333333D01*
X121404761Y-108333333D01*
X121309523Y-108380952D01*
X121261904Y-108428571D01*
X121214285Y-108523809D01*
%TO.C,C15*%
X158107142Y-98357142D02*
X158059523Y-98404761D01*
X157916666Y-98452380D01*
X157821428Y-98452380D01*
X157678571Y-98404761D01*
X157583333Y-98309523D01*
X157535714Y-98214285D01*
X157488095Y-98023809D01*
X157488095Y-97880952D01*
X157535714Y-97690476D01*
X157583333Y-97595238D01*
X157678571Y-97500000D01*
X157821428Y-97452380D01*
X157916666Y-97452380D01*
X158059523Y-97500000D01*
X158107142Y-97547619D01*
X159059523Y-98452380D02*
X158488095Y-98452380D01*
X158773809Y-98452380D02*
X158773809Y-97452380D01*
X158678571Y-97595238D01*
X158583333Y-97690476D01*
X158488095Y-97738095D01*
X159964285Y-97452380D02*
X159488095Y-97452380D01*
X159440476Y-97928571D01*
X159488095Y-97880952D01*
X159583333Y-97833333D01*
X159821428Y-97833333D01*
X159916666Y-97880952D01*
X159964285Y-97928571D01*
X160011904Y-98023809D01*
X160011904Y-98261904D01*
X159964285Y-98357142D01*
X159916666Y-98404761D01*
X159821428Y-98452380D01*
X159583333Y-98452380D01*
X159488095Y-98404761D01*
X159440476Y-98357142D01*
%TO.C,R5*%
X129833333Y-107452380D02*
X129500000Y-106976190D01*
X129261904Y-107452380D02*
X129261904Y-106452380D01*
X129642857Y-106452380D01*
X129738095Y-106500000D01*
X129785714Y-106547619D01*
X129833333Y-106642857D01*
X129833333Y-106785714D01*
X129785714Y-106880952D01*
X129738095Y-106928571D01*
X129642857Y-106976190D01*
X129261904Y-106976190D01*
X130738095Y-106452380D02*
X130261904Y-106452380D01*
X130214285Y-106928571D01*
X130261904Y-106880952D01*
X130357142Y-106833333D01*
X130595238Y-106833333D01*
X130690476Y-106880952D01*
X130738095Y-106928571D01*
X130785714Y-107023809D01*
X130785714Y-107261904D01*
X130738095Y-107357142D01*
X130690476Y-107404761D01*
X130595238Y-107452380D01*
X130357142Y-107452380D01*
X130261904Y-107404761D01*
X130214285Y-107357142D01*
%TO.C,C12*%
X165607142Y-69107142D02*
X165559523Y-69154761D01*
X165416666Y-69202380D01*
X165321428Y-69202380D01*
X165178571Y-69154761D01*
X165083333Y-69059523D01*
X165035714Y-68964285D01*
X164988095Y-68773809D01*
X164988095Y-68630952D01*
X165035714Y-68440476D01*
X165083333Y-68345238D01*
X165178571Y-68250000D01*
X165321428Y-68202380D01*
X165416666Y-68202380D01*
X165559523Y-68250000D01*
X165607142Y-68297619D01*
X166559523Y-69202380D02*
X165988095Y-69202380D01*
X166273809Y-69202380D02*
X166273809Y-68202380D01*
X166178571Y-68345238D01*
X166083333Y-68440476D01*
X165988095Y-68488095D01*
X166940476Y-68297619D02*
X166988095Y-68250000D01*
X167083333Y-68202380D01*
X167321428Y-68202380D01*
X167416666Y-68250000D01*
X167464285Y-68297619D01*
X167511904Y-68392857D01*
X167511904Y-68488095D01*
X167464285Y-68630952D01*
X166892857Y-69202380D01*
X167511904Y-69202380D01*
%TO.C,R13*%
X158107142Y-85202380D02*
X157773809Y-84726190D01*
X157535714Y-85202380D02*
X157535714Y-84202380D01*
X157916666Y-84202380D01*
X158011904Y-84250000D01*
X158059523Y-84297619D01*
X158107142Y-84392857D01*
X158107142Y-84535714D01*
X158059523Y-84630952D01*
X158011904Y-84678571D01*
X157916666Y-84726190D01*
X157535714Y-84726190D01*
X159059523Y-85202380D02*
X158488095Y-85202380D01*
X158773809Y-85202380D02*
X158773809Y-84202380D01*
X158678571Y-84345238D01*
X158583333Y-84440476D01*
X158488095Y-84488095D01*
X159392857Y-84202380D02*
X160011904Y-84202380D01*
X159678571Y-84583333D01*
X159821428Y-84583333D01*
X159916666Y-84630952D01*
X159964285Y-84678571D01*
X160011904Y-84773809D01*
X160011904Y-85011904D01*
X159964285Y-85107142D01*
X159916666Y-85154761D01*
X159821428Y-85202380D01*
X159535714Y-85202380D01*
X159440476Y-85154761D01*
X159392857Y-85107142D01*
%TO.C,R6*%
X166583333Y-70702380D02*
X166250000Y-70226190D01*
X166011904Y-70702380D02*
X166011904Y-69702380D01*
X166392857Y-69702380D01*
X166488095Y-69750000D01*
X166535714Y-69797619D01*
X166583333Y-69892857D01*
X166583333Y-70035714D01*
X166535714Y-70130952D01*
X166488095Y-70178571D01*
X166392857Y-70226190D01*
X166011904Y-70226190D01*
X167440476Y-69702380D02*
X167250000Y-69702380D01*
X167154761Y-69750000D01*
X167107142Y-69797619D01*
X167011904Y-69940476D01*
X166964285Y-70130952D01*
X166964285Y-70511904D01*
X167011904Y-70607142D01*
X167059523Y-70654761D01*
X167154761Y-70702380D01*
X167345238Y-70702380D01*
X167440476Y-70654761D01*
X167488095Y-70607142D01*
X167535714Y-70511904D01*
X167535714Y-70273809D01*
X167488095Y-70178571D01*
X167440476Y-70130952D01*
X167345238Y-70083333D01*
X167154761Y-70083333D01*
X167059523Y-70130952D01*
X167011904Y-70178571D01*
X166964285Y-70273809D01*
%TO.C,C3*%
X174357142Y-95666666D02*
X174404761Y-95714285D01*
X174452380Y-95857142D01*
X174452380Y-95952380D01*
X174404761Y-96095238D01*
X174309523Y-96190476D01*
X174214285Y-96238095D01*
X174023809Y-96285714D01*
X173880952Y-96285714D01*
X173690476Y-96238095D01*
X173595238Y-96190476D01*
X173500000Y-96095238D01*
X173452380Y-95952380D01*
X173452380Y-95857142D01*
X173500000Y-95714285D01*
X173547619Y-95666666D01*
X173452380Y-95333333D02*
X173452380Y-94714285D01*
X173833333Y-95047619D01*
X173833333Y-94904761D01*
X173880952Y-94809523D01*
X173928571Y-94761904D01*
X174023809Y-94714285D01*
X174261904Y-94714285D01*
X174357142Y-94761904D01*
X174404761Y-94809523D01*
X174452380Y-94904761D01*
X174452380Y-95190476D01*
X174404761Y-95285714D01*
X174357142Y-95333333D01*
%TO.C,J3*%
X133166666Y-106452380D02*
X133166666Y-107166666D01*
X133119047Y-107309523D01*
X133023809Y-107404761D01*
X132880952Y-107452380D01*
X132785714Y-107452380D01*
X133547619Y-106452380D02*
X134166666Y-106452380D01*
X133833333Y-106833333D01*
X133976190Y-106833333D01*
X134071428Y-106880952D01*
X134119047Y-106928571D01*
X134166666Y-107023809D01*
X134166666Y-107261904D01*
X134119047Y-107357142D01*
X134071428Y-107404761D01*
X133976190Y-107452380D01*
X133690476Y-107452380D01*
X133595238Y-107404761D01*
X133547619Y-107357142D01*
%TO.C,Q1*%
X158447619Y-82095238D02*
X158400000Y-82190476D01*
X158304761Y-82285714D01*
X158161904Y-82428571D01*
X158114285Y-82523809D01*
X158114285Y-82619047D01*
X158352380Y-82571428D02*
X158304761Y-82666666D01*
X158209523Y-82761904D01*
X158019047Y-82809523D01*
X157685714Y-82809523D01*
X157495238Y-82761904D01*
X157400000Y-82666666D01*
X157352380Y-82571428D01*
X157352380Y-82380952D01*
X157400000Y-82285714D01*
X157495238Y-82190476D01*
X157685714Y-82142857D01*
X158019047Y-82142857D01*
X158209523Y-82190476D01*
X158304761Y-82285714D01*
X158352380Y-82380952D01*
X158352380Y-82571428D01*
X158352380Y-81190476D02*
X158352380Y-81761904D01*
X158352380Y-81476190D02*
X157352380Y-81476190D01*
X157495238Y-81571428D01*
X157590476Y-81666666D01*
X157638095Y-81761904D01*
%TO.C,R4*%
X129833333Y-105952380D02*
X129500000Y-105476190D01*
X129261904Y-105952380D02*
X129261904Y-104952380D01*
X129642857Y-104952380D01*
X129738095Y-105000000D01*
X129785714Y-105047619D01*
X129833333Y-105142857D01*
X129833333Y-105285714D01*
X129785714Y-105380952D01*
X129738095Y-105428571D01*
X129642857Y-105476190D01*
X129261904Y-105476190D01*
X130690476Y-105285714D02*
X130690476Y-105952380D01*
X130452380Y-104904761D02*
X130214285Y-105619047D01*
X130833333Y-105619047D01*
%TO.C,TP1*%
X163738095Y-90004380D02*
X164309523Y-90004380D01*
X164023809Y-91004380D02*
X164023809Y-90004380D01*
X164642857Y-91004380D02*
X164642857Y-90004380D01*
X165023809Y-90004380D01*
X165119047Y-90052000D01*
X165166666Y-90099619D01*
X165214285Y-90194857D01*
X165214285Y-90337714D01*
X165166666Y-90432952D01*
X165119047Y-90480571D01*
X165023809Y-90528190D01*
X164642857Y-90528190D01*
X166166666Y-91004380D02*
X165595238Y-91004380D01*
X165880952Y-91004380D02*
X165880952Y-90004380D01*
X165785714Y-90147238D01*
X165690476Y-90242476D01*
X165595238Y-90290095D01*
%TO.C,D3*%
X120261904Y-104452380D02*
X120261904Y-103452380D01*
X120500000Y-103452380D01*
X120642857Y-103500000D01*
X120738095Y-103595238D01*
X120785714Y-103690476D01*
X120833333Y-103880952D01*
X120833333Y-104023809D01*
X120785714Y-104214285D01*
X120738095Y-104309523D01*
X120642857Y-104404761D01*
X120500000Y-104452380D01*
X120261904Y-104452380D01*
X121166666Y-103452380D02*
X121785714Y-103452380D01*
X121452380Y-103833333D01*
X121595238Y-103833333D01*
X121690476Y-103880952D01*
X121738095Y-103928571D01*
X121785714Y-104023809D01*
X121785714Y-104261904D01*
X121738095Y-104357142D01*
X121690476Y-104404761D01*
X121595238Y-104452380D01*
X121309523Y-104452380D01*
X121214285Y-104404761D01*
X121166666Y-104357142D01*
%TO.C,R3*%
X129833333Y-104452380D02*
X129500000Y-103976190D01*
X129261904Y-104452380D02*
X129261904Y-103452380D01*
X129642857Y-103452380D01*
X129738095Y-103500000D01*
X129785714Y-103547619D01*
X129833333Y-103642857D01*
X129833333Y-103785714D01*
X129785714Y-103880952D01*
X129738095Y-103928571D01*
X129642857Y-103976190D01*
X129261904Y-103976190D01*
X130166666Y-103452380D02*
X130785714Y-103452380D01*
X130452380Y-103833333D01*
X130595238Y-103833333D01*
X130690476Y-103880952D01*
X130738095Y-103928571D01*
X130785714Y-104023809D01*
X130785714Y-104261904D01*
X130738095Y-104357142D01*
X130690476Y-104404761D01*
X130595238Y-104452380D01*
X130309523Y-104452380D01*
X130214285Y-104404761D01*
X130166666Y-104357142D01*
%TO.C,R7*%
X129833333Y-108952380D02*
X129500000Y-108476190D01*
X129261904Y-108952380D02*
X129261904Y-107952380D01*
X129642857Y-107952380D01*
X129738095Y-108000000D01*
X129785714Y-108047619D01*
X129833333Y-108142857D01*
X129833333Y-108285714D01*
X129785714Y-108380952D01*
X129738095Y-108428571D01*
X129642857Y-108476190D01*
X129261904Y-108476190D01*
X130166666Y-107952380D02*
X130833333Y-107952380D01*
X130404761Y-108952380D01*
%TO.C,U2*%
X155238095Y-104052380D02*
X155238095Y-104861904D01*
X155285714Y-104957142D01*
X155333333Y-105004761D01*
X155428571Y-105052380D01*
X155619047Y-105052380D01*
X155714285Y-105004761D01*
X155761904Y-104957142D01*
X155809523Y-104861904D01*
X155809523Y-104052380D01*
X156238095Y-104147619D02*
X156285714Y-104100000D01*
X156380952Y-104052380D01*
X156619047Y-104052380D01*
X156714285Y-104100000D01*
X156761904Y-104147619D01*
X156809523Y-104242857D01*
X156809523Y-104338095D01*
X156761904Y-104480952D01*
X156190476Y-105052380D01*
X156809523Y-105052380D01*
%TO.C,R11*%
X158107142Y-79702380D02*
X157773809Y-79226190D01*
X157535714Y-79702380D02*
X157535714Y-78702380D01*
X157916666Y-78702380D01*
X158011904Y-78750000D01*
X158059523Y-78797619D01*
X158107142Y-78892857D01*
X158107142Y-79035714D01*
X158059523Y-79130952D01*
X158011904Y-79178571D01*
X157916666Y-79226190D01*
X157535714Y-79226190D01*
X159059523Y-79702380D02*
X158488095Y-79702380D01*
X158773809Y-79702380D02*
X158773809Y-78702380D01*
X158678571Y-78845238D01*
X158583333Y-78940476D01*
X158488095Y-78988095D01*
X160011904Y-79702380D02*
X159440476Y-79702380D01*
X159726190Y-79702380D02*
X159726190Y-78702380D01*
X159630952Y-78845238D01*
X159535714Y-78940476D01*
X159440476Y-78988095D01*
%TO.C,J2*%
X162166666Y-109702380D02*
X162166666Y-110416666D01*
X162119047Y-110559523D01*
X162023809Y-110654761D01*
X161880952Y-110702380D01*
X161785714Y-110702380D01*
X162595238Y-109797619D02*
X162642857Y-109750000D01*
X162738095Y-109702380D01*
X162976190Y-109702380D01*
X163071428Y-109750000D01*
X163119047Y-109797619D01*
X163166666Y-109892857D01*
X163166666Y-109988095D01*
X163119047Y-110130952D01*
X162547619Y-110702380D01*
X163166666Y-110702380D01*
%TO.C,C10*%
X165607142Y-72107142D02*
X165559523Y-72154761D01*
X165416666Y-72202380D01*
X165321428Y-72202380D01*
X165178571Y-72154761D01*
X165083333Y-72059523D01*
X165035714Y-71964285D01*
X164988095Y-71773809D01*
X164988095Y-71630952D01*
X165035714Y-71440476D01*
X165083333Y-71345238D01*
X165178571Y-71250000D01*
X165321428Y-71202380D01*
X165416666Y-71202380D01*
X165559523Y-71250000D01*
X165607142Y-71297619D01*
X166559523Y-72202380D02*
X165988095Y-72202380D01*
X166273809Y-72202380D02*
X166273809Y-71202380D01*
X166178571Y-71345238D01*
X166083333Y-71440476D01*
X165988095Y-71488095D01*
X167178571Y-71202380D02*
X167273809Y-71202380D01*
X167369047Y-71250000D01*
X167416666Y-71297619D01*
X167464285Y-71392857D01*
X167511904Y-71583333D01*
X167511904Y-71821428D01*
X167464285Y-72011904D01*
X167416666Y-72107142D01*
X167369047Y-72154761D01*
X167273809Y-72202380D01*
X167178571Y-72202380D01*
X167083333Y-72154761D01*
X167035714Y-72107142D01*
X166988095Y-72011904D01*
X166940476Y-71821428D01*
X166940476Y-71583333D01*
X166988095Y-71392857D01*
X167035714Y-71297619D01*
X167083333Y-71250000D01*
X167178571Y-71202380D01*
%TO.C,C5*%
X148357142Y-113416666D02*
X148404761Y-113464285D01*
X148452380Y-113607142D01*
X148452380Y-113702380D01*
X148404761Y-113845238D01*
X148309523Y-113940476D01*
X148214285Y-113988095D01*
X148023809Y-114035714D01*
X147880952Y-114035714D01*
X147690476Y-113988095D01*
X147595238Y-113940476D01*
X147500000Y-113845238D01*
X147452380Y-113702380D01*
X147452380Y-113607142D01*
X147500000Y-113464285D01*
X147547619Y-113416666D01*
X147452380Y-112511904D02*
X147452380Y-112988095D01*
X147928571Y-113035714D01*
X147880952Y-112988095D01*
X147833333Y-112892857D01*
X147833333Y-112654761D01*
X147880952Y-112559523D01*
X147928571Y-112511904D01*
X148023809Y-112464285D01*
X148261904Y-112464285D01*
X148357142Y-112511904D01*
X148404761Y-112559523D01*
X148452380Y-112654761D01*
X148452380Y-112892857D01*
X148404761Y-112988095D01*
X148357142Y-113035714D01*
%TO.C,R8*%
X129833333Y-110452380D02*
X129500000Y-109976190D01*
X129261904Y-110452380D02*
X129261904Y-109452380D01*
X129642857Y-109452380D01*
X129738095Y-109500000D01*
X129785714Y-109547619D01*
X129833333Y-109642857D01*
X129833333Y-109785714D01*
X129785714Y-109880952D01*
X129738095Y-109928571D01*
X129642857Y-109976190D01*
X129261904Y-109976190D01*
X130404761Y-109880952D02*
X130309523Y-109833333D01*
X130261904Y-109785714D01*
X130214285Y-109690476D01*
X130214285Y-109642857D01*
X130261904Y-109547619D01*
X130309523Y-109500000D01*
X130404761Y-109452380D01*
X130595238Y-109452380D01*
X130690476Y-109500000D01*
X130738095Y-109547619D01*
X130785714Y-109642857D01*
X130785714Y-109690476D01*
X130738095Y-109785714D01*
X130690476Y-109833333D01*
X130595238Y-109880952D01*
X130404761Y-109880952D01*
X130309523Y-109928571D01*
X130261904Y-109976190D01*
X130214285Y-110071428D01*
X130214285Y-110261904D01*
X130261904Y-110357142D01*
X130309523Y-110404761D01*
X130404761Y-110452380D01*
X130595238Y-110452380D01*
X130690476Y-110404761D01*
X130738095Y-110357142D01*
X130785714Y-110261904D01*
X130785714Y-110071428D01*
X130738095Y-109976190D01*
X130690476Y-109928571D01*
X130595238Y-109880952D01*
%TO.C,D4*%
X120261904Y-105952380D02*
X120261904Y-104952380D01*
X120500000Y-104952380D01*
X120642857Y-105000000D01*
X120738095Y-105095238D01*
X120785714Y-105190476D01*
X120833333Y-105380952D01*
X120833333Y-105523809D01*
X120785714Y-105714285D01*
X120738095Y-105809523D01*
X120642857Y-105904761D01*
X120500000Y-105952380D01*
X120261904Y-105952380D01*
X121690476Y-105285714D02*
X121690476Y-105952380D01*
X121452380Y-104904761D02*
X121214285Y-105619047D01*
X121833333Y-105619047D01*
%TO.C,J7*%
X185879166Y-99467380D02*
X185879166Y-100181666D01*
X185831547Y-100324523D01*
X185736309Y-100419761D01*
X185593452Y-100467380D01*
X185498214Y-100467380D01*
X186260119Y-99467380D02*
X186926785Y-99467380D01*
X186498214Y-100467380D01*
%TO.C,J4*%
X135122380Y-71063333D02*
X135836666Y-71063333D01*
X135979523Y-71110952D01*
X136074761Y-71206190D01*
X136122380Y-71349047D01*
X136122380Y-71444285D01*
X135455714Y-70158571D02*
X136122380Y-70158571D01*
X135074761Y-70396666D02*
X135789047Y-70634761D01*
X135789047Y-70015714D01*
%TO.C,D2*%
X126761904Y-101452380D02*
X126761904Y-100452380D01*
X127000000Y-100452380D01*
X127142857Y-100500000D01*
X127238095Y-100595238D01*
X127285714Y-100690476D01*
X127333333Y-100880952D01*
X127333333Y-101023809D01*
X127285714Y-101214285D01*
X127238095Y-101309523D01*
X127142857Y-101404761D01*
X127000000Y-101452380D01*
X126761904Y-101452380D01*
X127714285Y-100547619D02*
X127761904Y-100500000D01*
X127857142Y-100452380D01*
X128095238Y-100452380D01*
X128190476Y-100500000D01*
X128238095Y-100547619D01*
X128285714Y-100642857D01*
X128285714Y-100738095D01*
X128238095Y-100880952D01*
X127666666Y-101452380D01*
X128285714Y-101452380D01*
%TO.C,C2*%
X146857142Y-113416666D02*
X146904761Y-113464285D01*
X146952380Y-113607142D01*
X146952380Y-113702380D01*
X146904761Y-113845238D01*
X146809523Y-113940476D01*
X146714285Y-113988095D01*
X146523809Y-114035714D01*
X146380952Y-114035714D01*
X146190476Y-113988095D01*
X146095238Y-113940476D01*
X146000000Y-113845238D01*
X145952380Y-113702380D01*
X145952380Y-113607142D01*
X146000000Y-113464285D01*
X146047619Y-113416666D01*
X146047619Y-113035714D02*
X146000000Y-112988095D01*
X145952380Y-112892857D01*
X145952380Y-112654761D01*
X146000000Y-112559523D01*
X146047619Y-112511904D01*
X146142857Y-112464285D01*
X146238095Y-112464285D01*
X146380952Y-112511904D01*
X146952380Y-113083333D01*
X146952380Y-112464285D01*
%TO.C,J1*%
X123952380Y-79083333D02*
X124666666Y-79083333D01*
X124809523Y-79130952D01*
X124904761Y-79226190D01*
X124952380Y-79369047D01*
X124952380Y-79464285D01*
X124952380Y-78083333D02*
X124952380Y-78654761D01*
X124952380Y-78369047D02*
X123952380Y-78369047D01*
X124095238Y-78464285D01*
X124190476Y-78559523D01*
X124238095Y-78654761D01*
%TO.C,C6*%
X166357142Y-108166666D02*
X166404761Y-108214285D01*
X166452380Y-108357142D01*
X166452380Y-108452380D01*
X166404761Y-108595238D01*
X166309523Y-108690476D01*
X166214285Y-108738095D01*
X166023809Y-108785714D01*
X165880952Y-108785714D01*
X165690476Y-108738095D01*
X165595238Y-108690476D01*
X165500000Y-108595238D01*
X165452380Y-108452380D01*
X165452380Y-108357142D01*
X165500000Y-108214285D01*
X165547619Y-108166666D01*
X165452380Y-107309523D02*
X165452380Y-107500000D01*
X165500000Y-107595238D01*
X165547619Y-107642857D01*
X165690476Y-107738095D01*
X165880952Y-107785714D01*
X166261904Y-107785714D01*
X166357142Y-107738095D01*
X166404761Y-107690476D01*
X166452380Y-107595238D01*
X166452380Y-107404761D01*
X166404761Y-107309523D01*
X166357142Y-107261904D01*
X166261904Y-107214285D01*
X166023809Y-107214285D01*
X165928571Y-107261904D01*
X165880952Y-107309523D01*
X165833333Y-107404761D01*
X165833333Y-107595238D01*
X165880952Y-107690476D01*
X165928571Y-107738095D01*
X166023809Y-107785714D01*
%TO.C,TP2*%
X168738095Y-90004380D02*
X169309523Y-90004380D01*
X169023809Y-91004380D02*
X169023809Y-90004380D01*
X169642857Y-91004380D02*
X169642857Y-90004380D01*
X170023809Y-90004380D01*
X170119047Y-90052000D01*
X170166666Y-90099619D01*
X170214285Y-90194857D01*
X170214285Y-90337714D01*
X170166666Y-90432952D01*
X170119047Y-90480571D01*
X170023809Y-90528190D01*
X169642857Y-90528190D01*
X170595238Y-90099619D02*
X170642857Y-90052000D01*
X170738095Y-90004380D01*
X170976190Y-90004380D01*
X171071428Y-90052000D01*
X171119047Y-90099619D01*
X171166666Y-90194857D01*
X171166666Y-90290095D01*
X171119047Y-90432952D01*
X170547619Y-91004380D01*
X171166666Y-91004380D01*
%TO.C,C4*%
X149857142Y-113416666D02*
X149904761Y-113464285D01*
X149952380Y-113607142D01*
X149952380Y-113702380D01*
X149904761Y-113845238D01*
X149809523Y-113940476D01*
X149714285Y-113988095D01*
X149523809Y-114035714D01*
X149380952Y-114035714D01*
X149190476Y-113988095D01*
X149095238Y-113940476D01*
X149000000Y-113845238D01*
X148952380Y-113702380D01*
X148952380Y-113607142D01*
X149000000Y-113464285D01*
X149047619Y-113416666D01*
X149285714Y-112559523D02*
X149952380Y-112559523D01*
X148904761Y-112797619D02*
X149619047Y-113035714D01*
X149619047Y-112416666D01*
%TO.C,R1*%
X170952380Y-108166666D02*
X170476190Y-108500000D01*
X170952380Y-108738095D02*
X169952380Y-108738095D01*
X169952380Y-108357142D01*
X170000000Y-108261904D01*
X170047619Y-108214285D01*
X170142857Y-108166666D01*
X170285714Y-108166666D01*
X170380952Y-108214285D01*
X170428571Y-108261904D01*
X170476190Y-108357142D01*
X170476190Y-108738095D01*
X170952380Y-107214285D02*
X170952380Y-107785714D01*
X170952380Y-107500000D02*
X169952380Y-107500000D01*
X170095238Y-107595238D01*
X170190476Y-107690476D01*
X170238095Y-107785714D01*
%TO.C,D1*%
X169452380Y-108738095D02*
X168452380Y-108738095D01*
X168452380Y-108500000D01*
X168500000Y-108357142D01*
X168595238Y-108261904D01*
X168690476Y-108214285D01*
X168880952Y-108166666D01*
X169023809Y-108166666D01*
X169214285Y-108214285D01*
X169309523Y-108261904D01*
X169404761Y-108357142D01*
X169452380Y-108500000D01*
X169452380Y-108738095D01*
X169452380Y-107214285D02*
X169452380Y-107785714D01*
X169452380Y-107500000D02*
X168452380Y-107500000D01*
X168595238Y-107595238D01*
X168690476Y-107690476D01*
X168738095Y-107785714D01*
%TO.C,R9*%
X129833333Y-111952380D02*
X129500000Y-111476190D01*
X129261904Y-111952380D02*
X129261904Y-110952380D01*
X129642857Y-110952380D01*
X129738095Y-111000000D01*
X129785714Y-111047619D01*
X129833333Y-111142857D01*
X129833333Y-111285714D01*
X129785714Y-111380952D01*
X129738095Y-111428571D01*
X129642857Y-111476190D01*
X129261904Y-111476190D01*
X130309523Y-111952380D02*
X130500000Y-111952380D01*
X130595238Y-111904761D01*
X130642857Y-111857142D01*
X130738095Y-111714285D01*
X130785714Y-111523809D01*
X130785714Y-111142857D01*
X130738095Y-111047619D01*
X130690476Y-111000000D01*
X130595238Y-110952380D01*
X130404761Y-110952380D01*
X130309523Y-111000000D01*
X130261904Y-111047619D01*
X130214285Y-111142857D01*
X130214285Y-111380952D01*
X130261904Y-111476190D01*
X130309523Y-111523809D01*
X130404761Y-111571428D01*
X130595238Y-111571428D01*
X130690476Y-111523809D01*
X130738095Y-111476190D01*
X130785714Y-111380952D01*
%TO.C,D8*%
X120261904Y-111952380D02*
X120261904Y-110952380D01*
X120500000Y-110952380D01*
X120642857Y-111000000D01*
X120738095Y-111095238D01*
X120785714Y-111190476D01*
X120833333Y-111380952D01*
X120833333Y-111523809D01*
X120785714Y-111714285D01*
X120738095Y-111809523D01*
X120642857Y-111904761D01*
X120500000Y-111952380D01*
X120261904Y-111952380D01*
X121404761Y-111380952D02*
X121309523Y-111333333D01*
X121261904Y-111285714D01*
X121214285Y-111190476D01*
X121214285Y-111142857D01*
X121261904Y-111047619D01*
X121309523Y-111000000D01*
X121404761Y-110952380D01*
X121595238Y-110952380D01*
X121690476Y-111000000D01*
X121738095Y-111047619D01*
X121785714Y-111142857D01*
X121785714Y-111190476D01*
X121738095Y-111285714D01*
X121690476Y-111333333D01*
X121595238Y-111380952D01*
X121404761Y-111380952D01*
X121309523Y-111428571D01*
X121261904Y-111476190D01*
X121214285Y-111571428D01*
X121214285Y-111761904D01*
X121261904Y-111857142D01*
X121309523Y-111904761D01*
X121404761Y-111952380D01*
X121595238Y-111952380D01*
X121690476Y-111904761D01*
X121738095Y-111857142D01*
X121785714Y-111761904D01*
X121785714Y-111571428D01*
X121738095Y-111476190D01*
X121690476Y-111428571D01*
X121595238Y-111380952D01*
D11*
%TO.C,U4*%
X150000000Y-102700000D02*
X150000000Y-104900000D01*
X145000000Y-79600000D02*
X146200000Y-79600000D01*
X145000000Y-105400000D02*
X146200000Y-105400000D01*
X145000000Y-105400000D02*
X145000000Y-79600000D01*
X150000000Y-80100000D02*
X150000000Y-82300000D01*
X151000000Y-102700000D02*
X150000000Y-102700000D01*
%TO.C,J6*%
X163937000Y-70635000D02*
X163937000Y-73302000D01*
X163937000Y-73302000D02*
X153523000Y-73302000D01*
X161905000Y-67968000D02*
X153523000Y-67968000D01*
X153523000Y-67968000D02*
X153523000Y-73302000D01*
%TO.C,C11*%
X169646267Y-67760000D02*
X169353733Y-67760000D01*
X169646267Y-66740000D02*
X169353733Y-66740000D01*
%TO.C,C7*%
X168010000Y-105103733D02*
X168010000Y-105396267D01*
X166990000Y-105103733D02*
X166990000Y-105396267D01*
%TO.C,R12*%
X155245276Y-77227500D02*
X155754724Y-77227500D01*
X155245276Y-78272500D02*
X155754724Y-78272500D01*
%TO.C,R2*%
X123254724Y-103022500D02*
X122745276Y-103022500D01*
X123254724Y-101977500D02*
X122745276Y-101977500D01*
%TO.C,C16*%
X155353733Y-85740000D02*
X155646267Y-85740000D01*
X155353733Y-86760000D02*
X155646267Y-86760000D01*
%TO.C,D7*%
X122200000Y-109600000D02*
X122200000Y-110400000D01*
X123500000Y-109600000D02*
X122200000Y-109600000D01*
X123500000Y-110400000D02*
X122200000Y-110400000D01*
%TO.C,U1*%
X172100000Y-102910000D02*
X166090000Y-102910000D01*
X169850000Y-96090000D02*
X166090000Y-96090000D01*
X166090000Y-96090000D02*
X166090000Y-97350000D01*
X166090000Y-102910000D02*
X166090000Y-101650000D01*
%TO.C,R10*%
X127754724Y-113522500D02*
X127245276Y-113522500D01*
X127754724Y-112477500D02*
X127245276Y-112477500D01*
%TO.C,D5*%
X122200000Y-106600000D02*
X122200000Y-107400000D01*
X123500000Y-106600000D02*
X122200000Y-106600000D01*
X123500000Y-107400000D02*
X122200000Y-107400000D01*
%TO.C,C8*%
X128646267Y-79260000D02*
X128353733Y-79260000D01*
X128646267Y-78240000D02*
X128353733Y-78240000D01*
%TO.C,C14*%
X155353733Y-98990000D02*
X155646267Y-98990000D01*
X155353733Y-100010000D02*
X155646267Y-100010000D01*
%TO.C,IC1*%
X192200000Y-84700000D02*
X192200000Y-83700000D01*
X192200000Y-84700000D02*
X190700000Y-84700000D01*
X173800000Y-65650000D02*
X173800000Y-58850000D01*
X173800000Y-83700000D02*
X173800000Y-84700000D01*
X173800000Y-65650000D02*
X173400000Y-65650000D01*
X192200000Y-58850000D02*
X192200000Y-65050000D01*
X173800000Y-84700000D02*
X175300000Y-84700000D01*
X173800000Y-58850000D02*
X192200000Y-58850000D01*
%TO.C,C13*%
X155353733Y-100490000D02*
X155646267Y-100490000D01*
X155353733Y-101510000D02*
X155646267Y-101510000D01*
%TO.C,C1*%
X176010000Y-98103733D02*
X176010000Y-98396267D01*
X174990000Y-98103733D02*
X174990000Y-98396267D01*
%TO.C,D6*%
X122200000Y-108100000D02*
X122200000Y-108900000D01*
X123500000Y-108100000D02*
X122200000Y-108100000D01*
X123500000Y-108900000D02*
X122200000Y-108900000D01*
%TO.C,C15*%
X155353733Y-97490000D02*
X155646267Y-97490000D01*
X155353733Y-98510000D02*
X155646267Y-98510000D01*
%TO.C,R5*%
X127754724Y-107522500D02*
X127245276Y-107522500D01*
X127754724Y-106477500D02*
X127245276Y-106477500D01*
%TO.C,C12*%
X169646267Y-69260000D02*
X169353733Y-69260000D01*
X169646267Y-68240000D02*
X169353733Y-68240000D01*
%TO.C,R13*%
X155245276Y-84227500D02*
X155754724Y-84227500D01*
X155245276Y-85272500D02*
X155754724Y-85272500D01*
%TO.C,R6*%
X169245276Y-69727500D02*
X169754724Y-69727500D01*
X169245276Y-70772500D02*
X169754724Y-70772500D01*
%TO.C,C3*%
X174510000Y-98103733D02*
X174510000Y-98396267D01*
X173490000Y-98103733D02*
X173490000Y-98396267D01*
%TO.C,J3*%
X143207000Y-110500000D02*
X143207000Y-113167000D01*
X143207000Y-113167000D02*
X132793000Y-113167000D01*
X141175000Y-107833000D02*
X132793000Y-107833000D01*
X132793000Y-107833000D02*
X132793000Y-113167000D01*
%TO.C,Q1*%
X157060000Y-82000000D02*
X157060000Y-82650000D01*
X153940000Y-82000000D02*
X153940000Y-82650000D01*
X157060000Y-82000000D02*
X157060000Y-80325000D01*
X153940000Y-82000000D02*
X153940000Y-81350000D01*
%TO.C,R4*%
X127754724Y-106022500D02*
X127245276Y-106022500D01*
X127754724Y-104977500D02*
X127245276Y-104977500D01*
%TO.C,TP1*%
X165700000Y-92000000D02*
G75*
G03*
X165700000Y-92000000I-700000J0D01*
G01*
%TO.C,D3*%
X122200000Y-103600000D02*
X122200000Y-104400000D01*
X123500000Y-103600000D02*
X122200000Y-103600000D01*
X123500000Y-104400000D02*
X122200000Y-104400000D01*
%TO.C,R3*%
X127754724Y-104522500D02*
X127245276Y-104522500D01*
X127754724Y-103477500D02*
X127245276Y-103477500D01*
%TO.C,R7*%
X127754724Y-109022500D02*
X127245276Y-109022500D01*
X127754724Y-107977500D02*
X127245276Y-107977500D01*
%TO.C,U2*%
X156000000Y-115560000D02*
X154050000Y-115560000D01*
X156000000Y-105440000D02*
X157950000Y-105440000D01*
X156000000Y-115560000D02*
X157950000Y-115560000D01*
X156000000Y-105440000D02*
X152550000Y-105440000D01*
%TO.C,R11*%
X155754724Y-79772500D02*
X155245276Y-79772500D01*
X155754724Y-78727500D02*
X155245276Y-78727500D01*
%TO.C,J2*%
X179695000Y-116355000D02*
X179695000Y-111155000D01*
X161795000Y-113755000D02*
X161795000Y-111155000D01*
X163125000Y-116355000D02*
X161795000Y-116355000D01*
X164395000Y-116355000D02*
X164395000Y-113755000D01*
X161795000Y-111155000D02*
X179695000Y-111155000D01*
X161795000Y-116355000D02*
X161795000Y-115025000D01*
X164395000Y-116355000D02*
X179695000Y-116355000D01*
X164395000Y-113755000D02*
X161795000Y-113755000D01*
%TO.C,C10*%
X169353733Y-71240000D02*
X169646267Y-71240000D01*
X169353733Y-72260000D02*
X169646267Y-72260000D01*
%TO.C,C5*%
X147490000Y-110646267D02*
X147490000Y-110353733D01*
X148510000Y-110646267D02*
X148510000Y-110353733D01*
%TO.C,R8*%
X127754724Y-110522500D02*
X127245276Y-110522500D01*
X127754724Y-109477500D02*
X127245276Y-109477500D01*
%TO.C,D4*%
X122200000Y-105100000D02*
X122200000Y-105900000D01*
X123500000Y-105100000D02*
X122200000Y-105100000D01*
X123500000Y-105900000D02*
X122200000Y-105900000D01*
%TO.C,J7*%
X195907500Y-102900000D02*
X192562500Y-102900000D01*
X195907500Y-100800000D02*
X195907500Y-113200000D01*
X184307500Y-100800000D02*
X184307500Y-113200000D01*
X194522500Y-105000000D02*
X194522500Y-109000000D01*
X192562500Y-111100000D02*
X195907500Y-111100000D01*
X186847500Y-108270000D02*
X192562500Y-108270000D01*
X192562500Y-102900000D02*
X192562500Y-105730000D01*
X193522500Y-110000000D02*
X192562500Y-110000000D01*
X192562500Y-108270000D02*
X192562500Y-111100000D01*
X195907500Y-113200000D02*
X184307500Y-113200000D01*
X186847500Y-105730000D02*
X186847500Y-108270000D01*
X184307500Y-100800000D02*
X195907500Y-100800000D01*
X186847500Y-105730000D02*
X192562500Y-105730000D01*
X193522500Y-104000000D02*
X192562500Y-104000000D01*
X194522500Y-105000000D02*
G75*
G03*
X193522500Y-104000000I-1000000J0D01*
G01*
X193522500Y-110000000D02*
G75*
G03*
X194522500Y-109000000I0J1000000D01*
G01*
G36*
X195772500Y-102250000D02*
G01*
X194022500Y-101750000D01*
X195772500Y-101250000D01*
X195772500Y-102250000D01*
G37*
X195772500Y-102250000D02*
X194022500Y-101750000D01*
X195772500Y-101250000D01*
X195772500Y-102250000D01*
%TO.C,J4*%
X138000000Y-73330000D02*
X136670000Y-73330000D01*
X139270000Y-73330000D02*
X149490000Y-73330000D01*
X136670000Y-70730000D02*
X136670000Y-68130000D01*
X139270000Y-73330000D02*
X139270000Y-70730000D01*
X136670000Y-73330000D02*
X136670000Y-72000000D01*
X139270000Y-70730000D02*
X136670000Y-70730000D01*
X149490000Y-73330000D02*
X149490000Y-68130000D01*
X136670000Y-68130000D02*
X149490000Y-68130000D01*
%TO.C,D2*%
X128300000Y-101765000D02*
X125840000Y-101765000D01*
X125840000Y-103235000D02*
X128300000Y-103235000D01*
X125840000Y-101765000D02*
X125840000Y-103235000D01*
%TO.C,C2*%
X145990000Y-110646267D02*
X145990000Y-110353733D01*
X147010000Y-110646267D02*
X147010000Y-110353733D01*
%TO.C,J1*%
X123490000Y-85410000D02*
X120160000Y-85410000D01*
X108530000Y-72090000D02*
X116640000Y-72090000D01*
X123710000Y-74350000D02*
X123710000Y-76150000D01*
X108530000Y-72090000D02*
X108530000Y-71440000D01*
X123490000Y-72090000D02*
X123490000Y-85410000D01*
X108010000Y-86060000D02*
X108530000Y-86060000D01*
X108530000Y-86060000D02*
X108530000Y-85410000D01*
X108530000Y-71440000D02*
X108010000Y-71440000D01*
X116640000Y-85410000D02*
X108530000Y-85410000D01*
X108010000Y-71440000D02*
X108010000Y-86060000D01*
X123490000Y-72090000D02*
X120160000Y-72090000D01*
%TO.C,C6*%
X166510000Y-105103733D02*
X166510000Y-105396267D01*
X165490000Y-105103733D02*
X165490000Y-105396267D01*
%TO.C,TP2*%
X170700000Y-92000000D02*
G75*
G03*
X170700000Y-92000000I-700000J0D01*
G01*
%TO.C,C4*%
X148990000Y-110646267D02*
X148990000Y-110353733D01*
X150010000Y-110646267D02*
X150010000Y-110353733D01*
%TO.C,R1*%
X171022500Y-104995276D02*
X171022500Y-105504724D01*
X169977500Y-104995276D02*
X169977500Y-105504724D01*
%TO.C,D1*%
X168265000Y-104450000D02*
X168265000Y-106910000D01*
X169735000Y-106910000D02*
X169735000Y-104450000D01*
X168265000Y-106910000D02*
X169735000Y-106910000D01*
%TO.C,R9*%
X127754724Y-112022500D02*
X127245276Y-112022500D01*
X127754724Y-110977500D02*
X127245276Y-110977500D01*
%TO.C,D8*%
X122200000Y-111100000D02*
X122200000Y-111900000D01*
X123500000Y-111100000D02*
X122200000Y-111100000D01*
X123500000Y-111900000D02*
X122200000Y-111900000D01*
%TD*%
%LPC*%
D12*
%TO.C,U4*%
X150500000Y-102250000D03*
X150500000Y-101750000D03*
X150500000Y-101250000D03*
X150500000Y-100750000D03*
X150500000Y-100250000D03*
X150500000Y-99750000D03*
X150500000Y-99250000D03*
X150500000Y-98750000D03*
X150500000Y-98250000D03*
X150500000Y-97750000D03*
X150500000Y-97250000D03*
X150500000Y-96750000D03*
X150500000Y-96250000D03*
X150500000Y-95750000D03*
X150500000Y-95250000D03*
X150500000Y-94750000D03*
X150500000Y-94250000D03*
X150500000Y-93750000D03*
X150500000Y-93250000D03*
X150500000Y-92750000D03*
X150500000Y-92250000D03*
X150500000Y-91750000D03*
X150500000Y-91250000D03*
X150500000Y-90750000D03*
X150500000Y-90250000D03*
X150500000Y-89750000D03*
X150500000Y-89250000D03*
X150500000Y-88750000D03*
X150500000Y-88250000D03*
X150500000Y-87750000D03*
X150500000Y-87250000D03*
X150500000Y-86750000D03*
X150500000Y-86250000D03*
X150500000Y-85750000D03*
X150500000Y-85250000D03*
X150500000Y-84750000D03*
X150500000Y-84250000D03*
X150500000Y-83750000D03*
X150500000Y-83250000D03*
X150500000Y-82750000D03*
D13*
X148000000Y-81000000D03*
X148000000Y-104000000D03*
%TD*%
D14*
%TO.C,J6*%
X160000000Y-70000000D03*
D15*
X160000000Y-71270000D03*
X158730000Y-70000000D03*
X158730000Y-71270000D03*
X157460000Y-70000000D03*
X157460000Y-71270000D03*
%TD*%
D16*
%TO.C,C11*%
X170362500Y-67250000D03*
X168637500Y-67250000D03*
%TD*%
D17*
%TO.C,C7*%
X167500000Y-104387500D03*
X167500000Y-106112500D03*
%TD*%
D18*
%TO.C,R12*%
X154587500Y-77750000D03*
X156412500Y-77750000D03*
%TD*%
D19*
%TO.C,R2*%
X123912500Y-102500000D03*
X122087500Y-102500000D03*
%TD*%
D20*
%TO.C,C16*%
X154637500Y-86250000D03*
X156362500Y-86250000D03*
%TD*%
D21*
%TO.C,D7*%
X122580000Y-110000000D03*
X123420000Y-110000000D03*
%TD*%
D22*
%TO.C,U1*%
X171150000Y-101800000D03*
D23*
X164850000Y-99500000D03*
D22*
X171150000Y-99500000D03*
X171150000Y-97200000D03*
%TD*%
D19*
%TO.C,R10*%
X128412500Y-113000000D03*
X126587500Y-113000000D03*
%TD*%
D21*
%TO.C,D5*%
X122580000Y-107000000D03*
X123420000Y-107000000D03*
%TD*%
D16*
%TO.C,C8*%
X129362500Y-78750000D03*
X127637500Y-78750000D03*
%TD*%
D20*
%TO.C,C14*%
X154637500Y-99500000D03*
X156362500Y-99500000D03*
%TD*%
D24*
%TO.C,IC1*%
X174250000Y-66490000D03*
X174250000Y-67760000D03*
X174250000Y-69030000D03*
X174250000Y-70300000D03*
X174250000Y-71570000D03*
X174250000Y-72840000D03*
X174250000Y-74110000D03*
X174250000Y-75380000D03*
X174250000Y-76650000D03*
X174250000Y-77920000D03*
X174250000Y-79190000D03*
X174250000Y-80460000D03*
X174250000Y-81730000D03*
D25*
X174250000Y-83000000D03*
D26*
X176015000Y-84250000D03*
X177285000Y-84250000D03*
X178555000Y-84250000D03*
X179825000Y-84250000D03*
X181095000Y-84250000D03*
X182365000Y-84250000D03*
X183635000Y-84250000D03*
X184905000Y-84250000D03*
X186175000Y-84250000D03*
X187445000Y-84250000D03*
X188715000Y-84250000D03*
X189985000Y-84250000D03*
D24*
X191750000Y-83000000D03*
X191750000Y-81730000D03*
X191750000Y-80460000D03*
X191750000Y-79190000D03*
X191750000Y-77920000D03*
X191750000Y-76650000D03*
X191750000Y-75380000D03*
X191750000Y-74110000D03*
X191750000Y-72840000D03*
X191750000Y-71570000D03*
X191750000Y-70300000D03*
X191750000Y-69030000D03*
X191750000Y-67760000D03*
X191750000Y-66490000D03*
D27*
X182200000Y-74210000D03*
X180800000Y-72810000D03*
X181500000Y-74910000D03*
X182900000Y-73510000D03*
X181500000Y-73510000D03*
X182900000Y-74910000D03*
X180100000Y-74910000D03*
X180800000Y-74210000D03*
D28*
X181500000Y-74210000D03*
D27*
X182200000Y-72810000D03*
X182200000Y-75610000D03*
X180800000Y-75610000D03*
X180100000Y-73510000D03*
%TD*%
D20*
%TO.C,C13*%
X154637500Y-101000000D03*
X156362500Y-101000000D03*
%TD*%
D17*
%TO.C,C1*%
X175500000Y-97387500D03*
X175500000Y-99112500D03*
%TD*%
D21*
%TO.C,D6*%
X122580000Y-108500000D03*
X123420000Y-108500000D03*
%TD*%
D20*
%TO.C,C15*%
X154637500Y-98000000D03*
X156362500Y-98000000D03*
%TD*%
D19*
%TO.C,R5*%
X128412500Y-107000000D03*
X126587500Y-107000000D03*
%TD*%
D16*
%TO.C,C12*%
X170362500Y-68750000D03*
X168637500Y-68750000D03*
%TD*%
D18*
%TO.C,R13*%
X154587500Y-84750000D03*
X156412500Y-84750000D03*
%TD*%
%TO.C,R6*%
X168587500Y-70250000D03*
X170412500Y-70250000D03*
%TD*%
D17*
%TO.C,C3*%
X174000000Y-97387500D03*
X174000000Y-99112500D03*
%TD*%
D14*
%TO.C,J3*%
X139270000Y-109865000D03*
D15*
X139270000Y-111135000D03*
X138000000Y-109865000D03*
X138000000Y-111135000D03*
X136730000Y-109865000D03*
X136730000Y-111135000D03*
%TD*%
D29*
%TO.C,Q1*%
X156450000Y-81062500D03*
X154550000Y-81062500D03*
X155500000Y-82937500D03*
%TD*%
D19*
%TO.C,R4*%
X128412500Y-105500000D03*
X126587500Y-105500000D03*
%TD*%
D30*
%TO.C,TP1*%
X165000000Y-92000000D03*
%TD*%
D21*
%TO.C,D3*%
X122580000Y-104000000D03*
X123420000Y-104000000D03*
%TD*%
D19*
%TO.C,R3*%
X128412500Y-104000000D03*
X126587500Y-104000000D03*
%TD*%
%TO.C,R7*%
X128412500Y-108500000D03*
X126587500Y-108500000D03*
%TD*%
D31*
%TO.C,U2*%
X153525000Y-106055000D03*
X153525000Y-107325000D03*
X153525000Y-108595000D03*
X153525000Y-109865000D03*
X153525000Y-111135000D03*
X153525000Y-112405000D03*
X153525000Y-113675000D03*
X153525000Y-114945000D03*
X158475000Y-114945000D03*
X158475000Y-113675000D03*
X158475000Y-112405000D03*
X158475000Y-111135000D03*
X158475000Y-109865000D03*
X158475000Y-108595000D03*
X158475000Y-107325000D03*
X158475000Y-106055000D03*
%TD*%
D19*
%TO.C,R11*%
X156412500Y-79250000D03*
X154587500Y-79250000D03*
%TD*%
D32*
%TO.C,J2*%
X163125000Y-115025000D03*
D33*
X163125000Y-112485000D03*
X165665000Y-115025000D03*
X165665000Y-112485000D03*
X168205000Y-115025000D03*
X168205000Y-112485000D03*
X170745000Y-115025000D03*
X170745000Y-112485000D03*
X173285000Y-115025000D03*
X173285000Y-112485000D03*
X175825000Y-115025000D03*
X175825000Y-112485000D03*
X178365000Y-115025000D03*
X178365000Y-112485000D03*
%TD*%
D20*
%TO.C,C10*%
X168637500Y-71750000D03*
X170362500Y-71750000D03*
%TD*%
D34*
%TO.C,C5*%
X148000000Y-111362500D03*
X148000000Y-109637500D03*
%TD*%
D19*
%TO.C,R8*%
X128412500Y-110000000D03*
X126587500Y-110000000D03*
%TD*%
D21*
%TO.C,D4*%
X122580000Y-105500000D03*
X123420000Y-105500000D03*
%TD*%
D35*
%TO.C,J7*%
X182402500Y-103190000D03*
D36*
X182402500Y-105730000D03*
X182402500Y-108270000D03*
X182402500Y-110810000D03*
%TD*%
D32*
%TO.C,J4*%
X138000000Y-72000000D03*
D33*
X138000000Y-69460000D03*
X140540000Y-72000000D03*
X140540000Y-69460000D03*
X143080000Y-72000000D03*
X143080000Y-69460000D03*
X145620000Y-72000000D03*
X145620000Y-69460000D03*
X148160000Y-72000000D03*
X148160000Y-69460000D03*
%TD*%
D37*
%TO.C,D2*%
X126625000Y-102500000D03*
X128375000Y-102500000D03*
%TD*%
D34*
%TO.C,C2*%
X146500000Y-111362500D03*
X146500000Y-109637500D03*
%TD*%
D38*
%TO.C,J1*%
X121110000Y-75250000D03*
D39*
X121110000Y-77750000D03*
X121110000Y-79750000D03*
X121110000Y-82250000D03*
D40*
X118400000Y-85320000D03*
X118400000Y-72180000D03*
%TD*%
D17*
%TO.C,C6*%
X166000000Y-104387500D03*
X166000000Y-106112500D03*
%TD*%
D30*
%TO.C,TP2*%
X170000000Y-92000000D03*
%TD*%
D34*
%TO.C,C4*%
X149500000Y-111362500D03*
X149500000Y-109637500D03*
%TD*%
D41*
%TO.C,R1*%
X170500000Y-104337500D03*
X170500000Y-106162500D03*
%TD*%
D42*
%TO.C,D1*%
X169000000Y-106125000D03*
X169000000Y-104375000D03*
%TD*%
D19*
%TO.C,R9*%
X128412500Y-111500000D03*
X126587500Y-111500000D03*
%TD*%
D21*
%TO.C,D8*%
X122580000Y-111500000D03*
X123420000Y-111500000D03*
%TD*%
D43*
%TO.C,J5*%
X112250000Y-111200000D03*
X112250000Y-103200000D03*
%TD*%
M02*
