%TF.GenerationSoftware,KiCad,Pcbnew,(6.0.10)*%
%TF.CreationDate,2022-12-31T21:02:23+01:00*%
%TF.ProjectId,ESPreen,45535072-6565-46e2-9e6b-696361645f70,0*%
%TF.SameCoordinates,Original*%
%TF.FileFunction,Drillmap*%
%TF.FilePolarity,Positive*%
%FSLAX45Y45*%
G04 Gerber Fmt 4.5, Leading zero omitted, Abs format (unit mm)*
G04 Created by KiCad (PCBNEW (6.0.10)) date 2022-12-31 21:02:23*
%MOMM*%
%LPD*%
G01*
G04 APERTURE LIST*
%ADD10C,0.100000*%
%ADD11C,0.200000*%
%ADD12C,0.020000*%
%ADD13C,0.030000*%
%ADD14C,0.040000*%
%ADD15C,0.065000*%
%ADD16C,0.095000*%
%ADD17C,0.109000*%
%ADD18C,0.230000*%
G04 APERTURE END LIST*
D10*
X11000000Y-6500000D02*
G75*
G03*
X10800000Y-6700000I0J-200000D01*
G01*
X13800000Y-10150000D02*
X13800000Y-8350000D01*
X14200000Y-8350000D02*
X14200000Y-10150000D01*
X19600000Y-6700000D02*
X19600000Y-11800000D01*
X14200000Y-8350000D02*
G75*
G03*
X13800000Y-8350000I-200000J0D01*
G01*
X19400000Y-12000000D02*
X11000000Y-12000000D01*
X10800000Y-11800000D02*
G75*
G03*
X11000000Y-12000000I200000J0D01*
G01*
X11000000Y-6500000D02*
X19400000Y-6500000D01*
X10800000Y-11800000D02*
X10800000Y-6700000D01*
X13800000Y-10150000D02*
G75*
G03*
X14200000Y-10150000I200000J0D01*
G01*
X19400000Y-12000000D02*
G75*
G03*
X19600000Y-11800000I0J200000D01*
G01*
X19600000Y-6700000D02*
G75*
G03*
X19400000Y-6500000I-200000J0D01*
G01*
D11*
D12*
X18000000Y-7341000D02*
X18020000Y-7361000D01*
X18020000Y-7341000D02*
X18000000Y-7361000D01*
X18000000Y-7481000D02*
X18020000Y-7501000D01*
X18020000Y-7481000D02*
X18000000Y-7501000D01*
X18070000Y-7271000D02*
X18090000Y-7291000D01*
X18090000Y-7271000D02*
X18070000Y-7291000D01*
X18070000Y-7411000D02*
X18090000Y-7431000D01*
X18090000Y-7411000D02*
X18070000Y-7431000D01*
X18070000Y-7551000D02*
X18090000Y-7571000D01*
X18090000Y-7551000D02*
X18070000Y-7571000D01*
X18140000Y-7341000D02*
X18160000Y-7361000D01*
X18160000Y-7341000D02*
X18140000Y-7361000D01*
X18140000Y-7481000D02*
X18160000Y-7501000D01*
X18160000Y-7481000D02*
X18140000Y-7501000D01*
X18210000Y-7271000D02*
X18230000Y-7291000D01*
X18230000Y-7271000D02*
X18210000Y-7291000D01*
X18210000Y-7411000D02*
X18230000Y-7431000D01*
X18230000Y-7411000D02*
X18210000Y-7431000D01*
X18210000Y-7551000D02*
X18230000Y-7571000D01*
X18230000Y-7551000D02*
X18210000Y-7571000D01*
X18280000Y-7341000D02*
X18300000Y-7361000D01*
X18300000Y-7341000D02*
X18280000Y-7361000D01*
X18280000Y-7481000D02*
X18300000Y-7501000D01*
X18300000Y-7481000D02*
X18280000Y-7501000D01*
D13*
X12515000Y-10400000D02*
G75*
G03*
X12515000Y-10400000I-15000J0D01*
G01*
X12515000Y-10550000D02*
G75*
G03*
X12515000Y-10550000I-15000J0D01*
G01*
X12515000Y-10700000D02*
G75*
G03*
X12515000Y-10700000I-15000J0D01*
G01*
X12515000Y-10850000D02*
G75*
G03*
X12515000Y-10850000I-15000J0D01*
G01*
X12515000Y-11000000D02*
G75*
G03*
X12515000Y-11000000I-15000J0D01*
G01*
X12515000Y-11150000D02*
G75*
G03*
X12515000Y-11150000I-15000J0D01*
G01*
X12515000Y-11300000D02*
G75*
G03*
X12515000Y-11300000I-15000J0D01*
G01*
X12565000Y-7875000D02*
G75*
G03*
X12565000Y-7875000I-15000J0D01*
G01*
X14215000Y-10325000D02*
G75*
G03*
X14215000Y-10325000I-15000J0D01*
G01*
X14215000Y-10802400D02*
G75*
G03*
X14215000Y-10802400I-15000J0D01*
G01*
X14465000Y-11225000D02*
G75*
G03*
X14465000Y-11225000I-15000J0D01*
G01*
X14590000Y-10125000D02*
G75*
G03*
X14590000Y-10125000I-15000J0D01*
G01*
X14765000Y-8850000D02*
G75*
G03*
X14765000Y-8850000I-15000J0D01*
G01*
X14765000Y-9250000D02*
G75*
G03*
X14765000Y-9250000I-15000J0D01*
G01*
X14765000Y-9650000D02*
G75*
G03*
X14765000Y-9650000I-15000J0D01*
G01*
X14765000Y-10125000D02*
G75*
G03*
X14765000Y-10125000I-15000J0D01*
G01*
X15140000Y-11025000D02*
G75*
G03*
X15140000Y-11025000I-15000J0D01*
G01*
X15215000Y-7000000D02*
G75*
G03*
X15215000Y-7000000I-15000J0D01*
G01*
X15215000Y-7200000D02*
G75*
G03*
X15215000Y-7200000I-15000J0D01*
G01*
X15415000Y-7000000D02*
G75*
G03*
X15415000Y-7000000I-15000J0D01*
G01*
X15415000Y-7200000D02*
G75*
G03*
X15415000Y-7200000I-15000J0D01*
G01*
X15540000Y-11450000D02*
G75*
G03*
X15540000Y-11450000I-15000J0D01*
G01*
X15715000Y-11175000D02*
G75*
G03*
X15715000Y-11175000I-15000J0D01*
G01*
X16040000Y-10802450D02*
G75*
G03*
X16040000Y-10802450I-15000J0D01*
G01*
X16040000Y-11125000D02*
G75*
G03*
X16040000Y-11125000I-15000J0D01*
G01*
X16065000Y-11325000D02*
G75*
G03*
X16065000Y-11325000I-15000J0D01*
G01*
X16065000Y-11575000D02*
G75*
G03*
X16065000Y-11575000I-15000J0D01*
G01*
X16115000Y-10739950D02*
G75*
G03*
X16115000Y-10739950I-15000J0D01*
G01*
X16142363Y-11194950D02*
G75*
G03*
X16142363Y-11194950I-15000J0D01*
G01*
X16365000Y-7975000D02*
G75*
G03*
X16365000Y-7975000I-15000J0D01*
G01*
X16890000Y-8500000D02*
G75*
G03*
X16890000Y-8500000I-15000J0D01*
G01*
X17140000Y-8186500D02*
G75*
G03*
X17140000Y-8186500I-15000J0D01*
G01*
X17140000Y-8286500D02*
G75*
G03*
X17140000Y-8286500I-15000J0D01*
G01*
X17590000Y-7950000D02*
G75*
G03*
X17590000Y-7950000I-15000J0D01*
G01*
X17665000Y-8250000D02*
G75*
G03*
X17665000Y-8250000I-15000J0D01*
G01*
X17665000Y-8925000D02*
G75*
G03*
X17665000Y-8925000I-15000J0D01*
G01*
X17740000Y-7975000D02*
G75*
G03*
X17740000Y-7975000I-15000J0D01*
G01*
X17740000Y-8850000D02*
G75*
G03*
X17740000Y-8850000I-15000J0D01*
G01*
X17940000Y-6800000D02*
G75*
G03*
X17940000Y-6800000I-15000J0D01*
G01*
X18190000Y-6950000D02*
G75*
G03*
X18190000Y-6950000I-15000J0D01*
G01*
X18340000Y-9600000D02*
G75*
G03*
X18340000Y-9600000I-15000J0D01*
G01*
X18390000Y-6775000D02*
G75*
G03*
X18390000Y-6775000I-15000J0D01*
G01*
X18390000Y-6900000D02*
G75*
G03*
X18390000Y-6900000I-15000J0D01*
G01*
X18390000Y-7030000D02*
G75*
G03*
X18390000Y-7030000I-15000J0D01*
G01*
X18415000Y-9525000D02*
G75*
G03*
X18415000Y-9525000I-15000J0D01*
G01*
X18490000Y-8600000D02*
G75*
G03*
X18490000Y-8600000I-15000J0D01*
G01*
X18615000Y-8600000D02*
G75*
G03*
X18615000Y-8600000I-15000J0D01*
G01*
X18759500Y-8717059D02*
G75*
G03*
X18759500Y-8717059I-15000J0D01*
G01*
X18886500Y-8689054D02*
G75*
G03*
X18886500Y-8689054I-15000J0D01*
G01*
X18977500Y-8587500D02*
G75*
G03*
X18977500Y-8587500I-15000J0D01*
G01*
X19015050Y-8292550D02*
G75*
G03*
X19015050Y-8292550I-15000J0D01*
G01*
X19034950Y-7675000D02*
G75*
G03*
X19034950Y-7675000I-15000J0D01*
G01*
X19040000Y-7425000D02*
G75*
G03*
X19040000Y-7425000I-15000J0D01*
G01*
X19040000Y-7550000D02*
G75*
G03*
X19040000Y-7550000I-15000J0D01*
G01*
X19040000Y-7825000D02*
G75*
G03*
X19040000Y-7825000I-15000J0D01*
G01*
D14*
X13100000Y-7855000D02*
X13100000Y-7895000D01*
X13080000Y-7875000D02*
X13120000Y-7875000D01*
X13575000Y-10305000D02*
X13575000Y-10345000D01*
X13555000Y-10325000D02*
X13595000Y-10325000D01*
X16875000Y-9930000D02*
X16875000Y-9970000D01*
X16855000Y-9950000D02*
X16895000Y-9950000D01*
X17189931Y-9494931D02*
X17189931Y-9534931D01*
X17169931Y-9514931D02*
X17209931Y-9514931D01*
X17575000Y-7530000D02*
X17575000Y-7570000D01*
X17555000Y-7550000D02*
X17595000Y-7550000D01*
D15*
X13695981Y-11009481D02*
X13695981Y-10963519D01*
X13650019Y-10963519D01*
X13650019Y-11009481D01*
X13695981Y-11009481D01*
X13695981Y-11136481D02*
X13695981Y-11090519D01*
X13650019Y-11090519D01*
X13650019Y-11136481D01*
X13695981Y-11136481D01*
X13822981Y-11009481D02*
X13822981Y-10963519D01*
X13777019Y-10963519D01*
X13777019Y-11009481D01*
X13822981Y-11009481D01*
X13822981Y-11136481D02*
X13822981Y-11090519D01*
X13777019Y-11090519D01*
X13777019Y-11136481D01*
X13822981Y-11136481D01*
X13949981Y-11009481D02*
X13949981Y-10963519D01*
X13904019Y-10963519D01*
X13904019Y-11009481D01*
X13949981Y-11009481D01*
X13949981Y-11136481D02*
X13949981Y-11090519D01*
X13904019Y-11090519D01*
X13904019Y-11136481D01*
X13949981Y-11136481D01*
X15768981Y-7022981D02*
X15768981Y-6977019D01*
X15723019Y-6977019D01*
X15723019Y-7022981D01*
X15768981Y-7022981D01*
X15768981Y-7149981D02*
X15768981Y-7104019D01*
X15723019Y-7104019D01*
X15723019Y-7149981D01*
X15768981Y-7149981D01*
X15895981Y-7022981D02*
X15895981Y-6977019D01*
X15850019Y-6977019D01*
X15850019Y-7022981D01*
X15895981Y-7022981D01*
X15895981Y-7149981D02*
X15895981Y-7104019D01*
X15850019Y-7104019D01*
X15850019Y-7149981D01*
X15895981Y-7149981D01*
X16022981Y-7022981D02*
X16022981Y-6977019D01*
X15977019Y-6977019D01*
X15977019Y-7022981D01*
X16022981Y-7022981D01*
X16022981Y-7149981D02*
X16022981Y-7104019D01*
X15977019Y-7104019D01*
X15977019Y-7149981D01*
X16022981Y-7149981D01*
D16*
X12111000Y-7572500D02*
X12158500Y-7525000D01*
X12111000Y-7477500D01*
X12063500Y-7525000D01*
X12111000Y-7572500D01*
X12111000Y-7822500D02*
X12158500Y-7775000D01*
X12111000Y-7727500D01*
X12063500Y-7775000D01*
X12111000Y-7822500D01*
X12111000Y-8022500D02*
X12158500Y-7975000D01*
X12111000Y-7927500D01*
X12063500Y-7975000D01*
X12111000Y-8022500D01*
X12111000Y-8272500D02*
X12158500Y-8225000D01*
X12111000Y-8177500D01*
X12063500Y-8225000D01*
X12111000Y-8272500D01*
D10*
X13750000Y-6896000D02*
X13850000Y-6996000D01*
X13850000Y-6896000D02*
X13750000Y-6996000D01*
X13850000Y-6946000D02*
G75*
G03*
X13850000Y-6946000I-50000J0D01*
G01*
X13750000Y-7150000D02*
X13850000Y-7250000D01*
X13850000Y-7150000D02*
X13750000Y-7250000D01*
X13850000Y-7200000D02*
G75*
G03*
X13850000Y-7200000I-50000J0D01*
G01*
X14004000Y-6896000D02*
X14104000Y-6996000D01*
X14104000Y-6896000D02*
X14004000Y-6996000D01*
X14104000Y-6946000D02*
G75*
G03*
X14104000Y-6946000I-50000J0D01*
G01*
X14004000Y-7150000D02*
X14104000Y-7250000D01*
X14104000Y-7150000D02*
X14004000Y-7250000D01*
X14104000Y-7200000D02*
G75*
G03*
X14104000Y-7200000I-50000J0D01*
G01*
X14258000Y-6896000D02*
X14358000Y-6996000D01*
X14358000Y-6896000D02*
X14258000Y-6996000D01*
X14358000Y-6946000D02*
G75*
G03*
X14358000Y-6946000I-50000J0D01*
G01*
X14258000Y-7150000D02*
X14358000Y-7250000D01*
X14358000Y-7150000D02*
X14258000Y-7250000D01*
X14358000Y-7200000D02*
G75*
G03*
X14358000Y-7200000I-50000J0D01*
G01*
X14512000Y-6896000D02*
X14612000Y-6996000D01*
X14612000Y-6896000D02*
X14512000Y-6996000D01*
X14612000Y-6946000D02*
G75*
G03*
X14612000Y-6946000I-50000J0D01*
G01*
X14512000Y-7150000D02*
X14612000Y-7250000D01*
X14612000Y-7150000D02*
X14512000Y-7250000D01*
X14612000Y-7200000D02*
G75*
G03*
X14612000Y-7200000I-50000J0D01*
G01*
X14766000Y-6896000D02*
X14866000Y-6996000D01*
X14866000Y-6896000D02*
X14766000Y-6996000D01*
X14866000Y-6946000D02*
G75*
G03*
X14866000Y-6946000I-50000J0D01*
G01*
X14766000Y-7150000D02*
X14866000Y-7250000D01*
X14866000Y-7150000D02*
X14766000Y-7250000D01*
X14866000Y-7200000D02*
G75*
G03*
X14866000Y-7200000I-50000J0D01*
G01*
X16262500Y-11198500D02*
X16362500Y-11298500D01*
X16362500Y-11198500D02*
X16262500Y-11298500D01*
X16362500Y-11248500D02*
G75*
G03*
X16362500Y-11248500I-50000J0D01*
G01*
X16262500Y-11452500D02*
X16362500Y-11552500D01*
X16362500Y-11452500D02*
X16262500Y-11552500D01*
X16362500Y-11502500D02*
G75*
G03*
X16362500Y-11502500I-50000J0D01*
G01*
X16516500Y-11198500D02*
X16616500Y-11298500D01*
X16616500Y-11198500D02*
X16516500Y-11298500D01*
X16616500Y-11248500D02*
G75*
G03*
X16616500Y-11248500I-50000J0D01*
G01*
X16516500Y-11452500D02*
X16616500Y-11552500D01*
X16616500Y-11452500D02*
X16516500Y-11552500D01*
X16616500Y-11502500D02*
G75*
G03*
X16616500Y-11502500I-50000J0D01*
G01*
X16770500Y-11198500D02*
X16870500Y-11298500D01*
X16870500Y-11198500D02*
X16770500Y-11298500D01*
X16870500Y-11248500D02*
G75*
G03*
X16870500Y-11248500I-50000J0D01*
G01*
X16770500Y-11452500D02*
X16870500Y-11552500D01*
X16870500Y-11452500D02*
X16770500Y-11552500D01*
X16870500Y-11502500D02*
G75*
G03*
X16870500Y-11502500I-50000J0D01*
G01*
X17024500Y-11198500D02*
X17124500Y-11298500D01*
X17124500Y-11198500D02*
X17024500Y-11298500D01*
X17124500Y-11248500D02*
G75*
G03*
X17124500Y-11248500I-50000J0D01*
G01*
X17024500Y-11452500D02*
X17124500Y-11552500D01*
X17124500Y-11452500D02*
X17024500Y-11552500D01*
X17124500Y-11502500D02*
G75*
G03*
X17124500Y-11502500I-50000J0D01*
G01*
X17278500Y-11198500D02*
X17378500Y-11298500D01*
X17378500Y-11198500D02*
X17278500Y-11298500D01*
X17378500Y-11248500D02*
G75*
G03*
X17378500Y-11248500I-50000J0D01*
G01*
X17278500Y-11452500D02*
X17378500Y-11552500D01*
X17378500Y-11452500D02*
X17278500Y-11552500D01*
X17378500Y-11502500D02*
G75*
G03*
X17378500Y-11502500I-50000J0D01*
G01*
X17532500Y-11198500D02*
X17632500Y-11298500D01*
X17632500Y-11198500D02*
X17532500Y-11298500D01*
X17632500Y-11248500D02*
G75*
G03*
X17632500Y-11248500I-50000J0D01*
G01*
X17532500Y-11452500D02*
X17632500Y-11552500D01*
X17632500Y-11452500D02*
X17532500Y-11552500D01*
X17632500Y-11502500D02*
G75*
G03*
X17632500Y-11502500I-50000J0D01*
G01*
X17786500Y-11198500D02*
X17886500Y-11298500D01*
X17886500Y-11198500D02*
X17786500Y-11298500D01*
X17886500Y-11248500D02*
G75*
G03*
X17886500Y-11248500I-50000J0D01*
G01*
X17786500Y-11452500D02*
X17886500Y-11552500D01*
X17886500Y-11452500D02*
X17786500Y-11552500D01*
X17886500Y-11502500D02*
G75*
G03*
X17886500Y-11502500I-50000J0D01*
G01*
D17*
X18185750Y-10264500D02*
X18294750Y-10373500D01*
X18294750Y-10264500D02*
X18185750Y-10373500D01*
X18240250Y-10264500D02*
X18240250Y-10373500D01*
X18185750Y-10319000D02*
X18294750Y-10319000D01*
X18185750Y-10518500D02*
X18294750Y-10627500D01*
X18294750Y-10518500D02*
X18185750Y-10627500D01*
X18240250Y-10518500D02*
X18240250Y-10627500D01*
X18185750Y-10573000D02*
X18294750Y-10573000D01*
X18185750Y-10772500D02*
X18294750Y-10881500D01*
X18294750Y-10772500D02*
X18185750Y-10881500D01*
X18240250Y-10772500D02*
X18240250Y-10881500D01*
X18185750Y-10827000D02*
X18294750Y-10827000D01*
X18185750Y-11026500D02*
X18294750Y-11135500D01*
X18294750Y-11026500D02*
X18185750Y-11135500D01*
X18240250Y-11026500D02*
X18240250Y-11135500D01*
X18185750Y-11081000D02*
X18294750Y-11081000D01*
D18*
X11725000Y-7103000D02*
X11955000Y-7333000D01*
X11955000Y-7103000D02*
X11725000Y-7333000D01*
X11921318Y-7299318D02*
X11921318Y-7136682D01*
X11758682Y-7136682D01*
X11758682Y-7299318D01*
X11921318Y-7299318D01*
X11725000Y-8417000D02*
X11955000Y-8647000D01*
X11955000Y-8417000D02*
X11725000Y-8647000D01*
X11921318Y-8613318D02*
X11921318Y-8450682D01*
X11758682Y-8450682D01*
X11758682Y-8613318D01*
X11921318Y-8613318D01*
D11*
X11052619Y-12315476D02*
X11052619Y-12115476D01*
X11100238Y-12115476D01*
X11128810Y-12125000D01*
X11147857Y-12144048D01*
X11157381Y-12163095D01*
X11166905Y-12201190D01*
X11166905Y-12229762D01*
X11157381Y-12267857D01*
X11147857Y-12286905D01*
X11128810Y-12305952D01*
X11100238Y-12315476D01*
X11052619Y-12315476D01*
X11252619Y-12315476D02*
X11252619Y-12182143D01*
X11252619Y-12220238D02*
X11262143Y-12201190D01*
X11271667Y-12191667D01*
X11290714Y-12182143D01*
X11309762Y-12182143D01*
X11376428Y-12315476D02*
X11376428Y-12182143D01*
X11376428Y-12115476D02*
X11366905Y-12125000D01*
X11376428Y-12134524D01*
X11385952Y-12125000D01*
X11376428Y-12115476D01*
X11376428Y-12134524D01*
X11500238Y-12315476D02*
X11481190Y-12305952D01*
X11471667Y-12286905D01*
X11471667Y-12115476D01*
X11605000Y-12315476D02*
X11585952Y-12305952D01*
X11576428Y-12286905D01*
X11576428Y-12115476D01*
X11833571Y-12315476D02*
X11833571Y-12115476D01*
X11900238Y-12258333D01*
X11966905Y-12115476D01*
X11966905Y-12315476D01*
X12147857Y-12315476D02*
X12147857Y-12210714D01*
X12138333Y-12191667D01*
X12119286Y-12182143D01*
X12081190Y-12182143D01*
X12062143Y-12191667D01*
X12147857Y-12305952D02*
X12128809Y-12315476D01*
X12081190Y-12315476D01*
X12062143Y-12305952D01*
X12052619Y-12286905D01*
X12052619Y-12267857D01*
X12062143Y-12248809D01*
X12081190Y-12239286D01*
X12128809Y-12239286D01*
X12147857Y-12229762D01*
X12243095Y-12182143D02*
X12243095Y-12382143D01*
X12243095Y-12191667D02*
X12262143Y-12182143D01*
X12300238Y-12182143D01*
X12319286Y-12191667D01*
X12328809Y-12201190D01*
X12338333Y-12220238D01*
X12338333Y-12277381D01*
X12328809Y-12296428D01*
X12319286Y-12305952D01*
X12300238Y-12315476D01*
X12262143Y-12315476D01*
X12243095Y-12305952D01*
X12424048Y-12296428D02*
X12433571Y-12305952D01*
X12424048Y-12315476D01*
X12414524Y-12305952D01*
X12424048Y-12296428D01*
X12424048Y-12315476D01*
X12424048Y-12191667D02*
X12433571Y-12201190D01*
X12424048Y-12210714D01*
X12414524Y-12201190D01*
X12424048Y-12191667D01*
X12424048Y-12210714D01*
D12*
X10775000Y-12635000D02*
X10795000Y-12655000D01*
X10795000Y-12635000D02*
X10775000Y-12655000D01*
D11*
X11090714Y-12535476D02*
X11109762Y-12535476D01*
X11128810Y-12545000D01*
X11138333Y-12554524D01*
X11147857Y-12573571D01*
X11157381Y-12611667D01*
X11157381Y-12659286D01*
X11147857Y-12697381D01*
X11138333Y-12716428D01*
X11128810Y-12725952D01*
X11109762Y-12735476D01*
X11090714Y-12735476D01*
X11071667Y-12725952D01*
X11062143Y-12716428D01*
X11052619Y-12697381D01*
X11043095Y-12659286D01*
X11043095Y-12611667D01*
X11052619Y-12573571D01*
X11062143Y-12554524D01*
X11071667Y-12545000D01*
X11090714Y-12535476D01*
X11243095Y-12716428D02*
X11252619Y-12725952D01*
X11243095Y-12735476D01*
X11233571Y-12725952D01*
X11243095Y-12716428D01*
X11243095Y-12735476D01*
X11328809Y-12554524D02*
X11338333Y-12545000D01*
X11357381Y-12535476D01*
X11405000Y-12535476D01*
X11424048Y-12545000D01*
X11433571Y-12554524D01*
X11443095Y-12573571D01*
X11443095Y-12592619D01*
X11433571Y-12621190D01*
X11319286Y-12735476D01*
X11443095Y-12735476D01*
X11566905Y-12535476D02*
X11585952Y-12535476D01*
X11605000Y-12545000D01*
X11614524Y-12554524D01*
X11624048Y-12573571D01*
X11633571Y-12611667D01*
X11633571Y-12659286D01*
X11624048Y-12697381D01*
X11614524Y-12716428D01*
X11605000Y-12725952D01*
X11585952Y-12735476D01*
X11566905Y-12735476D01*
X11547857Y-12725952D01*
X11538333Y-12716428D01*
X11528809Y-12697381D01*
X11519286Y-12659286D01*
X11519286Y-12611667D01*
X11528809Y-12573571D01*
X11538333Y-12554524D01*
X11547857Y-12545000D01*
X11566905Y-12535476D01*
X11757381Y-12535476D02*
X11776428Y-12535476D01*
X11795476Y-12545000D01*
X11805000Y-12554524D01*
X11814524Y-12573571D01*
X11824048Y-12611667D01*
X11824048Y-12659286D01*
X11814524Y-12697381D01*
X11805000Y-12716428D01*
X11795476Y-12725952D01*
X11776428Y-12735476D01*
X11757381Y-12735476D01*
X11738333Y-12725952D01*
X11728809Y-12716428D01*
X11719286Y-12697381D01*
X11709762Y-12659286D01*
X11709762Y-12611667D01*
X11719286Y-12573571D01*
X11728809Y-12554524D01*
X11738333Y-12545000D01*
X11757381Y-12535476D01*
X11909762Y-12735476D02*
X11909762Y-12602143D01*
X11909762Y-12621190D02*
X11919286Y-12611667D01*
X11938333Y-12602143D01*
X11966905Y-12602143D01*
X11985952Y-12611667D01*
X11995476Y-12630714D01*
X11995476Y-12735476D01*
X11995476Y-12630714D02*
X12005000Y-12611667D01*
X12024048Y-12602143D01*
X12052619Y-12602143D01*
X12071667Y-12611667D01*
X12081190Y-12630714D01*
X12081190Y-12735476D01*
X12176428Y-12735476D02*
X12176428Y-12602143D01*
X12176428Y-12621190D02*
X12185952Y-12611667D01*
X12205000Y-12602143D01*
X12233571Y-12602143D01*
X12252619Y-12611667D01*
X12262143Y-12630714D01*
X12262143Y-12735476D01*
X12262143Y-12630714D02*
X12271667Y-12611667D01*
X12290714Y-12602143D01*
X12319286Y-12602143D01*
X12338333Y-12611667D01*
X12347857Y-12630714D01*
X12347857Y-12735476D01*
X12738333Y-12525952D02*
X12566905Y-12783095D01*
X12995476Y-12535476D02*
X13014524Y-12535476D01*
X13033571Y-12545000D01*
X13043095Y-12554524D01*
X13052619Y-12573571D01*
X13062143Y-12611667D01*
X13062143Y-12659286D01*
X13052619Y-12697381D01*
X13043095Y-12716428D01*
X13033571Y-12725952D01*
X13014524Y-12735476D01*
X12995476Y-12735476D01*
X12976428Y-12725952D01*
X12966905Y-12716428D01*
X12957381Y-12697381D01*
X12947857Y-12659286D01*
X12947857Y-12611667D01*
X12957381Y-12573571D01*
X12966905Y-12554524D01*
X12976428Y-12545000D01*
X12995476Y-12535476D01*
X13147857Y-12716428D02*
X13157381Y-12725952D01*
X13147857Y-12735476D01*
X13138333Y-12725952D01*
X13147857Y-12716428D01*
X13147857Y-12735476D01*
X13281190Y-12535476D02*
X13300238Y-12535476D01*
X13319286Y-12545000D01*
X13328809Y-12554524D01*
X13338333Y-12573571D01*
X13347857Y-12611667D01*
X13347857Y-12659286D01*
X13338333Y-12697381D01*
X13328809Y-12716428D01*
X13319286Y-12725952D01*
X13300238Y-12735476D01*
X13281190Y-12735476D01*
X13262143Y-12725952D01*
X13252619Y-12716428D01*
X13243095Y-12697381D01*
X13233571Y-12659286D01*
X13233571Y-12611667D01*
X13243095Y-12573571D01*
X13252619Y-12554524D01*
X13262143Y-12545000D01*
X13281190Y-12535476D01*
X13471667Y-12535476D02*
X13490714Y-12535476D01*
X13509762Y-12545000D01*
X13519286Y-12554524D01*
X13528809Y-12573571D01*
X13538333Y-12611667D01*
X13538333Y-12659286D01*
X13528809Y-12697381D01*
X13519286Y-12716428D01*
X13509762Y-12725952D01*
X13490714Y-12735476D01*
X13471667Y-12735476D01*
X13452619Y-12725952D01*
X13443095Y-12716428D01*
X13433571Y-12697381D01*
X13424048Y-12659286D01*
X13424048Y-12611667D01*
X13433571Y-12573571D01*
X13443095Y-12554524D01*
X13452619Y-12545000D01*
X13471667Y-12535476D01*
X13605000Y-12535476D02*
X13738333Y-12535476D01*
X13652619Y-12735476D01*
X13824048Y-12735476D02*
X13862143Y-12735476D01*
X13881190Y-12725952D01*
X13890714Y-12716428D01*
X13909762Y-12687857D01*
X13919286Y-12649762D01*
X13919286Y-12573571D01*
X13909762Y-12554524D01*
X13900238Y-12545000D01*
X13881190Y-12535476D01*
X13843095Y-12535476D01*
X13824048Y-12545000D01*
X13814524Y-12554524D01*
X13805000Y-12573571D01*
X13805000Y-12621190D01*
X13814524Y-12640238D01*
X13824048Y-12649762D01*
X13843095Y-12659286D01*
X13881190Y-12659286D01*
X13900238Y-12649762D01*
X13909762Y-12640238D01*
X13919286Y-12621190D01*
X13995476Y-12535476D02*
X13995476Y-12573571D01*
X14071667Y-12535476D02*
X14071667Y-12573571D01*
X14366905Y-12811667D02*
X14357381Y-12802143D01*
X14338333Y-12773571D01*
X14328809Y-12754524D01*
X14319286Y-12725952D01*
X14309762Y-12678333D01*
X14309762Y-12640238D01*
X14319286Y-12592619D01*
X14328809Y-12564048D01*
X14338333Y-12545000D01*
X14357381Y-12516428D01*
X14366905Y-12506905D01*
X14547857Y-12735476D02*
X14433571Y-12735476D01*
X14490714Y-12735476D02*
X14490714Y-12535476D01*
X14471667Y-12564048D01*
X14452619Y-12583095D01*
X14433571Y-12592619D01*
X14624048Y-12554524D02*
X14633571Y-12545000D01*
X14652619Y-12535476D01*
X14700238Y-12535476D01*
X14719286Y-12545000D01*
X14728809Y-12554524D01*
X14738333Y-12573571D01*
X14738333Y-12592619D01*
X14728809Y-12621190D01*
X14614524Y-12735476D01*
X14738333Y-12735476D01*
X14976428Y-12735476D02*
X14976428Y-12535476D01*
X15062143Y-12735476D02*
X15062143Y-12630714D01*
X15052619Y-12611667D01*
X15033571Y-12602143D01*
X15005000Y-12602143D01*
X14985952Y-12611667D01*
X14976428Y-12621190D01*
X15185952Y-12735476D02*
X15166905Y-12725952D01*
X15157381Y-12716428D01*
X15147857Y-12697381D01*
X15147857Y-12640238D01*
X15157381Y-12621190D01*
X15166905Y-12611667D01*
X15185952Y-12602143D01*
X15214524Y-12602143D01*
X15233571Y-12611667D01*
X15243095Y-12621190D01*
X15252619Y-12640238D01*
X15252619Y-12697381D01*
X15243095Y-12716428D01*
X15233571Y-12725952D01*
X15214524Y-12735476D01*
X15185952Y-12735476D01*
X15366905Y-12735476D02*
X15347857Y-12725952D01*
X15338333Y-12706905D01*
X15338333Y-12535476D01*
X15519286Y-12725952D02*
X15500238Y-12735476D01*
X15462143Y-12735476D01*
X15443095Y-12725952D01*
X15433571Y-12706905D01*
X15433571Y-12630714D01*
X15443095Y-12611667D01*
X15462143Y-12602143D01*
X15500238Y-12602143D01*
X15519286Y-12611667D01*
X15528809Y-12630714D01*
X15528809Y-12649762D01*
X15433571Y-12668809D01*
X15605000Y-12725952D02*
X15624048Y-12735476D01*
X15662143Y-12735476D01*
X15681190Y-12725952D01*
X15690714Y-12706905D01*
X15690714Y-12697381D01*
X15681190Y-12678333D01*
X15662143Y-12668809D01*
X15633571Y-12668809D01*
X15614524Y-12659286D01*
X15605000Y-12640238D01*
X15605000Y-12630714D01*
X15614524Y-12611667D01*
X15633571Y-12602143D01*
X15662143Y-12602143D01*
X15681190Y-12611667D01*
X15757381Y-12811667D02*
X15766905Y-12802143D01*
X15785952Y-12773571D01*
X15795476Y-12754524D01*
X15805000Y-12725952D01*
X15814524Y-12678333D01*
X15814524Y-12640238D01*
X15805000Y-12592619D01*
X15795476Y-12564048D01*
X15785952Y-12545000D01*
X15766905Y-12516428D01*
X15757381Y-12506905D01*
D13*
X10795000Y-12909000D02*
G75*
G03*
X10795000Y-12909000I-15000J0D01*
G01*
D11*
X11090714Y-12799476D02*
X11109762Y-12799476D01*
X11128810Y-12809000D01*
X11138333Y-12818524D01*
X11147857Y-12837571D01*
X11157381Y-12875667D01*
X11157381Y-12923286D01*
X11147857Y-12961381D01*
X11138333Y-12980428D01*
X11128810Y-12989952D01*
X11109762Y-12999476D01*
X11090714Y-12999476D01*
X11071667Y-12989952D01*
X11062143Y-12980428D01*
X11052619Y-12961381D01*
X11043095Y-12923286D01*
X11043095Y-12875667D01*
X11052619Y-12837571D01*
X11062143Y-12818524D01*
X11071667Y-12809000D01*
X11090714Y-12799476D01*
X11243095Y-12980428D02*
X11252619Y-12989952D01*
X11243095Y-12999476D01*
X11233571Y-12989952D01*
X11243095Y-12980428D01*
X11243095Y-12999476D01*
X11319286Y-12799476D02*
X11443095Y-12799476D01*
X11376428Y-12875667D01*
X11405000Y-12875667D01*
X11424048Y-12885190D01*
X11433571Y-12894714D01*
X11443095Y-12913762D01*
X11443095Y-12961381D01*
X11433571Y-12980428D01*
X11424048Y-12989952D01*
X11405000Y-12999476D01*
X11347857Y-12999476D01*
X11328809Y-12989952D01*
X11319286Y-12980428D01*
X11566905Y-12799476D02*
X11585952Y-12799476D01*
X11605000Y-12809000D01*
X11614524Y-12818524D01*
X11624048Y-12837571D01*
X11633571Y-12875667D01*
X11633571Y-12923286D01*
X11624048Y-12961381D01*
X11614524Y-12980428D01*
X11605000Y-12989952D01*
X11585952Y-12999476D01*
X11566905Y-12999476D01*
X11547857Y-12989952D01*
X11538333Y-12980428D01*
X11528809Y-12961381D01*
X11519286Y-12923286D01*
X11519286Y-12875667D01*
X11528809Y-12837571D01*
X11538333Y-12818524D01*
X11547857Y-12809000D01*
X11566905Y-12799476D01*
X11757381Y-12799476D02*
X11776428Y-12799476D01*
X11795476Y-12809000D01*
X11805000Y-12818524D01*
X11814524Y-12837571D01*
X11824048Y-12875667D01*
X11824048Y-12923286D01*
X11814524Y-12961381D01*
X11805000Y-12980428D01*
X11795476Y-12989952D01*
X11776428Y-12999476D01*
X11757381Y-12999476D01*
X11738333Y-12989952D01*
X11728809Y-12980428D01*
X11719286Y-12961381D01*
X11709762Y-12923286D01*
X11709762Y-12875667D01*
X11719286Y-12837571D01*
X11728809Y-12818524D01*
X11738333Y-12809000D01*
X11757381Y-12799476D01*
X11909762Y-12999476D02*
X11909762Y-12866143D01*
X11909762Y-12885190D02*
X11919286Y-12875667D01*
X11938333Y-12866143D01*
X11966905Y-12866143D01*
X11985952Y-12875667D01*
X11995476Y-12894714D01*
X11995476Y-12999476D01*
X11995476Y-12894714D02*
X12005000Y-12875667D01*
X12024048Y-12866143D01*
X12052619Y-12866143D01*
X12071667Y-12875667D01*
X12081190Y-12894714D01*
X12081190Y-12999476D01*
X12176428Y-12999476D02*
X12176428Y-12866143D01*
X12176428Y-12885190D02*
X12185952Y-12875667D01*
X12205000Y-12866143D01*
X12233571Y-12866143D01*
X12252619Y-12875667D01*
X12262143Y-12894714D01*
X12262143Y-12999476D01*
X12262143Y-12894714D02*
X12271667Y-12875667D01*
X12290714Y-12866143D01*
X12319286Y-12866143D01*
X12338333Y-12875667D01*
X12347857Y-12894714D01*
X12347857Y-12999476D01*
X12738333Y-12789952D02*
X12566905Y-13047095D01*
X12995476Y-12799476D02*
X13014524Y-12799476D01*
X13033571Y-12809000D01*
X13043095Y-12818524D01*
X13052619Y-12837571D01*
X13062143Y-12875667D01*
X13062143Y-12923286D01*
X13052619Y-12961381D01*
X13043095Y-12980428D01*
X13033571Y-12989952D01*
X13014524Y-12999476D01*
X12995476Y-12999476D01*
X12976428Y-12989952D01*
X12966905Y-12980428D01*
X12957381Y-12961381D01*
X12947857Y-12923286D01*
X12947857Y-12875667D01*
X12957381Y-12837571D01*
X12966905Y-12818524D01*
X12976428Y-12809000D01*
X12995476Y-12799476D01*
X13147857Y-12980428D02*
X13157381Y-12989952D01*
X13147857Y-12999476D01*
X13138333Y-12989952D01*
X13147857Y-12980428D01*
X13147857Y-12999476D01*
X13281190Y-12799476D02*
X13300238Y-12799476D01*
X13319286Y-12809000D01*
X13328809Y-12818524D01*
X13338333Y-12837571D01*
X13347857Y-12875667D01*
X13347857Y-12923286D01*
X13338333Y-12961381D01*
X13328809Y-12980428D01*
X13319286Y-12989952D01*
X13300238Y-12999476D01*
X13281190Y-12999476D01*
X13262143Y-12989952D01*
X13252619Y-12980428D01*
X13243095Y-12961381D01*
X13233571Y-12923286D01*
X13233571Y-12875667D01*
X13243095Y-12837571D01*
X13252619Y-12818524D01*
X13262143Y-12809000D01*
X13281190Y-12799476D01*
X13538333Y-12999476D02*
X13424048Y-12999476D01*
X13481190Y-12999476D02*
X13481190Y-12799476D01*
X13462143Y-12828048D01*
X13443095Y-12847095D01*
X13424048Y-12856619D01*
X13728809Y-12999476D02*
X13614524Y-12999476D01*
X13671667Y-12999476D02*
X13671667Y-12799476D01*
X13652619Y-12828048D01*
X13633571Y-12847095D01*
X13614524Y-12856619D01*
X13843095Y-12885190D02*
X13824048Y-12875667D01*
X13814524Y-12866143D01*
X13805000Y-12847095D01*
X13805000Y-12837571D01*
X13814524Y-12818524D01*
X13824048Y-12809000D01*
X13843095Y-12799476D01*
X13881190Y-12799476D01*
X13900238Y-12809000D01*
X13909762Y-12818524D01*
X13919286Y-12837571D01*
X13919286Y-12847095D01*
X13909762Y-12866143D01*
X13900238Y-12875667D01*
X13881190Y-12885190D01*
X13843095Y-12885190D01*
X13824048Y-12894714D01*
X13814524Y-12904238D01*
X13805000Y-12923286D01*
X13805000Y-12961381D01*
X13814524Y-12980428D01*
X13824048Y-12989952D01*
X13843095Y-12999476D01*
X13881190Y-12999476D01*
X13900238Y-12989952D01*
X13909762Y-12980428D01*
X13919286Y-12961381D01*
X13919286Y-12923286D01*
X13909762Y-12904238D01*
X13900238Y-12894714D01*
X13881190Y-12885190D01*
X13995476Y-12799476D02*
X13995476Y-12837571D01*
X14071667Y-12799476D02*
X14071667Y-12837571D01*
X14366905Y-13075667D02*
X14357381Y-13066143D01*
X14338333Y-13037571D01*
X14328809Y-13018524D01*
X14319286Y-12989952D01*
X14309762Y-12942333D01*
X14309762Y-12904238D01*
X14319286Y-12856619D01*
X14328809Y-12828048D01*
X14338333Y-12809000D01*
X14357381Y-12780428D01*
X14366905Y-12770905D01*
X14538333Y-12799476D02*
X14443095Y-12799476D01*
X14433571Y-12894714D01*
X14443095Y-12885190D01*
X14462143Y-12875667D01*
X14509762Y-12875667D01*
X14528809Y-12885190D01*
X14538333Y-12894714D01*
X14547857Y-12913762D01*
X14547857Y-12961381D01*
X14538333Y-12980428D01*
X14528809Y-12989952D01*
X14509762Y-12999476D01*
X14462143Y-12999476D01*
X14443095Y-12989952D01*
X14433571Y-12980428D01*
X14728809Y-12799476D02*
X14633571Y-12799476D01*
X14624048Y-12894714D01*
X14633571Y-12885190D01*
X14652619Y-12875667D01*
X14700238Y-12875667D01*
X14719286Y-12885190D01*
X14728809Y-12894714D01*
X14738333Y-12913762D01*
X14738333Y-12961381D01*
X14728809Y-12980428D01*
X14719286Y-12989952D01*
X14700238Y-12999476D01*
X14652619Y-12999476D01*
X14633571Y-12989952D01*
X14624048Y-12980428D01*
X14976428Y-12999476D02*
X14976428Y-12799476D01*
X15062143Y-12999476D02*
X15062143Y-12894714D01*
X15052619Y-12875667D01*
X15033571Y-12866143D01*
X15005000Y-12866143D01*
X14985952Y-12875667D01*
X14976428Y-12885190D01*
X15185952Y-12999476D02*
X15166905Y-12989952D01*
X15157381Y-12980428D01*
X15147857Y-12961381D01*
X15147857Y-12904238D01*
X15157381Y-12885190D01*
X15166905Y-12875667D01*
X15185952Y-12866143D01*
X15214524Y-12866143D01*
X15233571Y-12875667D01*
X15243095Y-12885190D01*
X15252619Y-12904238D01*
X15252619Y-12961381D01*
X15243095Y-12980428D01*
X15233571Y-12989952D01*
X15214524Y-12999476D01*
X15185952Y-12999476D01*
X15366905Y-12999476D02*
X15347857Y-12989952D01*
X15338333Y-12970905D01*
X15338333Y-12799476D01*
X15519286Y-12989952D02*
X15500238Y-12999476D01*
X15462143Y-12999476D01*
X15443095Y-12989952D01*
X15433571Y-12970905D01*
X15433571Y-12894714D01*
X15443095Y-12875667D01*
X15462143Y-12866143D01*
X15500238Y-12866143D01*
X15519286Y-12875667D01*
X15528809Y-12894714D01*
X15528809Y-12913762D01*
X15433571Y-12932809D01*
X15605000Y-12989952D02*
X15624048Y-12999476D01*
X15662143Y-12999476D01*
X15681190Y-12989952D01*
X15690714Y-12970905D01*
X15690714Y-12961381D01*
X15681190Y-12942333D01*
X15662143Y-12932809D01*
X15633571Y-12932809D01*
X15614524Y-12923286D01*
X15605000Y-12904238D01*
X15605000Y-12894714D01*
X15614524Y-12875667D01*
X15633571Y-12866143D01*
X15662143Y-12866143D01*
X15681190Y-12875667D01*
X15757381Y-13075667D02*
X15766905Y-13066143D01*
X15785952Y-13037571D01*
X15795476Y-13018524D01*
X15805000Y-12989952D01*
X15814524Y-12942333D01*
X15814524Y-12904238D01*
X15805000Y-12856619D01*
X15795476Y-12828048D01*
X15785952Y-12809000D01*
X15766905Y-12780428D01*
X15757381Y-12770905D01*
D14*
X10775000Y-13153000D02*
X10775000Y-13193000D01*
X10755000Y-13173000D02*
X10795000Y-13173000D01*
D11*
X11090714Y-13063476D02*
X11109762Y-13063476D01*
X11128810Y-13073000D01*
X11138333Y-13082524D01*
X11147857Y-13101571D01*
X11157381Y-13139667D01*
X11157381Y-13187286D01*
X11147857Y-13225381D01*
X11138333Y-13244428D01*
X11128810Y-13253952D01*
X11109762Y-13263476D01*
X11090714Y-13263476D01*
X11071667Y-13253952D01*
X11062143Y-13244428D01*
X11052619Y-13225381D01*
X11043095Y-13187286D01*
X11043095Y-13139667D01*
X11052619Y-13101571D01*
X11062143Y-13082524D01*
X11071667Y-13073000D01*
X11090714Y-13063476D01*
X11243095Y-13244428D02*
X11252619Y-13253952D01*
X11243095Y-13263476D01*
X11233571Y-13253952D01*
X11243095Y-13244428D01*
X11243095Y-13263476D01*
X11424048Y-13130143D02*
X11424048Y-13263476D01*
X11376428Y-13053952D02*
X11328809Y-13196809D01*
X11452619Y-13196809D01*
X11566905Y-13063476D02*
X11585952Y-13063476D01*
X11605000Y-13073000D01*
X11614524Y-13082524D01*
X11624048Y-13101571D01*
X11633571Y-13139667D01*
X11633571Y-13187286D01*
X11624048Y-13225381D01*
X11614524Y-13244428D01*
X11605000Y-13253952D01*
X11585952Y-13263476D01*
X11566905Y-13263476D01*
X11547857Y-13253952D01*
X11538333Y-13244428D01*
X11528809Y-13225381D01*
X11519286Y-13187286D01*
X11519286Y-13139667D01*
X11528809Y-13101571D01*
X11538333Y-13082524D01*
X11547857Y-13073000D01*
X11566905Y-13063476D01*
X11757381Y-13063476D02*
X11776428Y-13063476D01*
X11795476Y-13073000D01*
X11805000Y-13082524D01*
X11814524Y-13101571D01*
X11824048Y-13139667D01*
X11824048Y-13187286D01*
X11814524Y-13225381D01*
X11805000Y-13244428D01*
X11795476Y-13253952D01*
X11776428Y-13263476D01*
X11757381Y-13263476D01*
X11738333Y-13253952D01*
X11728809Y-13244428D01*
X11719286Y-13225381D01*
X11709762Y-13187286D01*
X11709762Y-13139667D01*
X11719286Y-13101571D01*
X11728809Y-13082524D01*
X11738333Y-13073000D01*
X11757381Y-13063476D01*
X11909762Y-13263476D02*
X11909762Y-13130143D01*
X11909762Y-13149190D02*
X11919286Y-13139667D01*
X11938333Y-13130143D01*
X11966905Y-13130143D01*
X11985952Y-13139667D01*
X11995476Y-13158714D01*
X11995476Y-13263476D01*
X11995476Y-13158714D02*
X12005000Y-13139667D01*
X12024048Y-13130143D01*
X12052619Y-13130143D01*
X12071667Y-13139667D01*
X12081190Y-13158714D01*
X12081190Y-13263476D01*
X12176428Y-13263476D02*
X12176428Y-13130143D01*
X12176428Y-13149190D02*
X12185952Y-13139667D01*
X12205000Y-13130143D01*
X12233571Y-13130143D01*
X12252619Y-13139667D01*
X12262143Y-13158714D01*
X12262143Y-13263476D01*
X12262143Y-13158714D02*
X12271667Y-13139667D01*
X12290714Y-13130143D01*
X12319286Y-13130143D01*
X12338333Y-13139667D01*
X12347857Y-13158714D01*
X12347857Y-13263476D01*
X12738333Y-13053952D02*
X12566905Y-13311095D01*
X12995476Y-13063476D02*
X13014524Y-13063476D01*
X13033571Y-13073000D01*
X13043095Y-13082524D01*
X13052619Y-13101571D01*
X13062143Y-13139667D01*
X13062143Y-13187286D01*
X13052619Y-13225381D01*
X13043095Y-13244428D01*
X13033571Y-13253952D01*
X13014524Y-13263476D01*
X12995476Y-13263476D01*
X12976428Y-13253952D01*
X12966905Y-13244428D01*
X12957381Y-13225381D01*
X12947857Y-13187286D01*
X12947857Y-13139667D01*
X12957381Y-13101571D01*
X12966905Y-13082524D01*
X12976428Y-13073000D01*
X12995476Y-13063476D01*
X13147857Y-13244428D02*
X13157381Y-13253952D01*
X13147857Y-13263476D01*
X13138333Y-13253952D01*
X13147857Y-13244428D01*
X13147857Y-13263476D01*
X13281190Y-13063476D02*
X13300238Y-13063476D01*
X13319286Y-13073000D01*
X13328809Y-13082524D01*
X13338333Y-13101571D01*
X13347857Y-13139667D01*
X13347857Y-13187286D01*
X13338333Y-13225381D01*
X13328809Y-13244428D01*
X13319286Y-13253952D01*
X13300238Y-13263476D01*
X13281190Y-13263476D01*
X13262143Y-13253952D01*
X13252619Y-13244428D01*
X13243095Y-13225381D01*
X13233571Y-13187286D01*
X13233571Y-13139667D01*
X13243095Y-13101571D01*
X13252619Y-13082524D01*
X13262143Y-13073000D01*
X13281190Y-13063476D01*
X13538333Y-13263476D02*
X13424048Y-13263476D01*
X13481190Y-13263476D02*
X13481190Y-13063476D01*
X13462143Y-13092048D01*
X13443095Y-13111095D01*
X13424048Y-13120619D01*
X13719286Y-13063476D02*
X13624048Y-13063476D01*
X13614524Y-13158714D01*
X13624048Y-13149190D01*
X13643095Y-13139667D01*
X13690714Y-13139667D01*
X13709762Y-13149190D01*
X13719286Y-13158714D01*
X13728809Y-13177762D01*
X13728809Y-13225381D01*
X13719286Y-13244428D01*
X13709762Y-13253952D01*
X13690714Y-13263476D01*
X13643095Y-13263476D01*
X13624048Y-13253952D01*
X13614524Y-13244428D01*
X13795476Y-13063476D02*
X13928809Y-13063476D01*
X13843095Y-13263476D01*
X13995476Y-13063476D02*
X13995476Y-13101571D01*
X14071667Y-13063476D02*
X14071667Y-13101571D01*
X14366905Y-13339667D02*
X14357381Y-13330143D01*
X14338333Y-13301571D01*
X14328809Y-13282524D01*
X14319286Y-13253952D01*
X14309762Y-13206333D01*
X14309762Y-13168238D01*
X14319286Y-13120619D01*
X14328809Y-13092048D01*
X14338333Y-13073000D01*
X14357381Y-13044428D01*
X14366905Y-13034905D01*
X14538333Y-13063476D02*
X14443095Y-13063476D01*
X14433571Y-13158714D01*
X14443095Y-13149190D01*
X14462143Y-13139667D01*
X14509762Y-13139667D01*
X14528809Y-13149190D01*
X14538333Y-13158714D01*
X14547857Y-13177762D01*
X14547857Y-13225381D01*
X14538333Y-13244428D01*
X14528809Y-13253952D01*
X14509762Y-13263476D01*
X14462143Y-13263476D01*
X14443095Y-13253952D01*
X14433571Y-13244428D01*
X14785952Y-13263476D02*
X14785952Y-13063476D01*
X14871667Y-13263476D02*
X14871667Y-13158714D01*
X14862143Y-13139667D01*
X14843095Y-13130143D01*
X14814524Y-13130143D01*
X14795476Y-13139667D01*
X14785952Y-13149190D01*
X14995476Y-13263476D02*
X14976428Y-13253952D01*
X14966905Y-13244428D01*
X14957381Y-13225381D01*
X14957381Y-13168238D01*
X14966905Y-13149190D01*
X14976428Y-13139667D01*
X14995476Y-13130143D01*
X15024048Y-13130143D01*
X15043095Y-13139667D01*
X15052619Y-13149190D01*
X15062143Y-13168238D01*
X15062143Y-13225381D01*
X15052619Y-13244428D01*
X15043095Y-13253952D01*
X15024048Y-13263476D01*
X14995476Y-13263476D01*
X15176428Y-13263476D02*
X15157381Y-13253952D01*
X15147857Y-13234905D01*
X15147857Y-13063476D01*
X15328809Y-13253952D02*
X15309762Y-13263476D01*
X15271667Y-13263476D01*
X15252619Y-13253952D01*
X15243095Y-13234905D01*
X15243095Y-13158714D01*
X15252619Y-13139667D01*
X15271667Y-13130143D01*
X15309762Y-13130143D01*
X15328809Y-13139667D01*
X15338333Y-13158714D01*
X15338333Y-13177762D01*
X15243095Y-13196809D01*
X15414524Y-13253952D02*
X15433571Y-13263476D01*
X15471667Y-13263476D01*
X15490714Y-13253952D01*
X15500238Y-13234905D01*
X15500238Y-13225381D01*
X15490714Y-13206333D01*
X15471667Y-13196809D01*
X15443095Y-13196809D01*
X15424048Y-13187286D01*
X15414524Y-13168238D01*
X15414524Y-13158714D01*
X15424048Y-13139667D01*
X15443095Y-13130143D01*
X15471667Y-13130143D01*
X15490714Y-13139667D01*
X15566905Y-13339667D02*
X15576428Y-13330143D01*
X15595476Y-13301571D01*
X15605000Y-13282524D01*
X15614524Y-13253952D01*
X15624048Y-13206333D01*
X15624048Y-13168238D01*
X15614524Y-13120619D01*
X15605000Y-13092048D01*
X15595476Y-13073000D01*
X15576428Y-13044428D01*
X15566905Y-13034905D01*
D15*
X10785481Y-13459981D02*
X10785481Y-13414019D01*
X10739519Y-13414019D01*
X10739519Y-13459981D01*
X10785481Y-13459981D01*
D11*
X11090714Y-13327476D02*
X11109762Y-13327476D01*
X11128810Y-13337000D01*
X11138333Y-13346524D01*
X11147857Y-13365571D01*
X11157381Y-13403667D01*
X11157381Y-13451286D01*
X11147857Y-13489381D01*
X11138333Y-13508428D01*
X11128810Y-13517952D01*
X11109762Y-13527476D01*
X11090714Y-13527476D01*
X11071667Y-13517952D01*
X11062143Y-13508428D01*
X11052619Y-13489381D01*
X11043095Y-13451286D01*
X11043095Y-13403667D01*
X11052619Y-13365571D01*
X11062143Y-13346524D01*
X11071667Y-13337000D01*
X11090714Y-13327476D01*
X11243095Y-13508428D02*
X11252619Y-13517952D01*
X11243095Y-13527476D01*
X11233571Y-13517952D01*
X11243095Y-13508428D01*
X11243095Y-13527476D01*
X11424048Y-13327476D02*
X11385952Y-13327476D01*
X11366905Y-13337000D01*
X11357381Y-13346524D01*
X11338333Y-13375095D01*
X11328809Y-13413190D01*
X11328809Y-13489381D01*
X11338333Y-13508428D01*
X11347857Y-13517952D01*
X11366905Y-13527476D01*
X11405000Y-13527476D01*
X11424048Y-13517952D01*
X11433571Y-13508428D01*
X11443095Y-13489381D01*
X11443095Y-13441762D01*
X11433571Y-13422714D01*
X11424048Y-13413190D01*
X11405000Y-13403667D01*
X11366905Y-13403667D01*
X11347857Y-13413190D01*
X11338333Y-13422714D01*
X11328809Y-13441762D01*
X11624048Y-13327476D02*
X11528809Y-13327476D01*
X11519286Y-13422714D01*
X11528809Y-13413190D01*
X11547857Y-13403667D01*
X11595476Y-13403667D01*
X11614524Y-13413190D01*
X11624048Y-13422714D01*
X11633571Y-13441762D01*
X11633571Y-13489381D01*
X11624048Y-13508428D01*
X11614524Y-13517952D01*
X11595476Y-13527476D01*
X11547857Y-13527476D01*
X11528809Y-13517952D01*
X11519286Y-13508428D01*
X11757381Y-13327476D02*
X11776428Y-13327476D01*
X11795476Y-13337000D01*
X11805000Y-13346524D01*
X11814524Y-13365571D01*
X11824048Y-13403667D01*
X11824048Y-13451286D01*
X11814524Y-13489381D01*
X11805000Y-13508428D01*
X11795476Y-13517952D01*
X11776428Y-13527476D01*
X11757381Y-13527476D01*
X11738333Y-13517952D01*
X11728809Y-13508428D01*
X11719286Y-13489381D01*
X11709762Y-13451286D01*
X11709762Y-13403667D01*
X11719286Y-13365571D01*
X11728809Y-13346524D01*
X11738333Y-13337000D01*
X11757381Y-13327476D01*
X11909762Y-13527476D02*
X11909762Y-13394143D01*
X11909762Y-13413190D02*
X11919286Y-13403667D01*
X11938333Y-13394143D01*
X11966905Y-13394143D01*
X11985952Y-13403667D01*
X11995476Y-13422714D01*
X11995476Y-13527476D01*
X11995476Y-13422714D02*
X12005000Y-13403667D01*
X12024048Y-13394143D01*
X12052619Y-13394143D01*
X12071667Y-13403667D01*
X12081190Y-13422714D01*
X12081190Y-13527476D01*
X12176428Y-13527476D02*
X12176428Y-13394143D01*
X12176428Y-13413190D02*
X12185952Y-13403667D01*
X12205000Y-13394143D01*
X12233571Y-13394143D01*
X12252619Y-13403667D01*
X12262143Y-13422714D01*
X12262143Y-13527476D01*
X12262143Y-13422714D02*
X12271667Y-13403667D01*
X12290714Y-13394143D01*
X12319286Y-13394143D01*
X12338333Y-13403667D01*
X12347857Y-13422714D01*
X12347857Y-13527476D01*
X12738333Y-13317952D02*
X12566905Y-13575095D01*
X12995476Y-13327476D02*
X13014524Y-13327476D01*
X13033571Y-13337000D01*
X13043095Y-13346524D01*
X13052619Y-13365571D01*
X13062143Y-13403667D01*
X13062143Y-13451286D01*
X13052619Y-13489381D01*
X13043095Y-13508428D01*
X13033571Y-13517952D01*
X13014524Y-13527476D01*
X12995476Y-13527476D01*
X12976428Y-13517952D01*
X12966905Y-13508428D01*
X12957381Y-13489381D01*
X12947857Y-13451286D01*
X12947857Y-13403667D01*
X12957381Y-13365571D01*
X12966905Y-13346524D01*
X12976428Y-13337000D01*
X12995476Y-13327476D01*
X13147857Y-13508428D02*
X13157381Y-13517952D01*
X13147857Y-13527476D01*
X13138333Y-13517952D01*
X13147857Y-13508428D01*
X13147857Y-13527476D01*
X13281190Y-13327476D02*
X13300238Y-13327476D01*
X13319286Y-13337000D01*
X13328809Y-13346524D01*
X13338333Y-13365571D01*
X13347857Y-13403667D01*
X13347857Y-13451286D01*
X13338333Y-13489381D01*
X13328809Y-13508428D01*
X13319286Y-13517952D01*
X13300238Y-13527476D01*
X13281190Y-13527476D01*
X13262143Y-13517952D01*
X13252619Y-13508428D01*
X13243095Y-13489381D01*
X13233571Y-13451286D01*
X13233571Y-13403667D01*
X13243095Y-13365571D01*
X13252619Y-13346524D01*
X13262143Y-13337000D01*
X13281190Y-13327476D01*
X13424048Y-13346524D02*
X13433571Y-13337000D01*
X13452619Y-13327476D01*
X13500238Y-13327476D01*
X13519286Y-13337000D01*
X13528809Y-13346524D01*
X13538333Y-13365571D01*
X13538333Y-13384619D01*
X13528809Y-13413190D01*
X13414524Y-13527476D01*
X13538333Y-13527476D01*
X13719286Y-13327476D02*
X13624048Y-13327476D01*
X13614524Y-13422714D01*
X13624048Y-13413190D01*
X13643095Y-13403667D01*
X13690714Y-13403667D01*
X13709762Y-13413190D01*
X13719286Y-13422714D01*
X13728809Y-13441762D01*
X13728809Y-13489381D01*
X13719286Y-13508428D01*
X13709762Y-13517952D01*
X13690714Y-13527476D01*
X13643095Y-13527476D01*
X13624048Y-13517952D01*
X13614524Y-13508428D01*
X13900238Y-13327476D02*
X13862143Y-13327476D01*
X13843095Y-13337000D01*
X13833571Y-13346524D01*
X13814524Y-13375095D01*
X13805000Y-13413190D01*
X13805000Y-13489381D01*
X13814524Y-13508428D01*
X13824048Y-13517952D01*
X13843095Y-13527476D01*
X13881190Y-13527476D01*
X13900238Y-13517952D01*
X13909762Y-13508428D01*
X13919286Y-13489381D01*
X13919286Y-13441762D01*
X13909762Y-13422714D01*
X13900238Y-13413190D01*
X13881190Y-13403667D01*
X13843095Y-13403667D01*
X13824048Y-13413190D01*
X13814524Y-13422714D01*
X13805000Y-13441762D01*
X13995476Y-13327476D02*
X13995476Y-13365571D01*
X14071667Y-13327476D02*
X14071667Y-13365571D01*
X14366905Y-13603667D02*
X14357381Y-13594143D01*
X14338333Y-13565571D01*
X14328809Y-13546524D01*
X14319286Y-13517952D01*
X14309762Y-13470333D01*
X14309762Y-13432238D01*
X14319286Y-13384619D01*
X14328809Y-13356048D01*
X14338333Y-13337000D01*
X14357381Y-13308428D01*
X14366905Y-13298905D01*
X14547857Y-13527476D02*
X14433571Y-13527476D01*
X14490714Y-13527476D02*
X14490714Y-13327476D01*
X14471667Y-13356048D01*
X14452619Y-13375095D01*
X14433571Y-13384619D01*
X14624048Y-13346524D02*
X14633571Y-13337000D01*
X14652619Y-13327476D01*
X14700238Y-13327476D01*
X14719286Y-13337000D01*
X14728809Y-13346524D01*
X14738333Y-13365571D01*
X14738333Y-13384619D01*
X14728809Y-13413190D01*
X14614524Y-13527476D01*
X14738333Y-13527476D01*
X14976428Y-13527476D02*
X14976428Y-13327476D01*
X15062143Y-13527476D02*
X15062143Y-13422714D01*
X15052619Y-13403667D01*
X15033571Y-13394143D01*
X15005000Y-13394143D01*
X14985952Y-13403667D01*
X14976428Y-13413190D01*
X15185952Y-13527476D02*
X15166905Y-13517952D01*
X15157381Y-13508428D01*
X15147857Y-13489381D01*
X15147857Y-13432238D01*
X15157381Y-13413190D01*
X15166905Y-13403667D01*
X15185952Y-13394143D01*
X15214524Y-13394143D01*
X15233571Y-13403667D01*
X15243095Y-13413190D01*
X15252619Y-13432238D01*
X15252619Y-13489381D01*
X15243095Y-13508428D01*
X15233571Y-13517952D01*
X15214524Y-13527476D01*
X15185952Y-13527476D01*
X15366905Y-13527476D02*
X15347857Y-13517952D01*
X15338333Y-13498905D01*
X15338333Y-13327476D01*
X15519286Y-13517952D02*
X15500238Y-13527476D01*
X15462143Y-13527476D01*
X15443095Y-13517952D01*
X15433571Y-13498905D01*
X15433571Y-13422714D01*
X15443095Y-13403667D01*
X15462143Y-13394143D01*
X15500238Y-13394143D01*
X15519286Y-13403667D01*
X15528809Y-13422714D01*
X15528809Y-13441762D01*
X15433571Y-13460809D01*
X15605000Y-13517952D02*
X15624048Y-13527476D01*
X15662143Y-13527476D01*
X15681190Y-13517952D01*
X15690714Y-13498905D01*
X15690714Y-13489381D01*
X15681190Y-13470333D01*
X15662143Y-13460809D01*
X15633571Y-13460809D01*
X15614524Y-13451286D01*
X15605000Y-13432238D01*
X15605000Y-13422714D01*
X15614524Y-13403667D01*
X15633571Y-13394143D01*
X15662143Y-13394143D01*
X15681190Y-13403667D01*
X15757381Y-13603667D02*
X15766905Y-13594143D01*
X15785952Y-13565571D01*
X15795476Y-13546524D01*
X15805000Y-13517952D01*
X15814524Y-13470333D01*
X15814524Y-13432238D01*
X15805000Y-13384619D01*
X15795476Y-13356048D01*
X15785952Y-13337000D01*
X15766905Y-13308428D01*
X15757381Y-13298905D01*
D16*
X10747500Y-13748500D02*
X10795000Y-13701000D01*
X10747500Y-13653500D01*
X10700000Y-13701000D01*
X10747500Y-13748500D01*
D11*
X11090714Y-13591476D02*
X11109762Y-13591476D01*
X11128810Y-13601000D01*
X11138333Y-13610524D01*
X11147857Y-13629571D01*
X11157381Y-13667667D01*
X11157381Y-13715286D01*
X11147857Y-13753381D01*
X11138333Y-13772428D01*
X11128810Y-13781952D01*
X11109762Y-13791476D01*
X11090714Y-13791476D01*
X11071667Y-13781952D01*
X11062143Y-13772428D01*
X11052619Y-13753381D01*
X11043095Y-13715286D01*
X11043095Y-13667667D01*
X11052619Y-13629571D01*
X11062143Y-13610524D01*
X11071667Y-13601000D01*
X11090714Y-13591476D01*
X11243095Y-13772428D02*
X11252619Y-13781952D01*
X11243095Y-13791476D01*
X11233571Y-13781952D01*
X11243095Y-13772428D01*
X11243095Y-13791476D01*
X11347857Y-13791476D02*
X11385952Y-13791476D01*
X11405000Y-13781952D01*
X11414524Y-13772428D01*
X11433571Y-13743857D01*
X11443095Y-13705762D01*
X11443095Y-13629571D01*
X11433571Y-13610524D01*
X11424048Y-13601000D01*
X11405000Y-13591476D01*
X11366905Y-13591476D01*
X11347857Y-13601000D01*
X11338333Y-13610524D01*
X11328809Y-13629571D01*
X11328809Y-13677190D01*
X11338333Y-13696238D01*
X11347857Y-13705762D01*
X11366905Y-13715286D01*
X11405000Y-13715286D01*
X11424048Y-13705762D01*
X11433571Y-13696238D01*
X11443095Y-13677190D01*
X11624048Y-13591476D02*
X11528809Y-13591476D01*
X11519286Y-13686714D01*
X11528809Y-13677190D01*
X11547857Y-13667667D01*
X11595476Y-13667667D01*
X11614524Y-13677190D01*
X11624048Y-13686714D01*
X11633571Y-13705762D01*
X11633571Y-13753381D01*
X11624048Y-13772428D01*
X11614524Y-13781952D01*
X11595476Y-13791476D01*
X11547857Y-13791476D01*
X11528809Y-13781952D01*
X11519286Y-13772428D01*
X11757381Y-13591476D02*
X11776428Y-13591476D01*
X11795476Y-13601000D01*
X11805000Y-13610524D01*
X11814524Y-13629571D01*
X11824048Y-13667667D01*
X11824048Y-13715286D01*
X11814524Y-13753381D01*
X11805000Y-13772428D01*
X11795476Y-13781952D01*
X11776428Y-13791476D01*
X11757381Y-13791476D01*
X11738333Y-13781952D01*
X11728809Y-13772428D01*
X11719286Y-13753381D01*
X11709762Y-13715286D01*
X11709762Y-13667667D01*
X11719286Y-13629571D01*
X11728809Y-13610524D01*
X11738333Y-13601000D01*
X11757381Y-13591476D01*
X11909762Y-13791476D02*
X11909762Y-13658143D01*
X11909762Y-13677190D02*
X11919286Y-13667667D01*
X11938333Y-13658143D01*
X11966905Y-13658143D01*
X11985952Y-13667667D01*
X11995476Y-13686714D01*
X11995476Y-13791476D01*
X11995476Y-13686714D02*
X12005000Y-13667667D01*
X12024048Y-13658143D01*
X12052619Y-13658143D01*
X12071667Y-13667667D01*
X12081190Y-13686714D01*
X12081190Y-13791476D01*
X12176428Y-13791476D02*
X12176428Y-13658143D01*
X12176428Y-13677190D02*
X12185952Y-13667667D01*
X12205000Y-13658143D01*
X12233571Y-13658143D01*
X12252619Y-13667667D01*
X12262143Y-13686714D01*
X12262143Y-13791476D01*
X12262143Y-13686714D02*
X12271667Y-13667667D01*
X12290714Y-13658143D01*
X12319286Y-13658143D01*
X12338333Y-13667667D01*
X12347857Y-13686714D01*
X12347857Y-13791476D01*
X12738333Y-13581952D02*
X12566905Y-13839095D01*
X12995476Y-13591476D02*
X13014524Y-13591476D01*
X13033571Y-13601000D01*
X13043095Y-13610524D01*
X13052619Y-13629571D01*
X13062143Y-13667667D01*
X13062143Y-13715286D01*
X13052619Y-13753381D01*
X13043095Y-13772428D01*
X13033571Y-13781952D01*
X13014524Y-13791476D01*
X12995476Y-13791476D01*
X12976428Y-13781952D01*
X12966905Y-13772428D01*
X12957381Y-13753381D01*
X12947857Y-13715286D01*
X12947857Y-13667667D01*
X12957381Y-13629571D01*
X12966905Y-13610524D01*
X12976428Y-13601000D01*
X12995476Y-13591476D01*
X13147857Y-13772428D02*
X13157381Y-13781952D01*
X13147857Y-13791476D01*
X13138333Y-13781952D01*
X13147857Y-13772428D01*
X13147857Y-13791476D01*
X13281190Y-13591476D02*
X13300238Y-13591476D01*
X13319286Y-13601000D01*
X13328809Y-13610524D01*
X13338333Y-13629571D01*
X13347857Y-13667667D01*
X13347857Y-13715286D01*
X13338333Y-13753381D01*
X13328809Y-13772428D01*
X13319286Y-13781952D01*
X13300238Y-13791476D01*
X13281190Y-13791476D01*
X13262143Y-13781952D01*
X13252619Y-13772428D01*
X13243095Y-13753381D01*
X13233571Y-13715286D01*
X13233571Y-13667667D01*
X13243095Y-13629571D01*
X13252619Y-13610524D01*
X13262143Y-13601000D01*
X13281190Y-13591476D01*
X13414524Y-13591476D02*
X13538333Y-13591476D01*
X13471667Y-13667667D01*
X13500238Y-13667667D01*
X13519286Y-13677190D01*
X13528809Y-13686714D01*
X13538333Y-13705762D01*
X13538333Y-13753381D01*
X13528809Y-13772428D01*
X13519286Y-13781952D01*
X13500238Y-13791476D01*
X13443095Y-13791476D01*
X13424048Y-13781952D01*
X13414524Y-13772428D01*
X13605000Y-13591476D02*
X13738333Y-13591476D01*
X13652619Y-13791476D01*
X13900238Y-13658143D02*
X13900238Y-13791476D01*
X13852619Y-13581952D02*
X13805000Y-13724809D01*
X13928809Y-13724809D01*
X13995476Y-13591476D02*
X13995476Y-13629571D01*
X14071667Y-13591476D02*
X14071667Y-13629571D01*
X14366905Y-13867667D02*
X14357381Y-13858143D01*
X14338333Y-13829571D01*
X14328809Y-13810524D01*
X14319286Y-13781952D01*
X14309762Y-13734333D01*
X14309762Y-13696238D01*
X14319286Y-13648619D01*
X14328809Y-13620048D01*
X14338333Y-13601000D01*
X14357381Y-13572428D01*
X14366905Y-13562905D01*
X14528809Y-13658143D02*
X14528809Y-13791476D01*
X14481190Y-13581952D02*
X14433571Y-13724809D01*
X14557381Y-13724809D01*
X14785952Y-13791476D02*
X14785952Y-13591476D01*
X14871667Y-13791476D02*
X14871667Y-13686714D01*
X14862143Y-13667667D01*
X14843095Y-13658143D01*
X14814524Y-13658143D01*
X14795476Y-13667667D01*
X14785952Y-13677190D01*
X14995476Y-13791476D02*
X14976428Y-13781952D01*
X14966905Y-13772428D01*
X14957381Y-13753381D01*
X14957381Y-13696238D01*
X14966905Y-13677190D01*
X14976428Y-13667667D01*
X14995476Y-13658143D01*
X15024048Y-13658143D01*
X15043095Y-13667667D01*
X15052619Y-13677190D01*
X15062143Y-13696238D01*
X15062143Y-13753381D01*
X15052619Y-13772428D01*
X15043095Y-13781952D01*
X15024048Y-13791476D01*
X14995476Y-13791476D01*
X15176428Y-13791476D02*
X15157381Y-13781952D01*
X15147857Y-13762905D01*
X15147857Y-13591476D01*
X15328809Y-13781952D02*
X15309762Y-13791476D01*
X15271667Y-13791476D01*
X15252619Y-13781952D01*
X15243095Y-13762905D01*
X15243095Y-13686714D01*
X15252619Y-13667667D01*
X15271667Y-13658143D01*
X15309762Y-13658143D01*
X15328809Y-13667667D01*
X15338333Y-13686714D01*
X15338333Y-13705762D01*
X15243095Y-13724809D01*
X15414524Y-13781952D02*
X15433571Y-13791476D01*
X15471667Y-13791476D01*
X15490714Y-13781952D01*
X15500238Y-13762905D01*
X15500238Y-13753381D01*
X15490714Y-13734333D01*
X15471667Y-13724809D01*
X15443095Y-13724809D01*
X15424048Y-13715286D01*
X15414524Y-13696238D01*
X15414524Y-13686714D01*
X15424048Y-13667667D01*
X15443095Y-13658143D01*
X15471667Y-13658143D01*
X15490714Y-13667667D01*
X15566905Y-13867667D02*
X15576428Y-13858143D01*
X15595476Y-13829571D01*
X15605000Y-13810524D01*
X15614524Y-13781952D01*
X15624048Y-13734333D01*
X15624048Y-13696238D01*
X15614524Y-13648619D01*
X15605000Y-13620048D01*
X15595476Y-13601000D01*
X15576428Y-13572428D01*
X15566905Y-13562905D01*
D10*
X10695000Y-13915000D02*
X10795000Y-14015000D01*
X10795000Y-13915000D02*
X10695000Y-14015000D01*
X10795000Y-13965000D02*
G75*
G03*
X10795000Y-13965000I-50000J0D01*
G01*
D11*
X11157381Y-14055476D02*
X11043095Y-14055476D01*
X11100238Y-14055476D02*
X11100238Y-13855476D01*
X11081190Y-13884048D01*
X11062143Y-13903095D01*
X11043095Y-13912619D01*
X11243095Y-14036428D02*
X11252619Y-14045952D01*
X11243095Y-14055476D01*
X11233571Y-14045952D01*
X11243095Y-14036428D01*
X11243095Y-14055476D01*
X11376428Y-13855476D02*
X11395476Y-13855476D01*
X11414524Y-13865000D01*
X11424048Y-13874524D01*
X11433571Y-13893571D01*
X11443095Y-13931667D01*
X11443095Y-13979286D01*
X11433571Y-14017381D01*
X11424048Y-14036428D01*
X11414524Y-14045952D01*
X11395476Y-14055476D01*
X11376428Y-14055476D01*
X11357381Y-14045952D01*
X11347857Y-14036428D01*
X11338333Y-14017381D01*
X11328809Y-13979286D01*
X11328809Y-13931667D01*
X11338333Y-13893571D01*
X11347857Y-13874524D01*
X11357381Y-13865000D01*
X11376428Y-13855476D01*
X11566905Y-13855476D02*
X11585952Y-13855476D01*
X11605000Y-13865000D01*
X11614524Y-13874524D01*
X11624048Y-13893571D01*
X11633571Y-13931667D01*
X11633571Y-13979286D01*
X11624048Y-14017381D01*
X11614524Y-14036428D01*
X11605000Y-14045952D01*
X11585952Y-14055476D01*
X11566905Y-14055476D01*
X11547857Y-14045952D01*
X11538333Y-14036428D01*
X11528809Y-14017381D01*
X11519286Y-13979286D01*
X11519286Y-13931667D01*
X11528809Y-13893571D01*
X11538333Y-13874524D01*
X11547857Y-13865000D01*
X11566905Y-13855476D01*
X11757381Y-13855476D02*
X11776428Y-13855476D01*
X11795476Y-13865000D01*
X11805000Y-13874524D01*
X11814524Y-13893571D01*
X11824048Y-13931667D01*
X11824048Y-13979286D01*
X11814524Y-14017381D01*
X11805000Y-14036428D01*
X11795476Y-14045952D01*
X11776428Y-14055476D01*
X11757381Y-14055476D01*
X11738333Y-14045952D01*
X11728809Y-14036428D01*
X11719286Y-14017381D01*
X11709762Y-13979286D01*
X11709762Y-13931667D01*
X11719286Y-13893571D01*
X11728809Y-13874524D01*
X11738333Y-13865000D01*
X11757381Y-13855476D01*
X11909762Y-14055476D02*
X11909762Y-13922143D01*
X11909762Y-13941190D02*
X11919286Y-13931667D01*
X11938333Y-13922143D01*
X11966905Y-13922143D01*
X11985952Y-13931667D01*
X11995476Y-13950714D01*
X11995476Y-14055476D01*
X11995476Y-13950714D02*
X12005000Y-13931667D01*
X12024048Y-13922143D01*
X12052619Y-13922143D01*
X12071667Y-13931667D01*
X12081190Y-13950714D01*
X12081190Y-14055476D01*
X12176428Y-14055476D02*
X12176428Y-13922143D01*
X12176428Y-13941190D02*
X12185952Y-13931667D01*
X12205000Y-13922143D01*
X12233571Y-13922143D01*
X12252619Y-13931667D01*
X12262143Y-13950714D01*
X12262143Y-14055476D01*
X12262143Y-13950714D02*
X12271667Y-13931667D01*
X12290714Y-13922143D01*
X12319286Y-13922143D01*
X12338333Y-13931667D01*
X12347857Y-13950714D01*
X12347857Y-14055476D01*
X12738333Y-13845952D02*
X12566905Y-14103095D01*
X12995476Y-13855476D02*
X13014524Y-13855476D01*
X13033571Y-13865000D01*
X13043095Y-13874524D01*
X13052619Y-13893571D01*
X13062143Y-13931667D01*
X13062143Y-13979286D01*
X13052619Y-14017381D01*
X13043095Y-14036428D01*
X13033571Y-14045952D01*
X13014524Y-14055476D01*
X12995476Y-14055476D01*
X12976428Y-14045952D01*
X12966905Y-14036428D01*
X12957381Y-14017381D01*
X12947857Y-13979286D01*
X12947857Y-13931667D01*
X12957381Y-13893571D01*
X12966905Y-13874524D01*
X12976428Y-13865000D01*
X12995476Y-13855476D01*
X13147857Y-14036428D02*
X13157381Y-14045952D01*
X13147857Y-14055476D01*
X13138333Y-14045952D01*
X13147857Y-14036428D01*
X13147857Y-14055476D01*
X13281190Y-13855476D02*
X13300238Y-13855476D01*
X13319286Y-13865000D01*
X13328809Y-13874524D01*
X13338333Y-13893571D01*
X13347857Y-13931667D01*
X13347857Y-13979286D01*
X13338333Y-14017381D01*
X13328809Y-14036428D01*
X13319286Y-14045952D01*
X13300238Y-14055476D01*
X13281190Y-14055476D01*
X13262143Y-14045952D01*
X13252619Y-14036428D01*
X13243095Y-14017381D01*
X13233571Y-13979286D01*
X13233571Y-13931667D01*
X13243095Y-13893571D01*
X13252619Y-13874524D01*
X13262143Y-13865000D01*
X13281190Y-13855476D01*
X13414524Y-13855476D02*
X13538333Y-13855476D01*
X13471667Y-13931667D01*
X13500238Y-13931667D01*
X13519286Y-13941190D01*
X13528809Y-13950714D01*
X13538333Y-13969762D01*
X13538333Y-14017381D01*
X13528809Y-14036428D01*
X13519286Y-14045952D01*
X13500238Y-14055476D01*
X13443095Y-14055476D01*
X13424048Y-14045952D01*
X13414524Y-14036428D01*
X13633571Y-14055476D02*
X13671667Y-14055476D01*
X13690714Y-14045952D01*
X13700238Y-14036428D01*
X13719286Y-14007857D01*
X13728809Y-13969762D01*
X13728809Y-13893571D01*
X13719286Y-13874524D01*
X13709762Y-13865000D01*
X13690714Y-13855476D01*
X13652619Y-13855476D01*
X13633571Y-13865000D01*
X13624048Y-13874524D01*
X13614524Y-13893571D01*
X13614524Y-13941190D01*
X13624048Y-13960238D01*
X13633571Y-13969762D01*
X13652619Y-13979286D01*
X13690714Y-13979286D01*
X13709762Y-13969762D01*
X13719286Y-13960238D01*
X13728809Y-13941190D01*
X13900238Y-13922143D02*
X13900238Y-14055476D01*
X13852619Y-13845952D02*
X13805000Y-13988809D01*
X13928809Y-13988809D01*
X13995476Y-13855476D02*
X13995476Y-13893571D01*
X14071667Y-13855476D02*
X14071667Y-13893571D01*
X14366905Y-14131667D02*
X14357381Y-14122143D01*
X14338333Y-14093571D01*
X14328809Y-14074524D01*
X14319286Y-14045952D01*
X14309762Y-13998333D01*
X14309762Y-13960238D01*
X14319286Y-13912619D01*
X14328809Y-13884048D01*
X14338333Y-13865000D01*
X14357381Y-13836428D01*
X14366905Y-13826905D01*
X14433571Y-13874524D02*
X14443095Y-13865000D01*
X14462143Y-13855476D01*
X14509762Y-13855476D01*
X14528809Y-13865000D01*
X14538333Y-13874524D01*
X14547857Y-13893571D01*
X14547857Y-13912619D01*
X14538333Y-13941190D01*
X14424048Y-14055476D01*
X14547857Y-14055476D01*
X14719286Y-13922143D02*
X14719286Y-14055476D01*
X14671667Y-13845952D02*
X14624048Y-13988809D01*
X14747857Y-13988809D01*
X14976428Y-14055476D02*
X14976428Y-13855476D01*
X15062143Y-14055476D02*
X15062143Y-13950714D01*
X15052619Y-13931667D01*
X15033571Y-13922143D01*
X15005000Y-13922143D01*
X14985952Y-13931667D01*
X14976428Y-13941190D01*
X15185952Y-14055476D02*
X15166905Y-14045952D01*
X15157381Y-14036428D01*
X15147857Y-14017381D01*
X15147857Y-13960238D01*
X15157381Y-13941190D01*
X15166905Y-13931667D01*
X15185952Y-13922143D01*
X15214524Y-13922143D01*
X15233571Y-13931667D01*
X15243095Y-13941190D01*
X15252619Y-13960238D01*
X15252619Y-14017381D01*
X15243095Y-14036428D01*
X15233571Y-14045952D01*
X15214524Y-14055476D01*
X15185952Y-14055476D01*
X15366905Y-14055476D02*
X15347857Y-14045952D01*
X15338333Y-14026905D01*
X15338333Y-13855476D01*
X15519286Y-14045952D02*
X15500238Y-14055476D01*
X15462143Y-14055476D01*
X15443095Y-14045952D01*
X15433571Y-14026905D01*
X15433571Y-13950714D01*
X15443095Y-13931667D01*
X15462143Y-13922143D01*
X15500238Y-13922143D01*
X15519286Y-13931667D01*
X15528809Y-13950714D01*
X15528809Y-13969762D01*
X15433571Y-13988809D01*
X15605000Y-14045952D02*
X15624048Y-14055476D01*
X15662143Y-14055476D01*
X15681190Y-14045952D01*
X15690714Y-14026905D01*
X15690714Y-14017381D01*
X15681190Y-13998333D01*
X15662143Y-13988809D01*
X15633571Y-13988809D01*
X15614524Y-13979286D01*
X15605000Y-13960238D01*
X15605000Y-13950714D01*
X15614524Y-13931667D01*
X15633571Y-13922143D01*
X15662143Y-13922143D01*
X15681190Y-13931667D01*
X15757381Y-14131667D02*
X15766905Y-14122143D01*
X15785952Y-14093571D01*
X15795476Y-14074524D01*
X15805000Y-14045952D01*
X15814524Y-13998333D01*
X15814524Y-13960238D01*
X15805000Y-13912619D01*
X15795476Y-13884048D01*
X15785952Y-13865000D01*
X15766905Y-13836428D01*
X15757381Y-13826905D01*
D17*
X10686000Y-14174500D02*
X10795000Y-14283500D01*
X10795000Y-14174500D02*
X10686000Y-14283500D01*
X10740500Y-14174500D02*
X10740500Y-14283500D01*
X10686000Y-14229000D02*
X10795000Y-14229000D01*
D11*
X11157381Y-14319476D02*
X11043095Y-14319476D01*
X11100238Y-14319476D02*
X11100238Y-14119476D01*
X11081190Y-14148048D01*
X11062143Y-14167095D01*
X11043095Y-14176619D01*
X11243095Y-14300428D02*
X11252619Y-14309952D01*
X11243095Y-14319476D01*
X11233571Y-14309952D01*
X11243095Y-14300428D01*
X11243095Y-14319476D01*
X11376428Y-14119476D02*
X11395476Y-14119476D01*
X11414524Y-14129000D01*
X11424048Y-14138524D01*
X11433571Y-14157571D01*
X11443095Y-14195667D01*
X11443095Y-14243286D01*
X11433571Y-14281381D01*
X11424048Y-14300428D01*
X11414524Y-14309952D01*
X11395476Y-14319476D01*
X11376428Y-14319476D01*
X11357381Y-14309952D01*
X11347857Y-14300428D01*
X11338333Y-14281381D01*
X11328809Y-14243286D01*
X11328809Y-14195667D01*
X11338333Y-14157571D01*
X11347857Y-14138524D01*
X11357381Y-14129000D01*
X11376428Y-14119476D01*
X11538333Y-14319476D02*
X11576428Y-14319476D01*
X11595476Y-14309952D01*
X11605000Y-14300428D01*
X11624048Y-14271857D01*
X11633571Y-14233762D01*
X11633571Y-14157571D01*
X11624048Y-14138524D01*
X11614524Y-14129000D01*
X11595476Y-14119476D01*
X11557381Y-14119476D01*
X11538333Y-14129000D01*
X11528809Y-14138524D01*
X11519286Y-14157571D01*
X11519286Y-14205190D01*
X11528809Y-14224238D01*
X11538333Y-14233762D01*
X11557381Y-14243286D01*
X11595476Y-14243286D01*
X11614524Y-14233762D01*
X11624048Y-14224238D01*
X11633571Y-14205190D01*
X11757381Y-14119476D02*
X11776428Y-14119476D01*
X11795476Y-14129000D01*
X11805000Y-14138524D01*
X11814524Y-14157571D01*
X11824048Y-14195667D01*
X11824048Y-14243286D01*
X11814524Y-14281381D01*
X11805000Y-14300428D01*
X11795476Y-14309952D01*
X11776428Y-14319476D01*
X11757381Y-14319476D01*
X11738333Y-14309952D01*
X11728809Y-14300428D01*
X11719286Y-14281381D01*
X11709762Y-14243286D01*
X11709762Y-14195667D01*
X11719286Y-14157571D01*
X11728809Y-14138524D01*
X11738333Y-14129000D01*
X11757381Y-14119476D01*
X11909762Y-14319476D02*
X11909762Y-14186143D01*
X11909762Y-14205190D02*
X11919286Y-14195667D01*
X11938333Y-14186143D01*
X11966905Y-14186143D01*
X11985952Y-14195667D01*
X11995476Y-14214714D01*
X11995476Y-14319476D01*
X11995476Y-14214714D02*
X12005000Y-14195667D01*
X12024048Y-14186143D01*
X12052619Y-14186143D01*
X12071667Y-14195667D01*
X12081190Y-14214714D01*
X12081190Y-14319476D01*
X12176428Y-14319476D02*
X12176428Y-14186143D01*
X12176428Y-14205190D02*
X12185952Y-14195667D01*
X12205000Y-14186143D01*
X12233571Y-14186143D01*
X12252619Y-14195667D01*
X12262143Y-14214714D01*
X12262143Y-14319476D01*
X12262143Y-14214714D02*
X12271667Y-14195667D01*
X12290714Y-14186143D01*
X12319286Y-14186143D01*
X12338333Y-14195667D01*
X12347857Y-14214714D01*
X12347857Y-14319476D01*
X12738333Y-14109952D02*
X12566905Y-14367095D01*
X12995476Y-14119476D02*
X13014524Y-14119476D01*
X13033571Y-14129000D01*
X13043095Y-14138524D01*
X13052619Y-14157571D01*
X13062143Y-14195667D01*
X13062143Y-14243286D01*
X13052619Y-14281381D01*
X13043095Y-14300428D01*
X13033571Y-14309952D01*
X13014524Y-14319476D01*
X12995476Y-14319476D01*
X12976428Y-14309952D01*
X12966905Y-14300428D01*
X12957381Y-14281381D01*
X12947857Y-14243286D01*
X12947857Y-14195667D01*
X12957381Y-14157571D01*
X12966905Y-14138524D01*
X12976428Y-14129000D01*
X12995476Y-14119476D01*
X13147857Y-14300428D02*
X13157381Y-14309952D01*
X13147857Y-14319476D01*
X13138333Y-14309952D01*
X13147857Y-14300428D01*
X13147857Y-14319476D01*
X13281190Y-14119476D02*
X13300238Y-14119476D01*
X13319286Y-14129000D01*
X13328809Y-14138524D01*
X13338333Y-14157571D01*
X13347857Y-14195667D01*
X13347857Y-14243286D01*
X13338333Y-14281381D01*
X13328809Y-14300428D01*
X13319286Y-14309952D01*
X13300238Y-14319476D01*
X13281190Y-14319476D01*
X13262143Y-14309952D01*
X13252619Y-14300428D01*
X13243095Y-14281381D01*
X13233571Y-14243286D01*
X13233571Y-14195667D01*
X13243095Y-14157571D01*
X13252619Y-14138524D01*
X13262143Y-14129000D01*
X13281190Y-14119476D01*
X13519286Y-14186143D02*
X13519286Y-14319476D01*
X13471667Y-14109952D02*
X13424048Y-14252809D01*
X13547857Y-14252809D01*
X13614524Y-14138524D02*
X13624048Y-14129000D01*
X13643095Y-14119476D01*
X13690714Y-14119476D01*
X13709762Y-14129000D01*
X13719286Y-14138524D01*
X13728809Y-14157571D01*
X13728809Y-14176619D01*
X13719286Y-14205190D01*
X13605000Y-14319476D01*
X13728809Y-14319476D01*
X13824048Y-14319476D02*
X13862143Y-14319476D01*
X13881190Y-14309952D01*
X13890714Y-14300428D01*
X13909762Y-14271857D01*
X13919286Y-14233762D01*
X13919286Y-14157571D01*
X13909762Y-14138524D01*
X13900238Y-14129000D01*
X13881190Y-14119476D01*
X13843095Y-14119476D01*
X13824048Y-14129000D01*
X13814524Y-14138524D01*
X13805000Y-14157571D01*
X13805000Y-14205190D01*
X13814524Y-14224238D01*
X13824048Y-14233762D01*
X13843095Y-14243286D01*
X13881190Y-14243286D01*
X13900238Y-14233762D01*
X13909762Y-14224238D01*
X13919286Y-14205190D01*
X13995476Y-14119476D02*
X13995476Y-14157571D01*
X14071667Y-14119476D02*
X14071667Y-14157571D01*
X14366905Y-14395667D02*
X14357381Y-14386143D01*
X14338333Y-14357571D01*
X14328809Y-14338524D01*
X14319286Y-14309952D01*
X14309762Y-14262333D01*
X14309762Y-14224238D01*
X14319286Y-14176619D01*
X14328809Y-14148048D01*
X14338333Y-14129000D01*
X14357381Y-14100428D01*
X14366905Y-14090905D01*
X14528809Y-14186143D02*
X14528809Y-14319476D01*
X14481190Y-14109952D02*
X14433571Y-14252809D01*
X14557381Y-14252809D01*
X14785952Y-14319476D02*
X14785952Y-14119476D01*
X14871667Y-14319476D02*
X14871667Y-14214714D01*
X14862143Y-14195667D01*
X14843095Y-14186143D01*
X14814524Y-14186143D01*
X14795476Y-14195667D01*
X14785952Y-14205190D01*
X14995476Y-14319476D02*
X14976428Y-14309952D01*
X14966905Y-14300428D01*
X14957381Y-14281381D01*
X14957381Y-14224238D01*
X14966905Y-14205190D01*
X14976428Y-14195667D01*
X14995476Y-14186143D01*
X15024048Y-14186143D01*
X15043095Y-14195667D01*
X15052619Y-14205190D01*
X15062143Y-14224238D01*
X15062143Y-14281381D01*
X15052619Y-14300428D01*
X15043095Y-14309952D01*
X15024048Y-14319476D01*
X14995476Y-14319476D01*
X15176428Y-14319476D02*
X15157381Y-14309952D01*
X15147857Y-14290905D01*
X15147857Y-14119476D01*
X15328809Y-14309952D02*
X15309762Y-14319476D01*
X15271667Y-14319476D01*
X15252619Y-14309952D01*
X15243095Y-14290905D01*
X15243095Y-14214714D01*
X15252619Y-14195667D01*
X15271667Y-14186143D01*
X15309762Y-14186143D01*
X15328809Y-14195667D01*
X15338333Y-14214714D01*
X15338333Y-14233762D01*
X15243095Y-14252809D01*
X15414524Y-14309952D02*
X15433571Y-14319476D01*
X15471667Y-14319476D01*
X15490714Y-14309952D01*
X15500238Y-14290905D01*
X15500238Y-14281381D01*
X15490714Y-14262333D01*
X15471667Y-14252809D01*
X15443095Y-14252809D01*
X15424048Y-14243286D01*
X15414524Y-14224238D01*
X15414524Y-14214714D01*
X15424048Y-14195667D01*
X15443095Y-14186143D01*
X15471667Y-14186143D01*
X15490714Y-14195667D01*
X15566905Y-14395667D02*
X15576428Y-14386143D01*
X15595476Y-14357571D01*
X15605000Y-14338524D01*
X15614524Y-14309952D01*
X15624048Y-14262333D01*
X15624048Y-14224238D01*
X15614524Y-14176619D01*
X15605000Y-14148048D01*
X15595476Y-14129000D01*
X15576428Y-14100428D01*
X15566905Y-14090905D01*
X10595000Y-14393000D02*
X10795000Y-14593000D01*
X10795000Y-14393000D02*
X10595000Y-14593000D01*
X10765711Y-14563711D02*
X10765711Y-14422289D01*
X10624289Y-14422289D01*
X10624289Y-14563711D01*
X10765711Y-14563711D01*
X11043095Y-14402524D02*
X11052619Y-14393000D01*
X11071667Y-14383476D01*
X11119286Y-14383476D01*
X11138333Y-14393000D01*
X11147857Y-14402524D01*
X11157381Y-14421571D01*
X11157381Y-14440619D01*
X11147857Y-14469190D01*
X11033571Y-14583476D01*
X11157381Y-14583476D01*
X11243095Y-14564428D02*
X11252619Y-14573952D01*
X11243095Y-14583476D01*
X11233571Y-14573952D01*
X11243095Y-14564428D01*
X11243095Y-14583476D01*
X11319286Y-14383476D02*
X11443095Y-14383476D01*
X11376428Y-14459667D01*
X11405000Y-14459667D01*
X11424048Y-14469190D01*
X11433571Y-14478714D01*
X11443095Y-14497762D01*
X11443095Y-14545381D01*
X11433571Y-14564428D01*
X11424048Y-14573952D01*
X11405000Y-14583476D01*
X11347857Y-14583476D01*
X11328809Y-14573952D01*
X11319286Y-14564428D01*
X11566905Y-14383476D02*
X11585952Y-14383476D01*
X11605000Y-14393000D01*
X11614524Y-14402524D01*
X11624048Y-14421571D01*
X11633571Y-14459667D01*
X11633571Y-14507286D01*
X11624048Y-14545381D01*
X11614524Y-14564428D01*
X11605000Y-14573952D01*
X11585952Y-14583476D01*
X11566905Y-14583476D01*
X11547857Y-14573952D01*
X11538333Y-14564428D01*
X11528809Y-14545381D01*
X11519286Y-14507286D01*
X11519286Y-14459667D01*
X11528809Y-14421571D01*
X11538333Y-14402524D01*
X11547857Y-14393000D01*
X11566905Y-14383476D01*
X11757381Y-14383476D02*
X11776428Y-14383476D01*
X11795476Y-14393000D01*
X11805000Y-14402524D01*
X11814524Y-14421571D01*
X11824048Y-14459667D01*
X11824048Y-14507286D01*
X11814524Y-14545381D01*
X11805000Y-14564428D01*
X11795476Y-14573952D01*
X11776428Y-14583476D01*
X11757381Y-14583476D01*
X11738333Y-14573952D01*
X11728809Y-14564428D01*
X11719286Y-14545381D01*
X11709762Y-14507286D01*
X11709762Y-14459667D01*
X11719286Y-14421571D01*
X11728809Y-14402524D01*
X11738333Y-14393000D01*
X11757381Y-14383476D01*
X11909762Y-14583476D02*
X11909762Y-14450143D01*
X11909762Y-14469190D02*
X11919286Y-14459667D01*
X11938333Y-14450143D01*
X11966905Y-14450143D01*
X11985952Y-14459667D01*
X11995476Y-14478714D01*
X11995476Y-14583476D01*
X11995476Y-14478714D02*
X12005000Y-14459667D01*
X12024048Y-14450143D01*
X12052619Y-14450143D01*
X12071667Y-14459667D01*
X12081190Y-14478714D01*
X12081190Y-14583476D01*
X12176428Y-14583476D02*
X12176428Y-14450143D01*
X12176428Y-14469190D02*
X12185952Y-14459667D01*
X12205000Y-14450143D01*
X12233571Y-14450143D01*
X12252619Y-14459667D01*
X12262143Y-14478714D01*
X12262143Y-14583476D01*
X12262143Y-14478714D02*
X12271667Y-14459667D01*
X12290714Y-14450143D01*
X12319286Y-14450143D01*
X12338333Y-14459667D01*
X12347857Y-14478714D01*
X12347857Y-14583476D01*
X12738333Y-14373952D02*
X12566905Y-14631095D01*
X12995476Y-14383476D02*
X13014524Y-14383476D01*
X13033571Y-14393000D01*
X13043095Y-14402524D01*
X13052619Y-14421571D01*
X13062143Y-14459667D01*
X13062143Y-14507286D01*
X13052619Y-14545381D01*
X13043095Y-14564428D01*
X13033571Y-14573952D01*
X13014524Y-14583476D01*
X12995476Y-14583476D01*
X12976428Y-14573952D01*
X12966905Y-14564428D01*
X12957381Y-14545381D01*
X12947857Y-14507286D01*
X12947857Y-14459667D01*
X12957381Y-14421571D01*
X12966905Y-14402524D01*
X12976428Y-14393000D01*
X12995476Y-14383476D01*
X13147857Y-14564428D02*
X13157381Y-14573952D01*
X13147857Y-14583476D01*
X13138333Y-14573952D01*
X13147857Y-14564428D01*
X13147857Y-14583476D01*
X13281190Y-14383476D02*
X13300238Y-14383476D01*
X13319286Y-14393000D01*
X13328809Y-14402524D01*
X13338333Y-14421571D01*
X13347857Y-14459667D01*
X13347857Y-14507286D01*
X13338333Y-14545381D01*
X13328809Y-14564428D01*
X13319286Y-14573952D01*
X13300238Y-14583476D01*
X13281190Y-14583476D01*
X13262143Y-14573952D01*
X13252619Y-14564428D01*
X13243095Y-14545381D01*
X13233571Y-14507286D01*
X13233571Y-14459667D01*
X13243095Y-14421571D01*
X13252619Y-14402524D01*
X13262143Y-14393000D01*
X13281190Y-14383476D01*
X13443095Y-14583476D02*
X13481190Y-14583476D01*
X13500238Y-14573952D01*
X13509762Y-14564428D01*
X13528809Y-14535857D01*
X13538333Y-14497762D01*
X13538333Y-14421571D01*
X13528809Y-14402524D01*
X13519286Y-14393000D01*
X13500238Y-14383476D01*
X13462143Y-14383476D01*
X13443095Y-14393000D01*
X13433571Y-14402524D01*
X13424048Y-14421571D01*
X13424048Y-14469190D01*
X13433571Y-14488238D01*
X13443095Y-14497762D01*
X13462143Y-14507286D01*
X13500238Y-14507286D01*
X13519286Y-14497762D01*
X13528809Y-14488238D01*
X13538333Y-14469190D01*
X13662143Y-14383476D02*
X13681190Y-14383476D01*
X13700238Y-14393000D01*
X13709762Y-14402524D01*
X13719286Y-14421571D01*
X13728809Y-14459667D01*
X13728809Y-14507286D01*
X13719286Y-14545381D01*
X13709762Y-14564428D01*
X13700238Y-14573952D01*
X13681190Y-14583476D01*
X13662143Y-14583476D01*
X13643095Y-14573952D01*
X13633571Y-14564428D01*
X13624048Y-14545381D01*
X13614524Y-14507286D01*
X13614524Y-14459667D01*
X13624048Y-14421571D01*
X13633571Y-14402524D01*
X13643095Y-14393000D01*
X13662143Y-14383476D01*
X13900238Y-14383476D02*
X13862143Y-14383476D01*
X13843095Y-14393000D01*
X13833571Y-14402524D01*
X13814524Y-14431095D01*
X13805000Y-14469190D01*
X13805000Y-14545381D01*
X13814524Y-14564428D01*
X13824048Y-14573952D01*
X13843095Y-14583476D01*
X13881190Y-14583476D01*
X13900238Y-14573952D01*
X13909762Y-14564428D01*
X13919286Y-14545381D01*
X13919286Y-14497762D01*
X13909762Y-14478714D01*
X13900238Y-14469190D01*
X13881190Y-14459667D01*
X13843095Y-14459667D01*
X13824048Y-14469190D01*
X13814524Y-14478714D01*
X13805000Y-14497762D01*
X13995476Y-14383476D02*
X13995476Y-14421571D01*
X14071667Y-14383476D02*
X14071667Y-14421571D01*
X14366905Y-14659667D02*
X14357381Y-14650143D01*
X14338333Y-14621571D01*
X14328809Y-14602524D01*
X14319286Y-14573952D01*
X14309762Y-14526333D01*
X14309762Y-14488238D01*
X14319286Y-14440619D01*
X14328809Y-14412048D01*
X14338333Y-14393000D01*
X14357381Y-14364428D01*
X14366905Y-14354905D01*
X14433571Y-14402524D02*
X14443095Y-14393000D01*
X14462143Y-14383476D01*
X14509762Y-14383476D01*
X14528809Y-14393000D01*
X14538333Y-14402524D01*
X14547857Y-14421571D01*
X14547857Y-14440619D01*
X14538333Y-14469190D01*
X14424048Y-14583476D01*
X14547857Y-14583476D01*
X14785952Y-14583476D02*
X14785952Y-14383476D01*
X14871667Y-14583476D02*
X14871667Y-14478714D01*
X14862143Y-14459667D01*
X14843095Y-14450143D01*
X14814524Y-14450143D01*
X14795476Y-14459667D01*
X14785952Y-14469190D01*
X14995476Y-14583476D02*
X14976428Y-14573952D01*
X14966905Y-14564428D01*
X14957381Y-14545381D01*
X14957381Y-14488238D01*
X14966905Y-14469190D01*
X14976428Y-14459667D01*
X14995476Y-14450143D01*
X15024048Y-14450143D01*
X15043095Y-14459667D01*
X15052619Y-14469190D01*
X15062143Y-14488238D01*
X15062143Y-14545381D01*
X15052619Y-14564428D01*
X15043095Y-14573952D01*
X15024048Y-14583476D01*
X14995476Y-14583476D01*
X15176428Y-14583476D02*
X15157381Y-14573952D01*
X15147857Y-14554905D01*
X15147857Y-14383476D01*
X15328809Y-14573952D02*
X15309762Y-14583476D01*
X15271667Y-14583476D01*
X15252619Y-14573952D01*
X15243095Y-14554905D01*
X15243095Y-14478714D01*
X15252619Y-14459667D01*
X15271667Y-14450143D01*
X15309762Y-14450143D01*
X15328809Y-14459667D01*
X15338333Y-14478714D01*
X15338333Y-14497762D01*
X15243095Y-14516809D01*
X15414524Y-14573952D02*
X15433571Y-14583476D01*
X15471667Y-14583476D01*
X15490714Y-14573952D01*
X15500238Y-14554905D01*
X15500238Y-14545381D01*
X15490714Y-14526333D01*
X15471667Y-14516809D01*
X15443095Y-14516809D01*
X15424048Y-14507286D01*
X15414524Y-14488238D01*
X15414524Y-14478714D01*
X15424048Y-14459667D01*
X15443095Y-14450143D01*
X15471667Y-14450143D01*
X15490714Y-14459667D01*
X15566905Y-14659667D02*
X15576428Y-14650143D01*
X15595476Y-14621571D01*
X15605000Y-14602524D01*
X15614524Y-14573952D01*
X15624048Y-14526333D01*
X15624048Y-14488238D01*
X15614524Y-14440619D01*
X15605000Y-14412048D01*
X15595476Y-14393000D01*
X15576428Y-14364428D01*
X15566905Y-14354905D01*
M02*
