%TF.GenerationSoftware,KiCad,Pcbnew,(6.0.10)*%
%TF.CreationDate,2022-12-31T20:59:50+01:00*%
%TF.ProjectId,ESPreen,45535072-6565-46e2-9e6b-696361645f70,0*%
%TF.SameCoordinates,Original*%
%TF.FileFunction,Paste,Top*%
%TF.FilePolarity,Positive*%
%FSLAX46Y46*%
G04 Gerber Fmt 4.6, Leading zero omitted, Abs format (unit mm)*
G04 Created by KiCad (PCBNEW (6.0.10)) date 2022-12-31 20:59:50*
%MOMM*%
%LPD*%
G01*
G04 APERTURE LIST*
G04 Aperture macros list*
%AMRoundRect*
0 Rectangle with rounded corners*
0 $1 Rounding radius*
0 $2 $3 $4 $5 $6 $7 $8 $9 X,Y pos of 4 corners*
0 Add a 4 corners polygon primitive as box body*
4,1,4,$2,$3,$4,$5,$6,$7,$8,$9,$2,$3,0*
0 Add four circle primitives for the rounded corners*
1,1,$1+$1,$2,$3*
1,1,$1+$1,$4,$5*
1,1,$1+$1,$6,$7*
1,1,$1+$1,$8,$9*
0 Add four rect primitives between the rounded corners*
20,1,$1+$1,$2,$3,$4,$5,0*
20,1,$1+$1,$4,$5,$6,$7,0*
20,1,$1+$1,$6,$7,$8,$9,0*
20,1,$1+$1,$8,$9,$2,$3,0*%
G04 Aperture macros list end*
%ADD10RoundRect,0.075000X0.550000X-0.075000X0.550000X0.075000X-0.550000X0.075000X-0.550000X-0.075000X0*%
%ADD11RoundRect,0.500000X1.250000X-0.750000X1.250000X0.750000X-1.250000X0.750000X-1.250000X-0.750000X0*%
%ADD12RoundRect,0.237500X0.300000X0.237500X-0.300000X0.237500X-0.300000X-0.237500X0.300000X-0.237500X0*%
%ADD13RoundRect,0.237500X-0.237500X0.300000X-0.237500X-0.300000X0.237500X-0.300000X0.237500X0.300000X0*%
%ADD14RoundRect,0.237500X-0.250000X-0.237500X0.250000X-0.237500X0.250000X0.237500X-0.250000X0.237500X0*%
%ADD15RoundRect,0.237500X0.250000X0.237500X-0.250000X0.237500X-0.250000X-0.237500X0.250000X-0.237500X0*%
%ADD16RoundRect,0.237500X-0.300000X-0.237500X0.300000X-0.237500X0.300000X0.237500X-0.300000X0.237500X0*%
%ADD17R,0.360000X0.250000*%
%ADD18R,2.000000X1.500000*%
%ADD19R,2.000000X3.800000*%
%ADD20R,0.900000X0.900000*%
%ADD21R,1.500000X0.900000*%
%ADD22R,0.900000X1.500000*%
%ADD23RoundRect,0.150000X-0.150000X0.587500X-0.150000X-0.587500X0.150000X-0.587500X0.150000X0.587500X0*%
%ADD24RoundRect,0.150000X-0.825000X-0.150000X0.825000X-0.150000X0.825000X0.150000X-0.825000X0.150000X0*%
%ADD25RoundRect,0.237500X0.237500X-0.300000X0.237500X0.300000X-0.237500X0.300000X-0.237500X-0.300000X0*%
%ADD26RoundRect,0.237500X-0.287500X-0.237500X0.287500X-0.237500X0.287500X0.237500X-0.287500X0.237500X0*%
%ADD27RoundRect,0.237500X-0.237500X0.250000X-0.237500X-0.250000X0.237500X-0.250000X0.237500X0.250000X0*%
%ADD28RoundRect,0.237500X0.237500X-0.287500X0.237500X0.287500X-0.237500X0.287500X-0.237500X-0.287500X0*%
G04 APERTURE END LIST*
D10*
%TO.C,U4*%
X150500000Y-102250000D03*
X150500000Y-101750000D03*
X150500000Y-101250000D03*
X150500000Y-100750000D03*
X150500000Y-100250000D03*
X150500000Y-99750000D03*
X150500000Y-99250000D03*
X150500000Y-98750000D03*
X150500000Y-98250000D03*
X150500000Y-97750000D03*
X150500000Y-97250000D03*
X150500000Y-96750000D03*
X150500000Y-96250000D03*
X150500000Y-95750000D03*
X150500000Y-95250000D03*
X150500000Y-94750000D03*
X150500000Y-94250000D03*
X150500000Y-93750000D03*
X150500000Y-93250000D03*
X150500000Y-92750000D03*
X150500000Y-92250000D03*
X150500000Y-91750000D03*
X150500000Y-91250000D03*
X150500000Y-90750000D03*
X150500000Y-90250000D03*
X150500000Y-89750000D03*
X150500000Y-89250000D03*
X150500000Y-88750000D03*
X150500000Y-88250000D03*
X150500000Y-87750000D03*
X150500000Y-87250000D03*
X150500000Y-86750000D03*
X150500000Y-86250000D03*
X150500000Y-85750000D03*
X150500000Y-85250000D03*
X150500000Y-84750000D03*
X150500000Y-84250000D03*
X150500000Y-83750000D03*
X150500000Y-83250000D03*
X150500000Y-82750000D03*
D11*
X148000000Y-81000000D03*
X148000000Y-104000000D03*
%TD*%
D12*
%TO.C,C11*%
X170362500Y-67250000D03*
X168637500Y-67250000D03*
%TD*%
D13*
%TO.C,C7*%
X167500000Y-104387500D03*
X167500000Y-106112500D03*
%TD*%
D14*
%TO.C,R12*%
X154587500Y-77750000D03*
X156412500Y-77750000D03*
%TD*%
D15*
%TO.C,R2*%
X123912500Y-102500000D03*
X122087500Y-102500000D03*
%TD*%
D16*
%TO.C,C16*%
X154637500Y-86250000D03*
X156362500Y-86250000D03*
%TD*%
D17*
%TO.C,D7*%
X122580000Y-110000000D03*
X123420000Y-110000000D03*
%TD*%
D18*
%TO.C,U1*%
X171150000Y-101800000D03*
D19*
X164850000Y-99500000D03*
D18*
X171150000Y-99500000D03*
X171150000Y-97200000D03*
%TD*%
D15*
%TO.C,R10*%
X128412500Y-113000000D03*
X126587500Y-113000000D03*
%TD*%
D17*
%TO.C,D5*%
X122580000Y-107000000D03*
X123420000Y-107000000D03*
%TD*%
D12*
%TO.C,C8*%
X129362500Y-78750000D03*
X127637500Y-78750000D03*
%TD*%
D16*
%TO.C,C14*%
X154637500Y-99500000D03*
X156362500Y-99500000D03*
%TD*%
D20*
%TO.C,IC1*%
X182900000Y-74210000D03*
X180100000Y-72810000D03*
X180100000Y-75610000D03*
X182900000Y-75610000D03*
X182900000Y-72810000D03*
X181500000Y-75610000D03*
X180100000Y-74210000D03*
X181500000Y-74210000D03*
X181500000Y-72810000D03*
D21*
X174250000Y-66490000D03*
X174250000Y-67760000D03*
X174250000Y-69030000D03*
X174250000Y-70300000D03*
X174250000Y-71570000D03*
X174250000Y-72840000D03*
X174250000Y-74110000D03*
X174250000Y-75380000D03*
X174250000Y-76650000D03*
X174250000Y-77920000D03*
X174250000Y-79190000D03*
X174250000Y-80460000D03*
X174250000Y-81730000D03*
X174250000Y-83000000D03*
D22*
X176015000Y-84250000D03*
X177285000Y-84250000D03*
X178555000Y-84250000D03*
X179825000Y-84250000D03*
X181095000Y-84250000D03*
X182365000Y-84250000D03*
X183635000Y-84250000D03*
X184905000Y-84250000D03*
X186175000Y-84250000D03*
X187445000Y-84250000D03*
X188715000Y-84250000D03*
X189985000Y-84250000D03*
D21*
X191750000Y-83000000D03*
X191750000Y-81730000D03*
X191750000Y-80460000D03*
X191750000Y-79190000D03*
X191750000Y-77920000D03*
X191750000Y-76650000D03*
X191750000Y-75380000D03*
X191750000Y-74110000D03*
X191750000Y-72840000D03*
X191750000Y-71570000D03*
X191750000Y-70300000D03*
X191750000Y-69030000D03*
X191750000Y-67760000D03*
X191750000Y-66490000D03*
%TD*%
D16*
%TO.C,C13*%
X154637500Y-101000000D03*
X156362500Y-101000000D03*
%TD*%
D13*
%TO.C,C1*%
X175500000Y-97387500D03*
X175500000Y-99112500D03*
%TD*%
D17*
%TO.C,D6*%
X122580000Y-108500000D03*
X123420000Y-108500000D03*
%TD*%
D16*
%TO.C,C15*%
X154637500Y-98000000D03*
X156362500Y-98000000D03*
%TD*%
D15*
%TO.C,R5*%
X128412500Y-107000000D03*
X126587500Y-107000000D03*
%TD*%
D12*
%TO.C,C12*%
X170362500Y-68750000D03*
X168637500Y-68750000D03*
%TD*%
D14*
%TO.C,R13*%
X154587500Y-84750000D03*
X156412500Y-84750000D03*
%TD*%
%TO.C,R6*%
X168587500Y-70250000D03*
X170412500Y-70250000D03*
%TD*%
D13*
%TO.C,C3*%
X174000000Y-97387500D03*
X174000000Y-99112500D03*
%TD*%
D23*
%TO.C,Q1*%
X156450000Y-81062500D03*
X154550000Y-81062500D03*
X155500000Y-82937500D03*
%TD*%
D15*
%TO.C,R4*%
X128412500Y-105500000D03*
X126587500Y-105500000D03*
%TD*%
D17*
%TO.C,D3*%
X122580000Y-104000000D03*
X123420000Y-104000000D03*
%TD*%
D15*
%TO.C,R3*%
X128412500Y-104000000D03*
X126587500Y-104000000D03*
%TD*%
%TO.C,R7*%
X128412500Y-108500000D03*
X126587500Y-108500000D03*
%TD*%
D24*
%TO.C,U2*%
X153525000Y-106055000D03*
X153525000Y-107325000D03*
X153525000Y-108595000D03*
X153525000Y-109865000D03*
X153525000Y-111135000D03*
X153525000Y-112405000D03*
X153525000Y-113675000D03*
X153525000Y-114945000D03*
X158475000Y-114945000D03*
X158475000Y-113675000D03*
X158475000Y-112405000D03*
X158475000Y-111135000D03*
X158475000Y-109865000D03*
X158475000Y-108595000D03*
X158475000Y-107325000D03*
X158475000Y-106055000D03*
%TD*%
D15*
%TO.C,R11*%
X156412500Y-79250000D03*
X154587500Y-79250000D03*
%TD*%
D16*
%TO.C,C10*%
X168637500Y-71750000D03*
X170362500Y-71750000D03*
%TD*%
D25*
%TO.C,C5*%
X148000000Y-111362500D03*
X148000000Y-109637500D03*
%TD*%
D15*
%TO.C,R8*%
X128412500Y-110000000D03*
X126587500Y-110000000D03*
%TD*%
D17*
%TO.C,D4*%
X122580000Y-105500000D03*
X123420000Y-105500000D03*
%TD*%
D26*
%TO.C,D2*%
X126625000Y-102500000D03*
X128375000Y-102500000D03*
%TD*%
D25*
%TO.C,C2*%
X146500000Y-111362500D03*
X146500000Y-109637500D03*
%TD*%
D13*
%TO.C,C6*%
X166000000Y-104387500D03*
X166000000Y-106112500D03*
%TD*%
D25*
%TO.C,C4*%
X149500000Y-111362500D03*
X149500000Y-109637500D03*
%TD*%
D27*
%TO.C,R1*%
X170500000Y-104337500D03*
X170500000Y-106162500D03*
%TD*%
D28*
%TO.C,D1*%
X169000000Y-106125000D03*
X169000000Y-104375000D03*
%TD*%
D15*
%TO.C,R9*%
X128412500Y-111500000D03*
X126587500Y-111500000D03*
%TD*%
D17*
%TO.C,D8*%
X122580000Y-111500000D03*
X123420000Y-111500000D03*
%TD*%
M02*
