%TF.GenerationSoftware,KiCad,Pcbnew,(6.0.10)*%
%TF.CreationDate,2022-12-31T20:59:51+01:00*%
%TF.ProjectId,ESPreen,45535072-6565-46e2-9e6b-696361645f70,0*%
%TF.SameCoordinates,Original*%
%TF.FileFunction,Soldermask,Bot*%
%TF.FilePolarity,Negative*%
%FSLAX46Y46*%
G04 Gerber Fmt 4.6, Leading zero omitted, Abs format (unit mm)*
G04 Created by KiCad (PCBNEW (6.0.10)) date 2022-12-31 20:59:51*
%MOMM*%
%LPD*%
G01*
G04 APERTURE LIST*
G04 Aperture macros list*
%AMRoundRect*
0 Rectangle with rounded corners*
0 $1 Rounding radius*
0 $2 $3 $4 $5 $6 $7 $8 $9 X,Y pos of 4 corners*
0 Add a 4 corners polygon primitive as box body*
4,1,4,$2,$3,$4,$5,$6,$7,$8,$9,$2,$3,0*
0 Add four circle primitives for the rounded corners*
1,1,$1+$1,$2,$3*
1,1,$1+$1,$4,$5*
1,1,$1+$1,$6,$7*
1,1,$1+$1,$8,$9*
0 Add four rect primitives between the rounded corners*
20,1,$1+$1,$2,$3,$4,$5,0*
20,1,$1+$1,$4,$5,$6,$7,0*
20,1,$1+$1,$6,$7,$8,$9,0*
20,1,$1+$1,$8,$9,$2,$3,0*%
G04 Aperture macros list end*
%ADD10RoundRect,0.287500X0.237500X-0.300000X0.237500X0.300000X-0.237500X0.300000X-0.237500X-0.300000X0*%
%ADD11RoundRect,0.050000X-0.525000X0.525000X-0.525000X-0.525000X0.525000X-0.525000X0.525000X0.525000X0*%
%ADD12C,1.150000*%
%ADD13C,0.600000*%
%ADD14RoundRect,0.050000X0.850000X-0.850000X0.850000X0.850000X-0.850000X0.850000X-0.850000X-0.850000X0*%
%ADD15O,1.800000X1.800000*%
%ADD16RoundRect,0.300000X-0.620000X0.620000X-0.620000X-0.620000X0.620000X-0.620000X0.620000X0.620000X0*%
%ADD17C,1.840000*%
%ADD18RoundRect,0.050000X-0.750000X0.800000X-0.750000X-0.800000X0.750000X-0.800000X0.750000X0.800000X0*%
%ADD19C,1.700000*%
%ADD20C,3.100000*%
%ADD21C,1.600000*%
%ADD22RoundRect,0.190000X0.660000X-0.210000X0.660000X0.210000X-0.660000X0.210000X-0.660000X-0.210000X0*%
%ADD23RoundRect,0.350000X0.450000X-0.450000X0.450000X0.450000X-0.450000X0.450000X-0.450000X-0.450000X0*%
%ADD24RoundRect,0.350000X0.800000X-0.450000X0.800000X0.450000X-0.800000X0.450000X-0.800000X-0.450000X0*%
%ADD25RoundRect,0.350000X0.450000X-0.500000X0.450000X0.500000X-0.450000X0.500000X-0.450000X-0.500000X0*%
%ADD26RoundRect,0.200000X-0.512500X-0.150000X0.512500X-0.150000X0.512500X0.150000X-0.512500X0.150000X0*%
G04 APERTURE END LIST*
D10*
%TO.C,C9*%
X127500000Y-102862500D03*
X127500000Y-101137500D03*
%TD*%
D11*
%TO.C,J6*%
X160000000Y-70000000D03*
D12*
X160000000Y-71270000D03*
X158730000Y-70000000D03*
X158730000Y-71270000D03*
X157460000Y-70000000D03*
X157460000Y-71270000D03*
%TD*%
D13*
%TO.C,IC1*%
X182200000Y-74210000D03*
X180800000Y-72810000D03*
X181500000Y-74910000D03*
X182900000Y-73510000D03*
X181500000Y-73510000D03*
X182900000Y-74910000D03*
X180100000Y-74910000D03*
X180800000Y-74210000D03*
X182200000Y-72810000D03*
X182200000Y-75610000D03*
X180800000Y-75610000D03*
X180100000Y-73510000D03*
%TD*%
D11*
%TO.C,J3*%
X139270000Y-109865000D03*
D12*
X139270000Y-111135000D03*
X138000000Y-109865000D03*
X138000000Y-111135000D03*
X136730000Y-109865000D03*
X136730000Y-111135000D03*
%TD*%
D14*
%TO.C,J2*%
X163125000Y-115025000D03*
D15*
X163125000Y-112485000D03*
X165665000Y-115025000D03*
X165665000Y-112485000D03*
X168205000Y-115025000D03*
X168205000Y-112485000D03*
X170745000Y-115025000D03*
X170745000Y-112485000D03*
X173285000Y-115025000D03*
X173285000Y-112485000D03*
X175825000Y-115025000D03*
X175825000Y-112485000D03*
X178365000Y-115025000D03*
X178365000Y-112485000D03*
%TD*%
D16*
%TO.C,J7*%
X182402500Y-103190000D03*
D17*
X182402500Y-105730000D03*
X182402500Y-108270000D03*
X182402500Y-110810000D03*
%TD*%
D14*
%TO.C,J4*%
X138000000Y-72000000D03*
D15*
X138000000Y-69460000D03*
X140540000Y-72000000D03*
X140540000Y-69460000D03*
X143080000Y-72000000D03*
X143080000Y-69460000D03*
X145620000Y-72000000D03*
X145620000Y-69460000D03*
X148160000Y-72000000D03*
X148160000Y-69460000D03*
%TD*%
D18*
%TO.C,J1*%
X121110000Y-75250000D03*
D19*
X121110000Y-77750000D03*
X121110000Y-79750000D03*
X121110000Y-82250000D03*
D20*
X118400000Y-85320000D03*
X118400000Y-72180000D03*
%TD*%
D21*
%TO.C,J5*%
X112250000Y-111200000D03*
X112250000Y-103200000D03*
D22*
X123250000Y-104000000D03*
X123250000Y-105100000D03*
X123250000Y-106200000D03*
X123250000Y-107300000D03*
X123250000Y-108400000D03*
X123250000Y-109500000D03*
X123250000Y-110600000D03*
X123250000Y-111700000D03*
D23*
X122250000Y-114150000D03*
D22*
X123250000Y-112800000D03*
D24*
X112650000Y-98350000D03*
D25*
X122250000Y-99400000D03*
D24*
X112650000Y-114150000D03*
%TD*%
D26*
%TO.C,U3*%
X129387500Y-79700000D03*
X129387500Y-78750000D03*
X129387500Y-77800000D03*
X127112500Y-77800000D03*
X127112500Y-78750000D03*
X127112500Y-79700000D03*
%TD*%
G36*
X122477745Y-113156708D02*
G01*
X122518069Y-113183652D01*
X122590199Y-113198000D01*
X122903998Y-113198000D01*
X122905730Y-113199000D01*
X122905730Y-113201000D01*
X122904616Y-113201902D01*
X122846457Y-113220799D01*
X122810893Y-113269748D01*
X122810893Y-113330250D01*
X122846564Y-113379346D01*
X122858019Y-113385354D01*
X122858278Y-113385516D01*
X122879788Y-113401404D01*
X122880587Y-113403238D01*
X122879399Y-113404846D01*
X122877722Y-113404810D01*
X122799393Y-113366521D01*
X122699855Y-113352000D01*
X122427787Y-113352000D01*
X122426055Y-113351000D01*
X122426055Y-113349000D01*
X122427169Y-113348098D01*
X122485328Y-113329201D01*
X122520892Y-113280252D01*
X122520892Y-113219749D01*
X122493219Y-113181661D01*
X122493010Y-113179672D01*
X122493421Y-113179072D01*
X122493980Y-113178512D01*
X122475221Y-113159786D01*
X122474702Y-113157855D01*
X122476115Y-113156440D01*
X122477745Y-113156708D01*
G37*
G36*
X137275025Y-110956096D02*
G01*
X137311105Y-111001132D01*
X137369465Y-111017097D01*
X137426116Y-110995690D01*
X137454629Y-110956875D01*
X137456460Y-110956071D01*
X137458072Y-110957255D01*
X137458089Y-110958824D01*
X137446542Y-110986701D01*
X137427017Y-111135000D01*
X137446542Y-111283299D01*
X137458646Y-111312521D01*
X137458385Y-111314504D01*
X137456537Y-111315269D01*
X137455224Y-111314520D01*
X137420038Y-111269645D01*
X137361849Y-111253070D01*
X137304978Y-111273882D01*
X137275183Y-111313565D01*
X137273344Y-111314350D01*
X137271744Y-111313149D01*
X137271736Y-111311599D01*
X137283458Y-111283299D01*
X137302983Y-111135000D01*
X137283458Y-110986701D01*
X137271616Y-110958111D01*
X137271877Y-110956128D01*
X137273725Y-110955363D01*
X137275025Y-110956096D01*
G37*
G36*
X138545025Y-110956096D02*
G01*
X138581105Y-111001132D01*
X138639465Y-111017097D01*
X138696116Y-110995690D01*
X138724629Y-110956875D01*
X138726460Y-110956071D01*
X138728072Y-110957255D01*
X138728089Y-110958824D01*
X138716542Y-110986701D01*
X138697017Y-111135000D01*
X138716542Y-111283299D01*
X138728646Y-111312521D01*
X138728385Y-111314504D01*
X138726537Y-111315269D01*
X138725224Y-111314520D01*
X138690038Y-111269645D01*
X138631849Y-111253070D01*
X138574978Y-111273882D01*
X138545183Y-111313565D01*
X138543344Y-111314350D01*
X138541744Y-111313149D01*
X138541736Y-111311599D01*
X138553458Y-111283299D01*
X138572983Y-111135000D01*
X138553458Y-110986701D01*
X138541616Y-110958111D01*
X138541877Y-110956128D01*
X138543725Y-110955363D01*
X138545025Y-110956096D01*
G37*
G36*
X139580041Y-110439000D02*
G01*
X139580041Y-110441000D01*
X139578927Y-110441902D01*
X139520771Y-110460798D01*
X139485207Y-110509747D01*
X139485207Y-110570249D01*
X139520924Y-110619409D01*
X139522551Y-110620423D01*
X139523492Y-110622188D01*
X139522434Y-110623885D01*
X139520728Y-110623968D01*
X139418299Y-110581542D01*
X139270000Y-110562017D01*
X139121701Y-110581542D01*
X139012103Y-110626938D01*
X139010120Y-110626677D01*
X139009355Y-110624829D01*
X139009916Y-110623683D01*
X139049200Y-110583985D01*
X139058353Y-110524179D01*
X139030604Y-110470416D01*
X138976323Y-110443115D01*
X138961591Y-110441994D01*
X138959940Y-110440866D01*
X138960092Y-110438871D01*
X138961743Y-110438000D01*
X139578309Y-110438000D01*
X139580041Y-110439000D01*
G37*
G36*
X137851701Y-110418458D02*
G01*
X138000000Y-110437983D01*
X138148299Y-110418458D01*
X138237095Y-110381678D01*
X138239078Y-110381939D01*
X138239843Y-110383787D01*
X138238759Y-110385313D01*
X138186402Y-110411646D01*
X138187167Y-110413168D01*
X138187052Y-110415165D01*
X138186407Y-110415783D01*
X138151945Y-110436404D01*
X138128201Y-110492053D01*
X138141702Y-110551032D01*
X138187480Y-110590976D01*
X138201900Y-110595830D01*
X138206285Y-110596932D01*
X138206734Y-110597104D01*
X138244227Y-110616955D01*
X138245290Y-110618650D01*
X138244354Y-110620417D01*
X138242526Y-110620571D01*
X138148299Y-110581542D01*
X138000000Y-110562017D01*
X137851701Y-110581542D01*
X137760195Y-110619444D01*
X137758212Y-110619183D01*
X137757447Y-110617335D01*
X137758513Y-110615819D01*
X137798910Y-110594969D01*
X137799360Y-110594801D01*
X137799777Y-110594701D01*
X137801572Y-110593601D01*
X137801700Y-110593529D01*
X137808572Y-110589982D01*
X137808593Y-110589532D01*
X137809231Y-110588907D01*
X137851647Y-110562914D01*
X137874798Y-110507015D01*
X137860673Y-110448184D01*
X137814465Y-110408722D01*
X137802007Y-110404529D01*
X137788090Y-110400878D01*
X137787644Y-110400701D01*
X137753023Y-110381903D01*
X137751978Y-110380197D01*
X137752932Y-110378440D01*
X137754742Y-110378297D01*
X137851701Y-110418458D01*
G37*
G36*
X136581701Y-110418458D02*
G01*
X136730000Y-110437983D01*
X136878299Y-110418458D01*
X136967095Y-110381678D01*
X136969078Y-110381939D01*
X136969843Y-110383787D01*
X136968759Y-110385313D01*
X136916402Y-110411646D01*
X136917167Y-110413168D01*
X136917052Y-110415165D01*
X136916407Y-110415783D01*
X136881945Y-110436404D01*
X136858201Y-110492053D01*
X136871702Y-110551032D01*
X136917480Y-110590976D01*
X136931900Y-110595830D01*
X136936285Y-110596932D01*
X136936734Y-110597104D01*
X136974227Y-110616955D01*
X136975290Y-110618650D01*
X136974354Y-110620417D01*
X136972526Y-110620571D01*
X136878299Y-110581542D01*
X136730000Y-110562017D01*
X136581701Y-110581542D01*
X136490195Y-110619444D01*
X136488212Y-110619183D01*
X136487447Y-110617335D01*
X136488513Y-110615819D01*
X136528910Y-110594969D01*
X136529360Y-110594801D01*
X136529777Y-110594701D01*
X136531572Y-110593601D01*
X136531700Y-110593529D01*
X136538572Y-110589982D01*
X136538593Y-110589532D01*
X136539231Y-110588907D01*
X136581647Y-110562914D01*
X136604798Y-110507015D01*
X136590673Y-110448184D01*
X136544465Y-110408722D01*
X136532007Y-110404529D01*
X136518090Y-110400878D01*
X136517644Y-110400701D01*
X136483023Y-110381903D01*
X136481978Y-110380197D01*
X136482932Y-110378440D01*
X136484742Y-110378297D01*
X136581701Y-110418458D01*
G37*
G36*
X138696504Y-109546322D02*
G01*
X138697000Y-109547641D01*
X138697000Y-110181484D01*
X138696000Y-110183216D01*
X138694000Y-110183216D01*
X138693098Y-110182102D01*
X138674202Y-110123946D01*
X138625253Y-110088382D01*
X138564751Y-110088382D01*
X138515636Y-110124067D01*
X138506648Y-110140313D01*
X138506522Y-110140512D01*
X138503018Y-110145388D01*
X138501195Y-110146211D01*
X138499571Y-110145044D01*
X138499546Y-110143456D01*
X138553458Y-110013299D01*
X138572983Y-109865000D01*
X138553458Y-109716701D01*
X138501854Y-109592115D01*
X138502115Y-109590132D01*
X138503963Y-109589367D01*
X138505350Y-109590217D01*
X138514057Y-109602886D01*
X138562324Y-109639922D01*
X138622804Y-109641506D01*
X138672655Y-109607245D01*
X138693106Y-109546998D01*
X138694610Y-109545679D01*
X138696504Y-109546322D01*
G37*
G36*
X137275025Y-109686096D02*
G01*
X137311105Y-109731132D01*
X137369465Y-109747097D01*
X137426116Y-109725690D01*
X137454629Y-109686875D01*
X137456460Y-109686071D01*
X137458072Y-109687255D01*
X137458089Y-109688824D01*
X137446542Y-109716701D01*
X137427017Y-109865000D01*
X137446542Y-110013299D01*
X137458646Y-110042521D01*
X137458385Y-110044504D01*
X137456537Y-110045269D01*
X137455224Y-110044520D01*
X137420038Y-109999645D01*
X137361849Y-109983070D01*
X137304978Y-110003882D01*
X137275183Y-110043565D01*
X137273344Y-110044350D01*
X137271744Y-110043149D01*
X137271736Y-110041599D01*
X137283458Y-110013299D01*
X137302983Y-109865000D01*
X137283458Y-109716701D01*
X137271616Y-109688111D01*
X137271877Y-109686128D01*
X137273725Y-109685363D01*
X137275025Y-109686096D01*
G37*
G36*
X159275025Y-71091096D02*
G01*
X159311105Y-71136132D01*
X159369465Y-71152097D01*
X159426116Y-71130690D01*
X159454629Y-71091875D01*
X159456460Y-71091071D01*
X159458072Y-71092255D01*
X159458089Y-71093824D01*
X159446542Y-71121701D01*
X159427017Y-71270000D01*
X159446542Y-71418299D01*
X159458646Y-71447521D01*
X159458385Y-71449504D01*
X159456537Y-71450269D01*
X159455224Y-71449520D01*
X159420038Y-71404645D01*
X159361849Y-71388070D01*
X159304978Y-71408882D01*
X159275183Y-71448565D01*
X159273344Y-71449350D01*
X159271744Y-71448149D01*
X159271736Y-71446599D01*
X159283458Y-71418299D01*
X159302983Y-71270000D01*
X159283458Y-71121701D01*
X159271616Y-71093111D01*
X159271877Y-71091128D01*
X159273725Y-71090363D01*
X159275025Y-71091096D01*
G37*
G36*
X158005025Y-71091096D02*
G01*
X158041105Y-71136132D01*
X158099465Y-71152097D01*
X158156116Y-71130690D01*
X158184629Y-71091875D01*
X158186460Y-71091071D01*
X158188072Y-71092255D01*
X158188089Y-71093824D01*
X158176542Y-71121701D01*
X158157017Y-71270000D01*
X158176542Y-71418299D01*
X158188646Y-71447521D01*
X158188385Y-71449504D01*
X158186537Y-71450269D01*
X158185224Y-71449520D01*
X158150038Y-71404645D01*
X158091849Y-71388070D01*
X158034978Y-71408882D01*
X158005183Y-71448565D01*
X158003344Y-71449350D01*
X158001744Y-71448149D01*
X158001736Y-71446599D01*
X158013458Y-71418299D01*
X158032983Y-71270000D01*
X158013458Y-71121701D01*
X158001616Y-71093111D01*
X158001877Y-71091128D01*
X158003725Y-71090363D01*
X158005025Y-71091096D01*
G37*
G36*
X160310041Y-70574000D02*
G01*
X160310041Y-70576000D01*
X160308927Y-70576902D01*
X160250771Y-70595798D01*
X160215207Y-70644747D01*
X160215207Y-70705249D01*
X160250924Y-70754409D01*
X160252551Y-70755423D01*
X160253492Y-70757188D01*
X160252434Y-70758885D01*
X160250728Y-70758968D01*
X160148299Y-70716542D01*
X160000000Y-70697017D01*
X159851701Y-70716542D01*
X159742103Y-70761938D01*
X159740120Y-70761677D01*
X159739355Y-70759829D01*
X159739916Y-70758683D01*
X159779200Y-70718985D01*
X159788353Y-70659179D01*
X159760604Y-70605416D01*
X159706323Y-70578115D01*
X159691591Y-70576994D01*
X159689940Y-70575866D01*
X159690092Y-70573871D01*
X159691743Y-70573000D01*
X160308309Y-70573000D01*
X160310041Y-70574000D01*
G37*
G36*
X158581701Y-70553458D02*
G01*
X158730000Y-70572983D01*
X158878299Y-70553458D01*
X158967095Y-70516678D01*
X158969078Y-70516939D01*
X158969843Y-70518787D01*
X158968759Y-70520313D01*
X158916402Y-70546646D01*
X158917167Y-70548168D01*
X158917052Y-70550165D01*
X158916407Y-70550783D01*
X158881945Y-70571404D01*
X158858201Y-70627053D01*
X158871702Y-70686032D01*
X158917480Y-70725976D01*
X158931900Y-70730830D01*
X158936285Y-70731932D01*
X158936734Y-70732104D01*
X158974227Y-70751955D01*
X158975290Y-70753650D01*
X158974354Y-70755417D01*
X158972526Y-70755571D01*
X158878299Y-70716542D01*
X158730000Y-70697017D01*
X158581701Y-70716542D01*
X158490195Y-70754444D01*
X158488212Y-70754183D01*
X158487447Y-70752335D01*
X158488513Y-70750819D01*
X158528910Y-70729969D01*
X158529360Y-70729801D01*
X158529777Y-70729701D01*
X158531572Y-70728601D01*
X158531700Y-70728529D01*
X158538572Y-70724982D01*
X158538593Y-70724532D01*
X158539231Y-70723907D01*
X158581647Y-70697914D01*
X158604798Y-70642015D01*
X158590673Y-70583184D01*
X158544465Y-70543722D01*
X158532007Y-70539529D01*
X158518090Y-70535878D01*
X158517644Y-70535701D01*
X158483023Y-70516903D01*
X158481978Y-70515197D01*
X158482932Y-70513440D01*
X158484742Y-70513297D01*
X158581701Y-70553458D01*
G37*
G36*
X157311701Y-70553458D02*
G01*
X157460000Y-70572983D01*
X157608299Y-70553458D01*
X157697095Y-70516678D01*
X157699078Y-70516939D01*
X157699843Y-70518787D01*
X157698759Y-70520313D01*
X157646402Y-70546646D01*
X157647167Y-70548168D01*
X157647052Y-70550165D01*
X157646407Y-70550783D01*
X157611945Y-70571404D01*
X157588201Y-70627053D01*
X157601702Y-70686032D01*
X157647480Y-70725976D01*
X157661900Y-70730830D01*
X157666285Y-70731932D01*
X157666734Y-70732104D01*
X157704227Y-70751955D01*
X157705290Y-70753650D01*
X157704354Y-70755417D01*
X157702526Y-70755571D01*
X157608299Y-70716542D01*
X157460000Y-70697017D01*
X157311701Y-70716542D01*
X157220195Y-70754444D01*
X157218212Y-70754183D01*
X157217447Y-70752335D01*
X157218513Y-70750819D01*
X157258910Y-70729969D01*
X157259360Y-70729801D01*
X157259777Y-70729701D01*
X157261572Y-70728601D01*
X157261700Y-70728529D01*
X157268572Y-70724982D01*
X157268593Y-70724532D01*
X157269231Y-70723907D01*
X157311647Y-70697914D01*
X157334798Y-70642015D01*
X157320673Y-70583184D01*
X157274465Y-70543722D01*
X157262007Y-70539529D01*
X157248090Y-70535878D01*
X157247644Y-70535701D01*
X157213023Y-70516903D01*
X157211978Y-70515197D01*
X157212932Y-70513440D01*
X157214742Y-70513297D01*
X157311701Y-70553458D01*
G37*
G36*
X159426504Y-69681322D02*
G01*
X159427000Y-69682641D01*
X159427000Y-70316484D01*
X159426000Y-70318216D01*
X159424000Y-70318216D01*
X159423098Y-70317102D01*
X159404202Y-70258946D01*
X159355253Y-70223382D01*
X159294751Y-70223382D01*
X159245636Y-70259067D01*
X159236648Y-70275313D01*
X159236522Y-70275512D01*
X159233018Y-70280388D01*
X159231195Y-70281211D01*
X159229571Y-70280044D01*
X159229546Y-70278456D01*
X159283458Y-70148299D01*
X159302983Y-70000000D01*
X159283458Y-69851701D01*
X159231854Y-69727115D01*
X159232115Y-69725132D01*
X159233963Y-69724367D01*
X159235350Y-69725217D01*
X159244057Y-69737886D01*
X159292324Y-69774922D01*
X159352804Y-69776506D01*
X159402655Y-69742245D01*
X159423106Y-69681998D01*
X159424610Y-69680679D01*
X159426504Y-69681322D01*
G37*
G36*
X158005025Y-69821096D02*
G01*
X158041105Y-69866132D01*
X158099465Y-69882097D01*
X158156116Y-69860690D01*
X158184629Y-69821875D01*
X158186460Y-69821071D01*
X158188072Y-69822255D01*
X158188089Y-69823824D01*
X158176542Y-69851701D01*
X158157017Y-70000000D01*
X158176542Y-70148299D01*
X158188646Y-70177521D01*
X158188385Y-70179504D01*
X158186537Y-70180269D01*
X158185224Y-70179520D01*
X158150038Y-70134645D01*
X158091849Y-70118070D01*
X158034978Y-70138882D01*
X158005183Y-70178565D01*
X158003344Y-70179350D01*
X158001744Y-70178149D01*
X158001736Y-70176599D01*
X158013458Y-70148299D01*
X158032983Y-70000000D01*
X158013458Y-69851701D01*
X158001616Y-69823111D01*
X158001877Y-69821128D01*
X158003725Y-69820363D01*
X158005025Y-69821096D01*
G37*
M02*
