M48
; DRILL file {KiCad (6.0.10)} date Sat Dec 31 21:01:50 2022
; FORMAT={-:-/ absolute / metric / decimal}
; #@! TF.CreationDate,2022-12-31T21:01:50+01:00
; #@! TF.GenerationSoftware,Kicad,Pcbnew,(6.0.10)
; #@! TF.FileFunction,Plated,1,2,PTH
FMAT,2
METRIC
; #@! TA.AperFunction,Plated,PTH,ComponentDrill
T1C0.200
; #@! TA.AperFunction,Plated,PTH,ViaDrill
T2C0.300
; #@! TA.AperFunction,Plated,PTH,ViaDrill
T3C0.400
; #@! TA.AperFunction,Plated,PTH,ComponentDrill
T4C0.650
; #@! TA.AperFunction,Plated,PTH,ComponentDrill
T5C0.950
; #@! TA.AperFunction,Plated,PTH,ComponentDrill
T6C1.000
; #@! TA.AperFunction,Plated,PTH,ComponentDrill
T7C1.090
; #@! TA.AperFunction,Plated,PTH,ComponentDrill
T8C2.300
%
G90
G05
T1
X180.1Y-73.51
X180.1Y-74.91
X180.8Y-72.81
X180.8Y-74.21
X180.8Y-75.61
X181.5Y-73.51
X181.5Y-74.91
X182.2Y-72.81
X182.2Y-74.21
X182.2Y-75.61
X182.9Y-73.51
X182.9Y-74.91
T2
X125.0Y-104.0
X125.0Y-105.5
X125.0Y-107.0
X125.0Y-108.5
X125.0Y-110.0
X125.0Y-111.5
X125.0Y-113.0
X125.5Y-78.75
X142.0Y-103.25
X142.0Y-108.024
X144.5Y-112.25
X145.75Y-101.25
X147.5Y-88.5
X147.5Y-92.5
X147.5Y-96.5
X147.5Y-101.25
X151.25Y-110.25
X152.0Y-70.0
X152.0Y-72.0
X154.0Y-70.0
X154.0Y-72.0
X155.25Y-114.5
X157.0Y-111.75
X160.25Y-108.024
X160.25Y-111.25
X160.5Y-113.25
X160.5Y-115.75
X161.0Y-107.399
X161.274Y-111.95
X163.5Y-79.75
X168.75Y-85.0
X171.25Y-81.865
X171.25Y-82.865
X175.75Y-79.5
X176.5Y-82.5
X176.5Y-89.25
X177.25Y-79.75
X177.25Y-88.5
X179.25Y-68.0
X181.75Y-69.5
X183.25Y-96.0
X183.75Y-67.75
X183.75Y-69.0
X183.75Y-70.3
X184.0Y-95.25
X184.75Y-86.0
X186.0Y-86.0
X187.445Y-87.171
X188.715Y-86.891
X189.625Y-85.875
X190.0Y-82.925
X190.2Y-76.75
X190.25Y-74.25
X190.25Y-75.5
X190.25Y-78.25
T3
X131.0Y-78.75
X135.75Y-103.25
X168.75Y-99.5
X171.899Y-95.149
X175.75Y-75.5
T4
X136.73Y-109.865
X136.73Y-111.135
X138.0Y-109.865
X138.0Y-111.135
X139.27Y-109.865
X139.27Y-111.135
X157.46Y-70.0
X157.46Y-71.27
X158.73Y-70.0
X158.73Y-71.27
X160.0Y-70.0
X160.0Y-71.27
T5
X121.11Y-75.25
X121.11Y-77.75
X121.11Y-79.75
X121.11Y-82.25
T6
X138.0Y-69.46
X138.0Y-72.0
X140.54Y-69.46
X140.54Y-72.0
X143.08Y-69.46
X143.08Y-72.0
X145.62Y-69.46
X145.62Y-72.0
X148.16Y-69.46
X148.16Y-72.0
X163.125Y-112.485
X163.125Y-115.025
X165.665Y-112.485
X165.665Y-115.025
X168.205Y-112.485
X168.205Y-115.025
X170.745Y-112.485
X170.745Y-115.025
X173.285Y-112.485
X173.285Y-115.025
X175.825Y-112.485
X175.825Y-115.025
X178.365Y-112.485
X178.365Y-115.025
T7
X182.403Y-103.19
X182.403Y-105.73
X182.403Y-108.27
X182.403Y-110.81
T8
X118.4Y-72.18
X118.4Y-85.32
T0
M30
