%TF.GenerationSoftware,KiCad,Pcbnew,(6.0.10)*%
%TF.CreationDate,2022-12-31T20:59:50+01:00*%
%TF.ProjectId,ESPreen,45535072-6565-46e2-9e6b-696361645f70,0*%
%TF.SameCoordinates,Original*%
%TF.FileFunction,Copper,L2,Bot*%
%TF.FilePolarity,Positive*%
%FSLAX46Y46*%
G04 Gerber Fmt 4.6, Leading zero omitted, Abs format (unit mm)*
G04 Created by KiCad (PCBNEW (6.0.10)) date 2022-12-31 20:59:50*
%MOMM*%
%LPD*%
G01*
G04 APERTURE LIST*
G04 Aperture macros list*
%AMRoundRect*
0 Rectangle with rounded corners*
0 $1 Rounding radius*
0 $2 $3 $4 $5 $6 $7 $8 $9 X,Y pos of 4 corners*
0 Add a 4 corners polygon primitive as box body*
4,1,4,$2,$3,$4,$5,$6,$7,$8,$9,$2,$3,0*
0 Add four circle primitives for the rounded corners*
1,1,$1+$1,$2,$3*
1,1,$1+$1,$4,$5*
1,1,$1+$1,$6,$7*
1,1,$1+$1,$8,$9*
0 Add four rect primitives between the rounded corners*
20,1,$1+$1,$2,$3,$4,$5,0*
20,1,$1+$1,$4,$5,$6,$7,0*
20,1,$1+$1,$6,$7,$8,$9,0*
20,1,$1+$1,$8,$9,$2,$3,0*%
G04 Aperture macros list end*
%TA.AperFunction,SMDPad,CuDef*%
%ADD10RoundRect,0.237500X0.237500X-0.300000X0.237500X0.300000X-0.237500X0.300000X-0.237500X-0.300000X0*%
%TD*%
%TA.AperFunction,ComponentPad*%
%ADD11R,1.050000X1.050000*%
%TD*%
%TA.AperFunction,ComponentPad*%
%ADD12C,1.050000*%
%TD*%
%TA.AperFunction,HeatsinkPad*%
%ADD13C,0.500000*%
%TD*%
%TA.AperFunction,ComponentPad*%
%ADD14R,1.700000X1.700000*%
%TD*%
%TA.AperFunction,ComponentPad*%
%ADD15O,1.700000X1.700000*%
%TD*%
%TA.AperFunction,ComponentPad*%
%ADD16RoundRect,0.250000X-0.620000X0.620000X-0.620000X-0.620000X0.620000X-0.620000X0.620000X0.620000X0*%
%TD*%
%TA.AperFunction,ComponentPad*%
%ADD17C,1.740000*%
%TD*%
%TA.AperFunction,ComponentPad*%
%ADD18R,1.500000X1.600000*%
%TD*%
%TA.AperFunction,ComponentPad*%
%ADD19C,1.600000*%
%TD*%
%TA.AperFunction,ComponentPad*%
%ADD20C,3.000000*%
%TD*%
%TA.AperFunction,WasherPad*%
%ADD21C,1.500000*%
%TD*%
%TA.AperFunction,SMDPad,CuDef*%
%ADD22RoundRect,0.140000X0.660000X-0.210000X0.660000X0.210000X-0.660000X0.210000X-0.660000X-0.210000X0*%
%TD*%
%TA.AperFunction,SMDPad,CuDef*%
%ADD23RoundRect,0.300000X0.450000X-0.450000X0.450000X0.450000X-0.450000X0.450000X-0.450000X-0.450000X0*%
%TD*%
%TA.AperFunction,SMDPad,CuDef*%
%ADD24RoundRect,0.300000X0.800000X-0.450000X0.800000X0.450000X-0.800000X0.450000X-0.800000X-0.450000X0*%
%TD*%
%TA.AperFunction,SMDPad,CuDef*%
%ADD25RoundRect,0.300000X0.450000X-0.500000X0.450000X0.500000X-0.450000X0.500000X-0.450000X-0.500000X0*%
%TD*%
%TA.AperFunction,SMDPad,CuDef*%
%ADD26RoundRect,0.150000X-0.512500X-0.150000X0.512500X-0.150000X0.512500X0.150000X-0.512500X0.150000X0*%
%TD*%
%TA.AperFunction,ViaPad*%
%ADD27C,0.800000*%
%TD*%
%TA.AperFunction,ViaPad*%
%ADD28C,0.750000*%
%TD*%
%TA.AperFunction,Conductor*%
%ADD29C,0.250000*%
%TD*%
%TA.AperFunction,Conductor*%
%ADD30C,0.500000*%
%TD*%
%TA.AperFunction,Conductor*%
%ADD31C,0.400000*%
%TD*%
%TA.AperFunction,Conductor*%
%ADD32C,0.200000*%
%TD*%
G04 APERTURE END LIST*
D10*
%TO.P,C9,1*%
%TO.N,+3.3V*%
X127500000Y-102862500D03*
%TO.P,C9,2*%
%TO.N,GND*%
X127500000Y-101137500D03*
%TD*%
D11*
%TO.P,J6,1,Pin_1*%
%TO.N,EN*%
X160000000Y-70000000D03*
D12*
%TO.P,J6,2,Pin_2*%
%TO.N,+5V*%
X160000000Y-71270000D03*
%TO.P,J6,3,Pin_3*%
%TO.N,TXD0*%
X158730000Y-70000000D03*
%TO.P,J6,4,Pin_4*%
%TO.N,GND*%
X158730000Y-71270000D03*
%TO.P,J6,5,Pin_5*%
%TO.N,RXD0*%
X157460000Y-70000000D03*
%TO.P,J6,6,Pin_6*%
%TO.N,SD_CMD*%
X157460000Y-71270000D03*
%TD*%
D13*
%TO.P,IC1,41,GND*%
%TO.N,GND*%
X182200000Y-74210000D03*
X180800000Y-72810000D03*
X181500000Y-74910000D03*
X182900000Y-73510000D03*
X181500000Y-73510000D03*
X182900000Y-74910000D03*
X180100000Y-74910000D03*
X180800000Y-74210000D03*
X182200000Y-72810000D03*
X182200000Y-75610000D03*
X180800000Y-75610000D03*
X180100000Y-73510000D03*
%TD*%
D11*
%TO.P,J3,1,Pin_1*%
%TO.N,DBG_C2D*%
X139270000Y-109865000D03*
D12*
%TO.P,J3,2,Pin_2*%
%TO.N,+5V*%
X139270000Y-111135000D03*
%TO.P,J3,3,Pin_3*%
%TO.N,TCH_TX*%
X138000000Y-109865000D03*
%TO.P,J3,4,Pin_4*%
%TO.N,GND*%
X138000000Y-111135000D03*
%TO.P,J3,5,Pin_5*%
%TO.N,TCH_RX*%
X136730000Y-109865000D03*
%TO.P,J3,6,Pin_6*%
%TO.N,DBG_C2CK*%
X136730000Y-111135000D03*
%TD*%
D14*
%TO.P,J2,1,Pin_1*%
%TO.N,GND*%
X163125000Y-115025000D03*
D15*
%TO.P,J2,2,Pin_2*%
X163125000Y-112485000D03*
%TO.P,J2,3,Pin_3*%
%TO.N,+3.3V*%
X165665000Y-115025000D03*
%TO.P,J2,4,Pin_4*%
X165665000Y-112485000D03*
%TO.P,J2,5,Pin_5*%
%TO.N,P0.6*%
X168205000Y-115025000D03*
%TO.P,J2,6,Pin_6*%
%TO.N,P0.7*%
X168205000Y-112485000D03*
%TO.P,J2,7,Pin_7*%
%TO.N,P1.0*%
X170745000Y-115025000D03*
%TO.P,J2,8,Pin_8*%
%TO.N,P1.1*%
X170745000Y-112485000D03*
%TO.P,J2,9,Pin_9*%
%TO.N,P1.2*%
X173285000Y-115025000D03*
%TO.P,J2,10,Pin_10*%
%TO.N,P1.3*%
X173285000Y-112485000D03*
%TO.P,J2,11,Pin_11*%
%TO.N,GND*%
X175825000Y-115025000D03*
%TO.P,J2,12,Pin_12*%
X175825000Y-112485000D03*
%TO.P,J2,13,Pin_13*%
%TO.N,+5V*%
X178365000Y-115025000D03*
%TO.P,J2,14,Pin_14*%
X178365000Y-112485000D03*
%TD*%
D16*
%TO.P,J7,1,Pin_1*%
%TO.N,+5V*%
X182402500Y-103190000D03*
D17*
%TO.P,J7,2,Pin_2*%
%TO.N,TXD1*%
X182402500Y-105730000D03*
%TO.P,J7,3,Pin_3*%
%TO.N,RXD1*%
X182402500Y-108270000D03*
%TO.P,J7,4,Pin_4*%
%TO.N,GND*%
X182402500Y-110810000D03*
%TD*%
D14*
%TO.P,J4,1,Pin_1*%
%TO.N,GND*%
X138000000Y-72000000D03*
D15*
%TO.P,J4,2,Pin_2*%
X138000000Y-69460000D03*
%TO.P,J4,3,Pin_3*%
%TO.N,+3.3V*%
X140540000Y-72000000D03*
%TO.P,J4,4,Pin_4*%
X140540000Y-69460000D03*
%TO.P,J4,5,Pin_5*%
%TO.N,IO2*%
X143080000Y-72000000D03*
%TO.P,J4,6,Pin_6*%
%TO.N,IO1*%
X143080000Y-69460000D03*
%TO.P,J4,7,Pin_7*%
%TO.N,IO42*%
X145620000Y-72000000D03*
%TO.P,J4,8,Pin_8*%
%TO.N,GND*%
X145620000Y-69460000D03*
%TO.P,J4,9,Pin_9*%
%TO.N,+5V*%
X148160000Y-72000000D03*
%TO.P,J4,10,Pin_10*%
X148160000Y-69460000D03*
%TD*%
D18*
%TO.P,J1,1,VBUS*%
%TO.N,+5V*%
X121110000Y-75250000D03*
D19*
%TO.P,J1,2,D-*%
%TO.N,Net-(J1-Pad2)*%
X121110000Y-77750000D03*
%TO.P,J1,3,D+*%
%TO.N,Net-(J1-Pad3)*%
X121110000Y-79750000D03*
%TO.P,J1,4,GND*%
%TO.N,GND*%
X121110000Y-82250000D03*
D20*
%TO.P,J1,5,Shield*%
X118400000Y-85320000D03*
X118400000Y-72180000D03*
%TD*%
D21*
%TO.P,J5,*%
%TO.N,*%
X112250000Y-111200000D03*
X112250000Y-103200000D03*
D22*
%TO.P,J5,1,DAT2*%
%TO.N,SD_D2*%
X123250000Y-104000000D03*
%TO.P,J5,2,DAT3/CD*%
%TO.N,SD_D3*%
X123250000Y-105100000D03*
%TO.P,J5,3,CMD*%
%TO.N,SD_CMD*%
X123250000Y-106200000D03*
%TO.P,J5,4,VDD*%
%TO.N,+3.3V*%
X123250000Y-107300000D03*
%TO.P,J5,5,CLK*%
%TO.N,SD_CLK*%
X123250000Y-108400000D03*
%TO.P,J5,6,VSS*%
%TO.N,GND*%
X123250000Y-109500000D03*
%TO.P,J5,7,DAT0*%
%TO.N,SD_D0*%
X123250000Y-110600000D03*
%TO.P,J5,8,DAT1*%
%TO.N,SD_D1*%
X123250000Y-111700000D03*
D23*
%TO.P,J5,9,DET_B*%
%TO.N,GND*%
X122250000Y-114150000D03*
D22*
%TO.P,J5,10,DET_A*%
%TO.N,SD_CD*%
X123250000Y-112800000D03*
D24*
%TO.P,J5,11,SHIELD*%
%TO.N,GND*%
X112650000Y-98350000D03*
D25*
X122250000Y-99400000D03*
D24*
X112650000Y-114150000D03*
%TD*%
D26*
%TO.P,U3,6,I/O1*%
%TO.N,USB_D+*%
X129387500Y-79700000D03*
%TO.P,U3,5,VBUS*%
%TO.N,+5V*%
X129387500Y-78750000D03*
%TO.P,U3,4,I/O2*%
%TO.N,USB_D-*%
X129387500Y-77800000D03*
%TO.P,U3,3,I/O2*%
%TO.N,Net-(J1-Pad2)*%
X127112500Y-77800000D03*
%TO.P,U3,2,GND*%
%TO.N,GND*%
X127112500Y-78750000D03*
%TO.P,U3,1,I/O1*%
%TO.N,Net-(J1-Pad3)*%
X127112500Y-79700000D03*
%TD*%
D27*
%TO.N,+5V*%
X131000000Y-78750000D03*
X171899312Y-95149312D03*
D28*
%TO.N,GND*%
X151250000Y-110250000D03*
X147500000Y-101250000D03*
X147500000Y-88500000D03*
X154000000Y-72000000D03*
X145750000Y-101250000D03*
X147500000Y-92500000D03*
X154000000Y-70000000D03*
X147500000Y-96500000D03*
X152000000Y-70000000D03*
X152000000Y-72000000D03*
X125500000Y-78750000D03*
D27*
%TO.N,+3.3V*%
X168750000Y-99500000D03*
X135750000Y-103250000D03*
X175750000Y-75500000D03*
D28*
%TO.N,SD_ON*%
X142000000Y-103250000D03*
X190250000Y-74250000D03*
%TO.N,SD_D2*%
X184750000Y-86000000D03*
X125000000Y-104000000D03*
%TO.N,SD_D3*%
X186000000Y-86000000D03*
X125000000Y-105500000D03*
%TO.N,SD_CMD*%
X190000500Y-82925498D03*
X125000000Y-107000000D03*
X177250000Y-79750000D03*
%TO.N,SD_CLK*%
X189625000Y-85875000D03*
X125000000Y-108500000D03*
%TO.N,SD_D0*%
X125000000Y-110000000D03*
X187445000Y-87170590D03*
%TO.N,SD_D1*%
X188715000Y-86890540D03*
X125000000Y-111500000D03*
%TO.N,TXD1*%
X183250000Y-96000000D03*
X176500000Y-82500000D03*
X176500000Y-89250000D03*
%TO.N,RXD1*%
X184000000Y-95250000D03*
X177250000Y-88500000D03*
X175750000Y-79500000D03*
%TO.N,USB_D-*%
X171250000Y-81865000D03*
%TO.N,USB_D+*%
X171250000Y-82865000D03*
%TO.N,TFT_BL*%
X163500000Y-79750000D03*
X168750000Y-85000000D03*
%TO.N,SD_CD*%
X190250000Y-78250000D03*
X125000000Y-113000000D03*
%TO.N,TCH_TX*%
X161000000Y-107399500D03*
X190199500Y-76750000D03*
%TO.N,TCH_RX*%
X142000000Y-108024000D03*
X160250000Y-108024500D03*
X190250000Y-75500000D03*
%TO.N,IO42*%
X179250000Y-68000000D03*
%TO.N,RXD0*%
X181750000Y-69500000D03*
%TO.N,TXD0*%
X183750000Y-70300000D03*
%TO.N,DBG_C2CK*%
X144500000Y-112250000D03*
%TO.N,P0.6*%
X161273629Y-111949500D03*
%TO.N,P1.0*%
X160500000Y-113250000D03*
%TO.N,P1.2*%
X160500000Y-115750000D03*
%TO.N,P0.7*%
X160250000Y-111250000D03*
%TO.N,P1.1*%
X157000000Y-111750000D03*
%TO.N,P1.3*%
X155250000Y-114500000D03*
%TO.N,IO2*%
X183750000Y-69000000D03*
%TO.N,IO1*%
X183750000Y-67750000D03*
%TD*%
D29*
%TO.N,Net-(J1-Pad3)*%
X124750000Y-79750000D02*
X121110000Y-79750000D01*
X127062500Y-79750000D02*
X124750000Y-79750000D01*
%TO.N,Net-(J1-Pad2)*%
X124750000Y-77750000D02*
X121110000Y-77750000D01*
X127062500Y-77750000D02*
X124750000Y-77750000D01*
D30*
%TO.N,+5V*%
X142112106Y-109000000D02*
X139977106Y-111135000D01*
X139977106Y-111135000D02*
X139270000Y-111135000D01*
X176592500Y-109000000D02*
X142112106Y-109000000D01*
X178365000Y-107227500D02*
X176592500Y-109000000D01*
%TO.N,+3.3V*%
X127887500Y-103250000D02*
X135750000Y-103250000D01*
X127500000Y-102862500D02*
X127887500Y-103250000D01*
X122387500Y-102862500D02*
X127500000Y-102862500D01*
X122550000Y-107300000D02*
X121750000Y-106500000D01*
X121750000Y-106500000D02*
X121750000Y-103500000D01*
X123250000Y-107300000D02*
X122550000Y-107300000D01*
X121750000Y-103500000D02*
X122387500Y-102862500D01*
D29*
%TO.N,RXD0*%
X158960000Y-68500000D02*
X157460000Y-70000000D01*
%TO.N,TXD0*%
X158730000Y-69570000D02*
X158730000Y-70000000D01*
X159150000Y-69150000D02*
X158730000Y-69570000D01*
X183750000Y-70300000D02*
X181425000Y-70300000D01*
X181425000Y-70300000D02*
X180275000Y-69150000D01*
X180275000Y-69150000D02*
X159150000Y-69150000D01*
%TO.N,RXD0*%
X178760050Y-68500000D02*
X158960000Y-68500000D01*
X179539950Y-68700000D02*
X178960050Y-68700000D01*
X179739950Y-68500000D02*
X179539950Y-68700000D01*
X180750000Y-68500000D02*
X179739950Y-68500000D01*
X178960050Y-68700000D02*
X178760050Y-68500000D01*
X181750000Y-69500000D02*
X180750000Y-68500000D01*
%TO.N,SD_CMD*%
X158440000Y-72250000D02*
X157460000Y-71270000D01*
X169750000Y-72250000D02*
X158440000Y-72250000D01*
X177250000Y-79750000D02*
X169750000Y-72250000D01*
D30*
%TO.N,+5V*%
X160000000Y-71270000D02*
X170270000Y-71270000D01*
X128250000Y-78173528D02*
X128250000Y-77426472D01*
X128826472Y-78750000D02*
X128250000Y-78173528D01*
X129387500Y-78750000D02*
X128826472Y-78750000D01*
X178365000Y-107227500D02*
X178365000Y-115025000D01*
X182402500Y-103190000D02*
X178365000Y-107227500D01*
X129387500Y-78750000D02*
X131000000Y-78750000D01*
X178250000Y-88798624D02*
X171899312Y-95149312D01*
X128161764Y-77338236D02*
X126073528Y-75250000D01*
X128250000Y-77426472D02*
X128161764Y-77338236D01*
X178250000Y-79250000D02*
X178250000Y-88798624D01*
X126073528Y-75250000D02*
X121110000Y-75250000D01*
X170270000Y-71270000D02*
X178250000Y-79250000D01*
D31*
%TO.N,GND*%
X145620000Y-70202462D02*
X144330000Y-71492462D01*
X145620000Y-69460000D02*
X145620000Y-70202462D01*
D30*
X127112500Y-78750000D02*
X127750000Y-78750000D01*
D31*
X144330000Y-71492462D02*
X144330000Y-73170000D01*
D30*
X128250000Y-79250000D02*
X128250000Y-80500000D01*
X127750000Y-78750000D02*
X128250000Y-79250000D01*
%TO.N,+3.3V*%
X178949501Y-89300499D02*
X168750000Y-99500000D01*
X178949501Y-78699501D02*
X178949501Y-89300499D01*
X175750000Y-75500000D02*
X178949501Y-78699501D01*
D29*
%TO.N,SD_ON*%
X166375000Y-103250000D02*
X189500000Y-80125000D01*
X189500000Y-75000000D02*
X190250000Y-74250000D01*
X142000000Y-103250000D02*
X166375000Y-103250000D01*
X189500000Y-80125000D02*
X189500000Y-75000000D01*
%TO.N,SD_D2*%
X131000000Y-104000000D02*
X166750000Y-104000000D01*
X123250000Y-104000000D02*
X131000000Y-104000000D01*
X166750000Y-104000000D02*
X184750000Y-86000000D01*
%TO.N,SD_D3*%
X123250000Y-105100000D02*
X124600000Y-105100000D01*
X167550000Y-104450000D02*
X186000000Y-86000000D01*
X125000000Y-105500000D02*
X126050000Y-104450000D01*
X124600000Y-105100000D02*
X125000000Y-105500000D01*
X126050000Y-104450000D02*
X167550000Y-104450000D01*
%TO.N,SD_CMD*%
X123250000Y-106200000D02*
X124200000Y-106200000D01*
X124200000Y-106200000D02*
X125000000Y-107000000D01*
X125000000Y-107000000D02*
X127100000Y-104900000D01*
X127100000Y-104900000D02*
X168089950Y-104900000D01*
X168089950Y-104900000D02*
X190000500Y-82989450D01*
X190000500Y-82989450D02*
X190000500Y-82925498D01*
%TO.N,SD_CLK*%
X125000000Y-108500000D02*
X128150000Y-105350000D01*
X128150000Y-105350000D02*
X168276346Y-105350000D01*
X123250000Y-108400000D02*
X124900000Y-108400000D01*
X187435806Y-86190540D02*
X189309460Y-86190540D01*
X124900000Y-108400000D02*
X125000000Y-108500000D01*
X168276346Y-105350000D02*
X187435806Y-86190540D01*
X189309460Y-86190540D02*
X189625000Y-85875000D01*
%TO.N,SD_D0*%
X129200000Y-105800000D02*
X168815590Y-105800000D01*
X125000000Y-110000000D02*
X129200000Y-105800000D01*
X123250000Y-110600000D02*
X124400000Y-110600000D01*
X168815590Y-105800000D02*
X187445000Y-87170590D01*
X124400000Y-110600000D02*
X125000000Y-110000000D01*
%TO.N,SD_D1*%
X130250000Y-106250000D02*
X169355540Y-106250000D01*
X124800000Y-111700000D02*
X125000000Y-111500000D01*
X123250000Y-111700000D02*
X124800000Y-111700000D01*
X169355540Y-106250000D02*
X188715000Y-86890540D01*
X125000000Y-111500000D02*
X130250000Y-106250000D01*
%TO.N,TXD1*%
X183250000Y-96000000D02*
X183597500Y-96347500D01*
X176500000Y-89250000D02*
X176500000Y-82500000D01*
X183597500Y-96347500D02*
X183597500Y-104535000D01*
X183597500Y-104535000D02*
X182402500Y-105730000D01*
%TO.N,RXD1*%
X184250000Y-95500000D02*
X184250000Y-106422500D01*
X177250000Y-81000000D02*
X177250000Y-88500000D01*
X184000000Y-95250000D02*
X184250000Y-95500000D01*
X184250000Y-106422500D02*
X182402500Y-108270000D01*
X175750000Y-79500000D02*
X177250000Y-81000000D01*
D32*
%TO.N,USB_D-*%
X130710050Y-78050000D02*
X130610050Y-78150000D01*
X129737500Y-78150000D02*
X129387500Y-77800000D01*
X170975001Y-82139999D02*
X170208199Y-82139999D01*
X131289950Y-78050000D02*
X130710050Y-78050000D01*
X130610050Y-78150000D02*
X129737500Y-78150000D01*
X131764949Y-78524999D02*
X131289950Y-78050000D01*
X171250000Y-81865000D02*
X170975001Y-82139999D01*
X166593199Y-78524999D02*
X131764949Y-78524999D01*
X170208199Y-82139999D02*
X166593199Y-78524999D01*
%TO.N,USB_D+*%
X131764949Y-78975001D02*
X131289950Y-79450000D01*
X170021801Y-82590001D02*
X166406801Y-78975001D01*
X171250000Y-82865000D02*
X170975001Y-82590001D01*
X131289950Y-79450000D02*
X130710050Y-79450000D01*
X129737500Y-79350000D02*
X129387500Y-79700000D01*
X166406801Y-78975001D02*
X131764949Y-78975001D01*
X130610050Y-79350000D02*
X129737500Y-79350000D01*
X170975001Y-82590001D02*
X170021801Y-82590001D01*
X130710050Y-79450000D02*
X130610050Y-79350000D01*
D29*
%TO.N,TFT_BL*%
X168750000Y-85000000D02*
X163500000Y-79750000D01*
%TO.N,SD_CD*%
X190750000Y-86000000D02*
X190750000Y-78750000D01*
X123250000Y-112800000D02*
X124800000Y-112800000D01*
X125000000Y-113000000D02*
X131300000Y-106700000D01*
X170050000Y-106700000D02*
X190750000Y-86000000D01*
X190750000Y-78750000D02*
X190250000Y-78250000D01*
X131300000Y-106700000D02*
X170050000Y-106700000D01*
X124800000Y-112800000D02*
X125000000Y-113000000D01*
%TO.N,TCH_TX*%
X191250000Y-86136396D02*
X191250000Y-77800500D01*
X138000000Y-109865000D02*
X138000000Y-109500000D01*
X169886396Y-107500000D02*
X191250000Y-86136396D01*
X161100500Y-107500000D02*
X169886396Y-107500000D01*
X138000000Y-109500000D02*
X140175500Y-107324500D01*
X160925000Y-107324500D02*
X161000000Y-107399500D01*
X161000000Y-107399500D02*
X161100500Y-107500000D01*
X140175500Y-107324500D02*
X160925000Y-107324500D01*
X191250000Y-77800500D02*
X190199500Y-76750000D01*
%TO.N,TCH_RX*%
X160325000Y-108099500D02*
X169923292Y-108099500D01*
X160250000Y-108024500D02*
X160325000Y-108099500D01*
X191700000Y-76950000D02*
X190250000Y-75500000D01*
X191700000Y-86322792D02*
X191700000Y-76950000D01*
X142000500Y-108024500D02*
X142000000Y-108024000D01*
X169923292Y-108099500D02*
X191700000Y-86322792D01*
X160250000Y-108024500D02*
X142000500Y-108024500D01*
%TO.N,IO42*%
X146795000Y-70825000D02*
X145620000Y-72000000D01*
X146795000Y-69163299D02*
X146795000Y-70825000D01*
X179250000Y-68000000D02*
X147958299Y-68000000D01*
X147958299Y-68000000D02*
X146795000Y-69163299D01*
%TO.N,Net-(J1-Pad2)*%
X127112500Y-77800000D02*
X127062500Y-77750000D01*
%TO.N,Net-(J1-Pad3)*%
X127112500Y-79700000D02*
X127062500Y-79750000D01*
%TO.N,DBG_C2CK*%
X144500000Y-112250000D02*
X137845000Y-112250000D01*
X137845000Y-112250000D02*
X136730000Y-111135000D01*
%TO.N,P0.6*%
X161273629Y-112295330D02*
X162728299Y-113750000D01*
X166930000Y-113750000D02*
X168205000Y-115025000D01*
X162728299Y-113750000D02*
X166930000Y-113750000D01*
X161273629Y-111949500D02*
X161273629Y-112295330D01*
%TO.N,P1.0*%
X161950000Y-116200000D02*
X169570000Y-116200000D01*
X160500000Y-113250000D02*
X160500000Y-114750000D01*
X169570000Y-116200000D02*
X170745000Y-115025000D01*
X160500000Y-114750000D02*
X161950000Y-116200000D01*
%TO.N,P1.2*%
X161400000Y-116650000D02*
X171660000Y-116650000D01*
X171660000Y-116650000D02*
X173285000Y-115025000D01*
X160500000Y-115750000D02*
X161400000Y-116650000D01*
%TO.N,P0.7*%
X160250000Y-111250000D02*
X166970000Y-111250000D01*
X166970000Y-111250000D02*
X168205000Y-112485000D01*
%TO.N,P1.1*%
X157000000Y-110942845D02*
X157442845Y-110500000D01*
X157000000Y-111750000D02*
X157000000Y-110942845D01*
X168760000Y-110500000D02*
X170745000Y-112485000D01*
X157442845Y-110500000D02*
X168760000Y-110500000D01*
%TO.N,P1.3*%
X156960050Y-110050000D02*
X170850000Y-110050000D01*
X170850000Y-110050000D02*
X173285000Y-112485000D01*
X155250000Y-114500000D02*
X155250000Y-111760050D01*
X155250000Y-111760050D02*
X156960050Y-110050000D01*
%TO.N,IO2*%
X144445000Y-70635000D02*
X143080000Y-72000000D01*
X177500000Y-67550000D02*
X145868299Y-67550000D01*
X145868299Y-67550000D02*
X144445000Y-68973299D01*
X144445000Y-68973299D02*
X144445000Y-70635000D01*
X183750000Y-69000000D02*
X182050000Y-67300000D01*
X177750000Y-67300000D02*
X177500000Y-67550000D01*
X182050000Y-67300000D02*
X177750000Y-67300000D01*
%TO.N,IO1*%
X145440000Y-67100000D02*
X143080000Y-69460000D01*
X177313604Y-67100000D02*
X145440000Y-67100000D01*
X177563604Y-66850000D02*
X177313604Y-67100000D01*
X183750000Y-67750000D02*
X182850000Y-66850000D01*
X182850000Y-66850000D02*
X177563604Y-66850000D01*
%TD*%
%TA.AperFunction,Conductor*%
%TO.N,GND*%
G36*
X193976177Y-65401719D02*
G01*
X194000000Y-65405492D01*
X194010495Y-65403830D01*
X194033040Y-65402863D01*
X194134949Y-65410152D01*
X194220569Y-65416276D01*
X194234550Y-65418286D01*
X194443715Y-65463787D01*
X194457268Y-65467767D01*
X194657825Y-65542571D01*
X194670674Y-65548439D01*
X194858534Y-65651018D01*
X194870416Y-65658654D01*
X195041781Y-65786936D01*
X195052457Y-65796186D01*
X195203814Y-65947543D01*
X195213064Y-65958219D01*
X195341346Y-66129584D01*
X195348981Y-66141465D01*
X195447668Y-66322196D01*
X195451561Y-66329326D01*
X195457429Y-66342175D01*
X195532233Y-66542732D01*
X195536213Y-66556285D01*
X195581714Y-66765450D01*
X195583724Y-66779431D01*
X195595989Y-66950904D01*
X195597137Y-66966958D01*
X195596170Y-66989505D01*
X195594508Y-67000000D01*
X195595727Y-67007697D01*
X195598281Y-67023822D01*
X195599500Y-67039309D01*
X195599500Y-117960691D01*
X195598281Y-117976177D01*
X195594508Y-118000000D01*
X195596170Y-118010495D01*
X195597137Y-118033042D01*
X195583724Y-118220569D01*
X195581714Y-118234550D01*
X195536213Y-118443715D01*
X195532233Y-118457268D01*
X195457429Y-118657825D01*
X195451561Y-118670674D01*
X195348982Y-118858534D01*
X195341346Y-118870416D01*
X195213064Y-119041781D01*
X195203814Y-119052457D01*
X195052457Y-119203814D01*
X195041781Y-119213064D01*
X194870416Y-119341346D01*
X194858534Y-119348982D01*
X194670674Y-119451561D01*
X194657825Y-119457429D01*
X194457268Y-119532233D01*
X194443715Y-119536213D01*
X194234550Y-119581714D01*
X194220569Y-119583724D01*
X194134949Y-119589848D01*
X194033040Y-119597137D01*
X194010495Y-119596170D01*
X194000000Y-119594508D01*
X193978287Y-119597947D01*
X193976178Y-119598281D01*
X193960691Y-119599500D01*
X110039309Y-119599500D01*
X110023822Y-119598281D01*
X110021714Y-119597947D01*
X110000000Y-119594508D01*
X109989505Y-119596170D01*
X109966960Y-119597137D01*
X109865051Y-119589848D01*
X109779431Y-119583724D01*
X109765450Y-119581714D01*
X109556285Y-119536213D01*
X109542732Y-119532233D01*
X109342175Y-119457429D01*
X109329326Y-119451561D01*
X109141466Y-119348982D01*
X109129584Y-119341346D01*
X108958219Y-119213064D01*
X108947543Y-119203814D01*
X108796186Y-119052457D01*
X108786936Y-119041781D01*
X108658654Y-118870416D01*
X108651018Y-118858534D01*
X108548439Y-118670674D01*
X108542571Y-118657825D01*
X108467767Y-118457268D01*
X108463787Y-118443715D01*
X108418286Y-118234550D01*
X108416276Y-118220569D01*
X108402863Y-118033042D01*
X108403830Y-118010495D01*
X108405492Y-118000000D01*
X108401719Y-117976177D01*
X108400500Y-117960691D01*
X108400500Y-114687257D01*
X111042001Y-114687257D01*
X111042065Y-114689471D01*
X111043220Y-114697545D01*
X111081809Y-114864698D01*
X111085459Y-114875062D01*
X111159541Y-115028308D01*
X111165403Y-115037616D01*
X111271583Y-115170625D01*
X111279375Y-115178417D01*
X111412384Y-115284597D01*
X111421692Y-115290459D01*
X111574938Y-115364541D01*
X111585302Y-115368191D01*
X111752463Y-115406782D01*
X111760519Y-115407936D01*
X111762751Y-115408000D01*
X112380320Y-115408000D01*
X112393005Y-115403878D01*
X112396000Y-115399757D01*
X112396000Y-115392319D01*
X112904000Y-115392319D01*
X112908122Y-115405004D01*
X112912243Y-115407999D01*
X113537257Y-115407999D01*
X113539471Y-115407935D01*
X113547545Y-115406780D01*
X113714698Y-115368191D01*
X113725062Y-115364541D01*
X113878308Y-115290459D01*
X113887616Y-115284597D01*
X114020625Y-115178417D01*
X114028417Y-115170625D01*
X114134597Y-115037616D01*
X114140459Y-115028308D01*
X114214541Y-114875062D01*
X114218191Y-114864698D01*
X114256782Y-114697537D01*
X114257936Y-114689481D01*
X114258000Y-114687257D01*
X120992001Y-114687257D01*
X120992065Y-114689471D01*
X120993220Y-114697545D01*
X121031809Y-114864698D01*
X121035459Y-114875062D01*
X121109541Y-115028308D01*
X121115403Y-115037616D01*
X121221583Y-115170625D01*
X121229375Y-115178417D01*
X121362384Y-115284597D01*
X121371692Y-115290459D01*
X121524938Y-115364541D01*
X121535302Y-115368191D01*
X121702463Y-115406782D01*
X121710519Y-115407936D01*
X121712751Y-115408000D01*
X121980320Y-115408000D01*
X121993005Y-115403878D01*
X121996000Y-115399757D01*
X121996000Y-115392319D01*
X122504000Y-115392319D01*
X122508122Y-115405004D01*
X122512243Y-115407999D01*
X122787257Y-115407999D01*
X122789471Y-115407935D01*
X122797545Y-115406780D01*
X122964698Y-115368191D01*
X122975062Y-115364541D01*
X123128308Y-115290459D01*
X123137616Y-115284597D01*
X123270625Y-115178417D01*
X123278417Y-115170625D01*
X123384597Y-115037616D01*
X123390459Y-115028308D01*
X123464541Y-114875062D01*
X123468191Y-114864698D01*
X123506782Y-114697537D01*
X123507936Y-114689481D01*
X123508000Y-114687249D01*
X123508000Y-114419680D01*
X123503878Y-114406995D01*
X123499757Y-114404000D01*
X122519680Y-114404000D01*
X122506995Y-114408122D01*
X122504000Y-114412243D01*
X122504000Y-115392319D01*
X121996000Y-115392319D01*
X121996000Y-114419680D01*
X121991878Y-114406995D01*
X121987757Y-114404000D01*
X121007681Y-114404000D01*
X120994996Y-114408122D01*
X120992001Y-114412243D01*
X120992001Y-114687257D01*
X114258000Y-114687257D01*
X114258000Y-114687249D01*
X114258000Y-114419680D01*
X114253878Y-114406995D01*
X114249757Y-114404000D01*
X112919680Y-114404000D01*
X112906995Y-114408122D01*
X112904000Y-114412243D01*
X112904000Y-115392319D01*
X112396000Y-115392319D01*
X112396000Y-114419680D01*
X112391878Y-114406995D01*
X112387757Y-114404000D01*
X111057681Y-114404000D01*
X111044996Y-114408122D01*
X111042001Y-114412243D01*
X111042001Y-114687257D01*
X108400500Y-114687257D01*
X108400500Y-113880320D01*
X111042000Y-113880320D01*
X111046122Y-113893005D01*
X111050243Y-113896000D01*
X112380320Y-113896000D01*
X112393005Y-113891878D01*
X112396000Y-113887757D01*
X112396000Y-113880320D01*
X112904000Y-113880320D01*
X112908122Y-113893005D01*
X112912243Y-113896000D01*
X114242319Y-113896000D01*
X114255004Y-113891878D01*
X114257999Y-113887757D01*
X114257999Y-113880320D01*
X120992000Y-113880320D01*
X120996122Y-113893005D01*
X121000243Y-113896000D01*
X123492319Y-113896000D01*
X123505004Y-113891878D01*
X123507999Y-113887757D01*
X123507999Y-113649499D01*
X123526906Y-113591308D01*
X123576406Y-113555344D01*
X123606997Y-113550499D01*
X123951994Y-113550499D01*
X123954960Y-113550140D01*
X123954962Y-113550140D01*
X124033827Y-113540597D01*
X124033828Y-113540597D01*
X124040140Y-113539833D01*
X124177828Y-113485319D01*
X124225349Y-113449249D01*
X124233711Y-113442902D01*
X124291493Y-113422781D01*
X124350067Y-113440466D01*
X124375203Y-113467232D01*
X124375448Y-113467043D01*
X124377372Y-113469541D01*
X124378246Y-113470472D01*
X124378825Y-113471429D01*
X124378828Y-113471433D01*
X124381692Y-113476162D01*
X124385534Y-113480141D01*
X124385536Y-113480143D01*
X124430337Y-113526535D01*
X124502550Y-113601314D01*
X124648132Y-113696580D01*
X124811202Y-113757226D01*
X124816688Y-113757958D01*
X124816692Y-113757959D01*
X124971759Y-113778649D01*
X124983656Y-113780236D01*
X124989161Y-113779735D01*
X124989164Y-113779735D01*
X125151412Y-113764969D01*
X125151416Y-113764968D01*
X125156923Y-113764467D01*
X125162184Y-113762758D01*
X125162187Y-113762757D01*
X125262562Y-113730143D01*
X125322390Y-113710704D01*
X125471833Y-113621618D01*
X125518326Y-113577343D01*
X125593814Y-113505457D01*
X125593816Y-113505455D01*
X125597826Y-113501636D01*
X125628478Y-113455502D01*
X125660870Y-113406748D01*
X125694107Y-113356722D01*
X125755889Y-113194079D01*
X125757422Y-113183176D01*
X125779670Y-113024871D01*
X125780103Y-113021790D01*
X125780373Y-113002433D01*
X125800090Y-112944512D01*
X125809359Y-112933810D01*
X131488674Y-107254496D01*
X131543191Y-107226719D01*
X131558678Y-107225500D01*
X139292322Y-107225500D01*
X139350513Y-107244407D01*
X139386477Y-107293907D01*
X139386477Y-107355093D01*
X139362326Y-107394504D01*
X137815016Y-108941815D01*
X137765596Y-108968648D01*
X137712429Y-108979949D01*
X137707695Y-108982057D01*
X137707691Y-108982058D01*
X137676860Y-108995785D01*
X137534701Y-109059078D01*
X137497316Y-109086240D01*
X137423191Y-109140095D01*
X137365000Y-109159002D01*
X137306809Y-109140095D01*
X137232684Y-109086240D01*
X137195299Y-109059078D01*
X137053140Y-108995785D01*
X137022309Y-108982058D01*
X137022305Y-108982057D01*
X137017571Y-108979949D01*
X137012501Y-108978871D01*
X137012500Y-108978871D01*
X136964404Y-108968648D01*
X136827274Y-108939500D01*
X136632726Y-108939500D01*
X136495596Y-108968648D01*
X136447500Y-108978871D01*
X136447499Y-108978871D01*
X136442429Y-108979949D01*
X136437695Y-108982057D01*
X136437691Y-108982058D01*
X136406860Y-108995785D01*
X136264701Y-109059078D01*
X136107308Y-109173431D01*
X136103842Y-109177281D01*
X136103838Y-109177284D01*
X136037596Y-109250854D01*
X135977130Y-109318008D01*
X135879856Y-109486492D01*
X135819738Y-109671518D01*
X135799402Y-109865000D01*
X135819738Y-110058482D01*
X135879856Y-110243508D01*
X135882449Y-110247999D01*
X135971167Y-110401663D01*
X135977130Y-110411992D01*
X135980602Y-110415848D01*
X135996727Y-110433757D01*
X136021613Y-110489653D01*
X136008891Y-110549501D01*
X135996727Y-110566243D01*
X135977130Y-110588008D01*
X135974538Y-110592498D01*
X135974537Y-110592499D01*
X135972348Y-110596290D01*
X135879856Y-110756492D01*
X135819738Y-110941518D01*
X135799402Y-111135000D01*
X135819738Y-111328482D01*
X135879856Y-111513508D01*
X135900102Y-111548575D01*
X135956190Y-111645722D01*
X135977130Y-111681992D01*
X135980602Y-111685848D01*
X136103838Y-111822716D01*
X136103842Y-111822719D01*
X136107308Y-111826569D01*
X136264701Y-111940922D01*
X136308755Y-111960536D01*
X136437691Y-112017942D01*
X136437695Y-112017943D01*
X136442429Y-112020051D01*
X136447499Y-112021129D01*
X136447500Y-112021129D01*
X136482042Y-112028471D01*
X136632726Y-112060500D01*
X136827274Y-112060500D01*
X136832348Y-112059422D01*
X136832353Y-112059421D01*
X136844845Y-112056766D01*
X136905695Y-112063163D01*
X136935430Y-112083599D01*
X137463601Y-112611770D01*
X137466471Y-112614763D01*
X137506884Y-112658712D01*
X137512620Y-112662268D01*
X137512623Y-112662271D01*
X137543039Y-112681129D01*
X137550722Y-112686409D01*
X137584604Y-112712127D01*
X137590879Y-112714612D01*
X137590882Y-112714613D01*
X137599714Y-112718110D01*
X137615433Y-112726015D01*
X137629250Y-112734582D01*
X137635728Y-112736464D01*
X137635730Y-112736465D01*
X137654364Y-112741879D01*
X137670114Y-112746455D01*
X137678920Y-112749470D01*
X137718472Y-112765129D01*
X137725185Y-112765835D01*
X137725191Y-112765836D01*
X137734635Y-112766829D01*
X137751904Y-112770217D01*
X137762529Y-112773304D01*
X137762535Y-112773305D01*
X137767512Y-112774751D01*
X137772682Y-112775131D01*
X137772684Y-112775131D01*
X137775911Y-112775368D01*
X137775918Y-112775368D01*
X137777712Y-112775500D01*
X137811953Y-112775500D01*
X137822299Y-112776042D01*
X137861661Y-112780179D01*
X137881131Y-112776886D01*
X137897640Y-112775500D01*
X143887314Y-112775500D01*
X143945505Y-112794407D01*
X143958528Y-112805729D01*
X144002550Y-112851314D01*
X144007179Y-112854343D01*
X144125560Y-112931809D01*
X144148132Y-112946580D01*
X144311202Y-113007226D01*
X144316688Y-113007958D01*
X144316692Y-113007959D01*
X144471759Y-113028649D01*
X144483656Y-113030236D01*
X144489161Y-113029735D01*
X144489164Y-113029735D01*
X144651412Y-113014969D01*
X144651416Y-113014968D01*
X144656923Y-113014467D01*
X144662184Y-113012758D01*
X144662187Y-113012757D01*
X144748605Y-112984678D01*
X144822390Y-112960704D01*
X144971833Y-112871618D01*
X145067853Y-112780179D01*
X145093814Y-112755457D01*
X145093816Y-112755455D01*
X145097826Y-112751636D01*
X145143037Y-112683589D01*
X145159565Y-112658712D01*
X145194107Y-112606722D01*
X145255889Y-112444079D01*
X145257036Y-112435923D01*
X145279670Y-112274871D01*
X145280103Y-112271790D01*
X145280257Y-112260781D01*
X145280364Y-112253116D01*
X145280364Y-112253108D01*
X145280407Y-112250000D01*
X145273693Y-112190145D01*
X145261630Y-112082599D01*
X145261629Y-112082596D01*
X145261013Y-112077102D01*
X145203796Y-111912797D01*
X145116812Y-111773593D01*
X145114532Y-111769944D01*
X145114531Y-111769943D01*
X145111600Y-111765252D01*
X145003201Y-111656093D01*
X144992902Y-111645722D01*
X144992901Y-111645721D01*
X144989006Y-111641799D01*
X144907094Y-111589816D01*
X144846778Y-111551538D01*
X144846773Y-111551536D01*
X144842108Y-111548575D01*
X144836900Y-111546721D01*
X144836897Y-111546719D01*
X144683416Y-111492067D01*
X144683417Y-111492067D01*
X144678207Y-111490212D01*
X144672720Y-111489558D01*
X144672717Y-111489557D01*
X144510944Y-111470267D01*
X144510941Y-111470267D01*
X144505448Y-111469612D01*
X144332419Y-111487798D01*
X144297593Y-111499654D01*
X144172955Y-111542084D01*
X144172951Y-111542086D01*
X144167719Y-111543867D01*
X144155250Y-111551538D01*
X144024248Y-111632130D01*
X144024246Y-111632132D01*
X144019533Y-111635031D01*
X144015580Y-111638902D01*
X143957036Y-111696233D01*
X143902232Y-111723438D01*
X143887769Y-111724500D01*
X140546560Y-111724500D01*
X140488369Y-111705593D01*
X140452405Y-111656093D01*
X140452405Y-111594907D01*
X140476556Y-111555496D01*
X142352556Y-109679496D01*
X142407073Y-109651719D01*
X142422560Y-109650500D01*
X156377373Y-109650500D01*
X156435564Y-109669407D01*
X156471528Y-109718907D01*
X156471528Y-109780093D01*
X156447377Y-109819504D01*
X154888230Y-111378651D01*
X154885237Y-111381521D01*
X154841288Y-111421934D01*
X154837731Y-111427671D01*
X154818874Y-111458084D01*
X154813592Y-111465769D01*
X154787872Y-111499654D01*
X154785389Y-111505925D01*
X154785388Y-111505927D01*
X154781888Y-111514767D01*
X154773979Y-111530492D01*
X154765418Y-111544300D01*
X154763536Y-111550778D01*
X154753550Y-111585148D01*
X154750530Y-111593968D01*
X154737356Y-111627244D01*
X154737355Y-111627247D01*
X154734871Y-111633522D01*
X154734165Y-111640235D01*
X154734164Y-111640241D01*
X154733171Y-111649685D01*
X154729783Y-111666954D01*
X154726696Y-111677579D01*
X154726695Y-111677585D01*
X154725249Y-111682562D01*
X154724500Y-111692762D01*
X154724500Y-111727004D01*
X154723958Y-111737350D01*
X154719821Y-111776712D01*
X154720946Y-111783362D01*
X154723114Y-111796181D01*
X154724500Y-111812691D01*
X154724500Y-113887515D01*
X154705593Y-113945706D01*
X154694768Y-113958246D01*
X154645228Y-114006760D01*
X154550980Y-114153004D01*
X154491475Y-114316493D01*
X154469669Y-114489104D01*
X154470209Y-114494612D01*
X154470209Y-114494614D01*
X154476751Y-114561327D01*
X154486647Y-114662256D01*
X154488393Y-114667504D01*
X154488393Y-114667505D01*
X154497233Y-114694079D01*
X154541564Y-114827343D01*
X154544429Y-114832074D01*
X154544431Y-114832078D01*
X154628825Y-114971429D01*
X154628828Y-114971433D01*
X154631692Y-114976162D01*
X154635534Y-114980141D01*
X154635536Y-114980143D01*
X154691037Y-115037616D01*
X154752550Y-115101314D01*
X154757179Y-115104343D01*
X154858469Y-115170625D01*
X154898132Y-115196580D01*
X155061202Y-115257226D01*
X155066688Y-115257958D01*
X155066692Y-115257959D01*
X155188080Y-115274155D01*
X155233656Y-115280236D01*
X155239161Y-115279735D01*
X155239164Y-115279735D01*
X155401412Y-115264969D01*
X155401416Y-115264968D01*
X155406923Y-115264467D01*
X155412184Y-115262758D01*
X155412187Y-115262757D01*
X155487793Y-115238191D01*
X155572390Y-115210704D01*
X155721833Y-115121618D01*
X155803048Y-115044278D01*
X155843814Y-115005457D01*
X155843816Y-115005455D01*
X155847826Y-115001636D01*
X155944107Y-114856722D01*
X156005889Y-114694079D01*
X156010362Y-114662256D01*
X156029670Y-114524871D01*
X156030103Y-114521790D01*
X156030407Y-114500000D01*
X156028569Y-114483612D01*
X156011630Y-114332599D01*
X156011629Y-114332596D01*
X156011013Y-114327102D01*
X155953796Y-114162797D01*
X155922826Y-114113234D01*
X155864531Y-114019942D01*
X155864529Y-114019940D01*
X155861600Y-114015252D01*
X155804251Y-113957502D01*
X155776665Y-113902889D01*
X155775500Y-113887744D01*
X155775500Y-112018727D01*
X155794407Y-111960536D01*
X155804496Y-111948723D01*
X156053220Y-111699999D01*
X156107737Y-111672222D01*
X156168169Y-111681793D01*
X156211434Y-111725058D01*
X156221751Y-111760342D01*
X156231320Y-111857932D01*
X156236647Y-111912256D01*
X156238393Y-111917504D01*
X156238393Y-111917505D01*
X156256285Y-111971290D01*
X156291564Y-112077343D01*
X156294429Y-112082074D01*
X156294431Y-112082078D01*
X156378825Y-112221429D01*
X156378828Y-112221433D01*
X156381692Y-112226162D01*
X156385534Y-112230141D01*
X156385536Y-112230143D01*
X156428730Y-112274871D01*
X156502550Y-112351314D01*
X156648132Y-112446580D01*
X156811202Y-112507226D01*
X156816688Y-112507958D01*
X156816692Y-112507959D01*
X156971759Y-112528649D01*
X156983656Y-112530236D01*
X156989161Y-112529735D01*
X156989164Y-112529735D01*
X157151412Y-112514969D01*
X157151416Y-112514968D01*
X157156923Y-112514467D01*
X157162184Y-112512758D01*
X157162187Y-112512757D01*
X157247614Y-112485000D01*
X157322390Y-112460704D01*
X157471833Y-112371618D01*
X157521673Y-112324156D01*
X157593814Y-112255457D01*
X157593816Y-112255455D01*
X157597826Y-112251636D01*
X157694107Y-112106722D01*
X157755889Y-111944079D01*
X157757874Y-111929960D01*
X157779670Y-111774871D01*
X157780103Y-111771790D01*
X157780407Y-111750000D01*
X157775426Y-111705593D01*
X157761630Y-111582599D01*
X157761629Y-111582596D01*
X157761013Y-111577102D01*
X157703796Y-111412797D01*
X157652093Y-111330054D01*
X157614531Y-111269942D01*
X157614529Y-111269940D01*
X157611600Y-111265252D01*
X157586030Y-111239503D01*
X157558442Y-111184890D01*
X157568225Y-111124492D01*
X157586274Y-111099740D01*
X157595870Y-111090145D01*
X157631519Y-111054496D01*
X157686036Y-111026719D01*
X157701522Y-111025500D01*
X159384360Y-111025500D01*
X159442551Y-111044407D01*
X159478515Y-111093907D01*
X159482579Y-111136908D01*
X159478536Y-111168912D01*
X159469669Y-111239104D01*
X159470209Y-111244612D01*
X159470209Y-111244614D01*
X159477124Y-111315132D01*
X159486647Y-111412256D01*
X159488393Y-111417504D01*
X159488393Y-111417505D01*
X159505506Y-111468947D01*
X159541564Y-111577343D01*
X159544429Y-111582074D01*
X159544431Y-111582078D01*
X159628825Y-111721429D01*
X159628828Y-111721433D01*
X159631692Y-111726162D01*
X159752550Y-111851314D01*
X159816683Y-111893281D01*
X159889486Y-111940922D01*
X159898132Y-111946580D01*
X160061202Y-112007226D01*
X160066688Y-112007958D01*
X160066692Y-112007959D01*
X160220428Y-112028471D01*
X160233656Y-112030236D01*
X160239161Y-112029735D01*
X160239164Y-112029735D01*
X160402000Y-112014915D01*
X160461665Y-112028471D01*
X160501967Y-112074507D01*
X160509500Y-112103840D01*
X160510276Y-112111756D01*
X160512022Y-112117004D01*
X160512022Y-112117005D01*
X160523736Y-112152219D01*
X160565193Y-112276843D01*
X160568058Y-112281574D01*
X160568060Y-112281578D01*
X160591299Y-112319949D01*
X160605271Y-112379518D01*
X160581561Y-112435923D01*
X160529225Y-112467618D01*
X160508360Y-112469959D01*
X160505448Y-112469612D01*
X160499948Y-112470190D01*
X160499945Y-112470190D01*
X160400038Y-112480691D01*
X160332419Y-112487798D01*
X160327181Y-112489581D01*
X160327182Y-112489581D01*
X160172955Y-112542084D01*
X160172951Y-112542086D01*
X160167719Y-112543867D01*
X160114577Y-112576560D01*
X160024248Y-112632130D01*
X160024246Y-112632132D01*
X160019533Y-112635031D01*
X159895228Y-112756760D01*
X159800980Y-112903004D01*
X159741475Y-113066493D01*
X159719669Y-113239104D01*
X159720209Y-113244612D01*
X159720209Y-113244614D01*
X159732357Y-113368504D01*
X159736647Y-113412256D01*
X159738393Y-113417504D01*
X159738393Y-113417505D01*
X159747055Y-113443544D01*
X159791564Y-113577343D01*
X159794429Y-113582074D01*
X159794431Y-113582078D01*
X159872330Y-113710704D01*
X159881692Y-113726162D01*
X159946716Y-113793496D01*
X159973537Y-113848487D01*
X159974500Y-113862265D01*
X159974500Y-114736123D01*
X159974413Y-114740269D01*
X159971913Y-114799919D01*
X159973454Y-114806491D01*
X159973455Y-114806497D01*
X159981626Y-114841333D01*
X159983326Y-114850503D01*
X159986690Y-114875062D01*
X159989099Y-114892646D01*
X159991780Y-114898841D01*
X159991780Y-114898842D01*
X159995553Y-114907562D01*
X160001078Y-114924268D01*
X160004790Y-114940093D01*
X160008042Y-114946008D01*
X160025287Y-114977378D01*
X160029389Y-114985752D01*
X160045040Y-115021918D01*
X160050799Y-115082832D01*
X160018482Y-115133958D01*
X160019533Y-115135031D01*
X159895228Y-115256760D01*
X159800980Y-115403004D01*
X159741475Y-115566493D01*
X159719669Y-115739104D01*
X159736647Y-115912256D01*
X159791564Y-116077343D01*
X159794429Y-116082074D01*
X159794431Y-116082078D01*
X159878825Y-116221429D01*
X159878828Y-116221433D01*
X159881692Y-116226162D01*
X159885534Y-116230141D01*
X159885536Y-116230143D01*
X159933586Y-116279900D01*
X160002550Y-116351314D01*
X160148132Y-116446580D01*
X160311202Y-116507226D01*
X160316688Y-116507958D01*
X160316692Y-116507959D01*
X160471759Y-116528649D01*
X160483656Y-116530236D01*
X160489164Y-116529735D01*
X160494705Y-116529851D01*
X160494663Y-116531854D01*
X160546101Y-116543545D01*
X160565404Y-116558573D01*
X161018601Y-117011770D01*
X161021471Y-117014763D01*
X161061884Y-117058712D01*
X161067620Y-117062268D01*
X161067623Y-117062271D01*
X161098039Y-117081129D01*
X161105722Y-117086409D01*
X161139604Y-117112127D01*
X161145879Y-117114612D01*
X161145882Y-117114613D01*
X161154714Y-117118110D01*
X161170433Y-117126015D01*
X161184250Y-117134582D01*
X161190728Y-117136464D01*
X161190730Y-117136465D01*
X161209364Y-117141879D01*
X161225114Y-117146455D01*
X161233920Y-117149470D01*
X161273472Y-117165129D01*
X161280185Y-117165835D01*
X161280191Y-117165836D01*
X161289635Y-117166829D01*
X161306904Y-117170217D01*
X161317529Y-117173304D01*
X161317535Y-117173305D01*
X161322512Y-117174751D01*
X161327682Y-117175131D01*
X161327684Y-117175131D01*
X161330911Y-117175368D01*
X161330918Y-117175368D01*
X161332712Y-117175500D01*
X161366953Y-117175500D01*
X161377299Y-117176042D01*
X161416661Y-117180179D01*
X161436131Y-117176886D01*
X161452640Y-117175500D01*
X171646123Y-117175500D01*
X171650269Y-117175587D01*
X171709919Y-117178087D01*
X171716491Y-117176546D01*
X171716497Y-117176545D01*
X171751333Y-117168374D01*
X171760503Y-117166674D01*
X171795960Y-117161817D01*
X171795961Y-117161817D01*
X171802646Y-117160901D01*
X171808841Y-117158220D01*
X171808842Y-117158220D01*
X171817562Y-117154447D01*
X171834268Y-117148922D01*
X171850093Y-117145210D01*
X171875892Y-117131027D01*
X171887378Y-117124713D01*
X171895752Y-117120611D01*
X171928586Y-117106402D01*
X171928587Y-117106401D01*
X171934783Y-117103720D01*
X171947415Y-117093492D01*
X171962015Y-117083680D01*
X171976263Y-117075847D01*
X171984005Y-117069164D01*
X172008219Y-117044950D01*
X172015912Y-117038023D01*
X172046675Y-117013112D01*
X172050589Y-117007605D01*
X172058113Y-116997018D01*
X172068807Y-116984362D01*
X172809673Y-116243496D01*
X172864190Y-116215719D01*
X172905298Y-116217873D01*
X173000925Y-116243496D01*
X173062846Y-116260088D01*
X173062848Y-116260088D01*
X173067023Y-116261207D01*
X173285000Y-116280277D01*
X173502977Y-116261207D01*
X173507152Y-116260088D01*
X173507154Y-116260088D01*
X173672740Y-116215719D01*
X173714330Y-116204575D01*
X173912639Y-116112102D01*
X174091877Y-115986598D01*
X174246598Y-115831877D01*
X174372102Y-115652638D01*
X174405462Y-115581098D01*
X174447188Y-115536353D01*
X174507249Y-115524678D01*
X174562702Y-115550536D01*
X174586910Y-115585693D01*
X174607185Y-115635624D01*
X174610840Y-115642860D01*
X174723266Y-115826322D01*
X174728056Y-115832867D01*
X174868935Y-115995502D01*
X174874729Y-116001176D01*
X175040292Y-116138629D01*
X175046921Y-116143270D01*
X175232713Y-116251838D01*
X175240008Y-116255334D01*
X175441038Y-116332099D01*
X175448808Y-116334357D01*
X175555637Y-116356091D01*
X175568846Y-116354586D01*
X175571000Y-116346405D01*
X175571000Y-111165667D01*
X175566878Y-111152982D01*
X175565877Y-111152254D01*
X175559549Y-111151739D01*
X175513220Y-111158829D01*
X175505348Y-111160705D01*
X175300807Y-111227558D01*
X175293350Y-111230693D01*
X175102479Y-111330054D01*
X175095627Y-111334369D01*
X174923544Y-111463573D01*
X174917491Y-111468947D01*
X174768830Y-111624513D01*
X174763727Y-111630814D01*
X174642466Y-111808575D01*
X174638468Y-111815613D01*
X174585470Y-111929789D01*
X174543820Y-111974610D01*
X174483780Y-111986390D01*
X174428282Y-111960629D01*
X174405949Y-111929947D01*
X174397952Y-111912797D01*
X174372102Y-111857362D01*
X174352674Y-111829615D01*
X174314341Y-111774871D01*
X174246598Y-111678123D01*
X174091877Y-111523402D01*
X173968347Y-111436905D01*
X173916184Y-111400380D01*
X173916182Y-111400379D01*
X173912639Y-111397898D01*
X173714330Y-111305425D01*
X173581906Y-111269942D01*
X173507154Y-111249912D01*
X173507152Y-111249912D01*
X173502977Y-111248793D01*
X173285000Y-111229723D01*
X173067023Y-111248793D01*
X173062848Y-111249912D01*
X173062846Y-111249912D01*
X173012625Y-111263369D01*
X172905299Y-111292127D01*
X172844199Y-111288925D01*
X172809673Y-111266504D01*
X171362673Y-109819504D01*
X171334896Y-109764987D01*
X171344467Y-109704555D01*
X171387732Y-109661290D01*
X171432677Y-109650500D01*
X176510513Y-109650500D01*
X176519829Y-109650939D01*
X176524715Y-109651401D01*
X176530796Y-109652760D01*
X176601144Y-109650549D01*
X176604254Y-109650500D01*
X176633425Y-109650500D01*
X176638969Y-109649800D01*
X176648261Y-109649068D01*
X176666822Y-109648485D01*
X176688845Y-109647793D01*
X176688848Y-109647793D01*
X176695069Y-109647597D01*
X176701047Y-109645860D01*
X176701054Y-109645859D01*
X176717335Y-109641129D01*
X176732545Y-109637979D01*
X176749373Y-109635853D01*
X176749379Y-109635852D01*
X176755558Y-109635071D01*
X176799118Y-109617824D01*
X176807926Y-109614809D01*
X176812415Y-109613505D01*
X176852898Y-109601744D01*
X176858262Y-109598572D01*
X176858264Y-109598571D01*
X176872858Y-109589940D01*
X176886807Y-109583106D01*
X176908371Y-109574568D01*
X176913409Y-109570908D01*
X176913412Y-109570906D01*
X176946257Y-109547043D01*
X176954054Y-109541921D01*
X176989004Y-109521252D01*
X176989007Y-109521250D01*
X176994365Y-109518081D01*
X177010764Y-109501682D01*
X177022577Y-109491593D01*
X177036301Y-109481622D01*
X177036302Y-109481621D01*
X177041337Y-109477963D01*
X177045303Y-109473169D01*
X177045306Y-109473166D01*
X177071184Y-109441884D01*
X177077461Y-109434985D01*
X177545496Y-108966950D01*
X177600013Y-108939173D01*
X177660445Y-108948744D01*
X177703710Y-108992009D01*
X177714500Y-109036954D01*
X177714500Y-111362370D01*
X177695593Y-111420561D01*
X177672285Y-111443465D01*
X177558123Y-111523402D01*
X177403402Y-111678123D01*
X177335659Y-111774871D01*
X177297327Y-111829615D01*
X177277898Y-111857362D01*
X177252048Y-111912797D01*
X177244045Y-111929960D01*
X177202317Y-111974708D01*
X177142256Y-111986383D01*
X177086803Y-111960525D01*
X177063532Y-111927597D01*
X177027534Y-111844807D01*
X177023701Y-111837660D01*
X176906826Y-111656997D01*
X176901880Y-111650575D01*
X176757065Y-111491426D01*
X176751139Y-111485899D01*
X176582269Y-111352534D01*
X176575525Y-111348054D01*
X176387141Y-111244060D01*
X176379749Y-111240738D01*
X176176920Y-111168912D01*
X176169081Y-111166841D01*
X176094436Y-111153545D01*
X176081226Y-111155378D01*
X176080805Y-111155782D01*
X176079000Y-111162996D01*
X176079000Y-116345952D01*
X176083122Y-116358637D01*
X176084650Y-116359748D01*
X176089884Y-116360238D01*
X176104291Y-116358392D01*
X176112200Y-116356710D01*
X176318304Y-116294876D01*
X176325852Y-116291918D01*
X176519087Y-116197253D01*
X176526046Y-116193104D01*
X176701231Y-116068148D01*
X176707412Y-116062924D01*
X176859831Y-115911035D01*
X176865088Y-115904858D01*
X176990651Y-115730119D01*
X176994823Y-115723176D01*
X177066053Y-115579053D01*
X177108786Y-115535263D01*
X177169097Y-115524954D01*
X177223948Y-115552064D01*
X177244529Y-115581077D01*
X177277898Y-115652638D01*
X177403402Y-115831877D01*
X177558123Y-115986598D01*
X177737361Y-116112102D01*
X177935670Y-116204575D01*
X177977260Y-116215719D01*
X178142846Y-116260088D01*
X178142848Y-116260088D01*
X178147023Y-116261207D01*
X178365000Y-116280277D01*
X178582977Y-116261207D01*
X178587152Y-116260088D01*
X178587154Y-116260088D01*
X178752740Y-116215719D01*
X178794330Y-116204575D01*
X178992639Y-116112102D01*
X179171877Y-115986598D01*
X179326598Y-115831877D01*
X179452102Y-115652638D01*
X179544575Y-115454330D01*
X179590055Y-115284597D01*
X179600088Y-115247154D01*
X179600088Y-115247152D01*
X179601207Y-115242977D01*
X179620277Y-115025000D01*
X179601207Y-114807023D01*
X179599304Y-114799919D01*
X179545693Y-114599843D01*
X179544575Y-114595670D01*
X179452102Y-114397362D01*
X179326598Y-114218123D01*
X179171877Y-114063402D01*
X179057716Y-113983465D01*
X179020894Y-113934600D01*
X179015500Y-113902369D01*
X179015500Y-113607631D01*
X179034407Y-113549440D01*
X179057716Y-113526535D01*
X179099863Y-113497023D01*
X179171877Y-113446598D01*
X179326598Y-113291877D01*
X179452102Y-113112638D01*
X179544575Y-112914330D01*
X179581629Y-112776042D01*
X179600088Y-112707154D01*
X179600088Y-112707152D01*
X179601207Y-112702977D01*
X179620277Y-112485000D01*
X179601207Y-112267023D01*
X179598130Y-112255537D01*
X179555052Y-112094771D01*
X179544575Y-112055670D01*
X179495235Y-111949860D01*
X181627266Y-111949860D01*
X181634086Y-111957084D01*
X181801541Y-112054937D01*
X181808836Y-112058433D01*
X182012939Y-112136371D01*
X182020709Y-112138629D01*
X182234798Y-112182186D01*
X182242841Y-112183145D01*
X182461171Y-112191151D01*
X182469247Y-112190785D01*
X182685963Y-112163022D01*
X182693872Y-112161340D01*
X182903127Y-112098561D01*
X182910675Y-112095603D01*
X183106863Y-111999492D01*
X183113822Y-111995343D01*
X183168070Y-111956650D01*
X183176003Y-111945929D01*
X183176010Y-111945064D01*
X183172395Y-111939106D01*
X182413586Y-111180296D01*
X182401703Y-111174242D01*
X182396672Y-111175038D01*
X181632890Y-111938821D01*
X181627266Y-111949860D01*
X179495235Y-111949860D01*
X179452102Y-111857362D01*
X179432674Y-111829615D01*
X179394341Y-111774871D01*
X179326598Y-111678123D01*
X179171877Y-111523402D01*
X179057716Y-111443465D01*
X179020894Y-111394600D01*
X179015500Y-111362369D01*
X179015500Y-110780269D01*
X181020424Y-110780269D01*
X181033001Y-110998389D01*
X181034126Y-111006395D01*
X181082157Y-111219526D01*
X181084580Y-111227260D01*
X181166771Y-111429671D01*
X181170425Y-111436905D01*
X181255688Y-111576040D01*
X181265374Y-111584313D01*
X181273560Y-111579729D01*
X182032204Y-110821086D01*
X182037446Y-110810797D01*
X182766742Y-110810797D01*
X182767538Y-110815828D01*
X183529032Y-111577321D01*
X183540915Y-111583375D01*
X183541862Y-111583225D01*
X183547030Y-111578787D01*
X183585354Y-111525455D01*
X183589526Y-111518512D01*
X183686323Y-111322656D01*
X183689303Y-111315132D01*
X183752815Y-111106088D01*
X183754525Y-111098175D01*
X183783227Y-110880165D01*
X183783637Y-110874901D01*
X183785158Y-110812641D01*
X183785007Y-110807371D01*
X183766989Y-110588212D01*
X183765667Y-110580226D01*
X183712445Y-110368342D01*
X183709832Y-110360666D01*
X183622721Y-110160323D01*
X183618888Y-110153176D01*
X183548705Y-110044688D01*
X183538515Y-110036407D01*
X183530940Y-110040771D01*
X182772796Y-110798914D01*
X182766742Y-110810797D01*
X182037446Y-110810797D01*
X182038258Y-110809203D01*
X182037462Y-110804172D01*
X181276229Y-110042940D01*
X181264346Y-110036886D01*
X181264047Y-110036933D01*
X181258121Y-110042148D01*
X181202516Y-110123662D01*
X181198518Y-110130700D01*
X181106537Y-110328857D01*
X181103736Y-110336470D01*
X181045355Y-110546987D01*
X181043837Y-110554945D01*
X181020622Y-110772178D01*
X181020424Y-110780269D01*
X179015500Y-110780269D01*
X179015500Y-107537954D01*
X179034407Y-107479763D01*
X179044496Y-107467950D01*
X180967862Y-105544584D01*
X181022379Y-105516807D01*
X181082811Y-105526378D01*
X181126076Y-105569643D01*
X181136489Y-105623216D01*
X181127147Y-105730000D01*
X181146522Y-105951463D01*
X181204060Y-106166196D01*
X181298012Y-106367676D01*
X181300493Y-106371219D01*
X181300494Y-106371221D01*
X181311097Y-106386363D01*
X181425523Y-106549781D01*
X181582719Y-106706977D01*
X181659012Y-106760398D01*
X181745435Y-106820912D01*
X181764823Y-106834488D01*
X181897817Y-106896504D01*
X181927351Y-106910276D01*
X181972099Y-106952004D01*
X181983774Y-107012065D01*
X181957916Y-107067518D01*
X181927350Y-107089724D01*
X181764824Y-107165512D01*
X181582719Y-107293023D01*
X181425523Y-107450219D01*
X181298012Y-107632324D01*
X181204060Y-107833804D01*
X181146522Y-108048537D01*
X181127147Y-108270000D01*
X181146522Y-108491463D01*
X181147641Y-108495637D01*
X181147641Y-108495640D01*
X181172400Y-108588041D01*
X181204060Y-108706196D01*
X181298012Y-108907676D01*
X181300493Y-108911219D01*
X181300494Y-108911221D01*
X181310492Y-108925500D01*
X181425523Y-109089781D01*
X181582719Y-109246977D01*
X181764823Y-109374488D01*
X181799577Y-109390694D01*
X181844323Y-109432421D01*
X181855998Y-109492482D01*
X181830140Y-109547935D01*
X181803449Y-109568231D01*
X181669283Y-109638073D01*
X181662431Y-109642389D01*
X181635942Y-109662277D01*
X181628273Y-109673190D01*
X181628297Y-109674708D01*
X181631408Y-109679697D01*
X182391414Y-110439704D01*
X182403297Y-110445758D01*
X182408328Y-110444962D01*
X183171855Y-109681434D01*
X183177909Y-109669551D01*
X183177570Y-109667411D01*
X183174535Y-109663710D01*
X183170874Y-109660818D01*
X183164131Y-109656338D01*
X183001065Y-109566321D01*
X182959259Y-109521646D01*
X182951696Y-109460930D01*
X182981266Y-109407364D01*
X183007070Y-109389926D01*
X183017567Y-109385031D01*
X183040177Y-109374488D01*
X183222281Y-109246977D01*
X183379477Y-109089781D01*
X183494508Y-108925500D01*
X183504506Y-108911221D01*
X183504507Y-108911219D01*
X183506988Y-108907676D01*
X183600940Y-108706196D01*
X183632600Y-108588041D01*
X183657359Y-108495640D01*
X183657359Y-108495637D01*
X183658478Y-108491463D01*
X183677853Y-108270000D01*
X183658478Y-108048537D01*
X183626300Y-107928447D01*
X183611703Y-107873970D01*
X183614906Y-107812869D01*
X183637326Y-107778343D01*
X184611770Y-106803899D01*
X184614763Y-106801029D01*
X184629948Y-106787066D01*
X184658712Y-106760616D01*
X184681127Y-106724465D01*
X184686409Y-106716779D01*
X184708048Y-106688270D01*
X184712128Y-106682895D01*
X184714611Y-106676623D01*
X184714613Y-106676620D01*
X184718112Y-106667782D01*
X184726018Y-106652063D01*
X184731024Y-106643988D01*
X184734582Y-106638250D01*
X184746449Y-106597404D01*
X184749470Y-106588580D01*
X184762646Y-106555300D01*
X184765130Y-106549027D01*
X184766828Y-106532868D01*
X184770218Y-106515590D01*
X184773303Y-106504973D01*
X184773304Y-106504970D01*
X184774751Y-106499988D01*
X184775500Y-106489788D01*
X184775500Y-106455556D01*
X184776042Y-106445208D01*
X184776769Y-106438296D01*
X184780180Y-106405838D01*
X184776886Y-106386362D01*
X184775500Y-106369853D01*
X184775500Y-95513867D01*
X184775587Y-95509721D01*
X184777804Y-95456829D01*
X184778087Y-95450081D01*
X184768374Y-95408666D01*
X184766676Y-95399507D01*
X184766308Y-95396821D01*
X184766355Y-95369609D01*
X184780103Y-95271790D01*
X184780407Y-95250000D01*
X184768469Y-95143568D01*
X184761630Y-95082599D01*
X184761629Y-95082596D01*
X184761013Y-95077102D01*
X184703796Y-94912797D01*
X184657698Y-94839025D01*
X184614532Y-94769944D01*
X184614531Y-94769943D01*
X184611600Y-94765252D01*
X184489006Y-94641799D01*
X184370144Y-94566367D01*
X184331143Y-94519222D01*
X184327301Y-94458158D01*
X184353187Y-94412774D01*
X192061770Y-86704191D01*
X192064763Y-86701321D01*
X192103744Y-86665476D01*
X192108712Y-86660908D01*
X192131127Y-86624757D01*
X192136409Y-86617071D01*
X192158048Y-86588562D01*
X192162128Y-86583187D01*
X192164611Y-86576915D01*
X192164613Y-86576912D01*
X192168112Y-86568074D01*
X192176018Y-86552355D01*
X192181024Y-86544280D01*
X192184582Y-86538542D01*
X192196449Y-86497696D01*
X192199470Y-86488872D01*
X192212646Y-86455592D01*
X192215130Y-86449319D01*
X192216828Y-86433160D01*
X192220218Y-86415882D01*
X192223303Y-86405265D01*
X192223304Y-86405262D01*
X192224751Y-86400280D01*
X192225500Y-86390080D01*
X192225500Y-86355848D01*
X192226042Y-86345500D01*
X192229475Y-86312838D01*
X192230180Y-86306130D01*
X192226886Y-86286654D01*
X192225500Y-86270144D01*
X192225500Y-76963877D01*
X192225587Y-76959731D01*
X192227804Y-76906829D01*
X192228087Y-76900081D01*
X192226546Y-76893509D01*
X192226545Y-76893503D01*
X192218374Y-76858667D01*
X192216674Y-76849497D01*
X192211817Y-76814040D01*
X192211817Y-76814039D01*
X192210901Y-76807354D01*
X192208220Y-76801158D01*
X192204447Y-76792438D01*
X192198921Y-76775730D01*
X192196751Y-76766479D01*
X192195210Y-76759907D01*
X192174714Y-76722625D01*
X192170613Y-76714254D01*
X192156400Y-76681409D01*
X192156398Y-76681406D01*
X192153720Y-76675217D01*
X192143495Y-76662590D01*
X192133681Y-76647985D01*
X192125848Y-76633738D01*
X192119165Y-76625995D01*
X192094950Y-76601780D01*
X192088016Y-76594079D01*
X192067358Y-76568568D01*
X192067357Y-76568567D01*
X192063112Y-76563325D01*
X192047023Y-76551891D01*
X192034368Y-76541198D01*
X191059128Y-75565959D01*
X191031351Y-75511442D01*
X191030379Y-75502036D01*
X191030407Y-75500000D01*
X191011013Y-75327102D01*
X190953796Y-75162797D01*
X190873816Y-75034801D01*
X190864532Y-75019944D01*
X190864531Y-75019943D01*
X190861600Y-75015252D01*
X190791594Y-74944755D01*
X190764007Y-74890141D01*
X190773790Y-74829743D01*
X190793569Y-74803305D01*
X190847826Y-74751636D01*
X190851233Y-74746509D01*
X190934308Y-74621471D01*
X190944107Y-74606722D01*
X191005889Y-74444079D01*
X191008940Y-74422376D01*
X191029670Y-74274871D01*
X191030103Y-74271790D01*
X191030407Y-74250000D01*
X191027636Y-74225297D01*
X191011630Y-74082599D01*
X191011629Y-74082596D01*
X191011013Y-74077102D01*
X190953796Y-73912797D01*
X190861600Y-73765252D01*
X190739006Y-73641799D01*
X190683101Y-73606321D01*
X190596778Y-73551538D01*
X190596773Y-73551536D01*
X190592108Y-73548575D01*
X190586900Y-73546721D01*
X190586897Y-73546719D01*
X190433416Y-73492067D01*
X190433417Y-73492067D01*
X190428207Y-73490212D01*
X190422720Y-73489558D01*
X190422717Y-73489557D01*
X190260944Y-73470267D01*
X190260941Y-73470267D01*
X190255448Y-73469612D01*
X190082419Y-73487798D01*
X190077181Y-73489581D01*
X190077182Y-73489581D01*
X189922955Y-73542084D01*
X189922951Y-73542086D01*
X189917719Y-73543867D01*
X189913007Y-73546766D01*
X189774248Y-73632130D01*
X189774246Y-73632132D01*
X189769533Y-73635031D01*
X189645228Y-73756760D01*
X189550980Y-73903004D01*
X189491475Y-74066493D01*
X189469669Y-74239104D01*
X189470209Y-74244610D01*
X189470175Y-74247023D01*
X189450456Y-74304943D01*
X189441189Y-74315642D01*
X189138230Y-74618601D01*
X189135237Y-74621471D01*
X189091288Y-74661884D01*
X189087731Y-74667621D01*
X189068874Y-74698034D01*
X189063592Y-74705719D01*
X189037872Y-74739604D01*
X189035389Y-74745875D01*
X189035388Y-74745877D01*
X189031888Y-74754717D01*
X189023979Y-74770442D01*
X189015418Y-74784250D01*
X189013536Y-74790728D01*
X189003550Y-74825098D01*
X189000530Y-74833918D01*
X188987356Y-74867194D01*
X188987355Y-74867197D01*
X188984871Y-74873472D01*
X188984165Y-74880185D01*
X188984164Y-74880191D01*
X188983171Y-74889635D01*
X188979783Y-74906904D01*
X188976696Y-74917529D01*
X188976695Y-74917535D01*
X188975249Y-74922512D01*
X188974500Y-74932712D01*
X188974500Y-74966954D01*
X188973958Y-74977300D01*
X188969821Y-75016662D01*
X188970946Y-75023312D01*
X188973114Y-75036131D01*
X188974500Y-75052641D01*
X188974500Y-79866322D01*
X188955593Y-79924513D01*
X188945504Y-79936326D01*
X179769005Y-89112825D01*
X179714488Y-89140602D01*
X179654056Y-89131031D01*
X179610791Y-89087766D01*
X179600001Y-89042821D01*
X179600001Y-78781488D01*
X179600440Y-78772172D01*
X179600902Y-78767286D01*
X179602261Y-78761205D01*
X179600050Y-78690843D01*
X179600001Y-78687734D01*
X179600001Y-78658576D01*
X179599302Y-78653040D01*
X179598570Y-78643742D01*
X179597295Y-78603159D01*
X179597295Y-78603157D01*
X179597099Y-78596932D01*
X179590627Y-78574655D01*
X179587479Y-78559451D01*
X179585353Y-78542622D01*
X179585352Y-78542619D01*
X179584572Y-78536443D01*
X179581744Y-78529299D01*
X179570199Y-78500141D01*
X179567332Y-78492900D01*
X179564312Y-78484077D01*
X179552985Y-78445087D01*
X179552983Y-78445083D01*
X179551246Y-78439103D01*
X179539438Y-78419137D01*
X179532606Y-78405192D01*
X179524069Y-78383630D01*
X179496546Y-78345747D01*
X179491426Y-78337953D01*
X179484431Y-78326126D01*
X179467582Y-78297636D01*
X179451183Y-78281237D01*
X179441094Y-78269424D01*
X179431123Y-78255700D01*
X179431122Y-78255699D01*
X179427464Y-78250664D01*
X179422670Y-78246698D01*
X179422667Y-78246695D01*
X179391385Y-78220817D01*
X179384486Y-78214540D01*
X177464374Y-76294428D01*
X180474102Y-76294428D01*
X180479098Y-76299424D01*
X180610274Y-76348208D01*
X180620953Y-76350871D01*
X180778539Y-76371897D01*
X180789533Y-76372128D01*
X180947872Y-76357717D01*
X180958642Y-76355507D01*
X181109849Y-76306377D01*
X181118334Y-76302527D01*
X181125424Y-76294428D01*
X181874102Y-76294428D01*
X181879098Y-76299424D01*
X182010274Y-76348208D01*
X182020953Y-76350871D01*
X182178539Y-76371897D01*
X182189533Y-76372128D01*
X182347872Y-76357717D01*
X182358642Y-76355507D01*
X182509849Y-76306377D01*
X182518334Y-76302527D01*
X182526192Y-76293551D01*
X182521503Y-76285056D01*
X182211086Y-75974639D01*
X182199203Y-75968585D01*
X182194172Y-75969381D01*
X181879273Y-76284280D01*
X181874102Y-76294428D01*
X181125424Y-76294428D01*
X181126192Y-76293551D01*
X181121503Y-76285056D01*
X180811086Y-75974639D01*
X180799203Y-75968585D01*
X180794172Y-75969381D01*
X180479273Y-76284280D01*
X180474102Y-76294428D01*
X177464374Y-76294428D01*
X176764374Y-75594428D01*
X179774102Y-75594428D01*
X179779098Y-75599424D01*
X179910274Y-75648208D01*
X179920954Y-75650871D01*
X179966160Y-75656902D01*
X180021340Y-75683338D01*
X180050441Y-75737160D01*
X180051596Y-75745371D01*
X180053334Y-75763092D01*
X180055619Y-75773841D01*
X180105804Y-75924704D01*
X180108089Y-75929650D01*
X180116150Y-75936608D01*
X180124470Y-75931977D01*
X180435361Y-75621086D01*
X180440603Y-75610797D01*
X181158585Y-75610797D01*
X181159381Y-75615828D01*
X181473904Y-75930351D01*
X181486638Y-75936839D01*
X181505739Y-75936138D01*
X181515519Y-75936959D01*
X181524470Y-75931977D01*
X181835361Y-75621086D01*
X181840603Y-75610797D01*
X182558585Y-75610797D01*
X182559381Y-75615828D01*
X182873904Y-75930351D01*
X182884052Y-75935522D01*
X182889188Y-75930386D01*
X182936868Y-75804868D01*
X182939599Y-75794230D01*
X182946710Y-75743633D01*
X182973533Y-75688640D01*
X183027556Y-75659915D01*
X183035776Y-75658818D01*
X183047872Y-75657717D01*
X183058642Y-75655507D01*
X183209849Y-75606377D01*
X183218334Y-75602527D01*
X183226192Y-75593551D01*
X183221503Y-75585056D01*
X182911086Y-75274639D01*
X182899203Y-75268585D01*
X182894172Y-75269381D01*
X182564639Y-75598914D01*
X182558585Y-75610797D01*
X181840603Y-75610797D01*
X181841415Y-75609203D01*
X181840619Y-75604172D01*
X181511086Y-75274639D01*
X181499203Y-75268585D01*
X181494172Y-75269381D01*
X181164639Y-75598914D01*
X181158585Y-75610797D01*
X180440603Y-75610797D01*
X180441415Y-75609203D01*
X180440619Y-75604172D01*
X180111086Y-75274639D01*
X180099203Y-75268585D01*
X180094172Y-75269381D01*
X179779273Y-75584280D01*
X179774102Y-75594428D01*
X176764374Y-75594428D01*
X176565628Y-75395682D01*
X176537249Y-75336712D01*
X176536164Y-75327033D01*
X176536163Y-75327029D01*
X176535546Y-75321528D01*
X176503551Y-75229650D01*
X176478305Y-75157153D01*
X176478305Y-75157152D01*
X176476485Y-75151927D01*
X176414444Y-75052641D01*
X176384247Y-75004315D01*
X176384245Y-75004313D01*
X176381316Y-74999625D01*
X176298102Y-74915828D01*
X176287209Y-74904859D01*
X179337818Y-74904859D01*
X179353333Y-75063086D01*
X179355619Y-75073843D01*
X179405804Y-75224704D01*
X179408089Y-75229650D01*
X179416150Y-75236608D01*
X179424470Y-75231977D01*
X179735361Y-74921086D01*
X179740603Y-74910797D01*
X180458585Y-74910797D01*
X180459381Y-74915828D01*
X180788914Y-75245361D01*
X180800797Y-75251415D01*
X180805828Y-75250619D01*
X181135361Y-74921086D01*
X181140603Y-74910797D01*
X181858585Y-74910797D01*
X181859381Y-74915828D01*
X182188914Y-75245361D01*
X182200797Y-75251415D01*
X182205828Y-75250619D01*
X182535361Y-74921086D01*
X182540603Y-74910797D01*
X183258585Y-74910797D01*
X183259381Y-74915828D01*
X183573904Y-75230351D01*
X183584052Y-75235522D01*
X183589188Y-75230386D01*
X183636868Y-75104868D01*
X183639601Y-75094222D01*
X183662065Y-74934384D01*
X183662542Y-74928185D01*
X183662753Y-74913117D01*
X183662449Y-74906904D01*
X183644457Y-74746509D01*
X183642018Y-74735772D01*
X183590338Y-74587369D01*
X183584521Y-74582489D01*
X183576557Y-74586996D01*
X183264639Y-74898914D01*
X183258585Y-74910797D01*
X182540603Y-74910797D01*
X182541415Y-74909203D01*
X182540619Y-74904172D01*
X182211086Y-74574639D01*
X182199203Y-74568585D01*
X182194172Y-74569381D01*
X181864639Y-74898914D01*
X181858585Y-74910797D01*
X181140603Y-74910797D01*
X181141415Y-74909203D01*
X181140619Y-74904172D01*
X180811086Y-74574639D01*
X180799203Y-74568585D01*
X180794172Y-74569381D01*
X180464639Y-74898914D01*
X180458585Y-74910797D01*
X179740603Y-74910797D01*
X179741415Y-74909203D01*
X179740619Y-74904172D01*
X179425313Y-74588866D01*
X179415165Y-74583695D01*
X179410305Y-74588555D01*
X179360485Y-74725435D01*
X179357898Y-74736129D01*
X179337972Y-74893858D01*
X179337818Y-74904859D01*
X176287209Y-74904859D01*
X176258671Y-74876121D01*
X176258669Y-74876120D01*
X176254770Y-74872193D01*
X176246893Y-74867194D01*
X176107810Y-74778929D01*
X176107809Y-74778928D01*
X176103136Y-74775963D01*
X176051775Y-74757674D01*
X175985936Y-74734230D01*
X175933951Y-74715719D01*
X175928464Y-74715065D01*
X175928461Y-74715064D01*
X175761120Y-74695110D01*
X175761117Y-74695110D01*
X175755624Y-74694455D01*
X175577017Y-74713227D01*
X175571777Y-74715011D01*
X175571776Y-74715011D01*
X175412249Y-74769318D01*
X175412245Y-74769320D01*
X175407007Y-74771103D01*
X175402297Y-74774001D01*
X175402292Y-74774003D01*
X175293705Y-74840807D01*
X175254045Y-74865206D01*
X175125732Y-74990859D01*
X175107966Y-75018427D01*
X175060554Y-75057096D01*
X174999464Y-75060513D01*
X174954747Y-75034801D01*
X174145243Y-74225297D01*
X179772657Y-74225297D01*
X179777525Y-74233972D01*
X180088914Y-74545361D01*
X180100797Y-74551415D01*
X180105828Y-74550619D01*
X180435361Y-74221086D01*
X180440603Y-74210797D01*
X181158585Y-74210797D01*
X181159381Y-74215828D01*
X181488914Y-74545361D01*
X181500797Y-74551415D01*
X181505828Y-74550619D01*
X181835361Y-74221086D01*
X181840603Y-74210797D01*
X182558585Y-74210797D01*
X182559381Y-74215828D01*
X182888914Y-74545361D01*
X182900797Y-74551415D01*
X182905828Y-74550619D01*
X183221573Y-74234874D01*
X183227627Y-74222991D01*
X183227244Y-74220570D01*
X183226433Y-74196110D01*
X183226599Y-74194287D01*
X183221503Y-74185056D01*
X182911086Y-73874639D01*
X182899203Y-73868585D01*
X182894172Y-73869381D01*
X182564639Y-74198914D01*
X182558585Y-74210797D01*
X181840603Y-74210797D01*
X181841415Y-74209203D01*
X181840619Y-74204172D01*
X181511086Y-73874639D01*
X181499203Y-73868585D01*
X181494172Y-73869381D01*
X181164639Y-74198914D01*
X181158585Y-74210797D01*
X180440603Y-74210797D01*
X180441415Y-74209203D01*
X180440619Y-74204172D01*
X180111086Y-73874639D01*
X180099203Y-73868585D01*
X180094172Y-73869381D01*
X179779273Y-74184280D01*
X179772743Y-74197097D01*
X179773457Y-74214898D01*
X179772657Y-74225297D01*
X174145243Y-74225297D01*
X173424805Y-73504859D01*
X179337818Y-73504859D01*
X179353333Y-73663086D01*
X179355619Y-73673843D01*
X179405804Y-73824704D01*
X179408089Y-73829650D01*
X179416150Y-73836608D01*
X179424470Y-73831977D01*
X179735361Y-73521086D01*
X179740603Y-73510797D01*
X180458585Y-73510797D01*
X180459381Y-73515828D01*
X180788914Y-73845361D01*
X180800797Y-73851415D01*
X180805828Y-73850619D01*
X181135361Y-73521086D01*
X181140603Y-73510797D01*
X181858585Y-73510797D01*
X181859381Y-73515828D01*
X182188914Y-73845361D01*
X182200797Y-73851415D01*
X182205828Y-73850619D01*
X182535361Y-73521086D01*
X182540603Y-73510797D01*
X183258585Y-73510797D01*
X183259381Y-73515828D01*
X183573904Y-73830351D01*
X183584052Y-73835522D01*
X183589188Y-73830386D01*
X183636868Y-73704868D01*
X183639601Y-73694222D01*
X183662065Y-73534384D01*
X183662542Y-73528185D01*
X183662753Y-73513117D01*
X183662449Y-73506905D01*
X183644457Y-73346509D01*
X183642018Y-73335772D01*
X183590338Y-73187369D01*
X183584521Y-73182489D01*
X183576557Y-73186996D01*
X183264639Y-73498914D01*
X183258585Y-73510797D01*
X182540603Y-73510797D01*
X182541415Y-73509203D01*
X182540619Y-73504172D01*
X182211086Y-73174639D01*
X182199203Y-73168585D01*
X182194172Y-73169381D01*
X181864639Y-73498914D01*
X181858585Y-73510797D01*
X181140603Y-73510797D01*
X181141415Y-73509203D01*
X181140619Y-73504172D01*
X180811086Y-73174639D01*
X180799203Y-73168585D01*
X180794172Y-73169381D01*
X180464639Y-73498914D01*
X180458585Y-73510797D01*
X179740603Y-73510797D01*
X179741415Y-73509203D01*
X179740619Y-73504172D01*
X179425313Y-73188866D01*
X179415165Y-73183695D01*
X179410305Y-73188555D01*
X179360485Y-73325435D01*
X179357898Y-73336129D01*
X179337972Y-73493858D01*
X179337818Y-73504859D01*
X173424805Y-73504859D01*
X172745772Y-72825826D01*
X179772954Y-72825826D01*
X179777525Y-72833972D01*
X180088914Y-73145361D01*
X180100797Y-73151415D01*
X180105828Y-73150619D01*
X180435361Y-72821086D01*
X180440603Y-72810797D01*
X181158585Y-72810797D01*
X181159381Y-72815828D01*
X181488914Y-73145361D01*
X181500797Y-73151415D01*
X181505828Y-73150619D01*
X181835361Y-72821086D01*
X181840603Y-72810797D01*
X182558585Y-72810797D01*
X182559381Y-72815828D01*
X182888914Y-73145361D01*
X182900797Y-73151415D01*
X182905828Y-73150619D01*
X183221573Y-72834874D01*
X183226744Y-72824726D01*
X183222016Y-72819998D01*
X183079394Y-72769213D01*
X183068694Y-72766703D01*
X183034352Y-72762608D01*
X182978809Y-72736943D01*
X182948959Y-72683533D01*
X182947691Y-72675339D01*
X182944457Y-72646509D01*
X182942018Y-72635772D01*
X182890338Y-72487369D01*
X182884521Y-72482489D01*
X182876557Y-72486996D01*
X182564639Y-72798914D01*
X182558585Y-72810797D01*
X181840603Y-72810797D01*
X181841415Y-72809203D01*
X181840619Y-72804172D01*
X181525313Y-72488866D01*
X181512420Y-72482297D01*
X181495933Y-72483018D01*
X181484943Y-72482251D01*
X181476557Y-72486996D01*
X181164639Y-72798914D01*
X181158585Y-72810797D01*
X180440603Y-72810797D01*
X180441415Y-72809203D01*
X180440619Y-72804172D01*
X180125313Y-72488866D01*
X180115165Y-72483695D01*
X180110305Y-72488555D01*
X180060485Y-72625435D01*
X180057898Y-72636129D01*
X180052871Y-72675921D01*
X180026820Y-72731283D01*
X179973203Y-72760759D01*
X179965001Y-72761971D01*
X179941701Y-72764420D01*
X179930964Y-72766781D01*
X179780453Y-72818019D01*
X179779026Y-72818691D01*
X179772954Y-72825826D01*
X172745772Y-72825826D01*
X172045772Y-72125826D01*
X180472954Y-72125826D01*
X180477525Y-72133972D01*
X180788914Y-72445361D01*
X180800797Y-72451415D01*
X180805828Y-72450619D01*
X181121573Y-72134874D01*
X181126183Y-72125826D01*
X181872954Y-72125826D01*
X181877525Y-72133972D01*
X182188914Y-72445361D01*
X182200797Y-72451415D01*
X182205828Y-72450619D01*
X182521573Y-72134874D01*
X182526744Y-72124726D01*
X182522016Y-72119998D01*
X182379394Y-72069213D01*
X182368695Y-72066703D01*
X182210821Y-72047878D01*
X182199820Y-72047802D01*
X182041701Y-72064420D01*
X182030964Y-72066781D01*
X181880453Y-72118019D01*
X181879026Y-72118691D01*
X181872954Y-72125826D01*
X181126183Y-72125826D01*
X181126744Y-72124726D01*
X181122016Y-72119998D01*
X180979394Y-72069213D01*
X180968695Y-72066703D01*
X180810821Y-72047878D01*
X180799820Y-72047802D01*
X180641701Y-72064420D01*
X180630964Y-72066781D01*
X180480453Y-72118019D01*
X180479026Y-72118691D01*
X180472954Y-72125826D01*
X172045772Y-72125826D01*
X170787944Y-70867998D01*
X170781669Y-70861101D01*
X170778537Y-70857315D01*
X170775202Y-70852060D01*
X170770665Y-70847800D01*
X170770663Y-70847797D01*
X170723905Y-70803889D01*
X170721671Y-70801725D01*
X170701035Y-70781089D01*
X170696616Y-70777661D01*
X170689540Y-70771618D01*
X170655393Y-70739552D01*
X170644546Y-70733589D01*
X170635075Y-70728382D01*
X170622088Y-70719851D01*
X170608688Y-70709457D01*
X170608685Y-70709455D01*
X170603764Y-70705638D01*
X170560785Y-70687040D01*
X170552411Y-70682937D01*
X170516827Y-70663374D01*
X170516826Y-70663374D01*
X170511368Y-70660373D01*
X170505337Y-70658825D01*
X170505333Y-70658823D01*
X170488906Y-70654606D01*
X170474205Y-70649573D01*
X170458641Y-70642837D01*
X170458633Y-70642835D01*
X170452926Y-70640365D01*
X170446780Y-70639391D01*
X170446778Y-70639391D01*
X170431660Y-70636997D01*
X170406671Y-70633039D01*
X170397544Y-70631148D01*
X170358210Y-70621048D01*
X170358202Y-70621047D01*
X170352177Y-70619500D01*
X170328988Y-70619500D01*
X170313500Y-70618281D01*
X170296746Y-70615627D01*
X170296744Y-70615627D01*
X170290595Y-70614653D01*
X170252217Y-70618281D01*
X170243966Y-70619061D01*
X170234649Y-70619500D01*
X161024500Y-70619500D01*
X160966309Y-70600593D01*
X160930345Y-70551093D01*
X160925500Y-70520500D01*
X160925500Y-70158176D01*
X160925499Y-69774500D01*
X160944406Y-69716309D01*
X160993906Y-69680345D01*
X161024499Y-69675500D01*
X180016323Y-69675500D01*
X180074514Y-69694407D01*
X180086327Y-69704496D01*
X181043601Y-70661770D01*
X181046471Y-70664763D01*
X181086884Y-70708712D01*
X181092621Y-70712269D01*
X181092622Y-70712270D01*
X181123035Y-70731127D01*
X181130721Y-70736409D01*
X181134862Y-70739552D01*
X181164605Y-70762128D01*
X181170877Y-70764611D01*
X181170880Y-70764613D01*
X181179718Y-70768112D01*
X181195437Y-70776018D01*
X181200419Y-70779107D01*
X181209250Y-70784582D01*
X181223982Y-70788862D01*
X181250096Y-70796449D01*
X181258921Y-70799470D01*
X181298473Y-70815130D01*
X181314631Y-70816828D01*
X181331910Y-70820218D01*
X181342527Y-70823303D01*
X181342530Y-70823304D01*
X181347512Y-70824751D01*
X181353919Y-70825221D01*
X181355911Y-70825368D01*
X181355918Y-70825368D01*
X181357712Y-70825500D01*
X181391944Y-70825500D01*
X181402292Y-70826042D01*
X181441662Y-70830180D01*
X181461138Y-70826886D01*
X181477647Y-70825500D01*
X183137314Y-70825500D01*
X183195505Y-70844407D01*
X183208528Y-70855729D01*
X183252550Y-70901314D01*
X183257179Y-70904343D01*
X183333699Y-70954416D01*
X183398132Y-70996580D01*
X183561202Y-71057226D01*
X183566688Y-71057958D01*
X183566692Y-71057959D01*
X183721759Y-71078649D01*
X183733656Y-71080236D01*
X183739161Y-71079735D01*
X183739164Y-71079735D01*
X183901412Y-71064969D01*
X183901416Y-71064968D01*
X183906923Y-71064467D01*
X183912184Y-71062758D01*
X183912187Y-71062757D01*
X184000759Y-71033978D01*
X184072390Y-71010704D01*
X184221833Y-70921618D01*
X184285691Y-70860807D01*
X184343814Y-70805457D01*
X184343816Y-70805455D01*
X184347826Y-70801636D01*
X184360021Y-70783282D01*
X184412656Y-70704059D01*
X184444107Y-70656722D01*
X184505889Y-70494079D01*
X184508732Y-70473856D01*
X184529670Y-70324871D01*
X184530103Y-70321790D01*
X184530407Y-70300000D01*
X184528766Y-70285373D01*
X184511630Y-70132599D01*
X184511629Y-70132596D01*
X184511013Y-70127102D01*
X184453796Y-69962797D01*
X184391764Y-69863524D01*
X184364532Y-69819944D01*
X184364531Y-69819943D01*
X184361600Y-69815252D01*
X184302356Y-69755593D01*
X184266075Y-69719057D01*
X184238488Y-69664443D01*
X184248271Y-69604045D01*
X184268051Y-69577605D01*
X184343814Y-69505457D01*
X184343816Y-69505455D01*
X184347826Y-69501636D01*
X184380135Y-69453008D01*
X184441044Y-69361332D01*
X184444107Y-69356722D01*
X184505889Y-69194079D01*
X184507874Y-69179961D01*
X184529670Y-69024871D01*
X184530103Y-69021790D01*
X184530407Y-69000000D01*
X184522132Y-68926230D01*
X184511630Y-68832599D01*
X184511629Y-68832596D01*
X184511013Y-68827102D01*
X184453796Y-68662797D01*
X184361600Y-68515252D01*
X184291594Y-68444755D01*
X184264007Y-68390141D01*
X184273790Y-68329743D01*
X184293569Y-68303305D01*
X184347826Y-68251636D01*
X184365582Y-68224912D01*
X184423174Y-68138229D01*
X184444107Y-68106722D01*
X184505889Y-67944079D01*
X184522555Y-67825500D01*
X184529670Y-67774871D01*
X184530103Y-67771790D01*
X184530407Y-67750000D01*
X184511013Y-67577102D01*
X184453796Y-67412797D01*
X184361600Y-67265252D01*
X184239006Y-67141799D01*
X184183101Y-67106321D01*
X184096778Y-67051538D01*
X184096773Y-67051536D01*
X184092108Y-67048575D01*
X184086900Y-67046721D01*
X184086897Y-67046719D01*
X183933416Y-66992067D01*
X183933417Y-66992067D01*
X183928207Y-66990212D01*
X183922720Y-66989558D01*
X183922717Y-66989557D01*
X183760945Y-66970267D01*
X183760941Y-66970267D01*
X183755448Y-66969612D01*
X183752742Y-66969896D01*
X183695649Y-66950904D01*
X183684392Y-66941223D01*
X183231399Y-66488230D01*
X183228529Y-66485237D01*
X183192684Y-66446256D01*
X183188116Y-66441288D01*
X183151965Y-66418873D01*
X183144279Y-66413591D01*
X183115770Y-66391951D01*
X183115769Y-66391951D01*
X183110396Y-66387872D01*
X183104125Y-66385389D01*
X183104123Y-66385388D01*
X183095283Y-66381888D01*
X183079558Y-66373979D01*
X183071486Y-66368974D01*
X183071484Y-66368973D01*
X183065750Y-66365418D01*
X183024903Y-66353550D01*
X183016082Y-66350530D01*
X182982806Y-66337356D01*
X182982803Y-66337355D01*
X182976528Y-66334871D01*
X182969815Y-66334165D01*
X182969809Y-66334164D01*
X182960365Y-66333171D01*
X182943096Y-66329783D01*
X182932471Y-66326696D01*
X182932465Y-66326695D01*
X182927488Y-66325249D01*
X182922318Y-66324869D01*
X182922316Y-66324869D01*
X182919089Y-66324632D01*
X182919082Y-66324632D01*
X182917288Y-66324500D01*
X182883046Y-66324500D01*
X182872700Y-66323958D01*
X182833338Y-66319821D01*
X182813869Y-66323114D01*
X182797359Y-66324500D01*
X177577471Y-66324500D01*
X177573325Y-66324413D01*
X177562470Y-66323958D01*
X177513685Y-66321913D01*
X177472266Y-66331627D01*
X177463113Y-66333324D01*
X177444305Y-66335901D01*
X177427643Y-66338183D01*
X177427642Y-66338183D01*
X177420958Y-66339099D01*
X177406037Y-66345556D01*
X177389339Y-66351079D01*
X177373511Y-66354791D01*
X177336229Y-66375287D01*
X177327870Y-66379382D01*
X177295017Y-66393598D01*
X177295013Y-66393601D01*
X177288821Y-66396280D01*
X177283577Y-66400527D01*
X177283573Y-66400529D01*
X177276197Y-66406503D01*
X177261582Y-66416324D01*
X177251889Y-66421652D01*
X177251884Y-66421656D01*
X177247341Y-66424153D01*
X177239599Y-66430836D01*
X177215385Y-66455050D01*
X177207692Y-66461977D01*
X177176929Y-66486888D01*
X177173017Y-66492393D01*
X177173015Y-66492395D01*
X177165491Y-66502982D01*
X177154797Y-66515638D01*
X177124931Y-66545504D01*
X177070414Y-66573281D01*
X177054927Y-66574500D01*
X145453877Y-66574500D01*
X145449731Y-66574413D01*
X145390081Y-66571913D01*
X145383509Y-66573454D01*
X145383503Y-66573455D01*
X145348667Y-66581626D01*
X145339497Y-66583326D01*
X145304040Y-66588183D01*
X145304039Y-66588183D01*
X145297354Y-66589099D01*
X145291159Y-66591780D01*
X145291158Y-66591780D01*
X145282438Y-66595553D01*
X145265732Y-66601078D01*
X145249907Y-66604790D01*
X145243992Y-66608042D01*
X145212622Y-66625287D01*
X145204248Y-66629389D01*
X145171414Y-66643598D01*
X145171413Y-66643599D01*
X145165217Y-66646280D01*
X145159971Y-66650528D01*
X145152586Y-66656508D01*
X145137985Y-66666320D01*
X145123737Y-66674153D01*
X145115995Y-66680836D01*
X145091781Y-66705050D01*
X145084088Y-66711977D01*
X145053325Y-66736888D01*
X145049413Y-66742393D01*
X145049411Y-66742395D01*
X145041887Y-66752982D01*
X145031193Y-66765638D01*
X143555327Y-68241504D01*
X143500810Y-68269281D01*
X143459702Y-68267127D01*
X143364044Y-68241496D01*
X143302154Y-68224912D01*
X143302152Y-68224912D01*
X143297977Y-68223793D01*
X143080000Y-68204723D01*
X142862023Y-68223793D01*
X142857848Y-68224912D01*
X142857846Y-68224912D01*
X142758112Y-68251636D01*
X142650670Y-68280425D01*
X142452362Y-68372898D01*
X142273123Y-68498402D01*
X142118402Y-68653123D01*
X142069005Y-68723670D01*
X142000240Y-68821877D01*
X141992898Y-68832362D01*
X141900425Y-69030670D01*
X141898868Y-69029944D01*
X141865360Y-69072832D01*
X141806545Y-69089697D01*
X141749050Y-69068770D01*
X141720914Y-69030046D01*
X141719575Y-69030670D01*
X141705273Y-69000000D01*
X141627102Y-68832362D01*
X141619761Y-68821877D01*
X141550995Y-68723670D01*
X141501598Y-68653123D01*
X141346877Y-68498402D01*
X141231996Y-68417961D01*
X141171184Y-68375380D01*
X141171182Y-68375379D01*
X141167639Y-68372898D01*
X140969330Y-68280425D01*
X140861888Y-68251636D01*
X140762154Y-68224912D01*
X140762152Y-68224912D01*
X140757977Y-68223793D01*
X140540000Y-68204723D01*
X140322023Y-68223793D01*
X140317848Y-68224912D01*
X140317846Y-68224912D01*
X140218112Y-68251636D01*
X140110670Y-68280425D01*
X139912362Y-68372898D01*
X139733123Y-68498402D01*
X139578402Y-68653123D01*
X139529005Y-68723670D01*
X139460240Y-68821877D01*
X139452898Y-68832362D01*
X139451068Y-68836287D01*
X139419045Y-68904960D01*
X139377317Y-68949708D01*
X139317256Y-68961383D01*
X139261803Y-68935525D01*
X139238532Y-68902597D01*
X139202534Y-68819807D01*
X139198701Y-68812660D01*
X139081826Y-68631997D01*
X139076880Y-68625575D01*
X138932065Y-68466426D01*
X138926139Y-68460899D01*
X138757269Y-68327534D01*
X138750525Y-68323054D01*
X138562141Y-68219060D01*
X138554749Y-68215738D01*
X138351920Y-68143912D01*
X138344081Y-68141841D01*
X138269436Y-68128545D01*
X138256226Y-68130378D01*
X138255805Y-68130782D01*
X138254000Y-68137996D01*
X138254000Y-73342319D01*
X138258122Y-73355004D01*
X138262243Y-73357999D01*
X138895411Y-73357999D01*
X138900751Y-73357710D01*
X138954035Y-73351922D01*
X138966020Y-73349073D01*
X139089855Y-73302649D01*
X139102108Y-73295941D01*
X139207256Y-73217137D01*
X139217137Y-73207256D01*
X139295941Y-73102108D01*
X139302649Y-73089855D01*
X139349072Y-72966022D01*
X139351923Y-72954033D01*
X139357711Y-72900748D01*
X139358000Y-72895414D01*
X139358000Y-72806098D01*
X139376907Y-72747907D01*
X139426407Y-72711943D01*
X139487593Y-72711943D01*
X139538096Y-72749314D01*
X139578402Y-72806877D01*
X139733123Y-72961598D01*
X139912361Y-73087102D01*
X140110670Y-73179575D01*
X140192626Y-73201535D01*
X140317846Y-73235088D01*
X140317848Y-73235088D01*
X140322023Y-73236207D01*
X140540000Y-73255277D01*
X140757977Y-73236207D01*
X140762152Y-73235088D01*
X140762154Y-73235088D01*
X140887374Y-73201535D01*
X140969330Y-73179575D01*
X141167639Y-73087102D01*
X141346877Y-72961598D01*
X141501598Y-72806877D01*
X141605344Y-72658712D01*
X141624620Y-72631183D01*
X141624621Y-72631181D01*
X141627102Y-72627638D01*
X141719575Y-72429330D01*
X141721132Y-72430056D01*
X141754640Y-72387168D01*
X141813455Y-72370303D01*
X141870950Y-72391230D01*
X141899086Y-72429954D01*
X141900425Y-72429330D01*
X141992898Y-72627638D01*
X141995379Y-72631181D01*
X141995380Y-72631183D01*
X142014656Y-72658712D01*
X142118402Y-72806877D01*
X142273123Y-72961598D01*
X142452361Y-73087102D01*
X142650670Y-73179575D01*
X142732626Y-73201535D01*
X142857846Y-73235088D01*
X142857848Y-73235088D01*
X142862023Y-73236207D01*
X143080000Y-73255277D01*
X143297977Y-73236207D01*
X143302152Y-73235088D01*
X143302154Y-73235088D01*
X143427374Y-73201535D01*
X143509330Y-73179575D01*
X143707639Y-73087102D01*
X143886877Y-72961598D01*
X144041598Y-72806877D01*
X144145344Y-72658712D01*
X144164620Y-72631183D01*
X144164621Y-72631181D01*
X144167102Y-72627638D01*
X144259575Y-72429330D01*
X144261132Y-72430056D01*
X144294640Y-72387168D01*
X144353455Y-72370303D01*
X144410950Y-72391230D01*
X144439086Y-72429954D01*
X144440425Y-72429330D01*
X144532898Y-72627638D01*
X144535379Y-72631181D01*
X144535380Y-72631183D01*
X144554656Y-72658712D01*
X144658402Y-72806877D01*
X144813123Y-72961598D01*
X144992361Y-73087102D01*
X145190670Y-73179575D01*
X145272626Y-73201535D01*
X145397846Y-73235088D01*
X145397848Y-73235088D01*
X145402023Y-73236207D01*
X145620000Y-73255277D01*
X145837977Y-73236207D01*
X145842152Y-73235088D01*
X145842154Y-73235088D01*
X145967374Y-73201535D01*
X146049330Y-73179575D01*
X146247639Y-73087102D01*
X146426877Y-72961598D01*
X146581598Y-72806877D01*
X146685344Y-72658712D01*
X146704620Y-72631183D01*
X146704621Y-72631181D01*
X146707102Y-72627638D01*
X146799575Y-72429330D01*
X146801132Y-72430056D01*
X146834640Y-72387168D01*
X146893455Y-72370303D01*
X146950950Y-72391230D01*
X146979086Y-72429954D01*
X146980425Y-72429330D01*
X147072898Y-72627638D01*
X147075379Y-72631181D01*
X147075380Y-72631183D01*
X147094656Y-72658712D01*
X147198402Y-72806877D01*
X147353123Y-72961598D01*
X147532361Y-73087102D01*
X147730670Y-73179575D01*
X147812626Y-73201535D01*
X147937846Y-73235088D01*
X147937848Y-73235088D01*
X147942023Y-73236207D01*
X148160000Y-73255277D01*
X148377977Y-73236207D01*
X148382152Y-73235088D01*
X148382154Y-73235088D01*
X148507374Y-73201535D01*
X148589330Y-73179575D01*
X148787639Y-73087102D01*
X148966877Y-72961598D01*
X149121598Y-72806877D01*
X149225344Y-72658712D01*
X149244620Y-72631183D01*
X149244621Y-72631181D01*
X149247102Y-72627638D01*
X149339575Y-72429330D01*
X149396207Y-72217977D01*
X149415277Y-72000000D01*
X149396207Y-71782023D01*
X149339575Y-71570670D01*
X149247102Y-71372362D01*
X149121598Y-71193123D01*
X148966877Y-71038402D01*
X148851996Y-70957961D01*
X148791184Y-70915380D01*
X148791182Y-70915379D01*
X148787639Y-70912898D01*
X148589330Y-70820425D01*
X148590056Y-70818868D01*
X148547168Y-70785360D01*
X148530303Y-70726545D01*
X148551230Y-70669050D01*
X148589954Y-70640914D01*
X148589330Y-70639575D01*
X148694211Y-70590668D01*
X148787639Y-70547102D01*
X148966877Y-70421598D01*
X149121598Y-70266877D01*
X149247102Y-70087638D01*
X149339575Y-69889330D01*
X149383068Y-69727014D01*
X149395088Y-69682154D01*
X149395088Y-69682152D01*
X149396207Y-69677977D01*
X149415277Y-69460000D01*
X149396207Y-69242023D01*
X149383361Y-69194079D01*
X149340693Y-69034843D01*
X149339575Y-69030670D01*
X149247102Y-68832362D01*
X149239761Y-68821877D01*
X149170995Y-68723670D01*
X149141316Y-68681283D01*
X149123427Y-68622772D01*
X149143347Y-68564920D01*
X149193467Y-68529826D01*
X149222412Y-68525500D01*
X157952323Y-68525500D01*
X158010514Y-68544407D01*
X158046478Y-68593907D01*
X158046478Y-68655093D01*
X158022327Y-68694504D01*
X157665430Y-69051401D01*
X157610913Y-69079178D01*
X157574845Y-69078234D01*
X157562353Y-69075579D01*
X157562348Y-69075578D01*
X157557274Y-69074500D01*
X157362726Y-69074500D01*
X157213815Y-69106152D01*
X157177500Y-69113871D01*
X157177499Y-69113871D01*
X157172429Y-69114949D01*
X157167695Y-69117057D01*
X157167691Y-69117058D01*
X157078528Y-69156756D01*
X156994701Y-69194078D01*
X156837308Y-69308431D01*
X156833842Y-69312281D01*
X156833838Y-69312284D01*
X156716110Y-69443035D01*
X156707130Y-69453008D01*
X156704538Y-69457498D01*
X156704537Y-69457499D01*
X156681718Y-69497023D01*
X156609856Y-69621492D01*
X156549738Y-69806518D01*
X156529402Y-70000000D01*
X156549738Y-70193482D01*
X156609856Y-70378508D01*
X156632270Y-70417331D01*
X156703981Y-70541537D01*
X156707130Y-70546992D01*
X156710602Y-70550848D01*
X156726727Y-70568757D01*
X156751613Y-70624653D01*
X156738891Y-70684501D01*
X156726727Y-70701243D01*
X156716602Y-70712488D01*
X156707130Y-70723008D01*
X156704538Y-70727498D01*
X156704537Y-70727499D01*
X156673635Y-70781024D01*
X156609856Y-70891492D01*
X156549738Y-71076518D01*
X156529402Y-71270000D01*
X156549738Y-71463482D01*
X156609856Y-71648508D01*
X156707130Y-71816992D01*
X156710602Y-71820848D01*
X156833838Y-71957716D01*
X156833842Y-71957719D01*
X156837308Y-71961569D01*
X156994701Y-72075922D01*
X157057456Y-72103862D01*
X157167691Y-72152942D01*
X157167695Y-72152943D01*
X157172429Y-72155051D01*
X157177499Y-72156129D01*
X157177500Y-72156129D01*
X157206500Y-72162293D01*
X157362726Y-72195500D01*
X157557274Y-72195500D01*
X157562348Y-72194422D01*
X157562353Y-72194421D01*
X157574845Y-72191766D01*
X157635695Y-72198163D01*
X157665430Y-72218599D01*
X158058601Y-72611770D01*
X158061471Y-72614763D01*
X158101884Y-72658712D01*
X158107620Y-72662268D01*
X158107623Y-72662271D01*
X158138039Y-72681129D01*
X158145722Y-72686409D01*
X158179604Y-72712127D01*
X158185879Y-72714612D01*
X158185882Y-72714613D01*
X158194714Y-72718110D01*
X158210433Y-72726015D01*
X158224250Y-72734582D01*
X158230728Y-72736464D01*
X158230730Y-72736465D01*
X158249364Y-72741879D01*
X158265114Y-72746455D01*
X158273920Y-72749470D01*
X158313472Y-72765129D01*
X158320185Y-72765835D01*
X158320191Y-72765836D01*
X158329635Y-72766829D01*
X158346904Y-72770217D01*
X158357529Y-72773304D01*
X158357535Y-72773305D01*
X158362512Y-72774751D01*
X158367682Y-72775131D01*
X158367684Y-72775131D01*
X158370911Y-72775368D01*
X158370918Y-72775368D01*
X158372712Y-72775500D01*
X158406953Y-72775500D01*
X158417299Y-72776042D01*
X158456661Y-72780179D01*
X158476131Y-72776886D01*
X158492640Y-72775500D01*
X169491323Y-72775500D01*
X169549514Y-72794407D01*
X169561327Y-72804496D01*
X175411409Y-78654578D01*
X175439186Y-78709095D01*
X175429615Y-78769527D01*
X175393280Y-78808902D01*
X175320897Y-78853432D01*
X175274248Y-78882130D01*
X175274246Y-78882132D01*
X175269533Y-78885031D01*
X175145228Y-79006760D01*
X175050980Y-79153004D01*
X174991475Y-79316493D01*
X174969669Y-79489104D01*
X174970209Y-79494612D01*
X174970209Y-79494614D01*
X174979259Y-79586909D01*
X174986647Y-79662256D01*
X175041564Y-79827343D01*
X175044429Y-79832074D01*
X175044431Y-79832078D01*
X175128825Y-79971429D01*
X175128828Y-79971433D01*
X175131692Y-79976162D01*
X175135534Y-79980141D01*
X175135536Y-79980143D01*
X175192121Y-80038738D01*
X175252550Y-80101314D01*
X175398132Y-80196580D01*
X175561202Y-80257226D01*
X175566688Y-80257958D01*
X175566692Y-80257959D01*
X175721759Y-80278649D01*
X175733656Y-80280236D01*
X175739164Y-80279735D01*
X175744705Y-80279851D01*
X175744663Y-80281854D01*
X175796097Y-80293543D01*
X175815403Y-80308573D01*
X176695504Y-81188674D01*
X176723281Y-81243191D01*
X176724500Y-81258678D01*
X176724500Y-81634225D01*
X176705593Y-81692416D01*
X176656093Y-81728380D01*
X176613779Y-81732529D01*
X176510945Y-81720267D01*
X176510941Y-81720267D01*
X176505448Y-81719612D01*
X176332419Y-81737798D01*
X176327181Y-81739581D01*
X176327182Y-81739581D01*
X176172955Y-81792084D01*
X176172951Y-81792086D01*
X176167719Y-81793867D01*
X176163007Y-81796766D01*
X176024248Y-81882130D01*
X176024246Y-81882132D01*
X176019533Y-81885031D01*
X176015580Y-81888902D01*
X175999169Y-81904973D01*
X175895228Y-82006760D01*
X175800980Y-82153004D01*
X175741475Y-82316493D01*
X175719669Y-82489104D01*
X175736647Y-82662256D01*
X175738393Y-82667504D01*
X175738393Y-82667505D01*
X175748404Y-82697599D01*
X175791564Y-82827343D01*
X175794429Y-82832074D01*
X175794431Y-82832078D01*
X175878823Y-82971425D01*
X175881692Y-82976162D01*
X175946716Y-83043496D01*
X175973537Y-83098487D01*
X175974500Y-83112265D01*
X175974500Y-88637515D01*
X175955593Y-88695706D01*
X175944768Y-88708246D01*
X175895228Y-88756760D01*
X175800980Y-88903004D01*
X175741475Y-89066493D01*
X175719669Y-89239104D01*
X175720209Y-89244612D01*
X175720209Y-89244614D01*
X175732699Y-89371989D01*
X175736647Y-89412256D01*
X175791564Y-89577343D01*
X175794429Y-89582074D01*
X175794431Y-89582078D01*
X175878825Y-89721429D01*
X175878828Y-89721433D01*
X175881692Y-89726162D01*
X176002550Y-89851314D01*
X176007179Y-89854343D01*
X176066728Y-89893311D01*
X176105067Y-89940996D01*
X176108056Y-90002108D01*
X176082523Y-90046155D01*
X171795604Y-94333074D01*
X171735947Y-94361528D01*
X171731834Y-94361960D01*
X171731831Y-94361961D01*
X171726329Y-94362539D01*
X171641324Y-94391477D01*
X171561561Y-94418630D01*
X171561557Y-94418632D01*
X171556319Y-94420415D01*
X171551609Y-94423313D01*
X171551604Y-94423315D01*
X171408219Y-94511527D01*
X171403357Y-94514518D01*
X171275044Y-94640171D01*
X171177758Y-94791129D01*
X171116334Y-94959890D01*
X171093826Y-95138065D01*
X171094366Y-95143568D01*
X171110811Y-95311296D01*
X171110812Y-95311301D01*
X171111351Y-95316798D01*
X171168038Y-95487208D01*
X171170903Y-95491939D01*
X171170905Y-95491943D01*
X171184183Y-95513867D01*
X171261071Y-95640824D01*
X171385826Y-95770011D01*
X171390460Y-95773044D01*
X171394724Y-95776571D01*
X171393697Y-95777813D01*
X171427537Y-95819903D01*
X171430525Y-95881015D01*
X171404993Y-95925061D01*
X168646292Y-98683762D01*
X168586635Y-98712216D01*
X168582522Y-98712648D01*
X168582519Y-98712649D01*
X168577017Y-98713227D01*
X168492012Y-98742165D01*
X168412249Y-98769318D01*
X168412245Y-98769320D01*
X168407007Y-98771103D01*
X168402297Y-98774001D01*
X168402292Y-98774003D01*
X168339322Y-98812743D01*
X168254045Y-98865206D01*
X168250096Y-98869074D01*
X168250095Y-98869074D01*
X168221021Y-98897545D01*
X168125732Y-98990859D01*
X168028446Y-99141817D01*
X167967022Y-99310578D01*
X167944514Y-99488753D01*
X167945054Y-99494256D01*
X167961499Y-99661984D01*
X167961500Y-99661989D01*
X167962039Y-99667486D01*
X168018726Y-99837896D01*
X168021591Y-99842627D01*
X168021593Y-99842631D01*
X168108890Y-99986775D01*
X168111759Y-99991512D01*
X168236514Y-100120699D01*
X168241139Y-100123725D01*
X168241142Y-100123728D01*
X168382163Y-100216009D01*
X168386789Y-100219036D01*
X168443437Y-100240103D01*
X168491388Y-100278108D01*
X168507842Y-100337039D01*
X168486515Y-100394387D01*
X168478933Y-100402898D01*
X166186327Y-102695504D01*
X166131810Y-102723281D01*
X166116323Y-102724500D01*
X142612341Y-102724500D01*
X142554150Y-102705593D01*
X142542102Y-102695267D01*
X142489006Y-102641799D01*
X142417295Y-102596290D01*
X142346778Y-102551538D01*
X142346773Y-102551536D01*
X142342108Y-102548575D01*
X142336900Y-102546721D01*
X142336895Y-102546718D01*
X142288624Y-102529530D01*
X142240147Y-102492198D01*
X142222872Y-102433502D01*
X142232255Y-102394113D01*
X142235017Y-102388244D01*
X142235018Y-102388242D01*
X142236341Y-102385430D01*
X142244338Y-102360818D01*
X142328723Y-102101110D01*
X142328725Y-102101102D01*
X142329681Y-102098160D01*
X142386280Y-101801457D01*
X142388914Y-101759602D01*
X142404555Y-101510986D01*
X142405084Y-101502577D01*
X142405492Y-101500000D01*
X142401719Y-101476177D01*
X142400500Y-101460691D01*
X142400500Y-83539309D01*
X142401719Y-83523822D01*
X142404273Y-83507695D01*
X142405492Y-83500000D01*
X142405084Y-83497423D01*
X142404627Y-83490156D01*
X142386476Y-83201652D01*
X142386475Y-83201646D01*
X142386280Y-83198543D01*
X142329681Y-82901840D01*
X142328725Y-82898898D01*
X142328723Y-82898890D01*
X142237303Y-82617531D01*
X142236341Y-82614570D01*
X142141049Y-82412064D01*
X142109058Y-82344079D01*
X142109055Y-82344074D01*
X142107733Y-82341264D01*
X142106064Y-82338634D01*
X141947556Y-82088865D01*
X141947556Y-82088864D01*
X141945885Y-82086232D01*
X141753349Y-81853496D01*
X141533162Y-81646726D01*
X141288795Y-81469184D01*
X141135564Y-81384944D01*
X141026826Y-81325164D01*
X141026820Y-81325161D01*
X141024104Y-81323668D01*
X140978735Y-81305705D01*
X140746152Y-81213619D01*
X140746149Y-81213618D01*
X140743262Y-81212475D01*
X140740259Y-81211704D01*
X140740253Y-81211702D01*
X140453705Y-81138130D01*
X140453704Y-81138130D01*
X140450698Y-81137358D01*
X140447617Y-81136969D01*
X140447613Y-81136968D01*
X140348097Y-81124396D01*
X140151027Y-81099500D01*
X139848973Y-81099500D01*
X139651903Y-81124396D01*
X139552387Y-81136968D01*
X139552383Y-81136969D01*
X139549302Y-81137358D01*
X139546296Y-81138130D01*
X139546295Y-81138130D01*
X139259747Y-81211702D01*
X139259741Y-81211704D01*
X139256738Y-81212475D01*
X139253851Y-81213618D01*
X139253848Y-81213619D01*
X139021265Y-81305705D01*
X138975896Y-81323668D01*
X138973180Y-81325161D01*
X138973174Y-81325164D01*
X138864436Y-81384944D01*
X138711205Y-81469184D01*
X138466838Y-81646726D01*
X138246651Y-81853496D01*
X138054115Y-82086232D01*
X138052444Y-82088864D01*
X138052444Y-82088865D01*
X137893936Y-82338634D01*
X137892267Y-82341264D01*
X137890945Y-82344074D01*
X137890942Y-82344079D01*
X137858951Y-82412064D01*
X137763659Y-82614570D01*
X137762697Y-82617531D01*
X137671277Y-82898890D01*
X137671275Y-82898898D01*
X137670319Y-82901840D01*
X137613720Y-83198543D01*
X137613525Y-83201646D01*
X137613524Y-83201652D01*
X137599750Y-83420587D01*
X137594916Y-83497423D01*
X137594508Y-83500000D01*
X137595727Y-83507695D01*
X137598281Y-83523822D01*
X137599500Y-83539309D01*
X137599500Y-101460691D01*
X137598281Y-101476177D01*
X137594508Y-101500000D01*
X137594916Y-101502577D01*
X137595373Y-101509843D01*
X137595373Y-101509844D01*
X137611087Y-101759602D01*
X137613720Y-101801457D01*
X137670319Y-102098160D01*
X137671275Y-102101102D01*
X137671277Y-102101110D01*
X137740924Y-102315459D01*
X137763659Y-102385430D01*
X137764986Y-102388250D01*
X137882902Y-102638834D01*
X137892267Y-102658736D01*
X138054115Y-102913768D01*
X138056097Y-102916164D01*
X138056100Y-102916168D01*
X138121149Y-102994798D01*
X138246651Y-103146504D01*
X138248917Y-103148632D01*
X138248918Y-103148633D01*
X138413655Y-103303332D01*
X138443131Y-103356949D01*
X138435463Y-103417652D01*
X138393578Y-103462254D01*
X138345885Y-103474500D01*
X136640748Y-103474500D01*
X136582557Y-103455593D01*
X136546593Y-103406093D01*
X136542711Y-103361722D01*
X136554818Y-103275575D01*
X136554818Y-103275573D01*
X136555251Y-103272493D01*
X136555295Y-103269375D01*
X136555522Y-103253116D01*
X136555522Y-103253108D01*
X136555565Y-103250000D01*
X136555218Y-103246906D01*
X136536163Y-103077025D01*
X136536162Y-103077021D01*
X136535546Y-103071528D01*
X136481444Y-102916168D01*
X136478305Y-102907153D01*
X136478305Y-102907152D01*
X136476485Y-102901927D01*
X136452799Y-102864021D01*
X136384247Y-102754315D01*
X136384245Y-102754313D01*
X136381316Y-102749625D01*
X136291059Y-102658736D01*
X136258671Y-102626121D01*
X136258669Y-102626120D01*
X136254770Y-102622193D01*
X136219012Y-102599500D01*
X136107810Y-102528929D01*
X136107809Y-102528928D01*
X136103136Y-102525963D01*
X135933951Y-102465719D01*
X135928464Y-102465065D01*
X135928461Y-102465064D01*
X135761120Y-102445110D01*
X135761117Y-102445110D01*
X135755624Y-102444455D01*
X135577017Y-102463227D01*
X135571777Y-102465011D01*
X135571776Y-102465011D01*
X135412249Y-102519318D01*
X135412245Y-102519320D01*
X135407007Y-102521103D01*
X135402297Y-102524001D01*
X135402292Y-102524003D01*
X135303435Y-102584821D01*
X135251560Y-102599500D01*
X128474499Y-102599500D01*
X128416308Y-102580593D01*
X128380344Y-102531093D01*
X128375728Y-102501946D01*
X128375575Y-102501952D01*
X128375524Y-102500659D01*
X128375499Y-102500500D01*
X128375499Y-102498066D01*
X128375093Y-102492904D01*
X128373051Y-102466943D01*
X128373050Y-102466939D01*
X128372654Y-102461902D01*
X128331595Y-102320579D01*
X128329420Y-102313091D01*
X128329419Y-102313090D01*
X128327681Y-102307106D01*
X128271407Y-102211951D01*
X128248795Y-102173715D01*
X128248794Y-102173713D01*
X128245626Y-102168357D01*
X128223340Y-102146071D01*
X128195563Y-102091554D01*
X128205134Y-102031122D01*
X128223280Y-102006124D01*
X128322471Y-101906761D01*
X128329551Y-101897796D01*
X128414735Y-101759602D01*
X128419563Y-101749248D01*
X128470778Y-101594840D01*
X128473031Y-101584326D01*
X128482741Y-101489556D01*
X128483000Y-101484499D01*
X128483000Y-101407180D01*
X128478878Y-101394495D01*
X128474757Y-101391500D01*
X126532680Y-101391500D01*
X126519995Y-101395622D01*
X126517000Y-101399743D01*
X126517000Y-101484463D01*
X126517265Y-101489590D01*
X126527227Y-101585598D01*
X126529503Y-101596133D01*
X126580982Y-101750435D01*
X126585830Y-101760784D01*
X126671253Y-101898828D01*
X126678349Y-101907781D01*
X126776670Y-102005930D01*
X126804496Y-102060422D01*
X126794977Y-102120863D01*
X126776732Y-102145999D01*
X126754374Y-102168357D01*
X126751223Y-102173685D01*
X126700631Y-102208069D01*
X126673009Y-102212000D01*
X122469486Y-102212000D01*
X122460170Y-102211561D01*
X122455284Y-102211099D01*
X122449203Y-102209740D01*
X122379259Y-102211938D01*
X122378855Y-102211951D01*
X122375745Y-102212000D01*
X122346575Y-102212000D01*
X122343487Y-102212390D01*
X122341032Y-102212700D01*
X122331737Y-102213432D01*
X122315621Y-102213938D01*
X122291155Y-102214707D01*
X122291152Y-102214707D01*
X122284931Y-102214903D01*
X122278953Y-102216640D01*
X122278946Y-102216641D01*
X122262665Y-102221371D01*
X122247455Y-102224521D01*
X122230627Y-102226647D01*
X122230621Y-102226648D01*
X122224442Y-102227429D01*
X122181817Y-102244306D01*
X122180892Y-102244672D01*
X122172066Y-102247693D01*
X122133086Y-102259017D01*
X122133084Y-102259018D01*
X122127101Y-102260756D01*
X122107134Y-102272564D01*
X122093193Y-102279394D01*
X122077414Y-102285641D01*
X122077410Y-102285643D01*
X122071629Y-102287932D01*
X122066595Y-102291590D01*
X122066594Y-102291590D01*
X122033741Y-102315459D01*
X122025946Y-102320579D01*
X121985635Y-102344419D01*
X121969236Y-102360818D01*
X121957423Y-102370907D01*
X121938663Y-102384537D01*
X121934697Y-102389331D01*
X121934694Y-102389334D01*
X121908816Y-102420616D01*
X121902539Y-102427515D01*
X121347998Y-102982056D01*
X121341101Y-102988331D01*
X121337315Y-102991463D01*
X121332060Y-102994798D01*
X121327800Y-102999335D01*
X121327797Y-102999337D01*
X121283889Y-103046095D01*
X121281725Y-103048329D01*
X121261089Y-103068965D01*
X121257661Y-103073384D01*
X121251618Y-103080460D01*
X121219552Y-103114607D01*
X121216552Y-103120064D01*
X121208382Y-103134925D01*
X121199851Y-103147912D01*
X121189457Y-103161312D01*
X121189455Y-103161315D01*
X121185638Y-103166236D01*
X121183165Y-103171951D01*
X121167041Y-103209212D01*
X121162937Y-103217589D01*
X121145119Y-103250000D01*
X121140373Y-103258632D01*
X121138825Y-103264663D01*
X121138823Y-103264667D01*
X121134606Y-103281094D01*
X121129573Y-103295795D01*
X121122837Y-103311359D01*
X121122835Y-103311367D01*
X121120365Y-103317074D01*
X121119391Y-103323220D01*
X121119391Y-103323222D01*
X121113040Y-103363322D01*
X121111148Y-103372456D01*
X121101048Y-103411790D01*
X121101047Y-103411798D01*
X121099500Y-103417823D01*
X121099500Y-103441012D01*
X121098281Y-103456500D01*
X121094653Y-103479405D01*
X121095239Y-103485603D01*
X121099061Y-103526034D01*
X121099500Y-103535351D01*
X121099500Y-106418013D01*
X121099061Y-106427329D01*
X121098599Y-106432215D01*
X121097240Y-106438296D01*
X121098802Y-106487984D01*
X121099451Y-106508644D01*
X121099500Y-106511754D01*
X121099500Y-106540925D01*
X121099890Y-106544012D01*
X121100200Y-106546467D01*
X121100932Y-106555767D01*
X121102100Y-106592919D01*
X121102403Y-106602569D01*
X121104140Y-106608547D01*
X121104141Y-106608554D01*
X121108871Y-106624835D01*
X121112021Y-106640045D01*
X121114147Y-106656873D01*
X121114148Y-106656879D01*
X121114929Y-106663058D01*
X121132176Y-106706618D01*
X121135191Y-106715426D01*
X121148256Y-106760398D01*
X121151428Y-106765762D01*
X121151429Y-106765764D01*
X121160060Y-106780358D01*
X121166894Y-106794307D01*
X121175432Y-106815871D01*
X121179092Y-106820909D01*
X121179094Y-106820912D01*
X121202957Y-106853757D01*
X121208079Y-106861554D01*
X121228748Y-106896504D01*
X121228750Y-106896507D01*
X121231919Y-106901865D01*
X121248318Y-106918264D01*
X121258407Y-106930077D01*
X121272037Y-106948837D01*
X121276831Y-106952803D01*
X121276834Y-106952806D01*
X121308116Y-106978684D01*
X121315015Y-106984961D01*
X122032056Y-107702002D01*
X122038331Y-107708899D01*
X122041463Y-107712685D01*
X122044798Y-107717940D01*
X122049335Y-107722200D01*
X122049337Y-107722203D01*
X122096095Y-107766111D01*
X122098329Y-107768275D01*
X122112965Y-107782911D01*
X122140742Y-107837428D01*
X122131171Y-107897860D01*
X122121815Y-107912773D01*
X122114681Y-107922172D01*
X122060167Y-108059860D01*
X122049500Y-108148005D01*
X122049501Y-108651994D01*
X122060167Y-108740140D01*
X122062508Y-108746052D01*
X122062508Y-108746053D01*
X122083556Y-108799215D01*
X122087398Y-108860280D01*
X122073202Y-108889261D01*
X122073910Y-108889680D01*
X121993738Y-109025244D01*
X121988832Y-109036582D01*
X121946301Y-109182970D01*
X121944494Y-109192865D01*
X121942153Y-109222618D01*
X121942000Y-109226510D01*
X121942000Y-109230320D01*
X121946122Y-109243005D01*
X121950243Y-109246000D01*
X123405000Y-109246000D01*
X123463191Y-109264907D01*
X123499155Y-109314407D01*
X123504000Y-109345000D01*
X123504000Y-109655000D01*
X123485093Y-109713191D01*
X123435593Y-109749155D01*
X123405000Y-109754000D01*
X121957680Y-109754000D01*
X121944995Y-109758122D01*
X121942000Y-109762243D01*
X121942000Y-109773490D01*
X121942153Y-109777382D01*
X121944494Y-109807135D01*
X121946301Y-109817030D01*
X121988832Y-109963418D01*
X121993738Y-109974756D01*
X122073910Y-110110320D01*
X122072445Y-110111187D01*
X122090459Y-110161242D01*
X122083556Y-110200785D01*
X122060167Y-110259860D01*
X122049500Y-110348005D01*
X122049501Y-110851994D01*
X122060167Y-110940140D01*
X122114681Y-111077828D01*
X122118761Y-111083203D01*
X122124030Y-111090145D01*
X122144151Y-111147927D01*
X122124030Y-111209855D01*
X122114681Y-111222172D01*
X122060167Y-111359860D01*
X122049500Y-111448005D01*
X122049501Y-111951994D01*
X122049860Y-111954960D01*
X122049860Y-111954962D01*
X122059403Y-112033827D01*
X122060167Y-112040140D01*
X122114681Y-112177828D01*
X122118761Y-112183203D01*
X122124030Y-112190145D01*
X122144151Y-112247927D01*
X122124030Y-112309855D01*
X122114681Y-112322172D01*
X122060167Y-112459860D01*
X122049500Y-112548005D01*
X122049500Y-112793003D01*
X122030594Y-112851191D01*
X121981094Y-112887155D01*
X121950501Y-112892001D01*
X121712743Y-112892001D01*
X121710529Y-112892065D01*
X121702455Y-112893220D01*
X121535302Y-112931809D01*
X121524938Y-112935459D01*
X121371692Y-113009541D01*
X121362384Y-113015403D01*
X121229375Y-113121583D01*
X121221583Y-113129375D01*
X121115403Y-113262384D01*
X121109541Y-113271692D01*
X121035459Y-113424938D01*
X121031809Y-113435302D01*
X120993218Y-113602463D01*
X120992064Y-113610519D01*
X120992000Y-113612751D01*
X120992000Y-113880320D01*
X114257999Y-113880320D01*
X114257999Y-113612743D01*
X114257935Y-113610529D01*
X114256780Y-113602455D01*
X114218191Y-113435302D01*
X114214541Y-113424938D01*
X114140459Y-113271692D01*
X114134597Y-113262384D01*
X114028417Y-113129375D01*
X114020625Y-113121583D01*
X113887616Y-113015403D01*
X113878308Y-113009541D01*
X113725062Y-112935459D01*
X113714698Y-112931809D01*
X113547537Y-112893218D01*
X113539481Y-112892064D01*
X113537249Y-112892000D01*
X112919680Y-112892000D01*
X112906995Y-112896122D01*
X112904000Y-112900243D01*
X112904000Y-113880320D01*
X112396000Y-113880320D01*
X112396000Y-112907681D01*
X112391878Y-112894996D01*
X112387757Y-112892001D01*
X111762743Y-112892001D01*
X111760529Y-112892065D01*
X111752455Y-112893220D01*
X111585302Y-112931809D01*
X111574938Y-112935459D01*
X111421692Y-113009541D01*
X111412384Y-113015403D01*
X111279375Y-113121583D01*
X111271583Y-113129375D01*
X111165403Y-113262384D01*
X111159541Y-113271692D01*
X111085459Y-113424938D01*
X111081809Y-113435302D01*
X111043218Y-113602463D01*
X111042064Y-113610519D01*
X111042000Y-113612751D01*
X111042000Y-113880320D01*
X108400500Y-113880320D01*
X108400500Y-111169754D01*
X111094967Y-111169754D01*
X111099619Y-111240738D01*
X111107841Y-111366175D01*
X111108796Y-111380749D01*
X111109912Y-111385142D01*
X111109912Y-111385144D01*
X111158725Y-111577343D01*
X111160845Y-111585690D01*
X111162747Y-111589815D01*
X111162747Y-111589816D01*
X111241815Y-111761327D01*
X111249369Y-111777714D01*
X111371405Y-111950391D01*
X111522865Y-112097937D01*
X111526638Y-112100458D01*
X111694899Y-112212887D01*
X111694902Y-112212889D01*
X111698677Y-112215411D01*
X111795472Y-112256997D01*
X111888774Y-112297083D01*
X111888778Y-112297084D01*
X111892953Y-112298878D01*
X111897387Y-112299881D01*
X111897386Y-112299881D01*
X112094760Y-112344543D01*
X112094765Y-112344544D01*
X112099186Y-112345544D01*
X112204828Y-112349695D01*
X112305937Y-112353668D01*
X112305938Y-112353668D01*
X112310470Y-112353846D01*
X112519730Y-112323504D01*
X112524029Y-112322045D01*
X112524032Y-112322044D01*
X112715654Y-112256997D01*
X112719955Y-112255537D01*
X112728318Y-112250854D01*
X112858714Y-112177828D01*
X112904442Y-112152219D01*
X113067012Y-112017012D01*
X113202219Y-111854442D01*
X113273588Y-111727004D01*
X113303319Y-111673916D01*
X113303320Y-111673914D01*
X113305537Y-111669955D01*
X113309936Y-111656997D01*
X113372044Y-111474032D01*
X113372045Y-111474029D01*
X113373504Y-111469730D01*
X113393757Y-111330054D01*
X113403426Y-111263369D01*
X113403426Y-111263363D01*
X113403846Y-111260470D01*
X113404123Y-111249912D01*
X113405353Y-111202914D01*
X113405353Y-111202909D01*
X113405429Y-111200000D01*
X113403619Y-111180296D01*
X113394697Y-111083203D01*
X113386081Y-110989440D01*
X113334733Y-110807371D01*
X113329920Y-110790306D01*
X113329920Y-110790305D01*
X113328686Y-110785931D01*
X113235165Y-110596290D01*
X113108651Y-110426867D01*
X112953381Y-110283337D01*
X112916173Y-110259860D01*
X112778391Y-110172926D01*
X112774554Y-110170505D01*
X112578160Y-110092152D01*
X112370775Y-110050901D01*
X112266599Y-110049537D01*
X112163886Y-110048192D01*
X112163881Y-110048192D01*
X112159346Y-110048133D01*
X112154873Y-110048902D01*
X112154868Y-110048902D01*
X112070397Y-110063417D01*
X111950953Y-110083941D01*
X111752575Y-110157127D01*
X111748676Y-110159446D01*
X111748671Y-110159449D01*
X111574762Y-110262914D01*
X111570856Y-110265238D01*
X111567441Y-110268233D01*
X111567438Y-110268235D01*
X111552977Y-110280917D01*
X111411881Y-110404655D01*
X111280976Y-110570708D01*
X111278862Y-110574726D01*
X111225006Y-110677090D01*
X111182523Y-110757836D01*
X111175065Y-110781855D01*
X111127021Y-110936583D01*
X111119820Y-110959773D01*
X111119286Y-110964283D01*
X111119286Y-110964284D01*
X111096669Y-111155378D01*
X111094967Y-111169754D01*
X108400500Y-111169754D01*
X108400500Y-103169754D01*
X111094967Y-103169754D01*
X111097553Y-103209212D01*
X111107654Y-103363322D01*
X111108796Y-103380749D01*
X111109912Y-103385142D01*
X111109912Y-103385144D01*
X111148060Y-103535351D01*
X111160845Y-103585690D01*
X111162747Y-103589815D01*
X111162747Y-103589816D01*
X111201518Y-103673916D01*
X111249369Y-103777714D01*
X111371405Y-103950391D01*
X111522865Y-104097937D01*
X111526638Y-104100458D01*
X111694899Y-104212887D01*
X111694902Y-104212889D01*
X111698677Y-104215411D01*
X111795472Y-104256997D01*
X111888774Y-104297083D01*
X111888778Y-104297084D01*
X111892953Y-104298878D01*
X111897387Y-104299881D01*
X111897386Y-104299881D01*
X112094760Y-104344543D01*
X112094765Y-104344544D01*
X112099186Y-104345544D01*
X112204828Y-104349695D01*
X112305937Y-104353668D01*
X112305938Y-104353668D01*
X112310470Y-104353846D01*
X112519730Y-104323504D01*
X112524029Y-104322045D01*
X112524032Y-104322044D01*
X112715654Y-104256997D01*
X112719955Y-104255537D01*
X112904442Y-104152219D01*
X113067012Y-104017012D01*
X113202219Y-103854442D01*
X113305537Y-103669955D01*
X113306997Y-103665654D01*
X113372044Y-103474032D01*
X113372045Y-103474029D01*
X113373504Y-103469730D01*
X113387062Y-103376223D01*
X113403426Y-103263369D01*
X113403426Y-103263363D01*
X113403846Y-103260470D01*
X113405429Y-103200000D01*
X113402327Y-103166236D01*
X113391492Y-103048329D01*
X113386081Y-102989440D01*
X113365416Y-102916168D01*
X113329920Y-102790306D01*
X113329920Y-102790305D01*
X113328686Y-102785931D01*
X113235165Y-102596290D01*
X113108651Y-102426867D01*
X112953381Y-102283337D01*
X112942590Y-102276528D01*
X112790293Y-102180435D01*
X112774554Y-102170505D01*
X112578160Y-102092152D01*
X112370775Y-102050901D01*
X112266599Y-102049537D01*
X112163886Y-102048192D01*
X112163881Y-102048192D01*
X112159346Y-102048133D01*
X112154873Y-102048902D01*
X112154868Y-102048902D01*
X112051601Y-102066647D01*
X111950953Y-102083941D01*
X111752575Y-102157127D01*
X111748676Y-102159446D01*
X111748671Y-102159449D01*
X111574762Y-102262914D01*
X111570856Y-102265238D01*
X111567441Y-102268233D01*
X111567438Y-102268235D01*
X111484185Y-102341246D01*
X111411881Y-102404655D01*
X111409073Y-102408217D01*
X111312206Y-102531093D01*
X111280976Y-102570708D01*
X111278862Y-102574726D01*
X111215318Y-102695504D01*
X111182523Y-102757836D01*
X111181179Y-102762165D01*
X111133360Y-102916168D01*
X111119820Y-102959773D01*
X111119286Y-102964283D01*
X111119286Y-102964284D01*
X111103812Y-103095027D01*
X111094967Y-103169754D01*
X108400500Y-103169754D01*
X108400500Y-100867820D01*
X126517000Y-100867820D01*
X126521122Y-100880505D01*
X126525243Y-100883500D01*
X127230320Y-100883500D01*
X127243005Y-100879378D01*
X127246000Y-100875257D01*
X127246000Y-100867820D01*
X127754000Y-100867820D01*
X127758122Y-100880505D01*
X127762243Y-100883500D01*
X128467320Y-100883500D01*
X128480005Y-100879378D01*
X128483000Y-100875257D01*
X128483000Y-100790537D01*
X128482735Y-100785410D01*
X128472773Y-100689402D01*
X128470497Y-100678867D01*
X128419018Y-100524565D01*
X128414170Y-100514216D01*
X128328747Y-100376172D01*
X128321651Y-100367219D01*
X128206761Y-100252529D01*
X128197796Y-100245449D01*
X128059602Y-100160265D01*
X128049248Y-100155437D01*
X127894840Y-100104222D01*
X127884326Y-100101969D01*
X127789556Y-100092259D01*
X127784499Y-100092000D01*
X127769680Y-100092000D01*
X127756995Y-100096122D01*
X127754000Y-100100243D01*
X127754000Y-100867820D01*
X127246000Y-100867820D01*
X127246000Y-100107680D01*
X127241878Y-100094995D01*
X127237757Y-100092000D01*
X127215537Y-100092000D01*
X127210410Y-100092265D01*
X127114402Y-100102227D01*
X127103867Y-100104503D01*
X126949565Y-100155982D01*
X126939216Y-100160830D01*
X126801172Y-100246253D01*
X126792219Y-100253349D01*
X126677529Y-100368239D01*
X126670449Y-100377204D01*
X126585265Y-100515398D01*
X126580437Y-100525752D01*
X126529222Y-100680160D01*
X126526969Y-100690674D01*
X126517259Y-100785444D01*
X126517000Y-100790501D01*
X126517000Y-100867820D01*
X108400500Y-100867820D01*
X108400500Y-99987257D01*
X120992001Y-99987257D01*
X120992065Y-99989471D01*
X120993220Y-99997545D01*
X121031809Y-100164698D01*
X121035459Y-100175062D01*
X121109541Y-100328308D01*
X121115403Y-100337616D01*
X121221583Y-100470625D01*
X121229375Y-100478417D01*
X121362384Y-100584597D01*
X121371692Y-100590459D01*
X121524938Y-100664541D01*
X121535302Y-100668191D01*
X121702463Y-100706782D01*
X121710519Y-100707936D01*
X121712751Y-100708000D01*
X121980320Y-100708000D01*
X121993005Y-100703878D01*
X121996000Y-100699757D01*
X121996000Y-100692319D01*
X122504000Y-100692319D01*
X122508122Y-100705004D01*
X122512243Y-100707999D01*
X122787257Y-100707999D01*
X122789471Y-100707935D01*
X122797545Y-100706780D01*
X122964698Y-100668191D01*
X122975062Y-100664541D01*
X123128308Y-100590459D01*
X123137616Y-100584597D01*
X123270625Y-100478417D01*
X123278417Y-100470625D01*
X123384597Y-100337616D01*
X123390459Y-100328308D01*
X123464541Y-100175062D01*
X123468191Y-100164698D01*
X123506782Y-99997537D01*
X123507936Y-99989481D01*
X123508000Y-99987249D01*
X123508000Y-99669680D01*
X123503878Y-99656995D01*
X123499757Y-99654000D01*
X122519680Y-99654000D01*
X122506995Y-99658122D01*
X122504000Y-99662243D01*
X122504000Y-100692319D01*
X121996000Y-100692319D01*
X121996000Y-99669680D01*
X121991878Y-99656995D01*
X121987757Y-99654000D01*
X121007681Y-99654000D01*
X120994996Y-99658122D01*
X120992001Y-99662243D01*
X120992001Y-99987257D01*
X108400500Y-99987257D01*
X108400500Y-98887257D01*
X111042001Y-98887257D01*
X111042065Y-98889471D01*
X111043220Y-98897545D01*
X111081809Y-99064698D01*
X111085459Y-99075062D01*
X111159541Y-99228308D01*
X111165403Y-99237616D01*
X111271583Y-99370625D01*
X111279375Y-99378417D01*
X111412384Y-99484597D01*
X111421692Y-99490459D01*
X111574938Y-99564541D01*
X111585302Y-99568191D01*
X111752463Y-99606782D01*
X111760519Y-99607936D01*
X111762751Y-99608000D01*
X112380320Y-99608000D01*
X112393005Y-99603878D01*
X112396000Y-99599757D01*
X112396000Y-99592319D01*
X112904000Y-99592319D01*
X112908122Y-99605004D01*
X112912243Y-99607999D01*
X113537257Y-99607999D01*
X113539471Y-99607935D01*
X113547545Y-99606780D01*
X113714698Y-99568191D01*
X113725062Y-99564541D01*
X113878308Y-99490459D01*
X113887616Y-99484597D01*
X114020625Y-99378417D01*
X114028417Y-99370625D01*
X114134597Y-99237616D01*
X114140459Y-99228308D01*
X114187828Y-99130320D01*
X120992000Y-99130320D01*
X120996122Y-99143005D01*
X121000243Y-99146000D01*
X121980320Y-99146000D01*
X121993005Y-99141878D01*
X121996000Y-99137757D01*
X121996000Y-99130320D01*
X122504000Y-99130320D01*
X122508122Y-99143005D01*
X122512243Y-99146000D01*
X123492319Y-99146000D01*
X123505004Y-99141878D01*
X123507999Y-99137757D01*
X123507999Y-98812743D01*
X123507935Y-98810529D01*
X123506780Y-98802455D01*
X123468191Y-98635302D01*
X123464541Y-98624938D01*
X123390459Y-98471692D01*
X123384597Y-98462384D01*
X123278417Y-98329375D01*
X123270625Y-98321583D01*
X123137616Y-98215403D01*
X123128308Y-98209541D01*
X122975062Y-98135459D01*
X122964698Y-98131809D01*
X122797537Y-98093218D01*
X122789481Y-98092064D01*
X122787249Y-98092000D01*
X122519680Y-98092000D01*
X122506995Y-98096122D01*
X122504000Y-98100243D01*
X122504000Y-99130320D01*
X121996000Y-99130320D01*
X121996000Y-98107681D01*
X121991878Y-98094996D01*
X121987757Y-98092001D01*
X121712743Y-98092001D01*
X121710529Y-98092065D01*
X121702455Y-98093220D01*
X121535302Y-98131809D01*
X121524938Y-98135459D01*
X121371692Y-98209541D01*
X121362384Y-98215403D01*
X121229375Y-98321583D01*
X121221583Y-98329375D01*
X121115403Y-98462384D01*
X121109541Y-98471692D01*
X121035459Y-98624938D01*
X121031809Y-98635302D01*
X120993218Y-98802463D01*
X120992064Y-98810519D01*
X120992000Y-98812751D01*
X120992000Y-99130320D01*
X114187828Y-99130320D01*
X114214541Y-99075062D01*
X114218191Y-99064698D01*
X114256782Y-98897537D01*
X114257936Y-98889481D01*
X114258000Y-98887249D01*
X114258000Y-98619680D01*
X114253878Y-98606995D01*
X114249757Y-98604000D01*
X112919680Y-98604000D01*
X112906995Y-98608122D01*
X112904000Y-98612243D01*
X112904000Y-99592319D01*
X112396000Y-99592319D01*
X112396000Y-98619680D01*
X112391878Y-98606995D01*
X112387757Y-98604000D01*
X111057681Y-98604000D01*
X111044996Y-98608122D01*
X111042001Y-98612243D01*
X111042001Y-98887257D01*
X108400500Y-98887257D01*
X108400500Y-98080320D01*
X111042000Y-98080320D01*
X111046122Y-98093005D01*
X111050243Y-98096000D01*
X112380320Y-98096000D01*
X112393005Y-98091878D01*
X112396000Y-98087757D01*
X112396000Y-98080320D01*
X112904000Y-98080320D01*
X112908122Y-98093005D01*
X112912243Y-98096000D01*
X114242319Y-98096000D01*
X114255004Y-98091878D01*
X114257999Y-98087757D01*
X114257999Y-97812743D01*
X114257935Y-97810529D01*
X114256780Y-97802455D01*
X114218191Y-97635302D01*
X114214541Y-97624938D01*
X114140459Y-97471692D01*
X114134597Y-97462384D01*
X114028417Y-97329375D01*
X114020625Y-97321583D01*
X113887616Y-97215403D01*
X113878308Y-97209541D01*
X113725062Y-97135459D01*
X113714698Y-97131809D01*
X113547537Y-97093218D01*
X113539481Y-97092064D01*
X113537249Y-97092000D01*
X112919680Y-97092000D01*
X112906995Y-97096122D01*
X112904000Y-97100243D01*
X112904000Y-98080320D01*
X112396000Y-98080320D01*
X112396000Y-97107681D01*
X112391878Y-97094996D01*
X112387757Y-97092001D01*
X111762743Y-97092001D01*
X111760529Y-97092065D01*
X111752455Y-97093220D01*
X111585302Y-97131809D01*
X111574938Y-97135459D01*
X111421692Y-97209541D01*
X111412384Y-97215403D01*
X111279375Y-97321583D01*
X111271583Y-97329375D01*
X111165403Y-97462384D01*
X111159541Y-97471692D01*
X111085459Y-97624938D01*
X111081809Y-97635302D01*
X111043218Y-97802463D01*
X111042064Y-97810519D01*
X111042000Y-97812751D01*
X111042000Y-98080320D01*
X108400500Y-98080320D01*
X108400500Y-86909909D01*
X117175130Y-86909909D01*
X117175584Y-86912780D01*
X117177779Y-86915534D01*
X117214388Y-86946144D01*
X117219823Y-86950092D01*
X117446040Y-87091997D01*
X117451976Y-87095181D01*
X117695363Y-87205074D01*
X117701661Y-87207417D01*
X117957718Y-87283264D01*
X117964270Y-87284729D01*
X118228248Y-87325123D01*
X118234954Y-87325686D01*
X118501973Y-87329881D01*
X118508677Y-87329530D01*
X118773789Y-87297448D01*
X118780412Y-87296184D01*
X119038707Y-87228421D01*
X119045077Y-87226278D01*
X119291805Y-87124080D01*
X119297822Y-87121093D01*
X119528394Y-86986357D01*
X119533949Y-86982582D01*
X119616572Y-86917797D01*
X119624012Y-86906726D01*
X119623936Y-86904653D01*
X119621277Y-86900487D01*
X118411086Y-85690296D01*
X118399203Y-85684242D01*
X118394172Y-85685038D01*
X117181184Y-86898026D01*
X117175130Y-86909909D01*
X108400500Y-86909909D01*
X108400500Y-85302293D01*
X116387612Y-85302293D01*
X116402985Y-85568897D01*
X116403827Y-85575560D01*
X116455239Y-85837611D01*
X116456981Y-85844113D01*
X116543484Y-86096769D01*
X116546084Y-86102955D01*
X116666077Y-86341535D01*
X116669503Y-86347326D01*
X116800727Y-86538257D01*
X116811310Y-86546379D01*
X116811706Y-86546389D01*
X116818358Y-86542432D01*
X118029704Y-85331086D01*
X118034946Y-85320797D01*
X118764242Y-85320797D01*
X118765038Y-85325828D01*
X119977456Y-86538246D01*
X119989339Y-86544300D01*
X119990560Y-86544107D01*
X119995402Y-86539993D01*
X120097377Y-86401170D01*
X120100979Y-86395495D01*
X120228403Y-86160808D01*
X120231204Y-86154690D01*
X120325599Y-85904882D01*
X120327541Y-85898447D01*
X120387158Y-85638145D01*
X120388212Y-85631493D01*
X120412079Y-85364079D01*
X120412271Y-85360222D01*
X120412672Y-85321937D01*
X120412560Y-85318065D01*
X120394299Y-85050211D01*
X120393385Y-85043540D01*
X120339233Y-84782046D01*
X120337424Y-84775569D01*
X120248282Y-84523841D01*
X120245612Y-84517670D01*
X120123136Y-84280375D01*
X120119644Y-84274609D01*
X119998630Y-84102424D01*
X119987964Y-84094416D01*
X119987286Y-84094406D01*
X119981051Y-84098159D01*
X118770296Y-85308914D01*
X118764242Y-85320797D01*
X118034946Y-85320797D01*
X118035758Y-85319203D01*
X118034962Y-85314172D01*
X116822088Y-84101298D01*
X116810205Y-84095244D01*
X116809258Y-84095394D01*
X116804090Y-84099832D01*
X116691398Y-84256658D01*
X116687849Y-84262383D01*
X116562893Y-84498382D01*
X116560153Y-84504536D01*
X116468384Y-84755311D01*
X116466507Y-84761772D01*
X116409617Y-85022685D01*
X116408635Y-85029337D01*
X116387683Y-85295560D01*
X116387612Y-85302293D01*
X108400500Y-85302293D01*
X108400500Y-83733048D01*
X117175828Y-83733048D01*
X117175939Y-83735398D01*
X117178364Y-83739154D01*
X118388914Y-84949704D01*
X118400797Y-84955758D01*
X118405828Y-84954962D01*
X119618330Y-83742460D01*
X119624384Y-83730577D01*
X119623973Y-83727979D01*
X119621467Y-83724868D01*
X119568528Y-83681537D01*
X119563033Y-83677633D01*
X119335347Y-83538107D01*
X119329390Y-83534992D01*
X119084858Y-83427650D01*
X119078531Y-83425373D01*
X118821714Y-83352216D01*
X118815115Y-83350814D01*
X118724349Y-83337896D01*
X120387143Y-83337896D01*
X120387241Y-83338518D01*
X120392068Y-83344071D01*
X120449957Y-83384606D01*
X120457427Y-83388918D01*
X120657009Y-83481985D01*
X120665102Y-83484931D01*
X120877824Y-83541930D01*
X120886312Y-83543426D01*
X121105691Y-83562619D01*
X121114309Y-83562619D01*
X121333688Y-83543426D01*
X121342176Y-83541930D01*
X121554898Y-83484931D01*
X121562991Y-83481985D01*
X121762573Y-83388918D01*
X121770043Y-83384606D01*
X121825045Y-83346093D01*
X121833071Y-83335441D01*
X121833083Y-83334809D01*
X121829295Y-83328505D01*
X121121086Y-82620296D01*
X121109203Y-82614242D01*
X121104172Y-82615038D01*
X120393197Y-83326013D01*
X120387143Y-83337896D01*
X118724349Y-83337896D01*
X118550750Y-83313189D01*
X118544034Y-83312695D01*
X118276982Y-83311298D01*
X118270288Y-83311719D01*
X118005528Y-83346575D01*
X117998915Y-83347908D01*
X117741351Y-83418370D01*
X117734985Y-83420587D01*
X117489366Y-83525352D01*
X117483358Y-83528413D01*
X117254225Y-83665547D01*
X117248697Y-83669389D01*
X117183150Y-83721901D01*
X117175828Y-83733048D01*
X108400500Y-83733048D01*
X108400500Y-82254309D01*
X119797381Y-82254309D01*
X119816574Y-82473688D01*
X119818070Y-82482176D01*
X119875069Y-82694898D01*
X119878015Y-82702991D01*
X119971082Y-82902573D01*
X119975394Y-82910043D01*
X120013907Y-82965045D01*
X120024559Y-82973071D01*
X120025191Y-82973083D01*
X120031495Y-82969295D01*
X120739704Y-82261086D01*
X120744946Y-82250797D01*
X121474242Y-82250797D01*
X121475038Y-82255828D01*
X122186013Y-82966803D01*
X122197896Y-82972857D01*
X122198518Y-82972759D01*
X122204071Y-82967932D01*
X122244606Y-82910043D01*
X122248918Y-82902573D01*
X122341985Y-82702991D01*
X122344931Y-82694898D01*
X122401930Y-82482176D01*
X122403426Y-82473688D01*
X122422619Y-82254309D01*
X122422619Y-82245691D01*
X122403426Y-82026312D01*
X122401930Y-82017824D01*
X122344931Y-81805102D01*
X122341985Y-81797009D01*
X122248918Y-81597427D01*
X122244606Y-81589957D01*
X122206093Y-81534955D01*
X122195441Y-81526929D01*
X122194809Y-81526917D01*
X122188505Y-81530705D01*
X121480296Y-82238914D01*
X121474242Y-82250797D01*
X120744946Y-82250797D01*
X120745758Y-82249203D01*
X120744962Y-82244172D01*
X120033987Y-81533197D01*
X120022104Y-81527143D01*
X120021482Y-81527241D01*
X120015929Y-81532068D01*
X119975394Y-81589957D01*
X119971082Y-81597427D01*
X119878015Y-81797009D01*
X119875069Y-81805102D01*
X119818070Y-82017824D01*
X119816574Y-82026312D01*
X119797381Y-82245691D01*
X119797381Y-82254309D01*
X108400500Y-82254309D01*
X108400500Y-79718440D01*
X119904770Y-79718440D01*
X119908574Y-79776480D01*
X119918794Y-79932403D01*
X119919200Y-79938604D01*
X119920316Y-79942997D01*
X119920316Y-79942999D01*
X119969890Y-80138193D01*
X119973511Y-80152452D01*
X120065883Y-80352821D01*
X120193222Y-80533002D01*
X120351264Y-80686961D01*
X120534717Y-80809540D01*
X120627951Y-80849596D01*
X120673950Y-80889937D01*
X120687454Y-80949613D01*
X120663302Y-81005830D01*
X120630708Y-81030279D01*
X120457427Y-81111082D01*
X120449957Y-81115394D01*
X120394955Y-81153907D01*
X120386929Y-81164559D01*
X120386917Y-81165191D01*
X120390705Y-81171495D01*
X121098914Y-81879704D01*
X121110797Y-81885758D01*
X121115828Y-81884962D01*
X121826803Y-81173987D01*
X121832857Y-81162104D01*
X121832759Y-81161482D01*
X121827932Y-81155929D01*
X121770043Y-81115394D01*
X121762582Y-81111087D01*
X121594862Y-81032878D01*
X121550114Y-80991149D01*
X121538439Y-80931088D01*
X121564297Y-80875635D01*
X121596333Y-80852784D01*
X121600379Y-80851410D01*
X121604339Y-80849193D01*
X121604342Y-80849191D01*
X121788925Y-80745819D01*
X121792884Y-80743602D01*
X121962518Y-80602518D01*
X122103602Y-80432884D01*
X122163389Y-80326126D01*
X122208319Y-80284594D01*
X122249766Y-80275500D01*
X126216680Y-80275500D01*
X126276535Y-80295644D01*
X126321836Y-80330030D01*
X126321843Y-80330034D01*
X126327217Y-80334113D01*
X126467453Y-80389636D01*
X126557228Y-80400500D01*
X127667772Y-80400500D01*
X127757547Y-80389636D01*
X127897783Y-80334113D01*
X127903158Y-80330033D01*
X127903160Y-80330032D01*
X128012543Y-80247005D01*
X128017922Y-80242922D01*
X128036771Y-80218090D01*
X128105032Y-80128160D01*
X128105033Y-80128158D01*
X128109113Y-80122783D01*
X128114164Y-80110027D01*
X128157952Y-79999429D01*
X128196953Y-79952285D01*
X128256216Y-79937068D01*
X128313105Y-79959592D01*
X128342048Y-79999429D01*
X128385837Y-80110027D01*
X128390887Y-80122783D01*
X128394967Y-80128158D01*
X128394968Y-80128160D01*
X128463229Y-80218090D01*
X128482078Y-80242922D01*
X128487457Y-80247005D01*
X128596840Y-80330032D01*
X128596842Y-80330033D01*
X128602217Y-80334113D01*
X128742453Y-80389636D01*
X128832228Y-80400500D01*
X129942772Y-80400500D01*
X130032547Y-80389636D01*
X130172783Y-80334113D01*
X130178158Y-80330033D01*
X130178160Y-80330032D01*
X130287543Y-80247005D01*
X130292922Y-80242922D01*
X130311771Y-80218090D01*
X130380032Y-80128160D01*
X130380033Y-80128158D01*
X130384113Y-80122783D01*
X130389164Y-80110027D01*
X130402104Y-80077343D01*
X130436915Y-79989420D01*
X130475915Y-79942277D01*
X130535178Y-79927060D01*
X130556722Y-79930975D01*
X130562213Y-79933553D01*
X130572350Y-79935131D01*
X130591866Y-79940252D01*
X130594866Y-79941377D01*
X130594868Y-79941377D01*
X130601469Y-79943852D01*
X130648954Y-79947381D01*
X130656842Y-79948287D01*
X130667278Y-79949912D01*
X130667286Y-79949913D01*
X130671059Y-79950500D01*
X130687258Y-79950500D01*
X130694595Y-79950772D01*
X130744441Y-79954476D01*
X130751336Y-79953004D01*
X130751338Y-79953004D01*
X130752850Y-79952681D01*
X130773517Y-79950500D01*
X131222784Y-79950500D01*
X131235485Y-79951919D01*
X131235487Y-79951897D01*
X131242519Y-79952463D01*
X131249397Y-79954019D01*
X131303051Y-79950690D01*
X131309183Y-79950500D01*
X131325890Y-79950500D01*
X131329377Y-79950001D01*
X131329385Y-79950000D01*
X131337071Y-79948899D01*
X131344974Y-79948089D01*
X131385451Y-79945578D01*
X131385454Y-79945577D01*
X131392488Y-79945141D01*
X131399117Y-79942748D01*
X131399121Y-79942747D01*
X131402137Y-79941658D01*
X131421713Y-79936777D01*
X131422905Y-79936606D01*
X131424886Y-79936323D01*
X131424887Y-79936323D01*
X131431868Y-79935323D01*
X131438287Y-79932404D01*
X131438292Y-79932403D01*
X131475207Y-79915619D01*
X131482565Y-79912623D01*
X131498839Y-79906748D01*
X131527337Y-79896460D01*
X131535622Y-79890408D01*
X131553036Y-79880232D01*
X131562378Y-79875984D01*
X131578291Y-79862272D01*
X131598445Y-79844907D01*
X131604666Y-79839967D01*
X131605096Y-79839653D01*
X131616286Y-79831478D01*
X131627750Y-79820014D01*
X131633131Y-79815019D01*
X131665643Y-79787005D01*
X131665644Y-79787004D01*
X131670987Y-79782400D01*
X131675661Y-79775189D01*
X131688732Y-79759032D01*
X131943267Y-79504497D01*
X131997784Y-79476720D01*
X132013271Y-79475501D01*
X162640677Y-79475501D01*
X162698868Y-79494408D01*
X162734832Y-79543908D01*
X162738896Y-79586908D01*
X162719669Y-79739104D01*
X162720209Y-79744612D01*
X162720209Y-79744614D01*
X162728785Y-79832078D01*
X162736647Y-79912256D01*
X162738393Y-79917504D01*
X162738393Y-79917505D01*
X162749834Y-79951897D01*
X162791564Y-80077343D01*
X162794429Y-80082074D01*
X162794431Y-80082078D01*
X162878825Y-80221429D01*
X162878828Y-80221433D01*
X162881692Y-80226162D01*
X162885534Y-80230141D01*
X162885536Y-80230143D01*
X162933204Y-80279504D01*
X163002550Y-80351314D01*
X163018987Y-80362070D01*
X163132536Y-80436374D01*
X163148132Y-80446580D01*
X163311202Y-80507226D01*
X163316688Y-80507958D01*
X163316692Y-80507959D01*
X163471759Y-80528649D01*
X163483656Y-80530236D01*
X163489164Y-80529735D01*
X163494705Y-80529851D01*
X163494663Y-80531854D01*
X163546101Y-80543545D01*
X163565404Y-80558573D01*
X167941750Y-84934919D01*
X167970272Y-84995259D01*
X167986647Y-85162256D01*
X167988393Y-85167504D01*
X167988393Y-85167505D01*
X167990412Y-85173575D01*
X168041564Y-85327343D01*
X168044429Y-85332074D01*
X168044431Y-85332078D01*
X168128825Y-85471429D01*
X168128828Y-85471433D01*
X168131692Y-85476162D01*
X168252550Y-85601314D01*
X168257179Y-85604343D01*
X168379278Y-85684242D01*
X168398132Y-85696580D01*
X168561202Y-85757226D01*
X168566688Y-85757958D01*
X168566692Y-85757959D01*
X168721759Y-85778649D01*
X168733656Y-85780236D01*
X168739161Y-85779735D01*
X168739164Y-85779735D01*
X168901412Y-85764969D01*
X168901416Y-85764968D01*
X168906923Y-85764467D01*
X168912184Y-85762758D01*
X168912187Y-85762757D01*
X168987046Y-85738434D01*
X169072390Y-85710704D01*
X169221833Y-85621618D01*
X169256021Y-85589061D01*
X169343814Y-85505457D01*
X169343816Y-85505455D01*
X169347826Y-85501636D01*
X169444107Y-85356722D01*
X169505889Y-85194079D01*
X169509433Y-85168867D01*
X169529670Y-85024871D01*
X169530103Y-85021790D01*
X169530407Y-85000000D01*
X169526569Y-84965784D01*
X169511630Y-84832599D01*
X169511629Y-84832596D01*
X169511013Y-84827102D01*
X169453796Y-84662797D01*
X169361600Y-84515252D01*
X169239006Y-84391799D01*
X169183101Y-84356321D01*
X169096778Y-84301538D01*
X169096773Y-84301536D01*
X169092108Y-84298575D01*
X169086900Y-84296721D01*
X169086897Y-84296719D01*
X168933416Y-84242067D01*
X168933417Y-84242067D01*
X168928207Y-84240212D01*
X168922720Y-84239558D01*
X168922717Y-84239557D01*
X168760945Y-84220267D01*
X168760941Y-84220267D01*
X168755448Y-84219612D01*
X168752742Y-84219896D01*
X168695649Y-84200904D01*
X168684392Y-84191223D01*
X164309128Y-79815959D01*
X164281351Y-79761442D01*
X164280379Y-79752036D01*
X164280407Y-79750000D01*
X164261959Y-79585537D01*
X164274262Y-79525601D01*
X164319444Y-79484343D01*
X164360342Y-79475501D01*
X166158479Y-79475501D01*
X166216670Y-79494408D01*
X166228483Y-79504497D01*
X169620406Y-82896420D01*
X169628380Y-82906400D01*
X169628397Y-82906385D01*
X169632967Y-82911755D01*
X169636731Y-82917721D01*
X169642016Y-82922389D01*
X169642019Y-82922392D01*
X169677009Y-82953293D01*
X169681479Y-82957493D01*
X169693307Y-82969321D01*
X169702351Y-82976099D01*
X169708500Y-82981105D01*
X169744189Y-83012624D01*
X169753472Y-83016983D01*
X169770767Y-83027374D01*
X169778977Y-83033527D01*
X169785583Y-83036003D01*
X169785584Y-83036004D01*
X169823553Y-83050238D01*
X169830875Y-83053324D01*
X169867576Y-83070555D01*
X169867577Y-83070555D01*
X169873964Y-83073554D01*
X169884101Y-83075132D01*
X169903617Y-83080253D01*
X169906617Y-83081378D01*
X169906619Y-83081378D01*
X169913220Y-83083853D01*
X169960705Y-83087382D01*
X169968593Y-83088288D01*
X169979029Y-83089913D01*
X169979037Y-83089914D01*
X169982810Y-83090501D01*
X169999010Y-83090501D01*
X170006347Y-83090773D01*
X170056193Y-83094477D01*
X170063088Y-83093005D01*
X170063090Y-83093005D01*
X170064602Y-83092682D01*
X170085269Y-83090501D01*
X170436285Y-83090501D01*
X170494476Y-83109408D01*
X170530224Y-83158253D01*
X170541564Y-83192343D01*
X170544429Y-83197074D01*
X170544431Y-83197078D01*
X170628825Y-83336429D01*
X170628828Y-83336433D01*
X170631692Y-83341162D01*
X170635534Y-83345141D01*
X170635536Y-83345143D01*
X170651837Y-83362023D01*
X170752550Y-83466314D01*
X170790644Y-83491242D01*
X170868104Y-83541930D01*
X170898132Y-83561580D01*
X171061202Y-83622226D01*
X171066688Y-83622958D01*
X171066692Y-83622959D01*
X171221759Y-83643649D01*
X171233656Y-83645236D01*
X171239161Y-83644735D01*
X171239164Y-83644735D01*
X171401412Y-83629969D01*
X171401416Y-83629968D01*
X171406923Y-83629467D01*
X171412184Y-83627758D01*
X171412187Y-83627757D01*
X171487046Y-83603434D01*
X171572390Y-83575704D01*
X171721833Y-83486618D01*
X171847826Y-83366636D01*
X171944107Y-83221722D01*
X172005889Y-83059079D01*
X172006936Y-83051633D01*
X172029670Y-82889871D01*
X172030103Y-82886790D01*
X172030407Y-82865000D01*
X172023789Y-82806003D01*
X172011630Y-82697599D01*
X172011629Y-82697596D01*
X172011013Y-82692102D01*
X171953796Y-82527797D01*
X171884349Y-82416658D01*
X171869547Y-82357290D01*
X171885847Y-82309410D01*
X171887031Y-82307628D01*
X171944107Y-82221722D01*
X172005889Y-82059079D01*
X172012589Y-82011412D01*
X172029670Y-81889871D01*
X172030103Y-81886790D01*
X172030407Y-81865000D01*
X172023688Y-81805102D01*
X172011630Y-81697599D01*
X172011629Y-81697596D01*
X172011013Y-81692102D01*
X171953796Y-81527797D01*
X171861600Y-81380252D01*
X171739006Y-81256799D01*
X171631658Y-81188674D01*
X171596778Y-81166538D01*
X171596773Y-81166536D01*
X171592108Y-81163575D01*
X171586900Y-81161721D01*
X171586897Y-81161719D01*
X171456801Y-81115394D01*
X171428207Y-81105212D01*
X171422720Y-81104558D01*
X171422717Y-81104557D01*
X171260944Y-81085267D01*
X171260941Y-81085267D01*
X171255448Y-81084612D01*
X171082419Y-81102798D01*
X171045419Y-81115394D01*
X170922955Y-81157084D01*
X170922951Y-81157086D01*
X170917719Y-81158867D01*
X170893142Y-81173987D01*
X170774248Y-81247130D01*
X170774246Y-81247132D01*
X170769533Y-81250031D01*
X170645228Y-81371760D01*
X170550980Y-81518004D01*
X170549088Y-81523201D01*
X170549088Y-81523202D01*
X170535561Y-81560368D01*
X170497892Y-81608583D01*
X170439077Y-81625449D01*
X170381581Y-81604523D01*
X170372527Y-81596513D01*
X166994594Y-78218580D01*
X166986620Y-78208600D01*
X166986603Y-78208615D01*
X166982033Y-78203245D01*
X166978269Y-78197279D01*
X166972984Y-78192611D01*
X166972981Y-78192608D01*
X166937991Y-78161707D01*
X166933521Y-78157507D01*
X166921693Y-78145679D01*
X166912646Y-78138899D01*
X166906500Y-78133895D01*
X166870811Y-78102376D01*
X166861528Y-78098017D01*
X166844233Y-78087626D01*
X166836023Y-78081473D01*
X166814246Y-78073309D01*
X166791453Y-78064764D01*
X166784133Y-78061679D01*
X166747425Y-78044445D01*
X166747421Y-78044444D01*
X166741036Y-78041446D01*
X166734068Y-78040361D01*
X166734064Y-78040360D01*
X166730907Y-78039869D01*
X166711379Y-78034746D01*
X166708379Y-78033621D01*
X166708377Y-78033621D01*
X166701779Y-78031147D01*
X166654291Y-78027618D01*
X166646406Y-78026712D01*
X166635971Y-78025087D01*
X166635963Y-78025086D01*
X166632190Y-78024499D01*
X166615990Y-78024499D01*
X166608654Y-78024227D01*
X166605364Y-78023983D01*
X166558807Y-78020523D01*
X166551912Y-78021995D01*
X166551910Y-78021995D01*
X166550398Y-78022318D01*
X166529731Y-78024499D01*
X132013271Y-78024499D01*
X131955080Y-78005592D01*
X131943267Y-77995503D01*
X131691345Y-77743581D01*
X131683371Y-77733601D01*
X131683354Y-77733616D01*
X131678784Y-77728246D01*
X131675020Y-77722280D01*
X131669735Y-77717612D01*
X131669732Y-77717609D01*
X131634742Y-77686708D01*
X131630272Y-77682508D01*
X131618444Y-77670680D01*
X131609397Y-77663900D01*
X131603251Y-77658896D01*
X131567562Y-77627377D01*
X131558279Y-77623018D01*
X131540984Y-77612627D01*
X131532774Y-77606474D01*
X131510997Y-77598310D01*
X131488204Y-77589765D01*
X131480884Y-77586680D01*
X131444176Y-77569446D01*
X131444172Y-77569445D01*
X131437787Y-77566447D01*
X131430819Y-77565362D01*
X131430815Y-77565361D01*
X131427658Y-77564870D01*
X131408130Y-77559747D01*
X131405130Y-77558622D01*
X131405128Y-77558622D01*
X131398530Y-77556148D01*
X131351042Y-77552619D01*
X131343157Y-77551713D01*
X131332722Y-77550088D01*
X131332714Y-77550087D01*
X131328941Y-77549500D01*
X131312741Y-77549500D01*
X131305405Y-77549228D01*
X131302115Y-77548984D01*
X131255558Y-77545524D01*
X131248663Y-77546996D01*
X131248661Y-77546996D01*
X131247149Y-77547319D01*
X131226482Y-77549500D01*
X130777211Y-77549500D01*
X130764514Y-77548081D01*
X130764512Y-77548104D01*
X130757480Y-77547538D01*
X130750602Y-77545982D01*
X130696957Y-77549310D01*
X130690827Y-77549500D01*
X130674110Y-77549500D01*
X130670630Y-77549998D01*
X130670620Y-77549999D01*
X130662914Y-77551102D01*
X130655018Y-77551911D01*
X130614551Y-77554422D01*
X130614550Y-77554422D01*
X130607511Y-77554859D01*
X130597859Y-77558343D01*
X130578284Y-77563223D01*
X130568132Y-77564677D01*
X130561709Y-77567597D01*
X130556710Y-77569059D01*
X130495551Y-77567243D01*
X130447140Y-77529827D01*
X130436876Y-77510482D01*
X130386598Y-77383493D01*
X130386597Y-77383492D01*
X130384113Y-77377217D01*
X130292922Y-77257078D01*
X130287543Y-77252995D01*
X130178160Y-77169968D01*
X130178158Y-77169967D01*
X130172783Y-77165887D01*
X130032547Y-77110364D01*
X129942772Y-77099500D01*
X128868842Y-77099500D01*
X128810651Y-77080593D01*
X128783630Y-77050897D01*
X128771250Y-77029965D01*
X128771249Y-77029964D01*
X128768081Y-77024607D01*
X128751682Y-77008208D01*
X128741593Y-76996395D01*
X128731622Y-76982671D01*
X128731621Y-76982670D01*
X128727963Y-76977635D01*
X128723169Y-76973669D01*
X128723166Y-76973666D01*
X128691884Y-76947788D01*
X128684985Y-76941511D01*
X126591472Y-74847998D01*
X126585197Y-74841101D01*
X126582065Y-74837315D01*
X126578730Y-74832060D01*
X126574193Y-74827800D01*
X126574191Y-74827797D01*
X126527433Y-74783889D01*
X126525199Y-74781725D01*
X126504563Y-74761089D01*
X126500144Y-74757661D01*
X126493068Y-74751618D01*
X126458921Y-74719552D01*
X126447416Y-74713227D01*
X126438603Y-74708382D01*
X126425616Y-74699851D01*
X126412216Y-74689457D01*
X126412213Y-74689455D01*
X126407292Y-74685638D01*
X126364313Y-74667040D01*
X126355939Y-74662937D01*
X126320355Y-74643374D01*
X126320354Y-74643374D01*
X126314896Y-74640373D01*
X126308865Y-74638825D01*
X126308861Y-74638823D01*
X126292434Y-74634606D01*
X126277733Y-74629573D01*
X126262169Y-74622837D01*
X126262161Y-74622835D01*
X126256454Y-74620365D01*
X126250308Y-74619391D01*
X126250306Y-74619391D01*
X126235188Y-74616997D01*
X126210199Y-74613039D01*
X126201072Y-74611148D01*
X126161738Y-74601048D01*
X126161730Y-74601047D01*
X126155705Y-74599500D01*
X126132516Y-74599500D01*
X126117028Y-74598281D01*
X126100274Y-74595627D01*
X126100272Y-74595627D01*
X126094123Y-74594653D01*
X126055745Y-74598281D01*
X126047494Y-74599061D01*
X126038177Y-74599500D01*
X122359499Y-74599500D01*
X122301308Y-74580593D01*
X122265344Y-74531093D01*
X122260499Y-74500500D01*
X122260499Y-74418482D01*
X122245646Y-74324696D01*
X122207586Y-74250000D01*
X122191586Y-74218597D01*
X122191585Y-74218595D01*
X122188050Y-74211658D01*
X122098342Y-74121950D01*
X122091405Y-74118415D01*
X122091403Y-74118414D01*
X121992244Y-74067890D01*
X121992243Y-74067890D01*
X121985304Y-74064354D01*
X121977610Y-74063135D01*
X121977609Y-74063135D01*
X121895365Y-74050109D01*
X121895363Y-74050109D01*
X121891519Y-74049500D01*
X121110101Y-74049500D01*
X120328482Y-74049501D01*
X120324639Y-74050110D01*
X120324634Y-74050110D01*
X120287783Y-74055947D01*
X120234696Y-74064354D01*
X120191668Y-74086278D01*
X120128597Y-74118414D01*
X120128595Y-74118415D01*
X120121658Y-74121950D01*
X120031950Y-74211658D01*
X120028415Y-74218595D01*
X120028414Y-74218597D01*
X120010826Y-74253116D01*
X119974354Y-74324696D01*
X119959500Y-74418481D01*
X119959501Y-76081518D01*
X119974354Y-76175304D01*
X120031950Y-76288342D01*
X120121658Y-76378050D01*
X120128595Y-76381585D01*
X120128597Y-76381586D01*
X120227756Y-76432110D01*
X120234696Y-76435646D01*
X120242390Y-76436865D01*
X120242391Y-76436865D01*
X120324635Y-76449891D01*
X120324637Y-76449891D01*
X120328481Y-76450500D01*
X120609341Y-76450500D01*
X120667532Y-76469407D01*
X120703496Y-76518907D01*
X120703496Y-76580093D01*
X120667532Y-76629593D01*
X120643606Y-76642381D01*
X120595220Y-76660231D01*
X120595217Y-76660232D01*
X120590957Y-76661804D01*
X120587054Y-76664126D01*
X120587052Y-76664127D01*
X120568412Y-76675217D01*
X120401341Y-76774614D01*
X120397926Y-76777609D01*
X120397923Y-76777611D01*
X120305497Y-76858667D01*
X120235457Y-76920090D01*
X120232649Y-76923652D01*
X120102529Y-77088710D01*
X120098863Y-77093360D01*
X120096749Y-77097378D01*
X120058916Y-77169287D01*
X119996131Y-77288620D01*
X119930703Y-77499333D01*
X119930169Y-77503843D01*
X119930169Y-77503844D01*
X119915902Y-77624382D01*
X119904770Y-77718440D01*
X119919200Y-77938604D01*
X119920316Y-77942997D01*
X119920316Y-77942999D01*
X119960793Y-78102376D01*
X119973511Y-78152452D01*
X120065883Y-78352821D01*
X120193222Y-78533002D01*
X120196468Y-78536164D01*
X120345625Y-78681468D01*
X120374113Y-78735617D01*
X120365333Y-78796169D01*
X120341818Y-78826814D01*
X120235457Y-78920090D01*
X120232649Y-78923652D01*
X120120521Y-79065887D01*
X120098863Y-79093360D01*
X120096749Y-79097378D01*
X120018978Y-79245196D01*
X119996131Y-79288620D01*
X119994787Y-79292949D01*
X119935358Y-79484343D01*
X119930703Y-79499333D01*
X119930169Y-79503843D01*
X119930169Y-79503844D01*
X119905303Y-79713936D01*
X119904770Y-79718440D01*
X108400500Y-79718440D01*
X108400500Y-73769909D01*
X117175130Y-73769909D01*
X117175584Y-73772780D01*
X117177779Y-73775534D01*
X117214388Y-73806144D01*
X117219823Y-73810092D01*
X117446040Y-73951997D01*
X117451976Y-73955181D01*
X117695363Y-74065074D01*
X117701661Y-74067417D01*
X117957718Y-74143264D01*
X117964270Y-74144729D01*
X118228248Y-74185123D01*
X118234954Y-74185686D01*
X118501973Y-74189881D01*
X118508677Y-74189530D01*
X118773789Y-74157448D01*
X118780412Y-74156184D01*
X119038707Y-74088421D01*
X119045077Y-74086278D01*
X119291805Y-73984080D01*
X119297822Y-73981093D01*
X119528394Y-73846357D01*
X119533949Y-73842582D01*
X119616572Y-73777797D01*
X119624012Y-73766726D01*
X119623936Y-73764653D01*
X119621277Y-73760487D01*
X118411086Y-72550296D01*
X118399203Y-72544242D01*
X118394172Y-72545038D01*
X117181184Y-73758026D01*
X117175130Y-73769909D01*
X108400500Y-73769909D01*
X108400500Y-72162293D01*
X116387612Y-72162293D01*
X116402985Y-72428897D01*
X116403827Y-72435560D01*
X116455239Y-72697611D01*
X116456981Y-72704113D01*
X116543484Y-72956769D01*
X116546084Y-72962955D01*
X116666077Y-73201535D01*
X116669503Y-73207326D01*
X116800727Y-73398257D01*
X116811310Y-73406379D01*
X116811706Y-73406389D01*
X116818358Y-73402432D01*
X118029704Y-72191086D01*
X118034946Y-72180797D01*
X118764242Y-72180797D01*
X118765038Y-72185828D01*
X119977456Y-73398246D01*
X119989339Y-73404300D01*
X119990560Y-73404107D01*
X119995402Y-73399993D01*
X120097377Y-73261170D01*
X120100979Y-73255495D01*
X120228403Y-73020808D01*
X120231204Y-73014690D01*
X120276276Y-72895411D01*
X136642001Y-72895411D01*
X136642290Y-72900751D01*
X136648078Y-72954035D01*
X136650927Y-72966020D01*
X136697351Y-73089855D01*
X136704059Y-73102108D01*
X136782863Y-73207256D01*
X136792744Y-73217137D01*
X136897892Y-73295941D01*
X136910145Y-73302649D01*
X137033978Y-73349072D01*
X137045967Y-73351923D01*
X137099252Y-73357711D01*
X137104586Y-73358000D01*
X137730320Y-73358000D01*
X137743005Y-73353878D01*
X137746000Y-73349757D01*
X137746000Y-72269680D01*
X137741878Y-72256995D01*
X137737757Y-72254000D01*
X136657681Y-72254000D01*
X136644996Y-72258122D01*
X136642001Y-72262243D01*
X136642001Y-72895411D01*
X120276276Y-72895411D01*
X120325599Y-72764882D01*
X120327541Y-72758447D01*
X120387158Y-72498145D01*
X120388212Y-72491493D01*
X120412079Y-72224079D01*
X120412271Y-72220222D01*
X120412672Y-72181937D01*
X120412560Y-72178065D01*
X120394299Y-71910211D01*
X120393385Y-71903540D01*
X120357513Y-71730320D01*
X136642000Y-71730320D01*
X136646122Y-71743005D01*
X136650243Y-71746000D01*
X137730320Y-71746000D01*
X137743005Y-71741878D01*
X137746000Y-71737757D01*
X137746000Y-69729680D01*
X137741878Y-69716995D01*
X137737757Y-69714000D01*
X136680790Y-69714000D01*
X136668460Y-69718006D01*
X136668043Y-69727014D01*
X136698807Y-69863524D01*
X136701231Y-69871258D01*
X136782183Y-70070620D01*
X136785840Y-70077860D01*
X136898266Y-70261322D01*
X136903056Y-70267867D01*
X137043935Y-70430502D01*
X137049730Y-70436177D01*
X137095114Y-70473856D01*
X137127808Y-70525574D01*
X137123859Y-70586632D01*
X137084775Y-70633707D01*
X137051676Y-70645265D01*
X137052003Y-70646642D01*
X137033980Y-70650927D01*
X136910145Y-70697351D01*
X136897892Y-70704059D01*
X136792744Y-70782863D01*
X136782863Y-70792744D01*
X136704059Y-70897892D01*
X136697351Y-70910145D01*
X136650928Y-71033978D01*
X136648077Y-71045967D01*
X136642289Y-71099252D01*
X136642000Y-71104586D01*
X136642000Y-71730320D01*
X120357513Y-71730320D01*
X120339233Y-71642046D01*
X120337424Y-71635569D01*
X120248282Y-71383841D01*
X120245612Y-71377670D01*
X120123136Y-71140375D01*
X120119644Y-71134609D01*
X119998630Y-70962424D01*
X119987964Y-70954416D01*
X119987286Y-70954406D01*
X119981051Y-70958159D01*
X118770296Y-72168914D01*
X118764242Y-72180797D01*
X118034946Y-72180797D01*
X118035758Y-72179203D01*
X118034962Y-72174172D01*
X116822088Y-70961298D01*
X116810205Y-70955244D01*
X116809258Y-70955394D01*
X116804090Y-70959832D01*
X116691398Y-71116658D01*
X116687849Y-71122383D01*
X116562893Y-71358382D01*
X116560153Y-71364536D01*
X116468384Y-71615311D01*
X116466507Y-71621772D01*
X116409617Y-71882685D01*
X116408635Y-71889337D01*
X116387683Y-72155560D01*
X116387612Y-72162293D01*
X108400500Y-72162293D01*
X108400500Y-70593048D01*
X117175828Y-70593048D01*
X117175939Y-70595398D01*
X117178364Y-70599154D01*
X118388914Y-71809704D01*
X118400797Y-71815758D01*
X118405828Y-71814962D01*
X119618330Y-70602460D01*
X119624384Y-70590577D01*
X119623973Y-70587979D01*
X119621467Y-70584868D01*
X119568528Y-70541537D01*
X119563033Y-70537633D01*
X119335347Y-70398107D01*
X119329390Y-70394992D01*
X119084858Y-70287650D01*
X119078531Y-70285373D01*
X118821714Y-70212216D01*
X118815115Y-70210814D01*
X118550750Y-70173189D01*
X118544034Y-70172695D01*
X118276982Y-70171298D01*
X118270288Y-70171719D01*
X118005528Y-70206575D01*
X117998915Y-70207908D01*
X117741351Y-70278370D01*
X117734985Y-70280587D01*
X117489366Y-70385352D01*
X117483358Y-70388413D01*
X117254225Y-70525547D01*
X117248697Y-70529389D01*
X117183150Y-70581901D01*
X117175828Y-70593048D01*
X108400500Y-70593048D01*
X108400500Y-69195384D01*
X136664056Y-69195384D01*
X136665756Y-69203462D01*
X136667566Y-69205098D01*
X136671792Y-69206000D01*
X137730320Y-69206000D01*
X137743005Y-69201878D01*
X137746000Y-69197757D01*
X137746000Y-68140667D01*
X137741878Y-68127982D01*
X137740877Y-68127254D01*
X137734549Y-68126739D01*
X137688220Y-68133829D01*
X137680348Y-68135705D01*
X137475807Y-68202558D01*
X137468350Y-68205693D01*
X137277479Y-68305054D01*
X137270627Y-68309369D01*
X137098544Y-68438573D01*
X137092491Y-68443947D01*
X136943830Y-68599513D01*
X136938727Y-68605814D01*
X136817466Y-68783575D01*
X136813468Y-68790613D01*
X136722871Y-68985790D01*
X136720073Y-68993394D01*
X136664056Y-69195384D01*
X108400500Y-69195384D01*
X108400500Y-67039309D01*
X108401719Y-67023822D01*
X108404273Y-67007697D01*
X108405492Y-67000000D01*
X108403830Y-66989505D01*
X108402863Y-66966958D01*
X108404012Y-66950904D01*
X108416276Y-66779431D01*
X108418286Y-66765450D01*
X108463787Y-66556285D01*
X108467767Y-66542732D01*
X108542571Y-66342175D01*
X108548439Y-66329326D01*
X108552333Y-66322196D01*
X108651019Y-66141465D01*
X108658654Y-66129584D01*
X108786936Y-65958219D01*
X108796186Y-65947543D01*
X108947543Y-65796186D01*
X108958219Y-65786936D01*
X109129584Y-65658654D01*
X109141466Y-65651018D01*
X109329326Y-65548439D01*
X109342175Y-65542571D01*
X109542732Y-65467767D01*
X109556285Y-65463787D01*
X109765450Y-65418286D01*
X109779431Y-65416276D01*
X109865051Y-65410152D01*
X109966960Y-65402863D01*
X109989505Y-65403830D01*
X110000000Y-65405492D01*
X110023823Y-65401719D01*
X110039309Y-65400500D01*
X193960691Y-65400500D01*
X193976177Y-65401719D01*
G37*
%TD.AperFunction*%
%TA.AperFunction,Conductor*%
G36*
X161416040Y-113191667D02*
G01*
X161448326Y-113213196D01*
X161910364Y-113675234D01*
X161938141Y-113729751D01*
X161928570Y-113790183D01*
X161910368Y-113815237D01*
X161907868Y-113817737D01*
X161829059Y-113922892D01*
X161822351Y-113935145D01*
X161775928Y-114058978D01*
X161773077Y-114070967D01*
X161767289Y-114124252D01*
X161767000Y-114129586D01*
X161767000Y-114755320D01*
X161771122Y-114768005D01*
X161775243Y-114771000D01*
X162855320Y-114771000D01*
X162868005Y-114766878D01*
X162871000Y-114762757D01*
X162871000Y-114374500D01*
X162889907Y-114316309D01*
X162939407Y-114280345D01*
X162970000Y-114275500D01*
X163280000Y-114275500D01*
X163338191Y-114294407D01*
X163374155Y-114343907D01*
X163379000Y-114374500D01*
X163379000Y-115180000D01*
X163360093Y-115238191D01*
X163310593Y-115274155D01*
X163280000Y-115279000D01*
X161813178Y-115279000D01*
X161754987Y-115260093D01*
X161743174Y-115250004D01*
X161054496Y-114561327D01*
X161026719Y-114506810D01*
X161025500Y-114491323D01*
X161025500Y-113862942D01*
X161044407Y-113804751D01*
X161056228Y-113791249D01*
X161097826Y-113751636D01*
X161112367Y-113729751D01*
X161191046Y-113611329D01*
X161194107Y-113606722D01*
X161255889Y-113444079D01*
X161258883Y-113422781D01*
X161280103Y-113271790D01*
X161281129Y-113271934D01*
X161302924Y-113219043D01*
X161355035Y-113186978D01*
X161416040Y-113191667D01*
G37*
%TD.AperFunction*%
%TA.AperFunction,Conductor*%
G36*
X163338191Y-112249907D02*
G01*
X163374155Y-112299407D01*
X163379000Y-112330000D01*
X163379000Y-113125500D01*
X163360093Y-113183691D01*
X163310593Y-113219655D01*
X163280000Y-113224500D01*
X162986976Y-113224500D01*
X162928785Y-113205593D01*
X162916972Y-113195504D01*
X162899996Y-113178528D01*
X162872219Y-113124011D01*
X162871000Y-113108524D01*
X162871000Y-112330000D01*
X162889907Y-112271809D01*
X162939407Y-112235845D01*
X162970000Y-112231000D01*
X163280000Y-112231000D01*
X163338191Y-112249907D01*
G37*
%TD.AperFunction*%
%TA.AperFunction,Conductor*%
G36*
X125935404Y-78294407D02*
G01*
X125971368Y-78343907D01*
X125972282Y-78402121D01*
X125949382Y-78480943D01*
X125949757Y-78492882D01*
X125959892Y-78496000D01*
X126514073Y-78496000D01*
X126525967Y-78496717D01*
X126557228Y-78500500D01*
X127267500Y-78500500D01*
X127325691Y-78519407D01*
X127361655Y-78568907D01*
X127366500Y-78599500D01*
X127366500Y-78900500D01*
X127347593Y-78958691D01*
X127298093Y-78994655D01*
X127267500Y-78999500D01*
X126557228Y-78999500D01*
X126529223Y-79002889D01*
X126525967Y-79003283D01*
X126514073Y-79004000D01*
X125960687Y-79004000D01*
X125949326Y-79007691D01*
X125949160Y-79018293D01*
X125972282Y-79097879D01*
X125970360Y-79159034D01*
X125932860Y-79207381D01*
X125877213Y-79224500D01*
X122251050Y-79224500D01*
X122192859Y-79205593D01*
X122162260Y-79169287D01*
X122154230Y-79153004D01*
X122137980Y-79120053D01*
X122005967Y-78943267D01*
X121942968Y-78885031D01*
X121874247Y-78821506D01*
X121844350Y-78768122D01*
X121851542Y-78707361D01*
X121878143Y-78672693D01*
X121959024Y-78605424D01*
X121962518Y-78602518D01*
X122103602Y-78432884D01*
X122163389Y-78326126D01*
X122208319Y-78284594D01*
X122249766Y-78275500D01*
X125877213Y-78275500D01*
X125935404Y-78294407D01*
G37*
%TD.AperFunction*%
%TD*%
M02*
